<svg width="170" height="36" viewBox="0 0 170 36" fill="none" xmlns="http://www.w3.org/2000/svg">
    <path d="M100.915 8.84616H98.2627V35H107.989V32.8205H100.915V8.84616Z" fill="white"/>
    <path fill-rule="evenodd" clip-rule="evenodd"
          d="M97.7627 8.34616H101.415V32.3205H108.489V35.5H97.7627V8.34616ZM98.7627 9.34616V34.5H107.489V33.3205H100.415V9.34616H98.7627Z"
          fill="white"/>
    <path d="M67.3154 11.4615V8.84616H80.5786V11.4615H75.7154V35H72.6207V11.4615H67.3154Z" fill="white"/>
    <path fill-rule="evenodd" clip-rule="evenodd"
          d="M66.8154 8.34616H81.0786V11.9615H76.2154V35.5H72.1207V11.9615H66.8154V8.34616ZM67.8154 9.34616V10.9615H73.1207V34.5H75.2154V10.9615H80.0786V9.34616H67.8154Z"
          fill="white"/>
    <path d="M83.2314 35V8.84616H93.842V11.4615H85.8841V20.6154H92.9578V22.7949H85.8841V32.8205H93.842V35H83.2314Z" fill="white"/>
    <path fill-rule="evenodd" clip-rule="evenodd"
          d="M82.7314 8.34616H94.342V11.9615H86.3841V20.1154H93.4578V23.2949H86.3841V32.3205H94.342V35.5H82.7314V8.34616ZM83.7314 9.34616V34.5H93.342V33.3205H85.3841V22.2949H92.4578V21.1154H85.3841V10.9615H93.342V9.34616H83.7314Z"
          fill="white"/>
    <path d="M54.053 8.84616H51.4004V35H54.053V16.6923L62.0109 35H64.2214V8.84616H61.5688V26.718L54.053 8.84616Z" fill="white"/>
    <path fill-rule="evenodd" clip-rule="evenodd"
          d="M50.9004 8.34616H54.3852L61.0688 24.2392V8.34616H64.7214V35.5H61.6831L54.553 19.0969V35.5H50.9004V8.34616ZM51.9004 9.34616V34.5H53.553V16.6923L54.5116 16.493L62.3388 34.5H63.7214V9.34616H62.0688V26.718L61.1079 26.9118L53.7209 9.34616H51.9004Z"
          fill="white"/>
    <path d="M17.8 21.9231L1 11.4615V22.7949L17.8 33.2564V21.9231Z" fill="#33BE3D"/>
    <path d="M46.095 8.84616H43.4424V35H46.095V8.84616Z" fill="white"/>
    <path fill-rule="evenodd" clip-rule="evenodd"
          d="M42.9424 8.34616H46.595V35.5H42.9424V8.34616ZM43.9424 9.34616V34.5H45.595V9.34616H43.9424Z" fill="white"/>
    <path d="M150.432 8.84616H147.779V35H150.432V8.84616Z" fill="white"/>
    <path fill-rule="evenodd" clip-rule="evenodd"
          d="M147.279 8.34616H150.932V35.5H147.279V8.34616ZM148.279 9.34616V34.5H149.932V9.34616H148.279Z" fill="white"/>
    <path d="M8.95789 14.9487L1 10.1538L15.1474 1L23.5474 5.79487L8.95789 14.9487Z" fill="white"/>
    <path fill-rule="evenodd" clip-rule="evenodd"
          d="M15.1315 0.414978L24.5208 5.77459L8.96359 15.5356L0.0566406 10.1689L15.1315 0.414978ZM15.164 1.585L1.94415 10.1387L8.95299 14.3618L22.5747 5.81513L15.164 1.585Z"
          fill="white"/>
    <path d="M31.0634 20.1795L38.1371 14.9487L24.8739 7.10257L10.7266 15.8205L19.5687 21.0513V35H31.0634V20.1795Z" fill="#091BAD"/>
    <path fill-rule="evenodd" clip-rule="evenodd"
          d="M114.179 8.84616C112.714 8.84616 111.526 10.0171 111.526 11.4615V32.3846C111.526 33.8291 112.714 35 114.179 35H123.021C124.486 35 125.674 33.8291 125.674 32.3846V11.4615C125.674 10.0171 124.486 8.84616 123.021 8.84616H114.179ZM115.063 11.4615C114.575 11.4615 114.179 11.8519 114.179 12.3333V31.5128C114.179 31.9943 114.575 32.3846 115.063 32.3846H122.137C122.625 32.3846 123.021 31.9943 123.021 31.5128V12.3333C123.021 11.8519 122.625 11.4615 122.137 11.4615H115.063Z"
          fill="white"/>
    <path d="M143.358 10.8462V15.8205H140.705V11.4615H132.747V32.3846H140.705V24.5385H136.726V21.9231H141.358C142.462 21.9231 143.358 22.8185 143.358 23.9231V33C143.358 34.1046 142.462 35 141.358 35H132.095C130.99 35 130.095 34.1046 130.095 33V10.8462C130.095 9.74159 130.99 8.84616 132.095 8.84616H141.358C142.462 8.84616 143.358 9.74159 143.358 10.8462Z"
          fill="white"/>
    <path fill-rule="evenodd" clip-rule="evenodd"
          d="M129.595 10.8462C129.595 9.46545 130.714 8.34616 132.095 8.34616H141.358C142.739 8.34616 143.858 9.46545 143.858 10.8462V16.3205H140.205V11.9615H133.247V31.8846H140.205V25.0385H136.226V21.4231H141.358C142.739 21.4231 143.858 22.5424 143.858 23.9231V33C143.858 34.3807 142.739 35.5 141.358 35.5H132.095C130.714 35.5 129.595 34.3807 129.595 33V10.8462ZM132.095 9.34616C131.266 9.34616 130.595 10.0177 130.595 10.8462V33C130.595 33.8284 131.266 34.5 132.095 34.5H141.358C142.186 34.5 142.858 33.8284 142.858 33V23.9231C142.858 23.0947 142.186 22.4231 141.358 22.4231H137.226V24.0385H141.205V32.8846H132.247V10.9615H141.205V15.3205H142.858V10.8462C142.858 10.0177 142.186 9.34616 141.358 9.34616H132.095Z"
          fill="white"/>
    <path d="M169 16.2564H166.348V11.4615H158.39V16.2564L168.307 24.8119C168.747 25.1918 169 25.7446 169 26.3263V33C169 34.1046 168.105 35 167 35H157.737C156.633 35 155.737 34.1046 155.737 33V27.1539H158.39V32.3846H166.348V27.1539L156.431 18.5984C155.99 18.2184 155.737 17.6656 155.737 17.084V10.8462C155.737 9.74159 156.633 8.84616 157.737 8.84616H167C168.105 8.84616 169 9.74159 169 10.8462V16.2564Z"
          fill="white"/>
    <path fill-rule="evenodd" clip-rule="evenodd"
          d="M155.237 10.8462C155.237 9.46545 156.357 8.34616 157.737 8.34616H167C168.381 8.34616 169.5 9.46545 169.5 10.8462V16.7564H165.848V11.9615H158.89V16.0274L168.634 24.4333C169.184 24.9082 169.5 25.5992 169.5 26.3263V33C169.5 34.3807 168.381 35.5 167 35.5H157.737C156.357 35.5 155.237 34.3807 155.237 33V26.6539H158.89V31.8846H165.848V27.3829L156.104 18.9769C155.554 18.502 155.237 17.811 155.237 17.084V10.8462ZM157.737 9.34616C156.909 9.34616 156.237 10.0177 156.237 10.8462V17.084C156.237 17.5202 156.427 17.9348 156.757 18.2198L166.848 26.9249V32.8846H157.89V27.6539H156.237V33C156.237 33.8284 156.909 34.5 157.737 34.5H167C167.829 34.5 168.5 33.8284 168.5 33V26.3263C168.5 25.89 168.311 25.4754 167.98 25.1905L157.89 16.4854V10.9615H166.848V15.7564H168.5V10.8462C168.5 10.0177 167.829 9.34616 167 9.34616H157.737Z"
          fill="white"/>
</svg>
