<svg width="40" height="40" viewBox="0 0 40 40" fill="none" xmlns="http://www.w3.org/2000/svg">
<path fill-rule="evenodd" clip-rule="evenodd" d="M31.375 17.0468H35.375C35.7202 17.0468 36 17.3267 36 17.6718V35.375C36 35.7201 35.7202 36 35.375 36H5.875C4.84113 36 4 35.1589 4 34.125V5.875C4 4.84113 4.84113 4 5.875 4H22.6234C22.7892 4.00002 22.9482 4.06587 23.0654 4.18306L29.0654 10.1832C29.1826 10.3005 29.2484 10.4594 29.2484 10.6252V18.9375C29.2484 19.2826 28.9686 19.5625 28.6234 19.5625C28.2782 19.5625 27.9984 19.2826 27.9984 18.9375V11.2502H23.8734C22.8396 11.2502 21.9984 10.4091 21.9984 9.37519V5.25H5.875C5.53038 5.25 5.25 5.53038 5.25 5.875V34.125C5.25 34.4696 5.53038 34.75 5.875 34.75H11.25V29.7734C11.25 29.4283 11.5298 29.1484 11.875 29.1484H15.875C16.2202 29.1484 16.5 29.4283 16.5 29.7734V34.75H17.75V26.1875C17.75 25.8424 18.0298 25.5625 18.375 25.5625H22.375C22.7202 25.5625 23 25.8424 23 26.1875V34.75H24.25V21.8125C24.25 21.4674 24.5298 21.1875 24.875 21.1875H28.875C29.2202 21.1875 29.5 21.4674 29.5 21.8125V34.75H30.75V25.5156C30.75 25.1704 31.0298 24.8906 31.375 24.8906C31.7202 24.8906 32 25.1704 32 25.5156V34.75H34.75V18.2968H32V20.8281C32 21.1732 31.7202 21.4531 31.375 21.4531C31.0298 21.4531 30.75 21.1732 30.75 20.8281V17.6718C30.75 17.3267 31.0298 17.0468 31.375 17.0468ZM27.1146 10.0002L23.2484 6.13394V9.37519C23.2484 9.71981 23.5288 10.0002 23.8734 10.0002H27.1146ZM12.5 34.75H15.25V30.3984H12.5V34.75ZM19 34.75H21.75V26.8125H19V34.75ZM25.5 34.75H28.25V22.4375H25.5V34.75ZM31.3749 22.4306C31.5393 22.4306 31.7005 22.4969 31.8168 22.6138C31.933 22.73 31.9999 22.8913 31.9999 23.0556C31.9999 23.22 31.933 23.3813 31.8168 23.4975C31.7005 23.6138 31.5393 23.6806 31.3749 23.6806C31.2105 23.6806 31.0492 23.6137 30.933 23.4975C30.8167 23.3813 30.7499 23.22 30.7499 23.0556C30.7499 22.8913 30.8167 22.73 30.933 22.6138C31.0492 22.4969 31.2105 22.4306 31.3749 22.4306ZM12.4734 8.04556C12.4734 7.70044 12.7533 7.42056 13.0984 7.42056C17.2141 7.42056 20.5624 10.7689 20.5624 14.8846C20.5624 15.2297 20.2826 15.5096 19.9374 15.5096H18.8131C18.5008 18.3866 16.0571 20.633 13.0984 20.633C9.92875 20.633 7.35 18.0543 7.35 14.8846C7.35 11.9259 9.5965 9.48219 12.4734 9.16988V8.04556ZM8.6 14.8845C8.6 17.3649 10.618 19.3829 13.0984 19.3829C15.3667 19.3829 17.2484 17.6951 17.5536 15.5095H13.0984C12.7533 15.5095 12.4734 15.2296 12.4734 14.8845V10.4294C10.2878 10.7346 8.6 12.6162 8.6 14.8845ZM13.7234 8.70175V14.2596H19.2812C18.9873 11.3313 16.6517 8.99563 13.7234 8.70175ZM7.99987 22.3906H19.9374C20.2826 22.3906 20.5624 22.6705 20.5624 23.0156C20.5624 23.3608 20.2826 23.6406 19.9374 23.6406H7.99987C7.65469 23.6406 7.37487 23.3608 7.37487 23.0156C7.37487 22.6705 7.65469 22.3906 7.99987 22.3906ZM7.99987 25.4062H11.9999C12.3451 25.4062 12.6249 25.6861 12.6249 26.0312C12.6249 26.3764 12.3451 26.6562 11.9999 26.6562H7.99987C7.65469 26.6562 7.37487 26.3764 7.37487 26.0312C7.37487 25.6861 7.65469 25.4062 7.99987 25.4062ZM15.1299 25.4062C15.2955 25.4068 15.4543 25.4726 15.5717 25.5894C15.688 25.7056 15.7549 25.8669 15.7549 26.0312C15.7549 26.1956 15.688 26.3569 15.5717 26.4731C15.4555 26.5894 15.2942 26.6562 15.1299 26.6562C14.9642 26.6558 14.8054 26.59 14.688 26.4731C14.5711 26.3569 14.5049 26.1956 14.5049 26.0312C14.5049 25.8669 14.5711 25.7056 14.688 25.5894C14.8042 25.4731 14.9649 25.4063 15.1299 25.4062Z" fill="#231F20"/>
</svg>
