<svg width="72" height="465" viewBox="0 0 72 465" fill="none" xmlns="http://www.w3.org/2000/svg">
    <path d="M65.85 71.4881H8.61C8.33 71.4881 8.11 71.7071 8.11 71.9858V122.005H0.5C0.22 122.005 0 122.224 0 122.502C0 122.781 0.22 123 0.5 123H8.61C8.89 123 9.11 122.781 9.11 122.502V72.4834H65.85V74.9715L72 71.9858L65.85 69V71.4881Z"
          fill="#2F80ED"/>
    <path d="M65.85 108.488H15.61C15.33 108.488 15.11 108.707 15.11 108.986V204.005H3.5C3.22 204.005 3 204.224 3 204.502C3 204.781 3.22 205 3.5 205H15.61C15.89 205 16.11 204.781 16.11 204.502V109.483H65.85V111.972L72 108.986L65.85 106V108.488Z"
          fill="#2F80ED"/>
    <path d="M65.85 171.488H22.61C22.33 171.488 22.11 171.707 22.11 171.986V292.005H0.5C0.22 292.005 0 292.224 0 292.502C0 292.781 0.22 293 0.5 293H22.61C22.89 293 23.11 292.781 23.11 292.502V172.483H65.85V174.972L72 171.986L65.85 169V171.488Z"
          fill="#2F80ED"/>
    <path d="M65.85 209.488H36.61C36.33 209.488 36.11 209.707 36.11 209.986V377.005H0.5C0.22 377.005 0 377.224 0 377.502C0 377.781 0.22 378 0.5 378H36.61C36.89 378 37.11 377.781 37.11 377.502V210.483H65.85V212.972L72 209.986L65.85 207V209.488Z"
          fill="#2F80ED"/>
    <path d="M65.85 246.488H49.61C49.33 246.488 49.11 246.707 49.11 246.986V464.005H0.5C0.22 464.005 0 464.224 0 464.502C0 464.781 0.22 465 0.5 465H49.61C49.89 465 50.11 464.781 50.11 464.502V247.483H65.85V249.972L72 246.986L65.85 244V246.488Z"
          fill="#2F80ED"/>
    <path d="M65.85 2.48813H12.61C12.33 2.48813 12.11 2.70708 12.11 2.98575V43.0048H0.5C0.22 43.0048 0 43.2237 0 43.5024C0 43.781 0.22 44 0.5 44H12.61C12.89 44 13.11 43.781 13.11 43.5024V3.48338H65.85V5.9715L72 2.98575L65.85 0V2.48813Z"
          fill="#2F80ED"/>
</svg>
