<svg width="85" height="66" viewBox="0 0 85 66" fill="none" xmlns="http://www.w3.org/2000/svg">
    <path fill-rule="evenodd" clip-rule="evenodd"
          d="M8.88071 21.0307C13.4669 23.8585 16.8224 29.7047 17.5257 34.8475V35.1705C17.4654 35.2081 17.477 35.2041 17.5257 35.1784V35.1992C18.2606 34.7723 18.081 34.872 17.8308 35.0109L17.8303 35.0111C17.7171 35.0739 17.5895 35.1448 17.5257 35.1784V35.1705C18.0087 34.869 23.1091 31.8891 50.7136 15.9025C50.5377 10.7596 46.8306 4.56184 42.4202 2.08566C40.2956 0.840237 38.5373 0.664413 37.1307 1.55818L5.87695 19.6094H6.05278C7.10776 19.9757 7.82573 20.3274 8.88071 21.0307ZM51.9438 62.1738V65.0018C52.3131 64.8171 59.7999 60.4476 67.6724 55.853L67.6774 55.8501L67.6817 55.8476L67.7011 55.8362C74.8135 51.6853 82.2339 47.3545 84.9999 45.763V42.9351L51.9438 62.1738ZM3.54731 32.8543C4.60229 34.9641 6.18476 36.737 7.60605 37.4403C8.65123 38.0688 8.43658 37.9625 8.24387 37.867C7.62342 37.5597 7.23049 37.365 49.8492 62.1729V65.0007L8.32402 40.7956C1.08569 36.737 -2.63604 24.3708 2.14067 21.7187C3.73779 20.8396 5.84775 21.5429 7.44487 22.422C11.5183 24.7224 14.8737 30.0118 15.577 34.7883V34.9641L13.2766 33.5576C13.1007 30.5539 11.1519 27.1839 8.49985 25.7773C6.02358 24.3708 3.37148 25.0741 2.84399 27.9019C2.66816 28.781 2.66816 29.499 2.84399 30.2022C2.84399 30.9055 3.19565 31.9751 3.54731 32.8543ZM73.1606 42.7734L55.8414 32.7075C55.4897 32.5317 55.3139 31.8284 55.4897 31.4768C55.6655 31.1251 56.3688 30.9493 56.7205 31.1251L74.0397 41.191C74.3914 41.3668 74.5672 42.0701 74.3914 42.4218C74.2302 42.7734 73.7027 42.9493 73.1606 42.7734ZM66.8014 46.832C66.6256 47.1837 65.9223 47.3595 65.5706 47.1837L48.2514 37.1178C47.8997 36.9419 47.7239 36.2387 47.8997 35.887C48.0755 35.5354 48.7789 35.3595 49.1305 35.5354L66.4498 45.6013C66.9772 45.7771 66.9772 46.4804 66.8014 46.832ZM59.2114 51.2423C59.0356 51.5939 58.3323 51.7698 57.9806 51.5939L32.5293 36.2387C32.1776 36.0628 32.0018 35.3595 32.1776 35.0079C32.3534 34.6562 33.0567 34.4804 33.4084 34.6562L58.8451 50.0115C59.2114 50.3632 59.3873 50.8906 59.2114 51.2423ZM51.431 55.843C51.2551 56.1947 50.5518 56.3705 50.2001 56.1947L24.7488 40.8247C24.3971 40.6489 24.2213 39.9456 24.3971 39.594C24.573 39.2423 25.2763 39.0665 25.6279 39.2423L51.0646 54.5976C51.6068 54.7734 51.7826 55.3009 51.431 55.843ZM47.3722 19.9896L17.3346 37.4694C16.983 37.6452 16.6313 37.6452 16.4555 37.4694L12.0304 34.9932C11.6788 34.8174 11.5029 34.4658 11.5029 34.1141C11.5029 31.6379 9.72999 28.6343 7.62003 27.4035C6.38922 26.7002 5.14376 26.7002 4.7921 28.1068C4.08878 30.583 6.21339 34.4658 8.49918 35.8724C9.71374 36.5543 9.06704 36.1639 8.7097 35.9482C8.60401 35.8844 8.52364 35.8359 8.52421 35.8349C8.52604 35.8318 9.34366 36.3078 12.7571 38.2949C17.8346 41.2507 28.6558 47.5502 51.0793 60.5903L84.1206 41.3375L47.3722 19.9896Z"
          fill="#0D9B1B"/>
</svg>
