<svg width="39" height="44" viewBox="0 0 39 44" fill="none" xmlns="http://www.w3.org/2000/svg">
<path fill-rule="evenodd" clip-rule="evenodd" d="M25.9737 1.30805L23.8536 0.0223783C22.8526 -0.0671461 21.8377 0.111281 20.7325 0.569472L23.3016 2.13553C24.3165 1.67734 25.241 1.39757 25.9737 1.30805ZM16.8023 5.91731L14.0274 4.27479C12.5509 5.28069 11.3429 6.46503 10.328 7.7507L13.1932 9.39322C14.2068 8.11999 15.5052 6.83369 16.8023 5.91731ZM13.0903 21.1072C13.5394 18.9046 13.6423 17.3385 13.6423 15.9633C13.6423 15.2322 13.6059 14.5477 13.5407 13.9067C13.4014 12.5378 13.1355 11.3665 12.8206 10.3606L10.6366 9.07491C12.4041 12.7193 11.585 15.1924 10.88 17.3217L10.8762 17.3329C10.7533 17.7041 10.6341 18.0653 10.5337 18.4196C10.4697 18.6428 10.4133 18.8635 10.3669 19.0824C10.3568 19.1539 10.3493 19.2297 10.3443 19.3081C10.3393 19.3895 10.3355 19.4734 10.3355 19.5592C10.3355 19.8713 10.3744 20.2033 10.4635 20.4762C10.5425 20.715 10.6617 20.9083 10.8298 21.0053L13.0125 22.291C13.0903 22.2145 13.0903 21.5654 13.0903 21.1072ZM25.2548 32.2226L39 24.2269L34.1051 21.3746L20.2709 29.3702C20.3612 29.4722 25.5246 32.4134 25.2548 32.2226ZM9.82746 17.6568L8.24684 18.6752L5.01033 20.6994L0 17.8477L10.5726 11.3031C10.7106 11.8688 10.7783 12.4078 10.7871 12.9357C10.7947 13.4417 10.7495 13.9372 10.6617 14.4352C10.4697 15.5431 10.2 16.549 9.82746 17.6568ZM20.8617 24.4333C20.9106 24.4103 20.9571 24.3879 21.0035 24.3413C23.0319 22.3295 25.152 19.5667 26.7063 17.1731L33.0526 20.8399L19.7954 28.5558V24.5197H20.72C20.74 24.5023 20.7589 24.4887 20.7777 24.4768L20.804 24.4619L20.8617 24.4333ZM27.977 16.8505C27.5769 16.6223 27.3172 16.4756 27.2846 16.4594C27.2846 16.4395 27.2896 16.424 27.2959 16.4109C27.2996 16.4035 27.3046 16.3966 27.3109 16.3904L27.3297 16.3693C27.3498 16.3475 27.3674 16.3251 27.3611 16.281C28.1062 15.0842 28.4788 13.811 28.1966 12.4358C28.1966 12.5253 27.9269 11.239 27.9269 11.1501L39 17.4653L34.016 20.3046C34.287 20.4619 31.975 19.1365 29.9867 17.9988L27.977 16.8505ZM22.5828 2.7852L19.808 1.14268C19.6574 1.39944 19.522 1.6562 19.389 1.90736L19.1858 2.28846C18.8207 2.95865 18.4331 3.56294 17.7782 3.98197C17.3166 4.26235 16.7634 4.35126 16.1086 4.44016L17.8686 5.44607C19.7176 5.80292 21.4777 4.2493 22.5828 2.7852ZM19.2686 16.0342L19.2811 16.0236C19.2974 16.0106 19.3162 16.0012 19.3463 16.0012L22.2103 14.4482C22.3909 14.3587 22.48 14.1679 22.3909 13.9894L21.8377 12.4364C22.1212 11.9776 22.2103 11.5194 22.2103 11.0612C22.2103 9.96643 21.2857 9.50761 20.3612 10.0553C19.5257 10.5135 18.8834 11.6083 18.8834 12.5253C18.8834 12.7653 18.9085 12.9804 18.9725 13.157C19.0089 13.2558 19.0565 13.3429 19.1193 13.4144C19.1594 13.4591 19.2046 13.4983 19.256 13.5312L18.7931 15.632C18.7655 15.7177 18.763 15.7942 18.7818 15.8589C18.8019 15.9304 18.8471 15.9876 18.9123 16.0267C18.9788 16.0678 19.0666 16.0901 19.1657 16.0901C19.1782 16.0901 19.1895 16.0883 19.1996 16.0852L19.2234 16.074L19.2573 16.046L19.2686 16.0342ZM26.6423 15.8104C25.8056 17.0762 24.866 18.3799 23.8724 19.6456C22.7773 21.0401 21.6157 22.3886 20.4503 23.5897L19.6926 23.594C19.1832 23.5978 18.5711 23.6027 17.9463 23.599C16.8562 23.5922 15.7259 23.5611 15.0372 23.4548C14.8252 23.4224 14.6559 23.3833 14.5417 23.3354C13.9898 22.9661 13.9898 22.0491 14.0788 21.4125C14.2896 20.3699 14.4414 19.4616 14.5442 18.6515C14.6672 17.6817 14.7211 16.8523 14.7211 16.1032C14.7211 13.8116 14.3485 11.7998 13.7966 10.3351C15.0046 8.76904 16.3017 7.58533 17.7782 6.57942C20.0777 6.93565 22.2103 5.11532 23.5977 3.28194C25.1645 2.54336 26.1794 2.36493 27.1052 2.36493C26.9898 2.98912 26.8882 3.64563 26.8029 4.33509C26.6887 5.26391 26.6034 6.25303 26.552 7.30494C26.4704 8.96114 26.6849 9.93659 27.0061 11.3982C27.0926 11.7905 27.1867 12.2182 27.2846 12.7038C27.4778 13.7986 27.2846 14.8045 26.6423 15.8104ZM18.5623 29.6506L5.08685 21.8458L1.77256 27.2695L5.08685 29.2048L15.1451 34.9984C15.3245 34.9854 18.832 29.2944 18.5623 29.6506ZM22.7986 32.0118L22.8174 32.023C23.9101 32.6478 24.8823 33.2036 24.9199 33.2409C25.0014 33.2788 25.0817 33.3006 25.1532 33.2993C25.2047 33.2981 25.2523 33.285 25.2937 33.2571C25.3289 33.2334 25.359 33.1993 25.3828 33.152L33.5268 28.4918V35.9782C27.9833 39.1576 24.6853 41.0525 22.7221 42.1834C20.9985 43.1762 20.3022 43.5804 20.0187 43.7482C19.6976 43.9385 19.9033 43.8265 19.744 43.9235V30.2338C19.887 30.3475 21.4325 31.2322 22.7986 32.0118ZM15.7862 35.9658C15.7096 36.0417 15.6143 36.1038 15.5165 36.1424C15.3847 36.194 15.248 36.2021 15.1439 36.1442L5.48451 30.4781V36.322L18.7417 44V31.2036C18.7003 31.2453 18.2211 32.0187 17.6603 32.9307L17.0607 33.9086C16.4184 34.9568 15.8276 35.9198 15.7862 35.9658ZM10.3656 21.7563C10.6353 21.9478 14.1554 24.0609 14.5279 24.1505C15.6457 24.5067 17.5851 24.6086 18.8822 24.6086V28.6447L6.01139 21.2981L9.53141 19.0954C9.44109 20.1013 9.53141 21.2092 10.3656 21.7563Z" fill="#0D9B1B"/>
</svg>
