<svg width="48" height="44" viewBox="0 0 48 44" fill="none" xmlns="http://www.w3.org/2000/svg">
    <path fill-rule="evenodd" clip-rule="evenodd"
          d="M18.5596 10.0435V0L1.84177 9.84657L10.4552 14.8153L18.5596 10.0435ZM22.2138 11.4524L30.7834 6.39265L19.8176 0V10.1343C19.8761 10.1343 19.9025 10.1668 19.9288 10.1959C19.9508 10.2194 19.9727 10.2404 20.0122 10.2404L22.2138 11.4524ZM14.4445 16.565C14.2484 16.762 13.8447 16.6558 13.5448 16.4589L11.5377 15.141L19.1623 10.6722C19.1974 10.7138 19.2193 10.7227 19.2383 10.7247L19.2559 10.7253C19.2661 10.7253 19.2778 10.7253 19.291 10.7301C19.3085 10.736 19.329 10.7492 19.3568 10.7782L21.0801 11.7932L20.5418 12.0944C19.8425 12.4848 19.2413 12.821 18.6371 13.1692C17.9349 13.574 17.2283 13.9947 16.3608 14.5352C16.1517 14.6412 15.9571 14.8381 15.8518 14.944L14.4445 16.565ZM18.0315 14.7789C17.9115 14.7012 17.752 14.5986 24.3482 18.485C25.0518 18.894 25.6516 19.8029 25.7555 20.621C41.1011 11.6227 43.0701 10.4599 43.0716 10.4625C43.073 10.464 42.5376 10.783 43.0877 10.4714C43.0877 10.4714 43.193 10.3655 43.193 10.0624C43.193 9.56253 42.6824 8.8506 42.2933 8.53235L35.9868 4.77553C35.4924 4.66958 35.0886 4.66958 34.878 4.77553C33.1708 5.79055 41.1844 1.01872 17.9364 14.7282L18.0315 14.7789ZM24.8967 21.6549L20.3882 19.0039C19.683 18.5949 18.9794 18.5949 18.5903 19.1252H18.4849L18.2904 19.3221C18.1441 19.4697 18.0446 19.6424 17.9803 19.8385C17.9554 19.913 17.9364 19.991 17.9232 20.0721L17.9056 20.1952L17.8983 20.2595L17.8939 20.328C17.8896 20.3702 17.8881 20.4132 17.8866 20.4569V20.534V33.8344C18.0753 33.9013 14.9038 32.0607 12.4637 30.6447L10.7566 29.6532C10.1919 29.3246 9.813 29.1023 9.75155 29.0626C9.15324 27.3357 7.84981 25.5178 6.23187 24.5938C5.52822 24.0938 4.2248 23.7909 3.32513 24.0938L2.42692 22.2609L1.61794 20.534C1.39998 20.0159 1.2376 19.4417 1.16591 18.934L1.14836 18.8032L1.13958 18.7122L1.12788 18.5565L1.12349 18.398V10.8692V10.6722L1.15714 10.6759L1.20249 10.6885C1.2376 10.7011 1.27856 10.7235 1.31805 10.7632L13.3619 17.883C14.2601 18.398 15.2651 18.292 15.6689 17.686L16.987 16.1712C17.1186 16.085 17.2503 16.0539 17.3819 16.0552C17.4624 16.056 17.5429 16.0691 17.6233 16.0891L17.7374 16.1214L17.8866 16.1712C17.8544 16.1543 17.8676 16.1632 17.9203 16.1939L18.2041 16.3587L19.8366 17.2916L19.9156 17.3371L21.9315 18.4901L23.5377 19.4144L24.1141 19.7509L24.275 19.8466C24.3511 19.892 24.395 19.9202 24.4023 19.928C24.806 20.231 25.3005 20.943 25.3005 21.458C25.3005 21.6549 25.1966 21.761 25.1966 21.761L25.141 21.7603C25.0986 21.759 25.0591 21.7541 25.0167 21.7379L24.986 21.7236C24.9567 21.7081 24.9275 21.6861 24.8967 21.6549ZM26.5439 22.9268C26.3494 23.0329 25.8388 23.2298 25.2405 22.8208L20.7158 20.1849C20.6266 20.0789 20.2214 19.8819 20.0122 20.0789L19.923 20.1849L19.9054 20.2043L19.8878 20.2273L19.8644 20.2745C19.8176 20.3851 19.8176 20.5381 19.8176 20.7V21.0939L27.3368 25.4869C27.6367 25.6839 28.0419 26.002 28.2365 26.3959C32.9631 23.5827 36.0966 21.7434 39.7494 19.5997L39.8459 19.5421C41.5955 18.5163 43.4651 17.4184 45.6872 16.11C45.5833 15.913 45.3888 15.7009 45.1942 15.504L42.0929 13.6711L26.5439 22.9268ZM26.68 33.893C26.68 33.999 26.7707 33.999 26.876 33.999C27.1744 33.999 27.4743 33.6961 27.2505 33.3931L25.4526 27.2125C25.4526 27.1065 25.3619 27.0156 25.2581 26.9095L21.3478 24.5767C21.2747 24.5364 21.2015 24.5115 21.1328 24.5018C21.102 24.4974 21.0713 24.4961 21.0421 24.498C21.0113 24.4999 20.9821 24.5054 20.9557 24.5143C20.9163 24.5276 20.8811 24.5483 20.8533 24.5767L20.8358 24.5986C20.7802 24.6622 20.7232 24.728 20.6895 24.8154C20.6807 24.8368 20.6749 24.8594 20.6705 24.8835L20.6602 24.9373L20.6588 24.9857V30.0453C20.6588 30.2574 20.7641 30.3483 20.868 30.4543C20.8065 30.4543 22.7756 31.6031 24.4389 32.573L26.0276 33.501L26.5147 33.7896L26.6273 33.8581L26.68 33.893ZM28.6008 32.9276L28.6271 33.0125L29.2868 35.2261C29.3922 35.5291 29.4814 35.832 29.5867 35.9381V42.5277L28.4779 42.1187C28.4779 41.6188 28.3886 40.9068 28.2833 40.4978C27.7742 38.1649 26.1709 35.832 24.2692 34.7111C21.8715 33.3931 19.9551 34.4081 19.6552 36.9379V37.0439L19.1608 36.7409V21.5318L26.187 25.6976C26.3816 25.8946 26.68 26.1976 26.7853 26.6065C26.7473 26.5677 26.8175 26.8559 27.015 27.5506L27.3412 28.6714L27.7391 30.0227L28.5013 32.5952L28.6008 32.9276ZM31.683 34.0323L29.9744 28.2305L44.3706 19.7927L46.0778 25.6855L31.683 34.0323ZM45.4795 17.5507C43.667 18.5809 52.0258 13.7939 27.9527 27.8214L30.365 36.0623C30.365 36.1683 30.365 36.2592 30.4689 36.3653L47.9956 25.9884L47.9766 25.9317C47.9342 25.8148 47.8947 25.7048 47.5699 24.6203C47.2481 23.5438 46.6454 21.5072 45.4795 17.5507ZM43.5923 21.2249L44.2814 21.6036C44.5813 21.7097 44.672 21.9975 44.4774 22.3005C44.4525 22.3686 44.4116 22.4207 44.3618 22.4592C44.3252 22.4866 44.2858 22.5071 44.2419 22.5218C44.0883 22.5733 43.9039 22.5514 43.7869 22.4974L43.0979 22.1036L43.0716 22.0894L43.0438 22.0693C43.016 22.046 42.9911 22.016 42.9677 21.9816C42.9472 21.9505 42.9297 21.9158 42.915 21.8788C42.896 21.8335 42.8828 21.785 42.8741 21.7361C42.8521 21.6213 42.8594 21.5043 42.9033 21.4219C43.0087 21.2249 43.2939 21.1189 43.5923 21.2249ZM44.3443 23.9258L42.0812 22.5927C41.7828 22.4866 41.4829 22.5927 41.3922 22.8048C41.2883 23.1077 41.3922 23.4258 41.5867 23.5167L43.8644 24.8498C43.9625 24.9079 44.097 24.9341 44.2302 24.8938C44.3413 24.8604 44.4511 24.7816 44.5388 24.6377C44.6017 24.4558 44.5886 24.2739 44.5257 24.1346C44.4847 24.0419 44.4218 23.9681 44.3443 23.9258ZM42.7731 32.7598C42.7731 33.7747 43.566 34.2898 44.4803 33.7747C45.184 33.3657 45.7837 32.3508 45.7984 31.5328C45.7984 30.5177 44.9894 30.0027 44.0912 30.5177C43.3715 30.9268 42.7731 31.9417 42.7731 32.7598ZM37.6194 37.8497L41.0499 35.8197C41.2444 35.7138 41.3498 35.5168 41.3498 35.4108V32.9718C41.3498 32.8658 41.2591 32.6689 41.0499 32.5629C40.9445 32.4568 40.75 32.4568 40.5408 32.5629L37.1103 34.4867C36.9158 34.5927 36.8104 34.8048 36.8104 35.0018V37.3346C36.8104 37.5467 36.9158 37.7436 37.1103 37.8497C37.2157 37.9557 37.4102 37.9557 37.6194 37.8497ZM32.4818 38.7737C32.4818 39.7887 33.1854 40.3038 34.189 39.7887C34.9979 39.3797 35.507 38.3648 35.507 37.5467C35.507 36.5318 34.7127 36.0167 33.7998 36.5318C33.0801 36.9408 32.4818 37.9557 32.4818 38.7737ZM30.5639 37.1377L48 26.9579V32.8658L30.5639 43.0456V37.1377ZM23.7542 41.0177C23.0652 40.6088 22.5561 39.6998 22.5561 38.8818C22.5561 37.9729 23.3651 37.4578 24.1595 37.9729C24.8631 38.3819 25.3722 39.2909 25.3722 40.1088C25.3722 41.0177 24.5632 41.5177 23.7542 41.0177ZM23.665 35.4279C21.9578 34.519 20.6544 35.0341 20.5491 37.2609C20.5491 39.4878 22.1524 42.4266 24.1595 43.5476C26.4664 44.8655 27.6791 43.1386 27.1701 40.5027C26.7809 38.4728 25.3722 36.4429 23.665 35.4279ZM4.72656 28.7933C4.72656 29.6113 5.23565 30.5202 5.92466 30.9292C6.73363 31.4291 7.54261 30.9292 7.54261 30.0203C7.54261 29.2023 7.03352 28.2934 6.32988 27.8844C5.53554 27.3693 4.72656 27.8844 4.72656 28.7933ZM2.71949 27.1724C2.82482 24.9456 4.12825 24.4305 5.83543 25.3394C7.54261 26.3544 8.95136 28.3842 9.34049 30.4142C9.84957 33.05 8.63684 34.777 6.32988 33.4591C4.32281 32.3381 2.71949 29.3993 2.71949 27.1724ZM37.9749 35.1541V36.3812L40.4018 35.0632V33.8362L37.9749 35.1541ZM18.128 36.3812L10.4888 31.9275C10.5942 31.5184 10.5942 30.9125 10.4888 30.2005L18.128 34.6542V36.3812ZM0 24.8868C0 25.4927 0.494453 26.2956 0.974278 26.5986L1.94709 27.2045C1.94709 26.9942 1.97489 26.7319 2.01439 26.4731C2.05096 26.2285 2.09777 25.987 2.14166 25.7957C2.14166 25.7489 2.14166 25.7227 2.15043 25.7003C2.16214 25.6719 2.18847 25.6495 2.24698 25.5987L0.583689 24.5838C0.329148 24.4747 0.18286 24.4497 0.0994758 24.507C0.0219432 24.561 0 24.6882 0 24.8868ZM0.847007 23.7526L1.8403 23.1378C1.86078 23.2597 2.4591 24.3815 2.55419 24.4646L2.35962 24.6767L0.847007 23.7526Z"
          fill="#0D9B1B"/>
</svg>
