<svg width="118" height="106" viewBox="0 0 118 106" fill="none" xmlns="http://www.w3.org/2000/svg">
    <g clip-path="url(#clip0_252_4310)">
        <path fill-rule="evenodd" clip-rule="evenodd" d="M36.6035 102.001L32.8311 99.8665L34.9042 98.6804L38.6767 100.827L36.6035 102.001Z"
              fill="#091BAD"/>
        <path fill-rule="evenodd" clip-rule="evenodd" d="M42.551 105.458L38.8125 103.266L40.863 102.069L44.5902 104.26L42.551 105.458Z"
              fill="#091BAD"/>
        <path fill-rule="evenodd" clip-rule="evenodd"
              d="M68.2786 102.611C68.913 103.074 69.4115 103.594 69.808 104.125C70.1705 104.667 70.4311 105.243 70.5444 105.831L67.6442 106C67.5649 105.571 67.3723 105.153 67.1118 104.758C66.8172 104.362 66.4547 103.978 65.9902 103.651L68.2786 102.611Z"
              fill="#091BAD"/>
        <path fill-rule="evenodd" clip-rule="evenodd" d="M62.2968 99.0869L66.0693 101.222L63.9961 102.408L60.2236 100.262L62.2968 99.0869Z"
              fill="#091BAD"/>
        <path fill-rule="evenodd" clip-rule="evenodd" d="M56.3601 95.6304L60.0872 97.8218L58.0367 99.0191L54.3096 96.8277L56.3601 95.6304Z"
              fill="#33BE3D"/>
        <path fill-rule="evenodd" clip-rule="evenodd"
              d="M52.656 92.1062C52.7353 92.5354 52.9279 92.9534 53.1885 93.3487C53.483 93.7441 53.8455 94.1169 54.31 94.4557L52.0216 95.4949C51.3872 95.0318 50.8887 94.5122 50.4922 93.9813C50.1297 93.4391 49.8691 92.863 49.7559 92.2756L52.656 92.1062Z"
              fill="#33BE3D"/>
        <path fill-rule="evenodd" clip-rule="evenodd"
              d="M54.9106 88.3673C53.8797 88.9886 53.1207 89.768 52.8148 90.6152L49.96 90.2311C50.3905 89.0677 51.4214 87.9946 52.8375 87.1587L54.9106 88.3673Z"
              fill="#33BE3D"/>
        <path fill-rule="evenodd" clip-rule="evenodd"
              d="M61.3786 87.0455C60.6309 87.0117 59.8719 87.023 59.1242 87.102C58.3878 87.1811 57.6628 87.3053 56.9944 87.5087L55.6689 85.995C56.5866 85.7239 57.5722 85.5545 58.5804 85.4415C59.5887 85.3399 60.6196 85.3173 61.6505 85.3738L61.3786 87.0455Z"
              fill="#33BE3D"/>
        <path fill-rule="evenodd" clip-rule="evenodd"
              d="M67.542 89.124L66.6017 88.5818C66.4431 88.4914 66.2732 88.3898 66.1372 88.3107L65.7181 88.1074C65.1403 87.8363 64.5172 87.5878 63.8262 87.4183L65.0157 85.8821C65.956 86.1193 66.817 86.4582 67.61 86.8196L68.1764 87.1133C68.369 87.215 68.5049 87.2941 68.6635 87.3844L69.6038 87.9266L67.542 89.124Z"
              fill="#33BE3D"/>
        <path fill-rule="evenodd" clip-rule="evenodd" d="M73.5117 92.5129L69.7393 90.3667L71.8124 89.1919L75.5849 91.3381L73.5117 92.5129Z"
              fill="#33BE3D"/>
        <path fill-rule="evenodd" clip-rule="evenodd" d="M79.4592 95.9694L75.7207 93.8232L77.7712 92.6484L81.4984 94.7834L79.4592 95.9694Z"
              fill="#33BE3D"/>
        <path fill-rule="evenodd" clip-rule="evenodd" d="M85.4072 99.4259L81.6348 97.2345L83.7079 96.0371L87.4804 98.2172L85.4072 99.4259Z"
              fill="#0D9B1B"/>
        <path fill-rule="evenodd" clip-rule="evenodd"
              d="M90.1201 100.951C88.636 101.809 86.2343 101.809 84.7276 100.94C83.2435 100.081 83.2322 98.6917 84.7049 97.8219C86.189 96.9634 88.5907 96.9634 90.0974 97.8332C91.5815 98.703 91.5928 100.092 90.1201 100.951Z"
              fill="#33BE3D"/>
        <path fill-rule="evenodd" clip-rule="evenodd"
              d="M35.1982 99.7309C33.7141 100.589 31.3124 100.589 29.8057 99.7196C28.3216 98.8611 28.3103 97.4717 29.7831 96.6019C31.2671 95.7434 33.6688 95.7434 35.1755 96.6132C36.6596 97.483 36.6709 98.8724 35.1982 99.7309Z"
              fill="#091BAD"/>
        <path fill-rule="evenodd" clip-rule="evenodd"
              d="M34.9381 69.7968C33.7825 69.3224 32.2872 69.4918 30.6445 70.4406C27.008 72.5417 24.0625 77.6135 24.0625 81.7817C24.0625 87.4635 30.6445 93.9134 30.6445 93.9134L32.9102 95.0881L37.2491 70.9941L34.9381 69.7968Z"
              fill="#091BAD"/>
        <path fill-rule="evenodd" clip-rule="evenodd"
              d="M33.1021 71.6608C36.7386 69.5597 39.6954 71.2428 39.6954 75.411C39.6954 81.0928 33.1021 95.1561 33.1021 95.1561C33.1021 95.1561 26.5088 88.6949 26.5088 83.0131C26.5088 78.8449 29.4543 73.7618 33.1021 71.6608Z"
              fill="#2535B5"/>
        <path fill-rule="evenodd" clip-rule="evenodd"
              d="M29.0918 81.3977C29.0918 83.815 30.8138 84.7978 32.9322 83.5778C35.0507 82.3579 36.7727 79.3984 36.7727 76.9811C36.7727 74.5638 35.0507 73.581 32.9322 74.801C30.8138 76.0322 29.0918 78.9804 29.0918 81.3977Z"
              fill="white"/>
        <path fill-rule="evenodd" clip-rule="evenodd"
              d="M90.1091 65.3012C88.761 64.7477 87.0163 64.9398 85.0904 66.0581C80.8535 68.498 77.4209 74.4057 77.4209 79.2516C77.4209 85.8596 85.0904 93.3601 85.0904 93.3601L87.3788 94.4896L92.4428 66.4647L90.1091 65.3012Z"
              fill="#33BE3D"/>
        <path fill-rule="evenodd" clip-rule="evenodd"
              d="M87.3783 66.7922C91.6039 64.3523 95.0252 66.3065 95.0252 71.1524C95.0252 77.7492 87.3783 94.0716 87.3783 94.0716C87.3783 94.0716 79.7314 86.5712 79.7314 79.9745C79.7314 75.1286 83.1527 69.2321 87.3783 66.7922Z"
              fill="#0D9B1B"/>
        <path fill-rule="evenodd" clip-rule="evenodd"
              d="M82.9258 78.5286C82.9258 81.3413 84.9196 82.4709 87.378 81.0589C89.8363 79.6469 91.8302 76.2243 91.8302 73.4116C91.8302 70.599 89.8363 69.4694 87.378 70.8813C84.9196 72.2933 82.9258 75.7273 82.9258 78.5286Z"
              fill="white"/>
        <path fill-rule="evenodd" clip-rule="evenodd"
              d="M85.4069 40.5521C82.6314 40.5747 81.6798 39.0949 81.6798 39.0949C82.8693 39.3434 83.6963 38.8577 83.9682 38.5414C84.1834 38.2929 83.9115 37.6717 83.3451 37.8976C82.79 38.1235 81.997 37.9879 81.5665 37.8524C80.2977 37.457 79.7539 37.5926 79.3687 37.7394C78.8136 37.9541 78.3378 38.0105 77.9979 38.0105L68.901 37.0843L68.2439 27.144C68.1419 24.207 68.0173 21.8575 66.6805 20.5924C64.9586 18.9771 61.8885 19.7339 61.7979 23.0436C61.7979 23.0436 62.2963 37.683 64.1882 40.1229C64.2788 40.2358 64.664 40.7328 64.8226 40.7893C67.3942 43.8166 78.3944 41.1847 78.3944 41.1847C78.7683 41.3202 79.0968 41.388 79.584 41.6365C81.6118 42.6983 83.5377 42.2691 83.8436 42.1109C85.6675 41.2298 85.928 40.5069 85.4296 40.5182H85.4069V40.5521Z"
              fill="#E6A376"/>
        <path fill-rule="evenodd" clip-rule="evenodd"
              d="M62.1607 20.1855C61.5036 20.7842 61.2544 23.2806 61.3223 26.2853C61.413 31.1651 63.0216 38.4847 63.3728 39.4788C63.7467 40.5519 64.1205 44.6297 77.749 41.7831C78.0435 41.7267 76.2196 39.1173 77.9642 37.4004L69.0032 37.0502C69.0032 37.0502 68.2329 24.2633 67.9496 22.9643C67.134 19.1463 63.9619 18.525 62.1607 20.1855Z"
              fill="#0D9B1B"/>
        <path fill-rule="evenodd" clip-rule="evenodd"
              d="M58.1159 95.2802C58.1159 95.2802 55.8275 97.6749 57.5155 99.2451C59.2035 100.815 60.8461 101.538 61.7071 102.848C62.5794 104.17 66.6804 105.955 68.4817 103.955C68.4817 103.955 69.2747 101.866 66.2952 99.5839C63.3158 97.3022 63.0326 95.8111 62.3188 94.8284C61.6051 93.8344 58.1159 95.2802 58.1159 95.2802Z"
              fill="#1B1B1B"/>
        <path fill-rule="evenodd" clip-rule="evenodd"
              d="M67.3722 47.5894C67.3722 47.5894 69.5926 52.4353 66.9757 70.4408C64.7326 85.9048 63.8829 95.2351 64.0529 96.6132C64.0529 96.6132 60.9715 99.4372 57.6408 96.8617C55.3071 95.0544 58.0147 59.0772 58.0147 59.0772C58.0147 59.0772 66.6585 52.9323 67.3722 47.5894Z"
              fill="#0C232D"/>
        <path fill-rule="evenodd" clip-rule="evenodd"
              d="M49.6311 53.0679C49.6311 53.0679 48.8381 59.4613 48.7361 68.4415C48.6228 77.4217 47.9771 80.7991 47.7619 82.1885C47.5466 83.5666 46.7989 98.59 47.2407 102.973C47.2407 102.973 50.0276 107.356 54.4231 102.973C54.4231 102.973 55.1708 87.5653 55.9185 84.0523C56.6662 80.5506 60.8692 63.5165 62.5685 57.4055C63.3049 54.7058 63.4861 53.6778 63.4861 53.6778C63.4861 53.6778 56.3943 58.4786 49.6311 53.0679Z"
              fill="#0C232D"/>
        <path fill-rule="evenodd" clip-rule="evenodd"
              d="M54.446 102.973C54.446 102.973 55.1937 87.5765 55.9414 84.0635C56.6891 80.5618 60.8807 63.539 62.58 57.428C63.3164 54.7283 65.0496 52.6611 65.0496 52.6611C65.0496 52.6611 60.1896 56.129 55.998 56.1177C55.8054 57.428 54.0268 70.0002 53.619 75.49C53.2225 80.9459 49.552 100.104 50.5376 104.916C51.6138 104.949 52.9392 104.486 54.446 102.973Z"
              fill="#133142"/>
        <path fill-rule="evenodd" clip-rule="evenodd"
              d="M66.964 70.3956C68.414 60.5005 68.3914 54.5815 68.0742 51.2492L65.9897 50.9668C65.6611 51.4864 65.2873 52.0173 64.8908 52.5369C64.347 57.9137 62.7157 74.7784 62.4325 81.9964C62.1719 88.7626 61.8094 95.269 61.6621 97.7993C63.0782 97.4604 64.0298 96.6019 64.0298 96.6019C63.8486 95.2238 64.6982 85.8822 66.964 70.3956Z"
              fill="#133142"/>
        <path fill-rule="evenodd" clip-rule="evenodd"
              d="M54.2646 21.7445C53.4036 22.0947 52.5086 22.6933 51.0472 23.5518C49.0987 24.6927 47.0482 26.3984 46.7536 26.7147C46.3571 27.1665 44.9863 28.2509 47.9205 34.5201C47.9205 34.5201 52.6332 41.5348 50.2429 48.2671L48.9061 52.0173C48.9061 52.0173 52.8485 58.6818 61.7755 55.022C63.5881 54.2765 66.8734 52.9323 66.9188 50.9555C66.9188 50.9555 65.8765 43.986 67.066 37.0729C68.0969 31.0974 67.4286 21.2814 63.4635 20.2309C63.4635 20.2309 61.1185 18.9092 54.2646 21.7219V21.7445Z"
              fill="#EAEAEA"/>
        <path fill-rule="evenodd" clip-rule="evenodd"
              d="M46.7536 26.7484C46.3571 27.2003 44.9863 28.2847 47.9205 34.5539C47.9205 34.5539 52.6446 41.5686 50.2429 48.3009L48.9061 52.0511C48.9061 52.0511 50.4468 54.6604 53.8001 55.7222C56.7569 47.4424 54.1853 34.4409 53.6868 29.6628C53.3469 26.274 51.2511 24.8394 49.971 24.2747C48.3963 25.3026 46.9915 26.4773 46.7536 26.7484Z"
              fill="#D8D8D8"/>
        <path fill-rule="evenodd" clip-rule="evenodd"
              d="M51.4553 23.3259C49.6201 24.207 45.0659 26.4662 46.1082 29.4031C47.343 32.9274 51.1834 42.077 50.2092 45.4319C49.2236 48.7867 47.6942 56.8294 47.6942 56.8294C47.6942 56.8294 51.3987 62.2626 59.8046 58.7045C59.8046 58.7045 64.4041 43.9747 58.8417 26.1838L55.0919 21.2136C55.0919 21.2136 52.3956 22.8628 51.4553 23.3259Z"
              fill="#0C2937"/>
        <path fill-rule="evenodd" clip-rule="evenodd"
              d="M51.4549 23.3259C49.6196 24.207 44.5104 27.223 45.5413 30.1712C46.7761 33.6955 51.0131 42.0544 50.1974 45.4545C48.8379 51.125 47.3086 56.6825 47.3086 56.6825C47.3086 56.6825 51.3982 62.2852 59.7928 58.7271C59.7928 58.7271 64.3923 43.986 58.8299 26.1951L55.0801 21.2136C55.0914 21.2136 52.3952 22.8628 51.4549 23.3259Z"
              fill="#33BE3D"/>
        <path fill-rule="evenodd" clip-rule="evenodd"
              d="M63.0675 25.0993C63.0675 25.0993 65.6957 50.9893 64.0644 56.0499C64.0644 56.0499 66.6474 55.598 68.5846 53.3276C68.5846 53.3276 67.8369 40.4052 68.256 36.6098C68.6752 32.8144 68.9131 18.8414 62.1838 18.9205C55.4659 18.9883 63.0675 25.0993 63.0675 25.0993Z"
              fill="#33BE3D"/>
        <path fill-rule="evenodd" clip-rule="evenodd"
              d="M58.5469 25.8109C58.5469 25.8109 62.9764 35.6383 61.3677 49.4756L56.5077 32.8595L57.7312 31.2103C57.7312 31.2103 53.5622 23.7099 51.4551 23.3145L55.3182 21.0667C55.3182 21.0779 58.0711 24.6248 58.5469 25.8109Z"
              fill="#33BE3D"/>
        <path fill-rule="evenodd" clip-rule="evenodd"
              d="M64.574 47.3747L66.5452 32.1254L65.1518 30.0244L63.2712 19.1239C63.2712 19.1239 61.7758 18.3106 60.8695 18.3671C59.9632 18.4348 65.4803 37.5474 64.574 47.3747Z"
              fill="#33BE3D"/>
        <path fill-rule="evenodd" clip-rule="evenodd"
              d="M52.7461 16.0627C52.7461 16.0627 55.5103 19.1804 54.0262 21.7558C53.1992 23.1904 55.9974 25.9466 60.0191 25.1333C60.0191 25.1333 61.7751 24.4442 61.5032 23.8117C60.8801 22.3997 61.3559 21.4734 61.8431 20.2535C62.3302 19.0335 52.7461 16.0627 52.7461 16.0627Z"
              fill="#E6A376"/>
        <path fill-rule="evenodd" clip-rule="evenodd"
              d="M54.0157 21.7332C53.9137 21.9026 53.8684 22.0947 53.8797 22.298C55.1825 20.5584 58.06 20.0275 58.06 20.0275L53.6418 16.3338C53.4719 16.2773 53.3473 16.2321 53.2227 16.1982L53.166 16.5936C53.8571 17.5876 55.1146 19.8129 54.0157 21.7332Z"
              fill="#DD9569"/>
        <path fill-rule="evenodd" clip-rule="evenodd"
              d="M51.6706 14.2554C51.6706 14.2554 53.2906 18.6495 56.6892 20.2761C59.7366 21.7107 63.1239 22.4562 63.2599 19.09C63.3618 16.4016 63.7243 9.55636 61.2094 8.53973C57.9693 7.21812 56.5759 5.24135 53.2906 6.99221C53.3132 6.99221 49.6087 9.34174 51.6706 14.2554Z"
              fill="#EFB185"/>
        <path fill-rule="evenodd" clip-rule="evenodd"
              d="M51.6819 14.278C51.6819 14.278 52.5882 18.1411 56.7005 20.389C57.5841 20.8634 58.6717 21.2023 59.51 21.4282C57.9013 20.5472 57.7201 20.2422 56.3946 19.0787C55.0805 17.9265 57.958 18.0395 55.5789 14.9444C54.7633 13.8939 57.6068 12.9338 58.3205 12.8208C62.5574 12.1092 62.5121 10.7876 62.4555 9.73705C62.2969 9.30781 62.093 9.81612 61.8777 9.44336L61.3792 8.73172C61.3113 8.66395 61.266 8.59617 61.2093 8.53969C60.6655 8.00879 60.1331 7.56825 59.612 7.20679C57.7994 7.50048 52.6335 8.33637 52.5202 8.37026C52.4635 8.38155 51.7385 9.73705 51.0588 11.0022C50.9908 11.9171 51.1494 13.0015 51.6819 14.278Z"
              fill="#E6A376"/>
        <path fill-rule="evenodd" clip-rule="evenodd"
              d="M54.2196 18.6268C54.2309 18.2766 51.9425 15.9836 52.6222 15.0573C53.3699 14.0294 55.3524 17.1245 55.4657 17.2939C55.6017 17.452 55.5563 16.3563 55.1712 15.5769C54.7293 14.6958 54.65 13.5889 55.2165 12.9111C55.7263 12.3011 59.3741 10.7197 60.3597 10.6858C59.5101 10.2905 56.3833 11.0247 55.6356 9.77087C54.6274 8.09909 52.9507 8.35889 51.9085 8.18945C47.0711 12.1995 54.2309 18.6268 54.2309 18.6268H54.2196Z"
              fill="#1E1D33"/>
        <path fill-rule="evenodd" clip-rule="evenodd"
              d="M62.4781 11.4087C62.4781 11.4087 55.2617 12.1542 53.7663 9.73693C53.4604 9.21732 52.6674 8.39273 51.7158 8.42662C51.7158 8.42662 52.203 5.42193 56.8024 5.86247C58.6263 6.0432 61.0394 7.50036 61.4585 7.83923C64.1661 10.0419 64.9251 11.2619 62.4781 11.4087Z"
              fill="#1E1D33"/>
        <path fill-rule="evenodd" clip-rule="evenodd"
              d="M54.3893 20.8748C54.3893 20.8748 54.4347 24.3313 60.9034 24.6589L60.0537 27.4715C60.0537 27.4715 54.7292 28.3752 52.6787 22.6482L54.3893 20.8748Z"
              fill="#F9F8F8"/>
        <path fill-rule="evenodd" clip-rule="evenodd" d="M71.7783 57.7441L87.0041 49.0238V35.7173L71.7783 44.4377V57.7441Z" fill="#BD8A4B"/>
        <path fill-rule="evenodd" clip-rule="evenodd" d="M58.4561 50.0519L71.7786 57.7444V44.4266L58.4561 36.7341V50.0519Z" fill="#EFB972"/>
        <path fill-rule="evenodd" clip-rule="evenodd"
              d="M58.4561 36.7452L64.6869 40.3373L65.1513 40.6084L71.824 44.4603L87.0044 35.706L80.3318 31.8541L79.8673 31.583L73.6479 27.991L58.4561 36.7452Z"
              fill="#FFE1B3"/>
        <path opacity="0.702" fill-rule="evenodd" clip-rule="evenodd"
              d="M64.6416 40.326L65.1061 40.5971L80.2752 31.8541L79.8108 31.583L64.6416 40.326Z" fill="#BD8A4B"/>
        <path fill-rule="evenodd" clip-rule="evenodd"
              d="M60.9033 24.6362C60.9033 24.6362 61.1865 23.9923 61.0619 22.6481C61.0393 22.3544 61.0506 22.0043 61.1639 21.7558L61.2432 21.4847L61.8889 21.3491C61.8889 21.3491 64.166 23.8907 63.4976 26.1611L60.9033 24.6362Z"
              fill="#F9F8F8"/>
        <path fill-rule="evenodd" clip-rule="evenodd"
              d="M64.8455 52.4352C62.104 51.9156 61.4695 50.2777 61.4695 50.2777C62.5911 50.7521 63.4974 50.4358 63.8146 50.1873C64.0865 49.984 63.9165 49.3288 63.3275 49.4305C62.7384 49.5435 61.9793 49.2611 61.5942 49.0464C60.4273 48.4139 59.8609 48.4365 59.453 48.5155C58.8753 48.6172 58.3881 48.5833 58.0483 48.5155L49.2912 45.8497L50.5713 35.932C51.0471 33.0177 51.3756 30.6907 50.3107 29.1884C48.94 27.2681 45.7566 27.4037 45.0316 30.6681C45.0316 30.6681 42.6752 45.1833 44.0686 47.9508C44.1366 48.075 44.4198 48.6398 44.5558 48.7302C46.493 52.2093 57.8104 51.7574 57.8104 51.7574C58.1502 51.9721 58.4674 52.0963 58.8866 52.4352C60.6765 53.8698 62.6477 53.8133 62.9876 53.7342C64.9588 53.2033 65.3553 52.5256 64.8455 52.4352Z"
              fill="#E6A376"/>
        <path fill-rule="evenodd" clip-rule="evenodd"
              d="M45.9715 27.9233C45.2125 28.3865 44.4874 30.7812 43.955 33.7407C43.094 38.5527 43.2639 46.0192 43.4112 47.0697C43.5811 48.188 43.1506 52.2658 57.119 52.1077C57.4135 52.1077 56.1334 49.2047 58.1839 47.8605L49.4268 45.7707C49.4268 45.7707 51.1487 33.0855 51.1261 31.7639C51.0581 27.8781 48.056 26.6695 45.9715 27.9233Z"
              fill="#0D9B1B"/>
        <path fill-rule="evenodd" clip-rule="evenodd" d="M113.514 24.3311V25.6189L91.4912 12.945V11.6572L113.514 24.3311Z" fill="#091BAD"/>
        <path fill-rule="evenodd" clip-rule="evenodd"
              d="M91.5025 4.86845V6.14488L101.268 11.7702V10.4938L91.5025 4.86845ZM113.537 22.2301V20.9424L91.4912 8.23461V9.52233L113.537 22.2301ZM113.526 28.9737V27.686L91.4685 14.9782V16.2659L113.526 28.9737ZM113.537 25.5963V24.3086L91.4799 11.6121V12.8998L113.537 25.5963ZM115.803 14.8879C117.026 15.5882 118 17.2826 118 18.6832L117.966 33.3452C117.966 34.7346 116.969 35.3107 115.757 34.5991L90.4263 20.0162C89.2028 19.3158 88.2285 17.6101 88.2285 16.2208L88.2738 1.55878C88.2738 0.158096 89.2708 -0.406695 90.4943 0.304942L115.803 14.8879Z"
              fill="#F2F2F2"/>
        <path fill-rule="evenodd" clip-rule="evenodd" d="M101.279 10.5165V11.7929L91.4912 6.16761V4.87988L101.279 10.5165Z" fill="#091BAD"/>
        <path fill-rule="evenodd" clip-rule="evenodd" d="M113.514 27.72V29.0077L91.4229 16.266V14.9783L113.514 27.72Z" fill="#091BAD"/>
        <path fill-rule="evenodd" clip-rule="evenodd" d="M113.514 20.9425V22.2302L91.4912 9.55628V8.26855L113.514 20.9425Z" fill="#091BAD"/>
        <path fill-rule="evenodd" clip-rule="evenodd"
              d="M12.5752 10.9456C16.8008 8.51703 20.2447 10.4712 20.2561 15.3058C20.2561 17.6328 19.4744 20.1856 18.1942 22.5013L12.5979 19.6999L12.5752 10.9456Z"
              fill="#33BE3D"/>
        <path fill-rule="evenodd" clip-rule="evenodd"
              d="M18.1143 30.0244C18.9187 29.5612 19.5757 29.934 19.5757 30.8602C19.5757 31.7865 18.9187 32.9048 18.1143 33.3679L7.23875 39.5919C6.43441 40.055 5.77734 39.6823 5.77734 38.7673C5.77734 37.8411 6.43441 36.7228 7.23875 36.2597L18.1143 30.0244Z"
              fill="#091BAD"/>
        <path fill-rule="evenodd" clip-rule="evenodd"
              d="M12.6205 10.9795L12.6432 19.7451L18.2169 22.5464C16.8348 25.0428 14.8523 27.2455 12.6772 28.5106C8.4629 30.9392 5.04163 28.985 5.0303 24.1504C5.01897 19.3045 8.41759 13.4081 12.6205 10.9795Z"
              fill="#9FD8FF"/>
        <path fill-rule="evenodd" clip-rule="evenodd"
              d="M18.092 33.3904C18.8963 32.9272 19.5534 31.809 19.5534 30.8827C19.5534 29.9564 18.885 29.595 18.092 30.0468L7.25038 36.2821C6.44604 36.7452 5.78898 37.8635 5.78898 38.7898C5.78898 39.716 6.44604 40.0775 7.25038 39.6257L18.092 33.3904ZM18.2166 22.5351C19.5081 20.2307 20.2784 17.6666 20.2784 15.3396C20.2671 10.505 16.8345 8.55085 12.6089 10.9795C8.38326 13.4194 4.97331 19.3045 4.98464 24.1391C4.99597 28.9737 8.42857 30.9166 12.6542 28.488C14.852 27.2228 16.8232 25.0315 18.2166 22.5351ZM21.4566 0.779326C23.5184 -0.406735 25.2064 0.55341 25.2064 2.91424L25.2857 30.9957C25.297 33.3565 23.6204 36.2369 21.5586 37.4343L3.84044 47.6118C1.77861 48.7979 0.0906298 47.8377 0.0906298 45.4769L0 17.3955C0 15.0347 1.66532 12.1542 3.72715 10.9569L21.4566 0.779326Z"
              fill="#F2F2F2"/>
    </g>
    <defs>
        <clipPath id="clip0_252_4310">
            <rect width="118" height="106" fill="white"/>
        </clipPath>
    </defs>
</svg>
