<svg width="95" height="109" viewBox="0 0 95 109" fill="none" xmlns="http://www.w3.org/2000/svg">
<g clip-path="url(#clip0_252_4201)">
<path opacity="0.302" fill-rule="evenodd" clip-rule="evenodd" d="M59.3427 73.9742L78.0421 84.8044C81.9233 87.0502 88.2129 87.0502 92.0941 84.8044C95.9753 82.5585 95.9753 78.9152 92.0941 76.6593L73.3946 65.8292C69.5134 63.5833 63.2239 63.5833 59.3427 65.8292C55.4515 68.0751 55.4515 71.7184 59.3427 73.9742Z" fill="#456185"/>
<path opacity="0.302" fill-rule="evenodd" clip-rule="evenodd" d="M4.88621 102.452L13.2258 107.413C16.8781 109.529 22.7995 109.529 26.4518 107.413C30.1041 105.297 30.1041 101.863 26.4518 99.737L18.1122 94.7861C14.4599 92.6699 8.53852 92.6699 4.88621 94.7861C1.23389 96.9022 1.23389 100.336 4.88621 102.452Z" fill="#456185"/>
<path fill-rule="evenodd" clip-rule="evenodd" d="M91.9247 75.9407C92.3725 77.3781 92.4621 77.7873 92.273 78.8554C92.064 79.4143 91.845 79.6739 91.6162 80.4424C91.3375 81.4007 91.3773 83.0077 89.9443 83.956C88.2325 85.3035 84.9285 85.3634 83.8936 83.9261C83.8936 83.2273 84.3613 81.6802 85.2271 80.4325L86.899 77.3282L86.7895 74.4235L90.5016 72.0479L91.9247 75.9407Z" fill="black"/>
<path fill-rule="evenodd" clip-rule="evenodd" d="M75.5142 71.2892C76.0118 71.8382 76.1113 73.2057 76.1313 74.7528C75.8327 76.3399 74.3499 76.3399 73.1059 76.6394C70.6976 77.2083 69.6427 79.1348 66.3984 79.3843C64.4677 79.5341 63.1541 79.2246 62.6565 78.0368C62.547 77.4778 62.8356 76.8889 63.4725 76.2501C63.4725 76.2501 67.722 73.9244 67.8314 73.8445C67.9409 73.7547 69.8019 72.1576 69.8318 72.0079C69.8616 71.8581 70.3094 68.4145 70.3094 68.4145L75.0565 68.0352L75.5142 71.2892Z" fill="black"/>
<path fill-rule="evenodd" clip-rule="evenodd" d="M73.4541 51.9745C75.7032 59.6704 75.6335 71.1992 75.6335 71.1992C75.5738 71.4288 75.4843 71.6185 75.3549 71.7882C74.0512 73.5749 69.6625 72.2074 69.6625 72.2074C69.7918 67.0369 67.6721 61.8564 66.1893 52.0943C65.4927 47.5127 65.9803 42.422 66.6769 38.3096C67.1944 35.3051 67.8214 32.8296 68.2095 31.4422C68.4185 30.6736 68.5578 30.2444 68.5578 30.2444L69.8615 30.8533L75.3748 33.4186L78.44 34.836L74.8075 47.2532L73.4541 51.9745Z" fill="#1A6CA3"/>
<path fill-rule="evenodd" clip-rule="evenodd" d="M91.4671 74.2838C91.4671 75.9008 87.2774 78.2864 86.5708 76.35C85.8642 74.4135 79.6145 67.6958 78.0023 64.8511C77.0668 63.3538 76.4299 60.5589 75.9622 57.3947C75.4646 54.0708 75.1461 50.3477 74.8774 47.2833C74.6883 45.1772 74.5291 43.3805 74.3301 42.2425C71.1156 41.9231 68.6675 35.0757 68.6675 35.0757L75.4447 33.4587L80.1917 32.3307L84.6401 31.2627C84.9088 32.0313 85.1377 32.7899 85.3368 33.5485C86.4016 37.5012 86.6106 41.3043 85.088 44.8378L83.6052 60.6787C86.9191 63.4836 88.8597 66.6977 89.9843 69.3129C90.1435 69.6822 90.2828 70.0316 90.4122 70.3809C90.4819 70.5806 90.5515 70.7702 90.6212 70.9499C91.3278 72.9362 91.477 74.2838 91.4671 74.2838Z" fill="#1A6CA3"/>
<path opacity="0.502" fill-rule="evenodd" clip-rule="evenodd" d="M89.9743 69.3129C88.0436 65.5498 81.7541 60.7985 79.5945 60.3294C77.2658 59.8203 76.0019 57.5046 75.9422 57.3948C75.4446 54.0709 75.1261 50.3377 74.8574 47.2634L73.4741 51.9847C75.7332 59.6806 75.6635 71.2194 75.6635 71.2194C75.6038 71.449 75.5043 71.6386 75.3849 71.8083C75.2356 68.8637 73.7329 61.9464 72.6083 57.3848C71.4838 52.8332 72.3197 51.9847 71.9913 47.5129C71.6729 43.0511 66.687 38.3098 66.687 38.3098C67.2045 35.3053 67.8414 32.8199 68.2295 31.4324L69.8915 30.8435L71.6032 30.2346L80.1817 32.2709L85.3268 33.4886C86.3916 37.4414 86.6006 41.2544 85.078 44.7879L83.5951 60.6588C86.919 63.4736 88.8597 66.6977 89.9743 69.3129Z" fill="#4488B8"/>
<path opacity="0.502" fill-rule="evenodd" clip-rule="evenodd" d="M90.5815 70.9099C90.5218 70.7901 90.472 70.6304 90.4223 70.4307C90.4223 70.4108 90.4123 70.3908 90.4023 70.3708C90.4621 70.5605 90.5218 70.7402 90.5815 70.9099Z" fill="#662D91"/>
<path fill-rule="evenodd" clip-rule="evenodd" d="M70.0008 20.0632L55.929 33.0593C54.9935 32.6201 53.2619 31.1828 52.7842 30.0748L68.3488 11.7484C69.8117 10.2612 71.4438 9.38278 73.2053 9.28296L70.0008 20.0632Z" fill="#091BAD"/>
<path fill-rule="evenodd" clip-rule="evenodd" d="M69.5034 36.4431C69.9512 36.8823 70.3493 37.2916 70.6976 37.6809C71.7724 38.8787 72.4193 39.8269 73.1557 40.6454C73.723 41.2843 74.3201 41.8333 75.166 42.3823C78.4003 44.4485 78.5596 47.5128 82.1522 44.4784C82.1721 44.4684 82.182 44.4485 82.2119 44.4385C86.3419 41.8333 86.4912 38.4395 86.0433 35.1755L86.939 31.2527L87.7849 27.5595L87.9242 26.3217L87.964 25.9225L88.9692 16.7094C88.5611 16.2502 88.1531 15.791 87.7252 15.3519C87.2674 14.8827 86.8096 14.4036 86.3319 13.9544C84.5605 12.2575 82.6 10.7004 80.4803 9.29297H73.2154C71.5435 10.8601 70.628 13.3655 70.1403 16.4099C70.1403 16.4099 70.1105 17.3282 70.0508 18.7856C69.9015 22.8381 69.6129 31.0231 69.5333 35.0058C69.5134 35.5747 69.5134 36.0738 69.5034 36.4431Z" fill="#091BAD"/>
<path fill-rule="evenodd" clip-rule="evenodd" d="M76.6191 14.5332C76.7883 14.8726 77.0172 15.1022 77.3058 15.202C80.142 16.0405 82.4608 12.7964 82.1324 10.8899C81.8637 8.92351 81.7144 7.85547 81.7144 7.85547L76.2409 9.21298C76.2409 9.21298 76.1812 9.73203 76.1514 10.4507C76.1016 11.6785 76.1116 13.535 76.6191 14.5332Z" fill="#FFA473"/>
<path opacity="0.502" fill-rule="evenodd" clip-rule="evenodd" d="M76.6191 14.5532C76.8878 14.7428 77.1963 14.8526 77.5247 14.8526C80.1321 14.8526 80.9681 9.94165 80.9681 9.94165L76.1514 10.4507C76.1016 11.6884 76.1116 13.545 76.6191 14.5532Z" fill="#FFB294"/>
<path fill-rule="evenodd" clip-rule="evenodd" d="M81.2965 8.77401C81.2965 8.77401 80.6994 11.1596 79.6346 12.1877C78.5697 13.2159 76.8779 13.7349 76.231 13.7649C75.5842 13.7948 75.0766 13.7449 74.6587 13.2458C74.2407 12.7467 73.9819 8.21504 73.9819 8.21504C73.9919 6.45826 74.0217 5.92923 74.2307 4.95102C74.5392 3.51366 75.5742 0.319523 79.744 0.89846C81.7543 1.17795 83.0082 2.64526 83.267 4.43198C83.476 5.84938 82.3415 8.36476 82.3415 8.36476L81.2965 8.77401Z" fill="#FFA473"/>
<path opacity="0.502" fill-rule="evenodd" clip-rule="evenodd" d="M75.6336 11.978C78.2211 11.978 80.9081 6.92725 80.9081 6.92725L74.1309 6.4082C73.9617 10.1214 73.8523 11.968 75.6336 11.978Z" fill="#FFB294"/>
<path fill-rule="evenodd" clip-rule="evenodd" d="M82.4211 8.69408L80.4407 9.76212L80.2914 8.56432C80.3013 7.99536 79.8237 7.53621 79.2564 7.57613C78.311 7.64601 76.8481 7.5961 75.4449 6.90736C74.1113 6.24857 73.8824 5.35022 73.8824 5.35022C73.2157 2.75498 76.6092 0.758642 79.1569 0.838496C82.2619 0.948294 83.5158 3.04445 83.5257 4.90104C83.5357 6.57796 82.431 8.69408 82.4211 8.69408Z" fill="black"/>
<path fill-rule="evenodd" clip-rule="evenodd" d="M76.0118 6.44806C77.1264 7.09687 78.4102 7.53607 79.6542 7.77563C79.6144 7.79559 79.5845 7.82554 79.5447 7.8455C77.4648 9.05328 74.7678 10.301 72.0311 8.72389C69.0356 6.99706 71.4638 5.58964 73.5637 4.38186C73.6035 4.35191 73.6532 4.33195 73.703 4.302C74.101 5.03066 74.8872 5.77929 76.0218 6.43808L76.0118 6.44806Z" fill="#1E1D33"/>
<path fill-rule="evenodd" clip-rule="evenodd" d="M79.5248 7.84556C81.1669 7.75572 82.381 7.25664 83.2866 6.45811C83.2866 6.45811 84.6898 2.00627 80.8783 0.548947C74.6484 -1.82669 73.6831 4.31204 73.6831 4.31204C74.121 6.23851 76.5094 7.19675 79.5248 7.84556Z" fill="#0D9B1B"/>
<path fill-rule="evenodd" clip-rule="evenodd" d="M81.9932 7.09706C82.2718 6.95732 82.6401 6.97728 82.8291 7.22682C82.9386 7.36657 82.9585 7.54624 82.9287 7.72591C82.8988 7.8956 82.8291 8.0553 82.7495 8.20503C82.6201 8.47453 82.4808 8.73406 82.3216 8.9836C82.1922 9.19322 82.033 9.40283 81.7941 9.46272C81.5553 9.52261 81.2567 9.68232 81.1274 9.4727C80.998 9.26309 81.0079 8.68415 81.0577 8.43461C81.1672 7.92554 81.5055 7.33662 81.9932 7.09706Z" fill="#FFA473"/>
<path opacity="0.502" fill-rule="evenodd" clip-rule="evenodd" d="M63.4727 20.9814L69.5433 34.9758L70.7176 37.6708C71.7924 38.8686 72.4392 39.8169 73.1657 40.6354C73.733 41.2742 74.3301 41.8332 75.176 42.3722C78.4004 44.4384 78.5696 47.5028 82.1423 44.4683C82.1622 44.4584 82.1721 44.4384 82.202 44.4284C86.322 41.8232 86.4713 38.4294 86.0334 35.1654L86.9291 31.2426L87.775 27.5394L84.0132 20.5822L80.9281 23.2672L70.0608 18.7555L68.9661 18.2964L69.9115 14.9026L63.4727 20.9814Z" fill="#4488B8"/>
<path fill-rule="evenodd" clip-rule="evenodd" d="M65.8613 49.5891L81.5653 40.4758V26.5913L65.8613 35.7046V49.5891Z" fill="#BD8A4B"/>
<path fill-rule="evenodd" clip-rule="evenodd" d="M52.0083 41.5637L65.8612 49.589V35.6945L52.0083 27.6692V41.5637Z" fill="#EFB972"/>
<path fill-rule="evenodd" clip-rule="evenodd" d="M52.0083 27.6792L58.4571 31.4123L58.9348 31.6918L65.8413 35.6945L81.5652 26.5812L74.6586 22.5786L74.1809 22.2991L67.7322 18.5659L52.0083 27.6792Z" fill="#FFE1B3"/>
<path fill-rule="evenodd" clip-rule="evenodd" d="M58.457 31.4023L58.9347 31.6818L74.6387 22.5585L74.161 22.2791L58.457 31.4023Z" fill="#BD8A4B"/>
<path fill-rule="evenodd" clip-rule="evenodd" d="M52.7445 34.367L52.028 33.7082V32.4604L51.0527 34.0575V36.3833L51.4309 37.072L52.028 37.3115H52.1673C52.6152 37.3115 52.9734 36.9522 52.9734 36.513V34.906C52.9734 34.6963 52.8938 34.4967 52.7445 34.367Z" fill="#FFA473"/>
<path fill-rule="evenodd" clip-rule="evenodd" d="M72.6086 42.512L69.6529 44.2788C68.9165 44.8078 66.6475 45.9457 66.6475 45.9457C66.0902 45.9457 65.4433 45.6163 64.5079 45.4467C63.6321 45.2969 63.3833 44.6381 64.1496 44.5783C62.7265 44.4285 62.6469 43.7198 63.5525 43.6599C62.6867 43.4803 62.5374 42.7716 63.3734 42.7516C62.5872 42.2924 62.8857 41.6836 63.851 42.0529L64.9756 42.2625L66.4286 42.2525L66.8565 41.444L66.4485 40.9549L65.6026 40.7453C64.9955 40.4458 64.9059 39.9468 65.4135 39.9468L67.2247 40.1963C68.3692 40.7553 68.0905 40.1763 68.6279 41.0946L71.4443 39.9368L72.6186 42.4921L72.6086 42.512Z" fill="#FFA473"/>
<path fill-rule="evenodd" clip-rule="evenodd" d="M89.9444 23.9759C88.8497 26.1819 86.5907 31.8615 82.9384 35.8741C78.0023 40.1163 73.7528 42.6018 70.0309 44.079C70.4389 43.3204 71.1057 41.3441 69.5034 40.7551L80.4405 29.5757L83.625 21.6502C84.6998 18.2265 87.2176 15.6911 88.9493 16.6993C90.1534 17.388 91.3476 20.1629 89.9444 23.9759Z" fill="#091BAD"/>
<path fill-rule="evenodd" clip-rule="evenodd" d="M64.9058 103.011L80.6694 93.8977V80.0132L64.9058 89.1265V103.011Z" fill="#BD8A4B"/>
<path fill-rule="evenodd" clip-rule="evenodd" d="M51.0527 94.9858L64.9057 103.011V89.1166L51.0527 81.0913V94.9858Z" fill="#EFB972"/>
<path fill-rule="evenodd" clip-rule="evenodd" d="M51.0527 81.1011L57.5115 84.8342L57.9991 85.1137L64.9156 89.1164L80.6693 80.0031L73.7429 76.0004L73.2652 75.7209L66.8065 71.9878L51.0527 81.1011Z" fill="#FFE1B3"/>
<path opacity="0.702" fill-rule="evenodd" clip-rule="evenodd" d="M57.5015 84.8244L57.9891 85.1039L73.7428 75.9807L73.2651 75.7012L57.5015 84.8244Z" fill="#BD8A4B"/>
<path fill-rule="evenodd" clip-rule="evenodd" d="M13.0768 91.9314C15.4155 92.4205 15.7837 94.2472 14.898 95.8343L12.2607 99.5774C11.2755 101.304 9.94196 102.113 8.21034 101.813C6.64791 101.164 6.43892 100.136 6.8768 98.9186L7.52366 96.9223L8.53875 91.5122L13.0768 91.9115V91.9314Z" fill="black"/>
<path fill-rule="evenodd" clip-rule="evenodd" d="M6.35903 96.7226C7.09547 99.218 11.8823 99.1282 12.2107 95.7943L13.5144 84.1357L13.793 82.1194L16.4502 71.0796L17.0274 68.684L15.7038 61.9564L6.31923 57.5544C5.79178 57.4846 4.78665 61.1678 6.32918 65.8392C8.15036 71.3791 6.70735 78.4661 6.70735 78.9053C5.31409 83.2773 6.05053 91.023 6.35903 96.7226Z" fill="#0B151A"/>
<path fill-rule="evenodd" clip-rule="evenodd" d="M12.9371 101.274C12.0514 102.751 12.4594 105.237 12.9769 106.355C14.5095 106.934 15.7933 107.044 16.679 106.435C19.575 106.255 21.1971 106.644 22.6899 106.225C24.2722 105.776 25.357 105.297 26.173 103.72C26.4815 103.011 26.0536 101.683 24.7599 101.494C22.3515 101.394 20.192 101.194 19.0177 100.605L16.9577 96.8523L13.2257 99.7969L12.9371 101.274Z" fill="black"/>
<path fill-rule="evenodd" clip-rule="evenodd" d="M22.0928 61.4372L5.52308 57.2549C4.58761 68.644 11.2255 67.6658 12.5292 68.6939C13.6836 78.2164 13.8627 77.6075 13.7134 80.8416C11.2653 90.7235 12.5988 101.294 12.6088 101.833C14.2906 104.518 19.1173 102.801 19.5551 100.296C19.5651 94.9956 19.4556 91.7117 21.6749 81.191C22.5009 74.9824 22.4312 66.5478 22.0928 61.4372Z" fill="#1E3A47"/>
<path fill-rule="evenodd" clip-rule="evenodd" d="M28.8704 45.2769C28.9102 45.207 30.2238 43.4602 30.2238 43.4602L31.9355 38.8487V35.9939L28.8604 36.4231L28.0344 39.198L27.8951 40.7851L27.7557 41.6835L26.1436 43.7397L28.8704 45.2769Z" fill="#FFB294"/>
<path fill-rule="evenodd" clip-rule="evenodd" d="M20.6001 40.6255L26.4916 28.2083L34.3933 30.9532L28.2232 43.6L20.6001 40.6255Z" fill="#E6E6E6"/>
<path fill-rule="evenodd" clip-rule="evenodd" d="M20.6001 40.2063L26.4916 27.7891L34.3933 30.534L28.2232 43.1808L20.6001 40.2063Z" fill="#CCCCCC"/>
<path fill-rule="evenodd" clip-rule="evenodd" d="M20.2422 40.276L26.1337 27.9087L34.0354 30.6437L27.8653 43.2406L20.2422 40.276Z" fill="#E6E6E6"/>
<path fill-rule="evenodd" clip-rule="evenodd" d="M20.0029 40.2063L25.9143 27.7891L33.8559 30.534L27.6559 43.1808L20.0029 40.2063Z" fill="#CCCCCC"/>
<path fill-rule="evenodd" clip-rule="evenodd" d="M19.8242 40.0365L25.7157 27.6692L33.6174 30.4042L27.4473 43.0011L19.8242 40.0365Z" fill="#E6E6E6"/>
<path fill-rule="evenodd" clip-rule="evenodd" d="M25.9346 34.397L25.5664 33.5985L24.6707 32.211C24.1234 32.0812 23.5661 31.9415 22.9988 31.8018L21.0881 32.4306L19.0082 33.2491L17.7343 34.0476L12.7783 35.7246L13.4849 38.6891C13.4849 38.6891 18.4509 36.2935 18.4708 36.2935C18.5205 36.2835 19.2171 35.9541 19.2171 35.9541L20.073 36.014L22.0136 35.3952C21.9141 35.8443 22.0534 35.9841 22.5012 35.7445L23.785 34.9759L24.4319 34.1874L24.2528 33.5386L25.019 34.387C25.4072 34.9759 26.1237 35.0957 25.9446 34.387L25.9346 34.397Z" fill="#FFB294"/>
<path fill-rule="evenodd" clip-rule="evenodd" d="M25.2876 35.4749L26.2728 36.1137L25.7553 35.0656L20.5008 29.0467C20.3117 28.847 19.8738 29.2064 20.043 29.4459L25.2876 35.4749Z" fill="#333333"/>
<path fill-rule="evenodd" clip-rule="evenodd" d="M22.1525 33.0593L22.5805 33.7081L23.7448 34.2172L24.6106 34.4268C25.4964 34.7462 24.9888 35.6545 24.322 35.4749L23.2472 35.2653L22.0232 34.8859L21.3564 34.836L20.1323 35.395L20.1423 33.0493L22.1525 33.0593Z" fill="#FFB294"/>
<path fill-rule="evenodd" clip-rule="evenodd" d="M0 38.0302L0.447832 42.2624C0.646868 43.4502 1.28378 44.1889 2.11974 44.648C3.54285 45.4366 5.55311 45.4166 7.00608 45.4565C7.42405 45.4565 7.80222 45.4865 8.10078 45.5164L8.54861 40.6953L3.96082 30.9631C1.23402 31.7018 0.0398072 34.2072 0 38.0302Z" fill="#0D9B1B"/>
<path fill-rule="evenodd" clip-rule="evenodd" d="M30.5121 39.268C30.4523 39.2381 30.0642 37.8407 30.0642 37.8407L30.3727 36.004C30.3926 35.4351 29.8353 35.3253 29.5865 35.8743L28.3525 38.2499L27.9942 40.0965L28.2132 41.1446L27.0488 42.6319L29.4174 43.0611L30.5121 39.268Z" fill="#FFB294"/>
<path fill-rule="evenodd" clip-rule="evenodd" d="M22.5008 62.2257C21.645 62.8746 20.3612 63.194 18.6594 63.3637C17.913 63.4335 6.07039 62.4953 5.31405 56.8257C5.31405 56.8257 4.56767 54.1406 4.51791 50.1779C4.46815 46.2251 2.31856 40.4357 2.17923 37.4013C1.91053 31.6918 3.99046 30.9431 3.99046 30.9431C7.03572 30.2544 9.62319 29.7753 13.9423 31.3823C16.1217 33.3587 20.5901 36.9821 20.5901 36.9821C21.2469 37.6608 21.7146 38.3895 22.053 39.188C22.9785 41.4339 22.8392 44.2887 22.6302 48.5109C22.6103 48.8203 22.6103 49.1398 22.6302 49.4791C22.7397 53.0626 22.4312 54.2005 23.2273 56.8157C24.0732 59.6205 23.7846 61.2675 22.5008 62.2158V62.2257Z" fill="#33BE3D"/>
<path fill-rule="evenodd" clip-rule="evenodd" d="M17.6642 20.0732C20.2617 20.3228 20.8986 21.3509 20.6996 23.6866C21.3066 24.9642 19.6646 27.8789 18.8386 29.6556C18.5997 30.1747 18.1917 30.9233 17.0771 30.8035C16.689 30.8734 16.5297 31.2327 16.4103 31.6021C16.1715 32.3008 16.0322 33.1891 16.0322 33.1891C14.7484 34.337 9.07583 31.7418 9.86203 30.4242L11.0961 28.8771L13.3551 20.0632H17.6642V20.0732Z" fill="#FFB294"/>
<path fill-rule="evenodd" clip-rule="evenodd" d="M20.8492 24.6347C20.4312 24.6547 19.854 24.3652 19.1474 25.7427C18.8787 26.2717 18.6001 26.8706 18.6001 26.8706L17.1272 27.1401L16.3012 29.0166C16.0325 29.6156 15.0871 30.5938 14.4502 30.6037C13.3654 30.6137 11.6139 29.8351 11.0367 29.0765C11.0367 29.0765 10.4993 25.2136 11.0367 23.4169C11.5741 21.6102 11.9622 20.1829 13.664 19.3843C15.3558 18.5858 18.61 19.3344 19.9436 20.2427C23.3869 22.0794 22.7102 24.994 20.8492 24.6347Z" fill="black"/>
<path fill-rule="evenodd" clip-rule="evenodd" d="M18.0922 27.4098C18.1918 27.1503 18.2614 26.8808 18.2714 26.6113C18.2813 26.3717 18.2415 26.1122 18.0624 25.9625C17.8932 25.8327 17.6245 25.8527 17.4454 25.9724C17.2662 26.0922 17.1369 26.2919 17.0373 26.4815C16.7686 27.0305 16.6393 27.6793 16.7886 28.2782C16.8284 28.4579 16.9279 28.6475 17.0971 28.6775C17.2662 28.7074 17.4155 28.5477 17.525 28.408C17.8036 28.0287 18.0524 27.6094 18.2614 27.1802L18.0922 27.4098Z" fill="#FFB294"/>
<path opacity="0.3098" fill-rule="evenodd" clip-rule="evenodd" d="M22.4912 62.2359C22.2026 62.2858 21.8941 62.3257 21.5757 62.3457L20.1824 59.9301C18.5105 57.0354 17.4258 53.8213 17.0078 50.4974L16.1221 43.4204L22.6306 49.4893C22.74 53.0827 22.4315 54.2106 23.2277 56.8358C24.0736 59.6406 23.785 61.2876 22.4912 62.2359Z" fill="#0D9B1B"/>
<path fill-rule="evenodd" clip-rule="evenodd" d="M24.0836 44.159L26.2232 42.0229C28.343 40.4957 31.02 42.6518 30.4229 45.5465L25.5067 51.7351C24.8698 52.6734 23.7452 53.2324 22.7799 53.3521C19.5854 53.1425 17.8936 48.3214 16.1321 43.7298C15.2265 38.8887 18.9584 35.7445 21.6752 38.3796L24.0836 44.159Z" fill="#0D9B1B"/>
<path fill-rule="evenodd" clip-rule="evenodd" d="M9.19531 30.3343L10.5687 29.5857C11.5439 30.5739 13.6537 31.4922 16.2213 32.4005L16.7189 33.778C16.7189 33.778 12.9571 33.7081 11.325 32.69C9.25502 31.4123 9.19531 30.3343 9.19531 30.3343Z" fill="white"/>
</g>
<defs>
<clipPath id="clip0_252_4201">
<rect width="95" height="109" fill="white"/>
</clipPath>
</defs>
</svg>
