<svg width="53" height="41" viewBox="0 0 53 41" fill="none" xmlns="http://www.w3.org/2000/svg">
    <g clip-path="url(#clip0_219_6954)">
        <path fill-rule="evenodd" clip-rule="evenodd"
              d="M0.261719 20.748C0.261719 9.7116 9.11426 0.761719 20.0306 0.761719C30.947 0.761719 39.7996 9.7116 39.7996 20.748C39.7996 31.7845 30.947 40.7343 20.0306 40.7343C9.11426 40.7343 0.261719 31.7845 0.261719 20.748Z"
              fill="white"/>
        <path fill-rule="evenodd" clip-rule="evenodd"
              d="M7.12159 5.9636C-0.955245 13.1719 -1.72293 25.6349 5.40693 33.8005C12.5368 41.9662 24.8642 42.7423 32.9411 35.534C41.0179 28.3258 41.7856 15.8628 34.6558 7.69712C27.5259 -0.468533 15.1984 -1.24466 7.12159 5.9636ZM5.01422 34.151C-2.30709 25.7661 -1.51879 12.9684 6.77493 5.56657C15.0687 -1.83524 27.7271 -1.03828 35.0485 7.34665C42.3698 15.7316 41.5815 28.5293 33.2877 35.9311C24.994 43.3329 12.3355 42.5359 5.01422 34.151Z"
              fill="#A1A4B1"/>
        <path fill-rule="evenodd" clip-rule="evenodd"
              d="M19.8005 11.3125C20.1672 11.3125 20.5338 11.3337 20.8796 11.3866C22.3043 11.5985 23.331 12.0751 24.4415 13.0389C26.1701 14.5429 27.0397 16.693 26.8301 19.0126C26.6835 20.7496 26.0654 22.1053 24.8501 23.3445C23.3206 24.9121 21.4243 25.6217 19.2033 25.4417C18.009 25.3463 17.0138 24.9968 15.9871 24.319C13.9023 22.9421 12.687 20.5695 12.8127 18.0805C12.8966 16.3011 13.5251 14.8183 14.7194 13.5367C15.809 12.3717 17.2024 11.6197 18.7633 11.376C19.0776 11.3337 19.4338 11.3125 19.8005 11.3125ZM14.1956 25.5158C14.3213 25.5158 14.3947 25.537 14.5518 25.5794C14.7299 25.6323 15.2014 25.8865 15.8299 26.289C17.0243 27.0516 17.0662 27.0728 17.8309 27.3481C18.6376 27.6341 19.2557 27.7506 20.0519 27.7506C20.8377 27.7506 21.4977 27.6235 22.3148 27.3164C23.0167 27.0516 23.1529 26.9774 24.0853 26.3737C24.9653 25.8018 25.353 25.6005 25.6358 25.5476C25.9292 25.4946 26.9035 25.6111 27.4587 25.77C29.8578 26.469 31.3769 28.7145 31.974 32.4533C32.1102 33.29 32.1836 34.2433 32.2045 35.1012L32.1102 36.3298L30.9055 37.336C28.7997 38.7765 26.4006 39.8038 23.8234 40.344L19.8633 40.7465H19.79L15.8299 40.344C13.2528 39.8144 10.8537 38.7765 8.74791 37.336L7.99361 36.7111L7.85742 34.4127C7.93076 33.3006 8.09838 32.0932 8.38124 30.9917C9.20887 27.6977 11.0108 25.8336 13.588 25.5582C13.9128 25.5264 14.0699 25.5158 14.1956 25.5158Z"
              fill="#A1A4B1"/>
        <path fill-rule="evenodd" clip-rule="evenodd"
              d="M53.0004 16.7135V8.29321H48.2651C48.3384 5.68768 50.4337 3.62232 53.0004 3.62232V0C48.4641 0 44.7765 3.68587 44.7031 8.29321V16.7135H53.0004Z"
              fill="#0D9B1B"/>
        <path fill-rule="evenodd" clip-rule="evenodd"
              d="M40.4916 16.7135V8.29321H35.7563C35.8296 5.68768 37.9249 3.62232 40.4916 3.62232V0C35.9554 0 32.2677 3.68587 32.1943 8.29321V16.7135H40.4916Z"
              fill="#0D9B1B"/>
    </g>
    <defs>
        <clipPath id="clip0_219_6954">
            <rect width="53" height="41" fill="white"/>
        </clipPath>
    </defs>
</svg>
