<svg width="81" height="156" viewBox="0 0 81 156" fill="none" xmlns="http://www.w3.org/2000/svg">
<g clip-path="url(#clip0_219_6421)">
<path fill-rule="evenodd" clip-rule="evenodd" d="M69.211 0.599633C69.4706 0.493895 69.7774 0.470397 70.0252 0.611382C69.4824 0.364658 68.9278 -0.234528 68.2905 0.106186C68.2315 0.0709393 1.60477 38.3954 1.51036 38.4306C1.10914 38.6656 0.790522 39.0181 0.542708 39.394C0.271291 39.8287 0.0706795 40.3222 0.0352774 40.8274C-0.0709288 41.0271 0.235889 87.4347 0.165085 87.6344C0.0942809 88.5626 0.92033 88.7271 1.47496 89.103C1.20355 88.9503 1.03834 88.6213 1.03834 88.1514L0.908529 41.5088C0.908529 41.0036 1.08554 40.5102 1.33335 40.0637C1.59297 39.6173 1.94699 39.1943 2.39542 38.9358C2.69043 38.8301 68.916 0.670126 69.211 0.599633Z" fill="#F2F2F8"/>
<path opacity="0.2784" fill-rule="evenodd" clip-rule="evenodd" d="M70.4619 1.55046C70.4619 0.61056 69.7892 0.222851 68.9632 0.70455L2.37182 38.9468C-0.826168 37.7601 1.71098 87.2811 1.01474 88.1858C1.01474 89.1257 1.68738 89.5134 2.51343 89.0434L69.1048 50.8012C69.9308 50.3313 70.6035 49.1799 70.6035 48.2283L70.4619 1.55046Z" fill="white"/>
<path opacity="0.2784" fill-rule="evenodd" clip-rule="evenodd" d="M68.9396 2.46718L3.1861 40.2512C2.83208 40.4627 2.45445 41.1088 2.45445 41.5083L2.58426 87.258L68.3378 49.474C68.6918 49.2742 69.0694 48.6163 69.0694 48.2168L68.9396 2.46718ZM2.04143 88.1861L1.91162 41.5201C1.91162 40.9209 2.38365 40.0985 2.91468 39.793L69.4706 1.55078L69.6004 48.2168C69.6004 48.816 69.1284 49.6384 68.5974 49.9439L2.04143 88.1861Z" fill="#BCC0DB"/>
<path fill-rule="evenodd" clip-rule="evenodd" d="M66.2017 7.54235L54.165 14.4506V14.3096L66.2017 7.40137V7.54235Z" fill="#565D8C"/>
<path fill-rule="evenodd" clip-rule="evenodd" d="M66.2017 14.6625L54.165 21.5707V21.4298L66.2017 14.5215V14.6625Z" fill="#565D8C"/>
<path fill-rule="evenodd" clip-rule="evenodd" d="M57.6344 18.1286L54.165 20.0907V15.9904L57.6344 14.0283V18.1286Z" fill="#0D9B1B"/>
<path fill-rule="evenodd" clip-rule="evenodd" d="M66.2019 9.44567L61.7412 12.0539V11.9129L66.2019 9.30469V9.44567Z" fill="#565D8C"/>
<path fill-rule="evenodd" clip-rule="evenodd" d="M66.202 10.2924L58.626 14.6629V14.5219L66.202 10.1514V10.2924Z" fill="#565D8C"/>
<path fill-rule="evenodd" clip-rule="evenodd" d="M66.202 11.2669L58.626 15.5787V15.4377L66.202 11.1377V11.2669Z" fill="#565D8C"/>
<path fill-rule="evenodd" clip-rule="evenodd" d="M66.202 12.1839L58.626 16.4957V16.3547L66.202 12.0547V12.1839Z" fill="#565D8C"/>
<path fill-rule="evenodd" clip-rule="evenodd" d="M66.202 13.1117L58.626 17.4822V17.3412L66.202 12.9707V13.1117Z" fill="#565D8C"/>
<path fill-rule="evenodd" clip-rule="evenodd" d="M66.2017 18.3988L54.165 25.3071V25.1661L66.2017 18.2578V18.3988Z" fill="#565D8C"/>
<path fill-rule="evenodd" clip-rule="evenodd" d="M66.2017 25.4476L54.165 32.3559V32.2149L66.2017 25.3066V25.4476Z" fill="#565D8C"/>
<path fill-rule="evenodd" clip-rule="evenodd" d="M57.6344 28.9371L54.165 30.8757V26.8223L57.6344 24.8838V28.9371Z" fill="#2C40D4"/>
<path fill-rule="evenodd" clip-rule="evenodd" d="M66.2019 20.2904L61.7412 22.8399V22.6989L66.2019 20.1611V20.2904Z" fill="#565D8C"/>
<path fill-rule="evenodd" clip-rule="evenodd" d="M66.202 21.1478L58.626 25.5184V25.3774L66.202 21.0068V21.1478Z" fill="#565D8C"/>
<path fill-rule="evenodd" clip-rule="evenodd" d="M66.202 22.0638L58.626 26.4344V26.2934L66.202 21.9229V22.0638Z" fill="#565D8C"/>
<path fill-rule="evenodd" clip-rule="evenodd" d="M66.202 22.9808L58.626 27.3514V27.2104L66.202 22.8398V22.9808Z" fill="#565D8C"/>
<path fill-rule="evenodd" clip-rule="evenodd" d="M66.202 23.8968L58.626 28.2674V28.1264L66.202 23.7559V23.8968Z" fill="#565D8C"/>
<path d="M9.48781 47.0889H9.20459V81.9122H9.48781V47.0889Z" fill="#6C74AF"/>
<path fill-rule="evenodd" clip-rule="evenodd" d="M4.24805 80.3148L57.7052 49.5801L57.8586 49.8503L4.40146 80.585L4.24805 80.3148Z" fill="#6C74AF"/>
<path fill-rule="evenodd" clip-rule="evenodd" d="M12.249 69.2235C12.6738 68.8828 14.6564 50.6605 15.978 52.1409L18.5978 55.5362C19.2114 56.1707 20.0847 53.492 20.3561 53.21C20.8281 52.1996 21.5244 53.304 22.0082 53.5742C23.0231 54.5728 25.1944 42.5186 25.5248 42.2836C25.6782 41.6962 26.1857 41.3555 26.3863 41.708L29.5961 47.3944C30.9649 49.2976 32.0978 32.215 32.4282 32.2267C32.5226 31.5335 33.1835 31.0753 33.3487 31.5923L36.6057 41.4495C36.7355 41.8254 37.1485 41.6962 37.3963 41.2263C37.6913 40.956 38.9658 37.3962 39.6148 37.9014L41.5266 39.4874C41.7862 39.6989 42.2464 39.276 42.3408 38.7238L45.7866 18.2927C45.9046 17.5643 46.6009 17.1765 46.7189 17.7522L52.6546 45.9258L12.249 69.2235Z" fill="#0D9B1B"/>
<path fill-rule="evenodd" clip-rule="evenodd" d="M11.3994 73.6645C11.836 73.2885 13.9602 56.1941 15.2936 57.5804L18.0314 60.5529C18.6804 61.0933 19.5655 58.6026 19.8723 58.2736C20.3443 57.3219 21.076 58.2619 21.607 58.4968C22.6573 59.3545 24.923 48.0992 25.277 47.7937C25.4304 47.2415 25.9733 46.8891 26.1739 47.2063L29.5253 52.2582C29.7613 52.6107 30.3631 52.1407 30.4575 51.5416L32.4873 38.007C32.5817 37.3608 33.2779 36.8909 33.4549 37.3608L36.8535 46.2781C37.4436 47.3355 38.9658 43.4349 39.2727 43.1882C39.4733 42.8357 39.7919 42.6595 39.9925 42.777L41.9986 44.1163C43.3911 45.1502 46.0109 24.4724 46.4357 24.1905C46.5655 23.509 47.2853 23.0978 47.4151 23.6265L53.6105 49.3445L11.3994 73.6645Z" fill="#2C40D4"/>
<path fill-rule="evenodd" clip-rule="evenodd" d="M63.0631 31.8865C62.8389 31.957 62.6029 32.051 62.3669 32.1684L62.4259 31.2638C62.6973 31.1346 62.9687 31.0171 63.2402 30.9348L63.0631 31.8865ZM60.9626 33.1201L60.7974 32.3682C61.057 32.1567 61.3284 31.957 61.5999 31.7572L61.6707 32.5797C61.4228 32.7559 61.1868 32.9321 60.9626 33.1201ZM64.373 31.722C64.1724 31.6985 63.96 31.7102 63.7358 31.7337L64.0072 30.7586C64.2668 30.7233 64.5146 30.7233 64.7506 30.7468L64.373 31.722ZM59.6409 34.4595L59.2751 33.9073C59.5111 33.6253 59.7589 33.3433 60.0186 33.0848L60.29 33.7545C60.054 33.966 59.8416 34.2127 59.6409 34.4595ZM58.5435 36.0808L57.9888 35.8106C58.1777 35.4698 58.3783 35.1409 58.5907 34.8237L59.0627 35.2349C58.8739 35.5051 58.6969 35.7988 58.5435 36.0808ZM57.7764 37.8666L57.092 37.9018C57.21 37.5494 57.3398 37.1969 57.4814 36.8445L58.1186 36.9619C57.977 37.2674 57.8708 37.5729 57.7764 37.8666ZM57.3752 39.6524L56.62 39.9579C56.6554 39.6289 56.7144 39.2882 56.7852 38.9475L57.5286 38.7712C57.4578 39.065 57.4106 39.3704 57.3752 39.6524ZM56.6318 41.8377C56.5964 41.5557 56.5728 41.2502 56.5728 40.933L57.328 40.4983C57.328 40.7685 57.3516 41.0388 57.3752 41.2855L56.6318 41.8377ZM66.9692 37.6786L66.2847 37.6904C66.3909 37.3849 66.4735 37.0912 66.5443 36.7857L67.2642 36.633C67.1816 36.9737 67.0872 37.3261 66.9692 37.6786ZM57.092 43.365C56.974 43.1535 56.8796 42.9068 56.8088 42.6483L57.5404 41.9904C57.6112 42.2136 57.6938 42.4251 57.7882 42.6131L57.092 43.365ZM66.0487 39.7581L65.4941 39.4879C65.6593 39.1942 65.8009 38.9005 65.9307 38.595L66.5561 38.7243C66.4027 39.0767 66.2257 39.4174 66.0487 39.7581ZM58.0006 44.4107C57.8118 44.2814 57.6466 44.1404 57.4932 43.9642L58.1186 43.1183C58.2485 43.271 58.3901 43.4003 58.5553 43.506L58.0006 44.4107ZM64.7742 41.6614L64.3848 41.121C64.5854 40.8743 64.786 40.6041 64.9631 40.3338L65.4351 40.745C65.2345 41.0623 65.0103 41.3677 64.7742 41.6614ZM59.2869 44.8336C59.0509 44.8219 58.8149 44.7749 58.6025 44.7044L59.0745 43.7527C59.2515 43.8115 59.4521 43.8467 59.6645 43.8585L59.2869 44.8336ZM60.821 44.6104C60.5496 44.6926 60.29 44.7631 60.0422 44.7984L60.3018 43.8232C60.5142 43.788 60.7502 43.741 60.9862 43.6587L60.821 44.6104ZM63.252 43.224L63.0867 42.4721C63.3228 42.2841 63.547 42.0726 63.7594 41.8494L64.0308 42.4956C63.783 42.7541 63.5116 43.0008 63.252 43.224ZM62.0247 44.0817C61.8831 44.1522 61.7533 44.2227 61.6117 44.2932L61.6825 43.3885C61.9185 43.2828 62.1663 43.1418 62.3787 43.0008L62.4377 43.835C62.3079 43.9172 62.1663 44.0112 62.0247 44.0817Z" fill="#0D9B1B"/>
<path fill-rule="evenodd" clip-rule="evenodd" d="M61.9892 42.3892C59.7825 43.658 57.9888 42.6241 57.9888 40.0864L58.1186 40.0159C58.1186 42.4714 59.8533 43.47 61.9892 42.2482C64.1251 41.0145 65.8598 38.0186 65.8598 35.5631C65.8598 33.1076 64.1251 32.109 61.9892 33.3309V33.1899C64.1959 31.921 65.9896 32.9549 65.9896 35.4926C65.9896 38.0304 64.1959 41.1203 61.9892 42.3892Z" fill="#0D9B1B"/>
<path fill-rule="evenodd" clip-rule="evenodd" d="M60.8089 39.1C60.7853 38.9942 60.9034 38.4538 60.6555 38.6183C60.4195 38.724 60.4785 39.0882 60.4785 39.2997C60.4903 39.5817 60.8443 39.2644 60.8089 39.1ZM60.1953 39.4407V38.2658C60.1009 37.7606 61.0922 36.9499 61.0804 37.8311L60.8089 37.9838C60.8679 37.5961 60.4431 37.8428 60.4785 38.0896V38.583C60.9151 37.9016 61.1748 38.254 61.0922 38.9237C61.1866 39.3702 60.2543 40.2278 60.1953 39.4407Z" fill="#0D9B1B"/>
<path fill-rule="evenodd" clip-rule="evenodd" d="M61.9416 38.4419V37.2787C61.918 36.9498 61.564 37.2787 61.5994 37.4785V38.6416C61.623 38.9705 61.9888 38.6298 61.9416 38.4419ZM61.328 38.7943V37.6312C61.2336 37.1847 62.1658 36.3153 62.2367 37.1142V38.2774C62.3311 38.7356 61.387 39.5932 61.328 38.7943Z" fill="#0D9B1B"/>
<path fill-rule="evenodd" clip-rule="evenodd" d="M63.6767 37.6199V37.0559C63.6649 36.8444 63.4643 37.0324 63.4879 37.1617V37.7256C63.4879 37.9488 63.7003 37.7608 63.6767 37.6199ZM63.2991 37.8196V37.2909C63.2283 36.9854 63.8419 36.4332 63.8655 36.9737V37.5024C63.9363 37.8078 63.3227 38.36 63.2991 37.8196ZM63.4525 35.9163L63.6413 35.8105L62.8625 38.3835L62.6737 38.4893L63.4525 35.9163ZM62.8271 37.1264V36.5625C62.8153 36.351 62.6147 36.539 62.6383 36.6682C62.6737 36.7269 62.5439 37.4319 62.7327 37.3144C62.7917 37.2791 62.8389 37.2204 62.8271 37.1264ZM62.4613 37.3261V36.7974C62.3904 36.492 63.0041 35.9398 63.0277 36.4802V37.0089C63.0867 37.3144 62.4731 37.8666 62.4613 37.3261Z" fill="#0D9B1B"/>
<path opacity="0.3882" fill-rule="evenodd" clip-rule="evenodd" d="M77.743 147.964C77.743 152.405 71.4769 156 63.7592 156C56.0416 156 49.7754 152.405 49.7754 147.964C49.7754 143.523 56.0298 139.928 63.7592 139.928C71.4887 139.928 77.743 143.523 77.743 147.964Z" fill="#808080"/>
<path fill-rule="evenodd" clip-rule="evenodd" d="M66.7095 149.538C67.2051 153.098 64.6444 151.982 62.1544 151.864V151.488C59.7471 151.042 53.1033 151.03 53.953 147.964L66.7095 149.538Z" fill="#3B3838"/>
<path fill-rule="evenodd" clip-rule="evenodd" d="M61.9419 150.795C60.337 150.972 50.8021 149.456 54.8969 147.036C57.0564 146.789 59.3458 147.153 61.0451 145.638L66.2964 146.213C67.5473 150.114 66.851 151.947 61.9419 150.795Z" fill="black"/>
<path fill-rule="evenodd" clip-rule="evenodd" d="M74.722 147.905C75.3475 150.971 69.9545 150.09 68.4677 148.41L68.5975 147.964C66.8156 146.46 60.8326 145.637 62.3431 142.747L74.2146 146.319L74.722 147.905Z" fill="#3B3838"/>
<path fill-rule="evenodd" clip-rule="evenodd" d="M74.7339 144.956C76.4214 150.384 71.0639 149.808 67.9013 147.012C65.8952 146.049 63.3462 145.203 62.0246 143.229C61.7885 140.127 68.0547 142.736 69.813 142.465L74.7339 144.956Z" fill="black"/>
<path fill-rule="evenodd" clip-rule="evenodd" d="M66.839 91.7818C66.6029 103.589 66.4613 115.373 68.2432 126.934V143.171C70.745 147.671 72.9517 147.694 75.0404 146.038C76.4329 137.343 76.7043 128.708 75.3591 119.991C77.4242 104.118 83.3835 97.3742 68.0308 85.085L66.839 91.7818Z" fill="#0C232D"/>
<path fill-rule="evenodd" clip-rule="evenodd" d="M58.5553 94.531C58.3193 106.338 58.1776 118.122 59.9596 129.683V145.92C62.4613 150.432 64.6562 150.443 66.7568 148.787C68.1492 140.093 68.4207 131.457 67.0754 122.74L70.3914 109.746C70.3914 109.746 74.734 102.931 70.9578 97.7149C67.1934 92.4867 64.4438 95.1067 64.4438 95.1067L58.5553 94.531Z" fill="#133142"/>
<path fill-rule="evenodd" clip-rule="evenodd" d="M57.7764 102.883C64.3848 110.203 73.3179 106.455 79.1474 99.441C75.0644 87.7275 78.522 82.3231 81.0001 70.3393C80.0679 59.8712 69.3529 66.9792 65.0102 70.3393C61.6588 72.3249 59.4049 74.4396 59.8887 76.8951L57.7764 102.883Z" fill="#0D9B1B"/>
<path fill-rule="evenodd" clip-rule="evenodd" d="M44.5121 71.8322C44.7009 71.2331 42.6476 67.6379 42.4588 67.2737C42.0812 66.1693 41.2669 63.6199 42.8364 62.5625C43.8631 62.1513 44.5357 65.2059 44.6301 65.2999L45.2083 66.3103C45.2083 65.6759 45.0903 64.6655 45.35 64.0781C45.704 63.1734 45.9872 63.5259 46.0698 64.2425C46.0816 65.3587 46.825 66.2633 46.9194 67.356C46.7896 68.0021 47.4505 69.9289 47.6511 70.5516L44.5121 71.8322Z" fill="#F3BA87"/>
<path fill-rule="evenodd" clip-rule="evenodd" d="M54.2358 78.3643L52.1471 78.3173C50.082 76.1555 49.4566 72.4664 47.8635 69.8699C46.3766 69.7994 45.0549 70.0814 43.8984 70.7393C43.8984 74.6164 45.9282 79.0222 47.6275 82.3824C47.6275 82.3824 48.8193 84.9318 51.3093 85.0728C53.7992 85.2138 53.516 82.5821 53.516 82.5821L54.2358 78.3643Z" fill="#10C021"/>
<path fill-rule="evenodd" clip-rule="evenodd" d="M64.0187 74.5575C66.1782 82.8757 60.9977 85.2959 51.3684 85.0727C51.3684 85.0727 49.2678 82.018 52.1708 78.2819C52.1708 78.2819 54.2595 77.342 55.8054 76.6488C58.614 75.9791 61.7412 70.3985 64.0187 74.5575Z" fill="#10C021"/>
<path fill-rule="evenodd" clip-rule="evenodd" d="M65.9541 69.0823C65.9541 69.0823 66.8155 65.4754 64.2312 64.6295C61.7884 62.6557 61.9654 54.7723 64.7386 51.3887L74.2028 56.7931C71.0756 68.2011 75.6189 65.3932 65.9541 69.0823Z" fill="#FED1A5"/>
<path fill-rule="evenodd" clip-rule="evenodd" d="M72.7633 51.7771C75.9377 54.3619 76.5867 57.1581 75.6427 60.0953C74.8756 62.3628 72.5037 66.5923 69.3765 64.2191C69.4473 63.6081 69.3175 56.7351 66.3791 60.2127C66.3791 60.2127 66.4971 58.3447 65.1636 57.5458C65.1636 57.5458 62.5911 54.7966 62.7327 53.6099C62.9451 47.0894 69.5535 48.9927 72.7633 51.7771Z" fill="black"/>
<path fill-rule="evenodd" clip-rule="evenodd" d="M65.4937 69.9284L65.6825 68.3188C68.55 67.9076 70.9338 66.7797 72.8101 64.7119C76.1497 67.4494 67.4644 69.9401 65.4937 69.9284Z" fill="white"/>
</g>
<defs>
<clipPath id="clip0_219_6421">
<rect width="81" height="156" fill="white"/>
</clipPath>
</defs>
</svg>
