<svg width="67" height="64" viewBox="0 0 67 64" fill="none" xmlns="http://www.w3.org/2000/svg">
    <path fill-rule="evenodd" clip-rule="evenodd"
          d="M41.2772 3.48842C24.1199 2.83272 7.10079 28.7603 7.10079 46.045C7.10079 48.4728 7.41175 51.1517 8.15373 53.6183C8.26975 54.0042 8.39656 54.3861 8.53484 54.7601C8.64007 55.0459 8.75204 55.3276 8.87008 55.6041C9.06704 56.0661 9.28289 56.5135 9.51831 56.9435L6.29944 55.0846C2.27924 52.8277 0 47.9052 0 41.2587C0 19.0503 23.8575 -6.48065 37.796 1.49194L41.2772 3.48842ZM12.5712 45.4293C12.5712 58.1748 20.5003 59.378 28.8308 54.5918C30.0058 53.9081 31.1478 53.1522 32.2547 52.2895C33.2948 51.4789 34.3046 50.5735 35.282 49.5465V54.728C34.2149 55.6041 33.0871 56.42 31.9431 57.1812C31.3549 57.5725 30.762 57.9491 30.1704 58.311C24.6588 61.4974 17.0056 62.8248 12.5712 58.7076C8.26098 54.5918 8.53754 46.483 8.53754 46.0864C8.53754 32.7947 17.6687 15.5221 30.7094 8.08368C42.797 1.17811 52.467 6.62004 52.467 20.3083C52.467 24.6979 51.5274 29.6083 49.6488 34.3946C50.0637 34.1208 44.1507 37.4434 44.0125 37.5809C46.8307 31.8639 48.4468 26.0107 48.4468 20.9654C48.4468 9.54733 41.1943 6.62004 32.1873 11.8029C21.5782 17.9152 12.5712 33.3409 12.5712 45.4293ZM59.4154 30.2774C52.3011 34.2704 43.7224 39.1808 37.5478 42.7771L40.6283 44.6361L62.4966 32.1377L59.4154 30.2774ZM36.7788 60.3355C36.7842 58.1815 36.7721 53.5889 36.7188 44.0618L39.8681 45.9221V64L36.7188 62.1411C36.7188 61.7271 36.7255 61.8259 36.7343 61.9581C36.7505 62.1918 36.7734 62.527 36.7788 60.3355ZM38.1279 37.84C38.1279 37.9255 38.113 38.0123 38.084 38.0951C38.024 38.2647 37.9039 38.4183 37.7272 38.5104L23.871 46.3454C23.5951 46.483 23.3327 46.483 23.1944 46.3454C23.0352 46.2667 22.9266 46.1478 22.8632 46.0089C22.816 45.9061 22.7937 45.7926 22.7937 45.6764V44.8831C22.7937 40.3693 26.0261 34.7765 30.0598 32.5209C34.37 29.9903 38.1279 32.2605 38.1279 37.0334V37.84ZM30.1981 20.4178C32.6156 19.0917 34.7707 20.1588 34.7707 23.0714C34.7707 25.6007 33.0163 28.528 30.8753 29.7178C28.4578 31.0439 26.3027 29.8541 26.3027 27.0643C26.2885 24.5484 27.9053 21.6211 30.1981 20.4178ZM57.3999 43.9884L55.6502 39.6589L55.2657 42.1335C55.035 43.6158 54.6896 45.874 54.4016 47.8318C54.3227 48.3646 54.2485 48.8748 54.1824 49.3422L54.5662 40.2144L53.2137 39.9941L49.8094 51.4495L47.862 53.3779C47.5922 53.645 47.5922 54.0777 47.862 54.3447C48.1318 54.6118 48.5689 54.6118 48.8387 54.3447L51.0357 52.1706L52.952 45.7205L52.4954 56.5683L53.8411 56.8126C54.0724 56.1236 54.4205 55.0565 54.7112 54.091C54.8562 53.6076 54.9884 53.1442 55.0856 52.7636C55.1341 52.5726 55.1753 52.3977 55.2043 52.2468C55.2313 52.1079 55.2576 51.949 55.2576 51.8114L55.2589 51.786L55.265 51.7059L55.2933 51.4415C55.319 51.2238 55.3561 50.9354 55.4026 50.5908C55.4957 49.9031 55.6245 49.0043 55.7682 48.0281L56.0852 45.9048L56.2491 44.823L57.2596 47.3243L58.0205 45.8179V48.3913L59.329 48.6972L60.4015 46.5738L61.4956 47.1147L66.6517 44.1994C66.9829 44.0111 67.0983 43.5931 66.9087 43.2659C66.7199 42.9374 66.2976 42.8239 65.9664 43.0108L61.4525 45.5642L59.7837 44.7389L59.4019 45.4948V42.9214L58.0933 42.6156L57.3999 43.9884ZM46.6924 55.7763C46.9979 55.5493 47.06 55.1206 46.8307 54.8188C46.602 54.517 46.1689 54.4556 45.8641 54.6813L43.1012 56.7325C42.7956 56.9595 42.7342 57.3882 42.9629 57.69C43.1916 57.9918 43.6246 58.0533 43.9295 57.8276L46.6924 55.7763Z"
          fill="#0D9B1B"/>
</svg>
