<svg width="49" height="65" viewBox="0 0 49 65" fill="none" xmlns="http://www.w3.org/2000/svg">
<path fill-rule="evenodd" clip-rule="evenodd" d="M27.9439 3.55209L22.8113 0.5L0.68863 13.4066H0.81995L5.95264 16.3258L6.04553 16.3015C5.70602 16.5154 5.41775 16.6968 8.79204 14.7334C11.6971 13.0437 17.3134 9.76482 27.9439 3.55209ZM6.04553 16.3015L6.17044 16.2043C6.2361 16.1687 6.26493 16.1541 6.26813 16.1557C6.27454 16.1574 6.15763 16.2319 6.04553 16.3015ZM9.88904 34.5072L32.159 21.5844C32.5514 21.4516 32.9453 21.4516 33.0766 21.8501C33.208 22.2486 33.208 22.6455 32.814 22.7783L10.544 35.7011C10.1517 35.834 9.75772 35.834 9.6264 35.4355C9.53992 35.348 9.49668 35.2459 9.49028 35.139C9.47907 34.9235 9.6248 34.6854 9.88904 34.5072ZM9.88904 27.5736L32.159 14.6508C32.3352 14.5908 32.5129 14.5584 32.6651 14.5762C32.8524 14.5989 33.0046 14.6977 33.0766 14.9164C33.208 15.3133 33.208 15.7119 32.814 15.8447L10.544 28.7675C10.4672 28.7934 10.3887 28.8145 10.3134 28.8291C10.1997 28.8501 10.0892 28.8534 9.99154 28.8355C9.82498 28.8031 9.69206 28.7027 9.6264 28.5018C9.36376 28.2361 9.49508 27.8392 9.88904 27.5736ZM9.88904 20.6383L23.5976 12.6436C23.9915 12.5107 24.3855 12.5107 24.5168 12.9093C24.5536 13.0194 24.5793 13.1296 24.5905 13.2333C24.6001 13.3353 24.5953 13.4325 24.5713 13.52C24.5601 13.5605 24.544 13.5978 24.5232 13.6334C24.4976 13.6739 24.4672 13.7112 24.4287 13.7436C24.3823 13.7824 24.3246 13.8132 24.2542 13.8375L10.544 21.8339C10.3182 21.91 10.0924 21.9424 9.91627 21.8809C9.85381 21.8582 9.79776 21.8242 9.74971 21.7756C9.69687 21.7237 9.65523 21.6557 9.6264 21.5682C9.36376 21.3025 9.49508 20.904 9.88904 20.6383ZM20.827 50.6311L10.544 56.5036C10.1517 56.6365 9.75772 56.6365 9.6264 56.238C9.49508 55.8411 9.49508 55.4425 9.88904 55.3097L20.5644 49.0387C20.4331 47.9775 20.4331 46.8986 20.4331 45.9704C20.4331 45.5718 20.5644 44.5107 20.6957 43.5646L10.544 49.57C10.3535 49.6348 10.1613 49.6672 9.99954 49.6397C9.82979 49.6089 9.69366 49.5085 9.6264 49.3043C9.49508 48.9058 9.49508 48.5089 9.88904 48.3761L21.221 41.7065C21.876 39.3008 23.0563 36.6472 24.2542 34.64L10.544 42.6364L10.4528 42.6655L10.3214 42.6947C10.2302 42.7125 10.1421 42.719 10.0604 42.7125C9.97072 42.7044 9.88744 42.6801 9.81698 42.6348L9.78815 42.6153L9.74971 42.5797C9.69687 42.5278 9.65523 42.4582 9.6264 42.3707C9.49508 41.9722 9.49508 41.5737 9.88904 41.4408L26.0911 31.9686L26.437 31.5539L26.5523 31.4162C27.2665 30.5576 28.1249 29.524 28.9929 28.7675C29.7488 28.0531 30.5848 27.3565 31.4784 26.7393C32.1254 26.2921 32.8012 25.8855 33.4978 25.5453C34.3434 25.1338 35.2194 24.8163 36.1098 24.6365V9.17676L29.7808 12.9093C29.2555 13.1733 28.7303 12.7764 28.7303 12.2451L28.7255 4.78492L28.7046 4.79626C28.6422 4.83028 28.4852 4.92262 28.1682 5.10568L27.1256 5.71156C24.7747 7.08047 19.216 10.3237 6.59163 17.7029L6.72295 64.5C7.48044 64.0496 8.60467 63.3903 9.94509 62.6062C13.747 60.3836 19.296 57.163 23.1876 54.895C22.1386 53.9667 21.221 52.5055 20.827 50.6311ZM25.4024 50.3833C25.4024 42.5197 30.9451 33.08 37.5367 29.2146C39.111 28.2864 40.5715 27.755 41.8831 27.6222H41.9504L42.0112 27.6189L42.0833 27.6076C42.1682 27.593 42.269 27.559 42.4084 27.4893L40.8341 26.5449C40.0462 26.0135 39.111 25.8807 38.062 25.8807C35.1601 25.8807 31.9941 27.8716 29.8785 29.8788C25.6651 33.877 22.2363 40.2631 21.6966 46.2522C21.5989 47.3895 21.6278 48.5802 21.8312 49.7093C22.1755 51.6274 23.0194 53.3689 24.5985 54.3814C24.8003 54.5029 24.9892 54.6115 25.1702 54.7168C25.4473 54.8772 25.7051 55.0262 25.9597 55.1914C26.0798 55.2708 26.2 55.3534 26.3201 55.4425C26.1359 54.9744 25.9677 54.456 25.8268 53.8922C25.5674 52.857 25.4024 51.6712 25.4024 50.3833ZM0.0112102 14.9116C0 13.7306 0 16.7114 0 14.6329L5.18234 17.7029L5.31366 64.5L0.13132 61.4317C0.0576527 25.1014 0.0256234 16.4538 0.0112102 14.9116ZM45.8515 41.2594C46.1142 40.9937 46.3768 40.5952 46.3768 40.1967L46.5081 38.771C46.5081 38.3725 46.3768 38.1068 46.2455 37.974C46.1878 37.9157 46.1062 37.8574 45.9989 37.8104C45.8595 37.7504 45.6802 37.7083 45.4576 37.7083L44.8026 37.8412C44.7369 37.7083 44.6712 37.5431 44.6056 37.3778C44.5399 37.2126 44.4743 37.0457 44.4086 36.9129L45.1949 35.1876C45.2846 34.8717 45.2974 34.6173 45.2718 34.4197C45.2205 34.0341 45.0204 33.8608 44.9339 33.8608L44.146 33.3294C43.8833 33.0638 43.4894 33.0638 43.097 33.3294C43.0201 33.3294 42.9433 33.3748 42.8664 33.4396C42.8344 33.4655 42.8023 33.4947 42.7703 33.5271L42.703 33.5951L41.5228 34.9219H40.6035L40.3409 33.9936C40.2096 33.728 40.0798 33.4623 39.8172 33.3294C39.6843 33.263 39.5193 33.229 39.3544 33.2306C39.191 33.2306 39.0277 33.263 38.898 33.3294L37.5864 33.9936C37.1924 34.1249 36.9298 34.5234 36.8 35.0548L36.2748 36.7801C36.0522 36.9485 35.8312 37.117 35.6198 37.2952C35.3299 37.5382 35.0593 37.8007 34.8318 38.1068L33.9126 37.974C33.65 37.8412 33.3889 37.974 33.2576 38.1068C33.1535 38.1587 33.0702 38.2105 32.9998 38.2721C32.9613 38.3045 32.9261 38.3401 32.8941 38.379C32.8348 38.4503 32.7836 38.5345 32.7323 38.6382L31.8147 40.0978C31.6834 40.2955 31.5857 40.5271 31.552 40.7572C31.5184 40.9905 31.552 41.2237 31.6834 41.4246L32.207 42.3545L32.1974 42.3788C31.9396 43.0333 31.6818 43.6878 31.552 44.211L31.4207 44.3439L30.1091 45.5394C29.8465 45.8035 29.5838 46.202 29.5838 46.6005V48.0602C29.4525 48.4587 29.7152 48.7244 29.8465 48.8572C29.9778 48.9901 30.2404 49.2541 30.6328 49.1213L31.4207 48.9901C31.4864 49.1229 31.552 49.2898 31.6177 49.4566C31.6834 49.6219 31.749 49.7855 31.8147 49.9183L31.1581 51.6436C30.8954 52.175 31.0268 52.7047 31.4207 52.9704L32.3384 53.6346C32.4697 53.7675 32.601 53.7675 32.7323 53.7675C32.8636 53.7675 33.1263 53.7675 33.3889 53.3689L33.65 53.1032L34.8318 51.7765H35.7495L36.0121 52.8376C36.0698 52.9558 36.1274 53.0466 36.1979 53.1227C36.2443 53.1745 36.2956 53.2183 36.3564 53.2604C36.4093 53.2977 36.4685 53.3333 36.5374 53.3689C36.8 53.5018 37.0611 53.5018 37.3237 53.3689L38.6353 52.7047C38.7827 52.6302 38.97 52.5152 39.1302 52.3127C39.2567 52.1523 39.3656 51.9368 39.4232 51.6436L39.9485 49.9183C40.1839 49.7385 40.4194 49.5328 40.6436 49.3238C40.9174 49.0694 41.1752 48.8102 41.3914 48.5915L42.5717 48.7244C42.8344 48.8572 43.097 48.7244 43.2283 48.4587L44.5399 46.3187C44.6712 46.1858 44.6712 45.9201 44.5399 45.6545L43.8833 44.4605C44.0146 44.1219 44.146 43.7882 44.2597 43.4561C44.375 43.1208 44.4743 42.787 44.5399 42.4533L45.8515 41.2594ZM26.7637 50.333C26.7637 43.0009 32.0277 33.9434 38.2093 30.3438C44.3926 26.7441 49 29.5305 49 36.6132C49 43.947 43.8673 52.8716 37.5543 56.6041C34.6669 58.3294 31.8964 58.5935 29.9282 57.3995C27.55 56.0727 26.7637 53.1373 26.7637 50.333ZM35.3235 7.98119L30.0098 4.78006V11.0511L35.3235 7.98119ZM39.6843 45.2673C39.814 45.0956 39.9389 44.9141 40.0622 44.7262C41.1288 42.868 41.1288 40.8609 39.7836 40.1967C39.111 39.7998 38.3246 39.7998 37.5207 40.3295C36.8657 40.728 36.1931 41.3922 35.7991 42.1876C34.7326 44.062 34.7326 46.053 35.9305 46.7172C36.1931 46.85 36.4717 46.9812 36.8657 46.9812C37.0851 46.9812 37.351 46.9407 37.6104 46.8581C37.817 46.7933 38.0188 46.701 38.1933 46.5843C38.8067 46.2798 39.2679 45.8213 39.6843 45.2673Z" fill="#0D9B1B"/>
</svg>
