<svg width="40" height="40" viewBox="0 0 40 40" fill="none" xmlns="http://www.w3.org/2000/svg">
    <path d="M21.3812 18.1539C21.3812 18.0084 21.4379 17.8689 21.5389 17.7661C21.6398 17.6632 21.7768 17.6055 21.9195 17.6055H26.0813C26.2241 17.6055 26.361 17.6632 26.462 17.7661C26.5629 17.8689 26.6196 18.0084 26.6196 18.1539C26.6196 18.2993 26.5629 18.4388 26.462 18.5416C26.361 18.6445 26.2241 18.7022 26.0813 18.7022H21.9195C21.7768 18.7022 21.6398 18.6445 21.5389 18.5416C21.4379 18.4388 21.3812 18.2993 21.3812 18.1539ZM21.9195 15.0099H26.0813C26.2241 15.0099 26.361 14.9521 26.462 14.8493C26.5629 14.7464 26.6196 14.6069 26.6196 14.4615C26.6196 14.3161 26.5629 14.1766 26.462 14.0737C26.361 13.9709 26.2241 13.9131 26.0813 13.9131H21.9195C21.7768 13.9131 21.6398 13.9709 21.5389 14.0737C21.4379 14.1766 21.3812 14.3161 21.3812 14.4615C21.3812 14.6069 21.4379 14.7464 21.5389 14.8493C21.6398 14.9521 21.7768 15.0099 21.9195 15.0099ZM26.0813 21.2977H7.91604C7.77327 21.2977 7.63634 21.3555 7.53539 21.4583C7.43443 21.5612 7.37771 21.7006 7.37771 21.8461C7.37771 21.9915 7.43443 22.131 7.53539 22.2338C7.63634 22.3367 7.77327 22.3945 7.91604 22.3945H26.0813C26.2241 22.3945 26.361 22.3367 26.462 22.2338C26.5629 22.131 26.6196 21.9915 26.6196 21.8461C26.6196 21.7006 26.5629 21.5612 26.462 21.4583C26.361 21.3555 26.2241 21.2977 26.0813 21.2977ZM21.9195 11.3176H26.0813C26.2241 11.3176 26.361 11.2598 26.462 11.157C26.5629 11.0541 26.6196 10.9146 26.6196 10.7692C26.6196 10.6238 26.5629 10.4843 26.462 10.3814C26.361 10.2786 26.2241 10.2208 26.0813 10.2208H21.9195C21.7768 10.2208 21.6398 10.2786 21.5389 10.3814C21.4379 10.4843 21.3812 10.6238 21.3812 10.7692C21.3812 10.9146 21.4379 11.0541 21.5389 11.157C21.6398 11.2598 21.7768 11.3176 21.9195 11.3176ZM7.54412 13.6533C7.44259 13.6135 7.35528 13.5433 7.2937 13.4519C7.23212 13.3606 7.19917 13.2524 7.19919 13.1415V11.562C7.19919 11.4511 7.23215 11.3429 7.29372 11.2516C7.3553 11.1602 7.4426 11.09 7.54412 11.0502L8.23735 10.7783C8.34583 10.4035 8.49318 10.0415 8.67689 9.69841L8.37516 9.00628C8.33101 8.90499 8.31802 8.79246 8.3379 8.6835C8.35778 8.57455 8.4096 8.47428 8.48653 8.39592L9.58289 7.279C9.65981 7.20063 9.75824 7.14785 9.8652 7.12761C9.97216 7.10737 10.0826 7.12062 10.182 7.16562L10.8615 7.47299C11.1983 7.28596 11.5537 7.13591 11.9216 7.02537L12.1884 6.31898C12.2275 6.21555 12.2965 6.12662 12.3861 6.0639C12.4758 6.00117 12.582 5.9676 12.6908 5.9676H14.2413C14.3501 5.9676 14.4564 6.00117 14.546 6.0639C14.6357 6.12662 14.7047 6.21555 14.7437 6.31898L15.0106 7.02537C15.3785 7.13591 15.7338 7.28596 16.0706 7.47299L16.7501 7.16562C16.8495 7.12065 16.96 7.10741 17.0669 7.12765C17.1739 7.14789 17.2723 7.20066 17.3492 7.279L18.4457 8.39586C18.5226 8.47422 18.5744 8.57448 18.5943 8.68344C18.6141 8.7924 18.6011 8.90493 18.557 9.00621L18.2553 9.69814C18.439 10.0413 18.5863 10.4035 18.6949 10.7784L19.388 11.0502C19.4895 11.09 19.5768 11.1602 19.6384 11.2516C19.7 11.3429 19.7329 11.4511 19.7329 11.562V13.1415C19.7329 13.2523 19.7 13.3605 19.6384 13.4519C19.5768 13.5432 19.4895 13.6134 19.388 13.6532L18.6946 13.9252C18.5861 14.2999 18.4387 14.6619 18.2552 15.005L18.557 15.6972C18.6011 15.7985 18.6141 15.911 18.5942 16.02C18.5744 16.1289 18.5226 16.2292 18.4457 16.3076L17.3493 17.4245C17.2723 17.5028 17.1739 17.5556 17.067 17.5758C16.96 17.5961 16.8496 17.5828 16.7501 17.5379L16.071 17.2306C15.7341 17.4177 15.3786 17.5678 15.0105 17.6784L14.7437 18.3845C14.7047 18.4879 14.6357 18.5769 14.546 18.6396C14.4564 18.7023 14.3501 18.7359 14.2413 18.7359H12.6908C12.582 18.7359 12.4758 18.7023 12.3861 18.6396C12.2965 18.5769 12.2275 18.4879 12.1884 18.3845L11.9216 17.6781C11.5537 17.5676 11.1984 17.4175 10.8616 17.2305L10.1821 17.5379C10.0827 17.5828 9.97223 17.5961 9.86528 17.5758C9.75833 17.5556 9.6599 17.5028 9.58296 17.4245L8.48653 16.3076C8.40961 16.2292 8.3578 16.1289 8.33793 16.02C8.31806 15.911 8.33107 15.7985 8.37523 15.6972L8.67682 15.0053C8.49314 14.6621 8.3458 14.3 8.23728 13.9251L7.54412 13.6533ZM8.27577 12.765L8.87991 13.0019C8.96151 13.0339 9.03423 13.0857 9.09178 13.1527C9.14934 13.2198 9.18999 13.3001 9.21024 13.3867C9.31732 13.8453 9.49565 14.2835 9.73847 14.6848C9.78434 14.7607 9.81138 14.8468 9.81724 14.9357C9.8231 15.0245 9.80761 15.1135 9.77211 15.195L9.50914 15.7983L10.0829 16.3826L10.6754 16.1146C10.7553 16.0784 10.8426 16.0626 10.9299 16.0686C11.0171 16.0745 11.1016 16.1021 11.1761 16.1488C11.5699 16.3961 12 16.5778 12.4501 16.6869C12.5351 16.7075 12.614 16.7489 12.6798 16.8075C12.7456 16.8662 12.7964 16.9402 12.8278 17.0234L13.0605 17.6391H13.8718L14.1043 17.0236C14.1357 16.9404 14.1865 16.8664 14.2524 16.8077C14.3182 16.7491 14.397 16.7077 14.4821 16.6871C14.9323 16.578 15.3625 16.3963 15.7564 16.1489C15.8309 16.1021 15.9154 16.0746 16.0026 16.0686C16.0899 16.0626 16.1773 16.0784 16.2572 16.1146L16.8494 16.3826L17.423 15.7982L17.1599 15.1946C17.1244 15.1132 17.1089 15.0242 17.1148 14.9354C17.1207 14.8465 17.1477 14.7604 17.1935 14.6846C17.4363 14.2833 17.6146 13.8452 17.7217 13.3867C17.742 13.3 17.7827 13.2197 17.8402 13.1527C17.8978 13.0856 17.9705 13.0339 18.0521 13.0019L18.6565 12.7649V11.9384L18.0523 11.7015C17.9707 11.6695 17.898 11.6178 17.8405 11.5507C17.7829 11.4837 17.7423 11.4034 17.722 11.3167C17.6149 10.8581 17.4366 10.4198 17.1937 10.0185C17.1478 9.94268 17.1208 9.85659 17.1149 9.7677C17.1091 9.67882 17.1246 9.58981 17.1601 9.5084L17.4231 8.9051L16.8494 8.32079L16.2569 8.58882C16.177 8.62501 16.0896 8.64081 16.0024 8.63485C15.9151 8.62889 15.8306 8.60135 15.7562 8.55461C15.3624 8.30731 14.9323 8.12568 14.4822 8.01658C14.3972 7.99596 14.3183 7.95454 14.2525 7.89591C14.1867 7.83728 14.1359 7.7632 14.1045 7.68007L13.8718 7.06437H13.0605L12.8278 7.68007C12.7964 7.76319 12.7455 7.83727 12.6797 7.8959C12.6139 7.95452 12.5351 7.99595 12.45 8.01658C11.9999 8.12564 11.5699 8.30727 11.1761 8.55461C11.1016 8.60132 11.0171 8.62884 10.9299 8.6348C10.8426 8.64076 10.7553 8.62498 10.6754 8.58882L10.0829 8.32079L9.50914 8.90517L9.77225 9.50867C9.80775 9.59009 9.82324 9.67909 9.81737 9.76798C9.81151 9.85687 9.78447 9.94296 9.7386 10.0188C9.49576 10.42 9.31744 10.8581 9.21037 11.3166C9.19014 11.4033 9.14949 11.4836 9.09193 11.5507C9.03437 11.6177 8.96165 11.6695 8.88004 11.7015L8.27577 11.9384V12.765ZM10.2236 12.3517C10.2236 10.5304 11.6782 9.04857 13.4661 9.04857C15.254 9.04857 16.7085 10.5303 16.7085 12.3517C16.7085 14.173 15.254 15.6548 13.4661 15.6548C11.6782 15.6548 10.2236 14.173 10.2236 12.3517ZM11.3003 12.3517C11.3003 13.5682 12.2718 14.558 13.4661 14.558C14.6604 14.558 15.6319 13.5683 15.6319 12.3517C15.6319 11.1351 14.6604 10.1453 13.4661 10.1453C12.2718 10.1453 11.3003 11.1351 11.3003 12.3517ZM35.7895 19.2955L33.1664 23.9238C33.1311 23.9862 33.084 24.0409 33.0279 24.0848C32.9718 24.1286 32.9078 24.1608 32.8395 24.1794C32.7712 24.1981 32.7 24.2028 32.6299 24.1934C32.5598 24.184 32.4922 24.1606 32.431 24.1246C32.3073 24.0518 32.2171 23.9321 32.1802 23.7916C32.1432 23.6511 32.1626 23.5014 32.2339 23.3755L34.8571 18.7471C34.9886 18.515 34.9182 18.2201 34.7025 18.0734L31.5612 23.6161C31.5139 23.6996 31.4459 23.7689 31.3639 23.817C31.282 23.8652 31.189 23.8905 31.0944 23.8904C31.045 23.8902 30.9958 23.883 30.9483 23.8691L29.9973 25.547V35.7883C29.9973 36.4564 29.4637 37 28.8079 37H5.18949C4.53361 37 4 36.4564 4 35.7883V4.21173C4 3.54359 4.53361 3 5.18949 3H25.1516C25.4739 3 25.7647 3.1227 25.9927 3.35487L29.6489 7.07938C29.8769 7.31169 29.9973 7.60796 29.9973 7.93624V16.97L30.9746 15.2456C31.0099 15.1832 31.057 15.1286 31.1131 15.0847C31.1692 15.0409 31.2332 15.0087 31.3015 14.9901C31.3698 14.9714 31.441 14.9667 31.5111 14.9761C31.5812 14.9855 31.6487 15.0089 31.71 15.0449L31.966 15.1955L32.3394 14.5367C32.6535 13.9825 33.3516 13.7921 33.8956 14.1119L34.3876 14.4014C34.6505 14.556 34.8388 14.8062 34.9176 15.1062C34.9965 15.406 34.9563 15.7187 34.8045 15.9866L34.4311 16.6454L35.2133 17.1055C35.9649 17.5475 36.2233 18.5299 35.7895 19.2955ZM32.8984 15.744L33.4988 16.0971L33.8722 15.4382C33.8762 15.431 33.8788 15.423 33.8797 15.4147C33.8807 15.4064 33.88 15.3981 33.8778 15.3901C33.8758 15.382 33.8723 15.3744 33.8674 15.3677C33.8626 15.3611 33.8564 15.3555 33.8494 15.3513L33.3574 15.0618C33.3429 15.0538 33.326 15.0517 33.3101 15.0561C33.2942 15.0604 33.2805 15.0708 33.2719 15.0851L32.8984 15.744ZM25.9597 4.87233V7.11304H28.1594L25.9597 4.87233ZM28.9207 27.4467L26.7183 31.3326C26.666 31.425 26.5883 31.4998 26.4947 31.5479L24.3997 32.6252L24.0755 33.1973C24.0096 33.3138 23.9038 33.4016 23.7785 33.4438C23.6531 33.4861 23.5169 33.4799 23.3957 33.4264C21.5662 32.6209 20.8764 33.0776 20.1461 33.5613C19.7289 33.8375 19.2644 34.145 18.6422 34.1451C18.5324 34.1451 18.4178 34.1355 18.2975 34.1145C17.8992 34.0449 17.5202 33.7853 17.119 33.5105C16.1163 32.8236 15.6104 32.5958 14.9743 33.2957C14.8773 33.4024 14.7426 33.4655 14.6 33.4711C14.4573 33.4767 14.3183 33.4243 14.2135 33.3255C14.1088 33.2267 14.0468 33.0895 14.0413 32.9442C14.0359 32.7988 14.0873 32.6572 14.1843 32.5505C15.5128 31.0888 16.8943 32.0349 17.7197 32.6004C17.9957 32.7894 18.3085 33.0037 18.4796 33.0335C18.8485 33.0977 19.1036 32.9435 19.5593 32.6417C20.3104 32.1443 21.3209 31.4752 23.376 32.238L23.483 32.0493L23.3578 29.7791H7.91604C7.77327 29.7791 7.63634 29.7213 7.53539 29.6185C7.43443 29.5157 7.37771 29.3762 7.37771 29.2307C7.37771 29.0853 7.43443 28.9458 7.53539 28.843C7.63634 28.7401 7.77327 28.6823 7.91604 28.6823H23.8288L25.2999 26.0868H7.91604C7.77327 26.0868 7.63634 26.029 7.53539 25.9262C7.43443 25.8234 7.37771 25.6839 7.37771 25.5384C7.37771 25.393 7.43443 25.2535 7.53539 25.1507C7.63634 25.0478 7.77327 24.99 7.91604 24.99H25.9215L27.6548 21.9318C27.585 21.863 27.5348 21.7763 27.5095 21.6809C27.4725 21.5404 27.4919 21.3907 27.5632 21.2648L28.9207 18.8697V8.20981H25.7469C25.2705 8.20981 24.883 7.81504 24.883 7.32979V4.09677H5.18949C5.15969 4.09718 5.13122 4.10942 5.11014 4.1309C5.08907 4.15237 5.07705 4.18137 5.07665 4.21173V35.7883C5.07705 35.8186 5.08907 35.8476 5.11014 35.8691C5.13122 35.8906 5.15969 35.9028 5.18949 35.9032H28.8079C28.8377 35.9028 28.8661 35.8906 28.8872 35.8691C28.9083 35.8476 28.9203 35.8186 28.9207 35.7883V27.4467ZM25.8662 30.6425L30.0075 23.3355L28.5787 22.4952L24.4374 29.8021L24.5219 31.3339L25.8662 30.6425ZM33.7709 17.5236L31.6378 16.269L28.7648 21.3383L30.8979 22.5928L33.7709 17.5236Z"
          fill="#231F20"/>
</svg>
