<svg width="32" height="24" viewBox="0 0 32 24" fill="none" xmlns="http://www.w3.org/2000/svg">
<path d="M29.1875 0.75H2.8125C1.26488 0.75 0 2.00931 0 3.5625V20.4375C0 21.9912 1.26569 23.25 2.8125 23.25H29.1875C30.7351 23.25 32 21.9907 32 20.4375V3.5625C32 2.00894 30.7345 0.75 29.1875 0.75ZM28.7556 2.625L16.7265 14.6934C16.36 15.061 15.6402 15.0612 15.2735 14.6934L3.24437 2.625H28.7556ZM1.875 20.0928V3.90719L9.94156 12L1.875 20.0928ZM3.24437 21.375L11.2653 13.328L13.9456 16.0171C15.0439 17.119 16.9565 17.1186 18.0545 16.0171L20.7348 13.3281L28.7556 21.375H3.24437ZM30.125 20.0928L22.0584 12L30.125 3.90719V20.0928Z" fill="#01306E"/>
</svg>
