<svg width="89" height="110" viewBox="0 0 89 110" fill="none" xmlns="http://www.w3.org/2000/svg">
    <g clip-path="url(#clip0_219_6529)">
        <path fill-rule="evenodd" clip-rule="evenodd"
              d="M0.0542154 76.6465L0 86.9259C0 87.4549 0.379508 87.9738 1.11684 88.383L1.17105 78.1036C0.433723 77.7044 0.0542154 77.1754 0.0542154 76.6465Z"
              fill="#CFCDE2"/>
        <path fill-rule="evenodd" clip-rule="evenodd"
              d="M0.0650585 76.6465L0 86.9359C0 87.0956 0.0433723 87.2652 0.130117 87.4249L0.195175 77.1355C0.108431 76.9758 0.0650585 76.8062 0.0650585 76.6465Z"
              fill="#CFCDE2"/>
        <path fill-rule="evenodd" clip-rule="evenodd"
              d="M0.184098 77.126L0.129883 87.4154C0.281686 87.7747 0.617821 88.104 1.1166 88.3835L1.17082 78.094C0.672037 77.8146 0.335901 77.4853 0.184098 77.126Z"
              fill="#CFCDE2"/>
        <path fill-rule="evenodd" clip-rule="evenodd"
              d="M88.9347 86.9063L88.9998 76.5869C88.9998 77.1258 88.6094 77.6648 87.8287 78.064L87.7637 88.3833C88.5552 87.9741 88.9347 87.4352 88.9347 86.9063Z"
              fill="#E7E6F1"/>
        <path fill-rule="evenodd" clip-rule="evenodd"
              d="M87.8287 78.064L87.7637 88.3833C88.5552 87.9741 88.9347 87.4352 88.9347 86.9063L88.9998 76.5869C88.9998 77.1258 88.6094 77.6648 87.8287 78.064Z"
              fill="#E7E6F1"/>
        <path fill-rule="evenodd" clip-rule="evenodd" d="M1.16017 78.084L1.10596 88.3734L41.5832 110L41.6374 99.7107L1.16017 78.084Z"
              fill="#CFCDE2"/>
        <path fill-rule="evenodd" clip-rule="evenodd" d="M47.1568 99.7107L47.1025 110L87.7749 88.3734L87.8292 78.084L47.1568 99.7107Z"
              fill="#E7E6F1"/>
        <path fill-rule="evenodd" clip-rule="evenodd"
              d="M1.21432 75.1498C-0.314552 75.9582 -0.314552 77.2756 1.19264 78.074L41.6373 99.6907C43.1554 100.499 45.6167 100.499 47.1348 99.6907L87.8505 78.074C89.3794 77.2656 89.3794 75.9482 87.8614 75.1498L47.4167 53.533C45.8987 52.7247 43.4373 52.7247 41.9192 53.533L1.21432 75.1498Z"
              fill="#F4F4FB"/>
        <path fill-rule="evenodd" clip-rule="evenodd"
              d="M3.5674 58.623L3.51318 75.2398C3.51318 75.7189 3.84932 76.2079 4.51075 76.5871L4.55412 59.9704C3.89269 59.5911 3.5674 59.1121 3.5674 58.623Z"
              fill="#133AA5"/>
        <path fill-rule="evenodd" clip-rule="evenodd"
              d="M3.55656 58.623L3.51318 75.2398C3.51318 75.3895 3.54571 75.5392 3.59993 75.6889L3.6433 59.0721C3.58909 58.9224 3.55656 58.7727 3.55656 58.623Z"
              fill="#133AA5"/>
        <path fill-rule="evenodd" clip-rule="evenodd"
              d="M3.63234 59.1016L3.57812 75.6984C3.72993 76.0277 4.03353 76.3371 4.49979 76.5866L4.554 59.9898C4.08775 59.7403 3.7733 59.4309 3.63234 59.1016Z"
              fill="#133AA5"/>
        <path fill-rule="evenodd" clip-rule="evenodd"
              d="M85.2373 75.2298L85.2915 58.623C85.2915 59.1121 84.9337 59.6111 84.2398 59.9803L84.1855 76.5871C84.8903 76.2179 85.2373 75.7189 85.2373 75.2298Z"
              fill="#185BCC"/>
        <path fill-rule="evenodd" clip-rule="evenodd"
              d="M84.2398 59.9803L84.1855 76.5871C84.8903 76.2179 85.2373 75.7189 85.2373 75.2298L85.2915 58.623C85.2915 59.1121 84.9337 59.6111 84.2398 59.9803Z"
              fill="#185BCC"/>
        <path fill-rule="evenodd" clip-rule="evenodd" d="M4.60841 60L4.5542 76.5868L41.7134 96.4671L41.7677 79.8802L4.60841 60Z"
              fill="#2535B5"/>
        <path fill-rule="evenodd" clip-rule="evenodd" d="M46.8311 79.8802L46.7769 96.4671L84.1313 76.5868L84.1855 60L46.8311 79.8802Z"
              fill="#2C40D4"/>
        <path fill-rule="evenodd" clip-rule="evenodd"
              d="M41.7569 79.8799L41.7026 96.4467C43.0797 97.1853 45.3351 97.1853 46.723 96.4467L46.7772 79.8799C45.3893 80.6184 43.1339 80.6184 41.7569 79.8799Z"
              fill="#185BCC"/>
        <path fill-rule="evenodd" clip-rule="evenodd"
              d="M44.3589 80.4388L44.3047 97.0056C45.183 96.9956 46.0613 96.816 46.7227 96.4467L46.7661 79.8799C46.1046 80.2392 45.2263 80.4288 44.3589 80.4388Z"
              fill="#2C40D4"/>
        <path fill-rule="evenodd" clip-rule="evenodd"
              d="M4.56516 57.2758C3.1664 58.0243 3.15556 59.2319 4.54347 59.9804L41.7352 79.8706C43.1232 80.6191 45.3894 80.6191 46.7881 79.8706L84.2184 59.9804C85.6172 59.2319 85.628 58.0243 84.2401 57.2758L47.0592 37.3856C45.6713 36.6371 43.4051 36.6371 42.0063 37.3856L4.56516 57.2758Z"
              fill="#185BCC"/>
        <path fill-rule="evenodd" clip-rule="evenodd"
              d="M41.7569 79.8799L41.7026 96.4467C42.3966 96.826 43.3291 97.0156 44.2508 97.0056L44.305 80.4388C43.3833 80.4487 42.4508 80.2591 41.7569 79.8799Z"
              fill="#133AA5"/>
        <path fill-rule="evenodd" clip-rule="evenodd"
              d="M0.0542154 54.252L0 64.5314C0 65.0603 0.379508 65.5793 1.11684 65.9885L1.17105 55.709C0.433723 55.3098 0.0542154 54.7809 0.0542154 54.252Z"
              fill="#CFCDE2"/>
        <path fill-rule="evenodd" clip-rule="evenodd"
              d="M0.0650585 54.252L0 64.5414C0 64.7011 0.0433723 64.8707 0.130117 65.0304L0.195175 54.741C0.108431 54.5813 0.0650585 54.4116 0.0650585 54.252Z"
              fill="#CFCDE2"/>
        <path fill-rule="evenodd" clip-rule="evenodd"
              d="M0.184098 54.7305L0.129883 65.0199C0.281686 65.3792 0.617821 65.7085 1.1166 65.988L1.17082 55.6985C0.672037 55.4191 0.335901 55.0898 0.184098 54.7305Z"
              fill="#CFCDE2"/>
        <path fill-rule="evenodd" clip-rule="evenodd"
              d="M88.9347 64.5214L88.9998 54.252C88.9998 54.7909 88.6094 55.3198 87.8287 55.719L87.7637 65.9885C88.5552 65.5793 88.9347 65.0404 88.9347 64.5214Z"
              fill="#E7E6F1"/>
        <path fill-rule="evenodd" clip-rule="evenodd"
              d="M87.8287 55.719L87.7637 65.9885C88.5552 65.5793 88.9347 65.0404 88.9347 64.5214L88.9998 54.252C88.9998 54.7809 88.6094 55.3198 87.8287 55.719Z"
              fill="#E7E6F1"/>
        <path fill-rule="evenodd" clip-rule="evenodd" d="M1.16017 55.748L1.10596 66.0375L41.5832 87.6642L41.6374 77.3748L1.16017 55.748Z"
              fill="#CFCDE2"/>
        <path fill-rule="evenodd" clip-rule="evenodd" d="M47.1568 77.3748L47.1025 87.6642L87.7749 66.0375L87.8292 55.748L47.1568 77.3748Z"
              fill="#E7E6F1"/>
        <path fill-rule="evenodd" clip-rule="evenodd"
              d="M44.4352 77.974L44.3701 88.2634C45.3568 88.2535 46.3436 88.0539 47.1026 87.6547L47.1676 77.3652C46.4086 77.7644 45.4219 77.964 44.4352 77.974Z"
              fill="#E7E6F1"/>
        <path fill-rule="evenodd" clip-rule="evenodd"
              d="M1.21432 52.784C-0.314552 53.5924 -0.314552 54.9098 1.19264 55.7182L41.6373 77.3549C43.1554 78.1633 45.6167 78.1633 47.1348 77.3549L87.8505 55.7182C89.3794 54.9098 89.3794 53.5924 87.8614 52.784L47.4167 31.1473C45.8987 30.3389 43.4373 30.3389 41.9192 31.1473L1.21432 52.784Z"
              fill="#F4F4FB"/>
        <path fill-rule="evenodd" clip-rule="evenodd"
              d="M74.6219 51.8065C74.6219 51.8065 74.6653 51.7666 74.6761 51.7566C74.6653 51.7666 74.6436 51.7866 74.6219 51.8065ZM74.4593 51.9263C74.4593 51.9263 74.4918 51.9063 74.5135 51.8964C74.4918 51.8964 74.481 51.9163 74.4593 51.9263ZM74.8713 51.557C74.8713 51.557 74.893 51.5171 74.9147 51.4972C74.893 51.5171 74.8822 51.5371 74.8713 51.557ZM74.7629 51.6768C74.7629 51.6768 74.7954 51.6369 74.8171 51.6269C74.7954 51.6469 74.7737 51.6668 74.7629 51.6768ZM75.0231 51.2876C75.0231 51.2876 75.034 51.2477 75.0448 51.2277C75.034 51.2477 75.0231 51.2676 75.0231 51.2876ZM74.9472 51.4173C74.9472 51.4173 74.9581 51.3774 74.9689 51.3574C74.9689 51.3774 74.9581 51.3974 74.9472 51.4173ZM14.02 51.3375C14.02 51.3375 14.0308 51.3574 14.0416 51.3674C14.0416 51.3574 14.0308 51.3375 14.02 51.3375ZM14.4645 51.8564C14.4645 51.8564 14.4862 51.8664 14.5079 51.8864C14.4862 51.8764 14.4754 51.8664 14.4645 51.8564ZM14.2802 51.7067C14.2802 51.7067 14.3019 51.7267 14.3236 51.7467C14.3236 51.7467 14.3019 51.7167 14.2802 51.7067ZM13.9874 51.1878C13.9874 51.1878 13.9983 51.2177 13.9983 51.2377C13.9983 51.2377 13.9874 51.2077 13.9874 51.1878ZM13.9657 51.058V51.0381L13.9224 53.6029C13.9224 53.6528 13.9224 53.7027 13.944 53.7626C13.944 53.7726 13.9549 53.7926 13.9549 53.8125C13.9657 53.8524 13.9766 53.8824 13.9874 53.9223C13.9874 53.9323 13.9874 53.9423 13.9983 53.9423C13.9983 53.9522 14.0091 53.9622 14.02 53.9622C14.0416 54.0121 14.0742 54.0421 14.0959 54.092C14.0959 54.1019 14.1067 54.1119 14.1175 54.1219C14.1609 54.1718 14.2043 54.2217 14.2477 54.2716C14.2693 54.2916 14.2693 54.2916 14.291 54.3115C14.3344 54.3514 14.3778 54.3914 14.4211 54.4313C14.4428 54.4512 14.4537 54.4612 14.4862 54.4712C14.5513 54.5211 14.6163 54.561 14.7031 54.6009L42.4939 69.4712C42.624 69.5411 42.7758 69.6009 42.9168 69.6608C42.971 69.6808 43.0252 69.6908 43.0794 69.7107C43.177 69.7407 43.2854 69.7706 43.3939 69.7906C43.4589 69.8105 43.524 69.8105 43.5999 69.8205C43.6975 69.8405 43.8059 69.8604 43.9035 69.8704C43.9794 69.8704 44.0444 69.8704 44.1203 69.8804C44.2179 69.8804 44.3155 69.8904 44.4131 69.8904H44.4348C44.5324 69.8904 44.6191 69.8804 44.7059 69.8804C44.7818 69.8804 44.8468 69.8804 44.9227 69.8604C45.0203 69.8504 45.1179 69.8305 45.2155 69.8105C45.2806 69.8005 45.3456 69.7906 45.4107 69.7806C45.5083 69.7606 45.6167 69.7207 45.7143 69.6908C45.7685 69.6808 45.8227 69.6708 45.8769 69.6409C46.0179 69.581 46.1588 69.5311 46.289 69.4612L74.2641 54.591C74.7954 54.3115 75.0557 53.9423 75.0557 53.573L75.099 51.0081C75.099 50.6488 74.8388 50.2896 74.3292 50.0101L46.5383 35.1399C45.4974 34.581 43.8059 34.581 42.7541 35.1399L14.779 50.0101C14.2151 50.2995 13.9549 50.6688 13.9657 51.058Z"
              fill="#98A4E0"/>
        <path fill-rule="evenodd" clip-rule="evenodd"
              d="M13.9657 51.0176L13.9224 53.6024C13.9224 53.9717 14.1718 54.331 14.6597 54.6104L14.7031 52.0256C14.2151 51.7461 13.9657 51.3868 13.9657 51.0176Z"
              fill="#CFCDE2"/>
        <path fill-rule="evenodd" clip-rule="evenodd"
              d="M13.9657 51.0176L13.9224 53.6124C13.9224 53.7322 13.9549 53.8419 14.0091 53.9517L14.0525 51.3669C13.9983 51.2571 13.9657 51.1373 13.9657 51.0176Z"
              fill="#CFCDE2"/>
        <path fill-rule="evenodd" clip-rule="evenodd"
              d="M14.0312 51.3877L13.9878 53.9426C14.0962 54.1821 14.3239 54.4116 14.6601 54.6112L14.7034 52.0464C14.3673 51.8468 14.1396 51.6272 14.0312 51.3877Z"
              fill="#CFCDE2"/>
        <path fill-rule="evenodd" clip-rule="evenodd"
              d="M75.0343 53.5924L75.0777 51.0176C75.0777 51.3868 74.8175 51.7561 74.2753 52.0355L74.2319 54.6104C74.7741 54.331 75.0343 53.9617 75.0343 53.5924Z"
              fill="#E7E6F1"/>
        <path fill-rule="evenodd" clip-rule="evenodd"
              d="M74.2753 52.0355L74.2319 54.6104C74.7741 54.331 75.0343 53.9617 75.0343 53.5924L75.0777 51.0176C75.0777 51.3868 74.8175 51.7561 74.2753 52.0355Z"
              fill="#E7E6F1"/>
        <path fill-rule="evenodd" clip-rule="evenodd" d="M14.7465 52.0361L14.7031 54.591L42.5048 69.4613L42.5482 66.8964L14.7465 52.0361Z"
              fill="#CFCDE2"/>
        <path fill-rule="evenodd" clip-rule="evenodd" d="M46.2997 66.8964L46.2563 69.4613L74.2532 54.591L74.2965 52.0361L46.2997 66.8964Z"
              fill="#E7E6F1"/>
        <path fill-rule="evenodd" clip-rule="evenodd"
              d="M42.5268 66.8857L42.4834 69.4606C43.0256 69.75 43.7412 69.8897 44.4568 69.8798L44.5002 67.3049C43.7846 67.3049 43.0689 67.1752 42.5268 66.8857Z"
              fill="#CFCDE2"/>
        <path fill-rule="evenodd" clip-rule="evenodd"
              d="M44.4784 67.3049L44.4351 69.8798C45.0965 69.8798 45.7688 69.7301 46.2784 69.4606L46.3218 66.8857C45.8121 67.1552 45.1399 67.2949 44.4784 67.3049Z"
              fill="#E7E6F1"/>
        <path fill-rule="evenodd" clip-rule="evenodd"
              d="M14.7793 50.0099C13.7384 50.5688 13.7275 51.467 14.7685 52.0259L42.5484 66.8862C43.5785 67.445 45.2809 67.445 46.3327 66.8862L74.297 52.0259C75.3379 51.467 75.3488 50.5688 74.3078 50.0099L46.517 35.1496C45.4869 34.5907 43.7845 34.5907 42.7328 35.1496L14.7793 50.0099Z"
              fill="#EFF6FE"/>
        <path fill-rule="evenodd" clip-rule="evenodd"
              d="M66.1755 51.7469L64.8744 52.4356L45.8448 62.5753C45.0749 62.9745 43.8496 62.9745 43.0906 62.5753L24.1803 52.4455L22.8791 51.7469C22.1309 51.3477 22.1309 50.6891 22.89 50.2799L43.2316 39.4615C43.9906 39.0623 45.2159 39.0623 45.9749 39.4615L66.1864 50.2799C66.9454 50.6891 66.9346 51.3477 66.1755 51.7469Z"
              fill="#E7E6F1"/>
        <path fill-rule="evenodd" clip-rule="evenodd"
              d="M64.8633 52.4553L45.812 62.5751C45.0422 62.9743 43.8169 62.9743 43.0579 62.5751L24.1367 52.4553L43.1989 42.3355C43.9579 41.9363 45.1831 41.9363 45.9422 42.3355L64.8633 52.4553Z"
              fill="#2C40D4"/>
        <path fill-rule="evenodd" clip-rule="evenodd"
              d="M41.6265 77.3652L41.5723 87.6547C42.3421 88.0638 43.3614 88.2734 44.3806 88.2634L44.4348 77.974C43.4156 77.974 42.4072 77.7744 41.6265 77.3652Z"
              fill="#CFCDE2"/>
        <path fill-rule="evenodd" clip-rule="evenodd"
              d="M74.3728 49.7009L74.1884 49.4015C74.633 49.162 74.8824 48.8626 74.8932 48.5432C74.8932 48.2239 74.6438 47.9245 74.2101 47.6849L46.4085 32.7947C45.4217 32.2658 43.8061 32.2658 42.8194 32.7947L14.8551 47.675C14.4105 47.9145 14.1611 48.2139 14.1611 48.5332C14.1611 48.8526 14.4105 49.152 14.8443 49.3915L14.6599 49.681C14.0961 49.3815 13.7925 48.9724 13.7925 48.5233C13.7925 48.0742 14.1069 47.665 14.6816 47.3556L42.6459 32.4654C43.7411 31.8865 45.5302 31.8865 46.6145 32.4654L74.4053 47.3556C74.9691 47.655 75.2727 48.0742 75.2727 48.5133C75.2727 48.9624 74.9583 49.3716 74.3836 49.681L74.3728 49.7009Z"
              fill="#2C40D4"/>
        <path fill-rule="evenodd" clip-rule="evenodd"
              d="M75.7171 42.455L75.5328 42.1556C75.999 41.9061 76.2701 41.5867 76.2701 41.2474C76.2701 40.918 76.0207 40.5987 75.5545 40.3492L46.495 24.8402C45.4541 24.2913 43.7734 24.2913 42.7325 24.8402L13.467 40.3492C13.0007 40.5987 12.7405 40.918 12.7405 41.2574C12.7405 41.5867 12.9899 41.9061 13.4562 42.1556L13.2718 42.445C12.6863 42.1356 12.361 41.7065 12.3718 41.2474C12.3718 40.7883 12.6971 40.3591 13.2935 40.0398L42.5481 24.5308C43.6975 23.922 45.5517 23.922 46.6902 24.5308L75.7496 40.0398C76.3243 40.3492 76.6605 40.7783 76.6496 41.2374C76.6388 41.7065 76.3135 42.1256 75.7171 42.455Z"
              fill="#2C40D4"/>
        <path fill-rule="evenodd" clip-rule="evenodd"
              d="M77.1054 35.21L76.9211 34.9106C77.4198 34.6511 77.6909 34.3018 77.6909 33.9624C77.6909 33.6131 77.4198 33.2838 76.9319 33.0143L46.6038 16.8267C45.5303 16.2479 43.7521 16.2479 42.6569 16.8267L12.1336 33.0243C11.6349 33.2838 11.3638 33.6231 11.3638 33.9724C11.3638 34.3217 11.6349 34.6611 12.1228 34.9106L11.9385 35.2C11.3313 34.8706 10.9951 34.4315 10.9951 33.9525C10.9951 33.4734 11.3313 33.0343 11.9493 32.695L42.4834 16.5074C43.6762 15.8686 45.6062 15.8686 46.799 16.5074L77.1379 32.695C77.7343 33.0343 78.0704 33.4734 78.0704 33.9624C78.0704 34.4415 77.7343 34.8806 77.1054 35.21Z"
              fill="#2C40D4"/>
        <path fill-rule="evenodd" clip-rule="evenodd"
              d="M78.4387 28.0143L78.2544 27.7149C78.764 27.4355 79.0568 27.0862 79.0568 26.7169C79.0568 26.3477 78.7749 25.9984 78.2652 25.7289L46.6577 8.82271C45.53 8.21393 43.6867 8.21393 42.5481 8.82271L10.7345 25.7189C10.2249 25.9884 9.93214 26.3477 9.93214 26.7169C9.93214 27.0862 10.2141 27.4355 10.7237 27.7049L10.5394 27.9944C9.91046 27.665 9.56348 27.196 9.56348 26.697C9.56348 26.198 9.9213 25.7389 10.561 25.3996L42.3638 8.52331C43.5999 7.86463 45.6167 7.86463 46.8528 8.52331L78.4604 25.4295C79.0893 25.7588 79.4363 26.2279 79.4363 26.7269C79.4363 27.2159 79.0785 27.685 78.4387 28.0143Z"
              fill="#2C40D4"/>
        <path fill-rule="evenodd" clip-rule="evenodd"
              d="M79.8375 20.7784L79.6532 20.479C80.1953 20.1896 80.4989 19.8204 80.4989 19.4311C80.4989 19.0419 80.2062 18.6826 79.6749 18.3932L46.7986 0.818363C45.6167 0.189621 43.6975 0.189621 42.5048 0.818363L9.41169 18.3932C8.86954 18.6826 8.56593 19.0519 8.56593 19.4411C8.56593 19.8303 8.85869 20.1896 9.39 20.479L9.20567 20.7685C8.54424 20.4192 8.19727 19.9501 8.19727 19.4411C8.19727 18.9222 8.55509 18.4531 9.22736 18.0938L42.3204 0.508982C43.6108 -0.169661 45.7035 -0.169661 46.983 0.508982L79.8592 18.0838C80.5206 18.4331 80.8676 18.9022 80.8676 19.4212C80.8676 19.9401 80.5098 20.4192 79.8375 20.7784Z"
              fill="#2C40D4"/>
        <path fill-rule="evenodd" clip-rule="evenodd" d="M67.7258 10.4795L64.7006 12.9346L59.9839 15.4496L63.0091 12.9945L67.7258 10.4795Z"
              fill="#021B74"/>
        <path fill-rule="evenodd" clip-rule="evenodd" d="M62.9764 12.9841L59.9512 15.4492L56.2754 10.3694L59.3006 7.9043L62.9764 12.9841Z"
              fill="#133AA5"/>
        <path fill-rule="evenodd" clip-rule="evenodd" d="M64.0502 5.38965L67.726 10.4695L63.0093 12.9944L59.3335 7.90462L64.0502 5.38965Z"
              fill="#AFB7EF"/>
        <path fill-rule="evenodd" clip-rule="evenodd" d="M65.579 42.1554L59.1273 40.6883L55.8853 33.832L62.3369 35.2991L65.579 42.1554Z"
              fill="#2535B5"/>
        <path fill-rule="evenodd" clip-rule="evenodd" d="M62.3477 35.3294L55.8853 33.8723L62.0441 28.8623L68.5066 30.3194L62.3477 35.3294Z"
              fill="#AFB7EF"/>
        <path fill-rule="evenodd" clip-rule="evenodd" d="M68.5067 30.2998L71.7597 37.1461L65.5791 42.1561L62.3262 35.3098L68.5067 30.2998Z"
              fill="#2C40D4"/>
        <path fill-rule="evenodd" clip-rule="evenodd" d="M21.5346 38.2036L15.3757 34.9301L15.354 28.6826L21.5129 31.966L21.5346 38.2036Z"
              fill="#2535B5"/>
        <path fill-rule="evenodd" clip-rule="evenodd" d="M21.4803 31.9759L15.354 28.6725L21.2635 25.5088L27.3898 28.8122L21.4803 31.9759Z"
              fill="#AFB7EF"/>
        <path fill-rule="evenodd" clip-rule="evenodd" d="M27.4329 28.8027L27.4546 35.0602L21.4909 38.2039L21.4692 31.9464L27.4329 28.8027Z"
              fill="#185BCC"/>
        <path fill-rule="evenodd" clip-rule="evenodd" d="M44.2721 32.6951L38.9048 29.9905L41.2903 25.5693L46.6467 28.2739L44.2721 32.6951Z"
              fill="#185BCC"/>
        <path fill-rule="evenodd" clip-rule="evenodd" d="M46.6577 28.2635L41.312 25.5689L42.8626 23.7725L48.2082 26.4671L46.6577 28.2635Z"
              fill="#AFB7EF"/>
        <path fill-rule="evenodd" clip-rule="evenodd" d="M48.2082 26.4668L45.8444 30.888L44.3047 32.6943L46.6685 28.2732L48.2082 26.4668Z"
              fill="#021B74"/>
        <path fill-rule="evenodd" clip-rule="evenodd" d="M46.1265 55.449L38.8617 50.449L37.4087 47.0059L44.6844 52.0059L46.1265 55.449Z"
              fill="#021B74"/>
        <path fill-rule="evenodd" clip-rule="evenodd" d="M44.6627 52.0358L37.4087 47.0358L43.5025 40.7783L50.7457 45.7783L44.6627 52.0358Z"
              fill="#2C40D4"/>
        <path fill-rule="evenodd" clip-rule="evenodd" d="M52.1767 49.2317L46.072 55.4493L44.6299 52.0262L50.7345 45.8086L52.1767 49.2317Z"
              fill="#133AA5"/>
        <path fill-rule="evenodd" clip-rule="evenodd" d="M34.1557 9.76056L29.4498 8.65278L28.7559 2.81445L33.4618 3.93222L34.1557 9.76056Z"
              fill="#2535B5"/>
        <path fill-rule="evenodd" clip-rule="evenodd" d="M33.4509 3.89183L28.7559 2.78405L33.6895 1.01758L38.3845 2.12536L33.4509 3.89183Z"
              fill="#AFB7EF"/>
        <path fill-rule="evenodd" clip-rule="evenodd" d="M38.3952 2.0957L39.1 7.95399L34.1447 9.76037L33.4399 3.90209L38.3952 2.0957Z"
              fill="#185BCC"/>
        <path fill-rule="evenodd" clip-rule="evenodd"
              d="M44.4133 65.0201C43.6976 65.0201 42.9712 64.8704 42.429 64.581L14.6382 49.7008L14.8225 49.4014L42.6133 64.2916C43.6 64.8205 45.2048 64.8205 46.2024 64.2916L74.1775 49.4014L74.3619 49.7008L46.3867 64.591C45.8446 64.8904 45.1181 65.0301 44.4133 65.0201Z"
              fill="#2C40D4"/>
        <path fill-rule="evenodd" clip-rule="evenodd"
              d="M44.4025 58.4928C43.6543 58.4928 42.9061 58.3331 42.3314 58.0337L13.272 42.4449L13.4563 42.1455L42.5266 57.7343C43.5675 58.2832 45.2482 58.2832 46.2891 57.7343L75.5438 42.1455L75.7281 42.4449L46.4735 58.0437C45.8988 58.3431 45.1506 58.5028 44.4025 58.4928Z"
              fill="#2C40D4"/>
        <path fill-rule="evenodd" clip-rule="evenodd"
              d="M44.4025 51.9161C43.6218 51.9161 42.8411 51.7664 42.2447 51.4471L11.9058 35.1996L12.0901 34.9102L42.429 51.1377C43.5025 51.7165 45.2808 51.7165 46.3759 51.1377L76.91 34.9102L77.0944 35.2096L46.5602 51.4471C45.953 51.7565 45.1723 51.9161 44.4025 51.9161Z"
              fill="#2C40D4"/>
        <path fill-rule="evenodd" clip-rule="evenodd"
              d="M44.3916 45.429C43.5784 45.429 42.7652 45.2693 42.1471 44.93L10.5396 28.0238L10.7239 27.7344L42.3423 44.6605C43.47 45.2693 45.3133 45.2693 46.4518 44.6605L78.2763 27.7344L78.4606 28.0338L46.6362 44.9499C46.0073 45.2793 45.2049 45.4489 44.3808 45.4489L44.3916 45.429Z"
              fill="#2C40D4"/>
        <path fill-rule="evenodd" clip-rule="evenodd"
              d="M44.3917 38.8627C43.5459 38.8627 42.711 38.6931 42.0604 38.3537L9.17334 20.7689L9.35767 20.4795L42.2447 38.0543C43.4266 38.6831 45.3459 38.6831 46.5386 38.0543L79.6425 20.4795L79.8269 20.7789L46.7229 38.3438C46.0832 38.6931 45.2266 38.8627 44.3917 38.8627Z"
              fill="#2C40D4"/>
        <path fill-rule="evenodd" clip-rule="evenodd" d="M14.4429 16.0479L16.297 17.5848L19.1921 19.1616L17.338 17.6147L14.4429 16.0479Z"
              fill="#B5B2CF"/>
        <path fill-rule="evenodd" clip-rule="evenodd" d="M17.3706 17.6349L19.2465 19.1619L21.5343 16.0182L19.6585 14.4912L17.3706 17.6349Z"
              fill="#CFCDE2"/>
        <path fill-rule="evenodd" clip-rule="evenodd" d="M16.7308 12.9346L14.4429 16.0583L17.3705 17.6052L19.6476 14.4815L16.7308 12.9346Z"
              fill="#E7E6F1"/>
        <path fill-rule="evenodd" clip-rule="evenodd" d="M33.1147 43.054L37.1375 42.1558L39.1652 37.9043L35.1424 38.8025L33.1147 43.054Z"
              fill="#CFCDE2"/>
        <path fill-rule="evenodd" clip-rule="evenodd" d="M35.1423 38.8027L39.165 37.9145L35.3158 34.8506L31.293 35.7388L35.1423 38.8027Z"
              fill="#F4F4FB"/>
        <path fill-rule="evenodd" clip-rule="evenodd" d="M31.2932 35.748L29.2764 39.9696L33.1148 43.0534L35.1316 38.8319L31.2932 35.748Z"
              fill="#E7E6F1"/>
        <path fill-rule="evenodd" clip-rule="evenodd" d="M54.2588 23.7123L58.0864 21.6664L58.0972 17.7842L54.2696 19.8301L54.2588 23.7123Z"
              fill="#CFCDE2"/>
        <path fill-rule="evenodd" clip-rule="evenodd" d="M54.2807 19.8203L58.0974 17.8043L54.4216 15.8682L50.6157 17.8841L54.2807 19.8203Z"
              fill="#F4F4FB"/>
        <path fill-rule="evenodd" clip-rule="evenodd" d="M50.6266 17.9043L50.6157 21.7766L54.2482 23.7127L54.259 19.8504L50.6266 17.9043Z"
              fill="#E7E6F1"/>
        <path fill-rule="evenodd" clip-rule="evenodd" d="M74.275 20.7788L77.6146 19.0922L76.1291 16.3477L72.8003 18.0343L74.275 20.7788Z"
              fill="#E7E6F1"/>
        <path fill-rule="evenodd" clip-rule="evenodd" d="M72.7897 18.024L76.1186 16.3673L75.1535 15.2695L71.8247 16.9262L72.7897 18.024Z"
              fill="#F4F4FB"/>
        <path fill-rule="evenodd" clip-rule="evenodd" d="M71.8247 16.9463L73.3211 19.6609L74.2969 20.7786L72.8006 18.0541L71.8247 16.9463Z"
              fill="#B5B2CF"/>
        <path fill-rule="evenodd" clip-rule="evenodd" d="M33.8306 23.7125L38.3304 20.6187L39.2304 18.5029L34.7305 21.5868L33.8306 23.7125Z"
              fill="#CFCDE2"/>
        <path fill-rule="evenodd" clip-rule="evenodd" d="M34.7412 21.5565L39.2302 18.4726L35.4568 14.6104L30.9678 17.7042L34.7412 21.5565Z"
              fill="#F4F4FB"/>
        <path fill-rule="evenodd" clip-rule="evenodd" d="M30.0571 19.8504L33.8414 23.7126L34.7413 21.5869L30.9571 17.7246L30.0571 19.8504Z"
              fill="#E7E6F1"/>
        <path fill-rule="evenodd" clip-rule="evenodd" d="M48.0781 6.40708L51.0166 5.71846L51.4612 2.0957L48.5227 2.78433L48.0781 6.40708Z"
              fill="#CFCDE2"/>
        <path fill-rule="evenodd" clip-rule="evenodd" d="M48.5447 2.75441L51.4615 2.06579L48.3929 0.958008L45.4761 1.65661L48.5447 2.75441Z"
              fill="#F4F4FB"/>
        <path fill-rule="evenodd" clip-rule="evenodd" d="M45.4542 1.67676L45.0205 5.29951L48.0999 6.4073L48.5337 2.78454L45.4542 1.67676Z"
              fill="#E7E6F1"/>
    </g>
    <defs>
        <clipPath id="clip0_219_6529">
            <rect width="89" height="110" fill="white"/>
        </clipPath>
    </defs>
</svg>
