<svg width="47" height="44" viewBox="0 0 47 44" fill="none" xmlns="http://www.w3.org/2000/svg">
<path fill-rule="evenodd" clip-rule="evenodd" d="M23.0345 3.32718C24.299 2.64705 25.4756 3.22548 25.4756 4.78771C25.4756 6.06109 24.59 7.60849 23.5284 8.18691C23.1949 8.39314 22.867 8.49766 22.5647 8.51249C22.4114 8.52026 22.2652 8.50473 22.1276 8.468C21.513 8.30203 21.0873 7.70595 21.0873 6.82737C21.0745 6.65081 21.0773 6.47283 21.0958 6.29486C21.1171 6.08934 21.1582 5.88452 21.2178 5.68324C21.5031 4.71214 22.1971 3.81661 23.0345 3.32718ZM23.1367 16.6627C24.2125 14.2332 27.7294 5.67053 27.7294 3.03761C27.7294 0.217539 25.8687 -0.752148 23.5284 0.608097C20.8843 2.06863 18.7469 5.77152 18.8349 8.78016C18.7469 11.1235 21.6692 14.9126 23.1367 16.6627ZM24.5034 15.9833L29.0819 18.5724L31.1299 17.4148L25.2883 14.0594C24.9973 14.7247 24.7944 15.4048 24.5034 15.9833ZM23.6774 17.9106C23.6973 17.8831 23.7157 17.8534 23.7328 17.8202L23.7938 17.6952C23.8775 17.5144 23.9825 17.2877 24.2267 17.126L28.1651 19.3966L26.1881 20.4814L19.0961 16.3449L20.7679 15.361C21.6677 16.5468 22.4526 17.5307 22.8457 17.9212C22.8954 17.9707 22.9479 18.0116 23.0018 18.0434C23.0288 18.0596 23.0558 18.0738 23.0842 18.0858C23.1707 18.1211 23.2587 18.1345 23.3439 18.1239C23.3779 18.1197 23.412 18.1112 23.4461 18.0985C23.4759 18.0865 23.5043 18.0716 23.5312 18.0533C23.5525 18.0392 23.5738 18.0229 23.5937 18.0046C23.6235 17.9777 23.6519 17.9466 23.6774 17.9106ZM15.9581 18.0081L23.0501 22.1305L25.1137 20.9588L18.1239 16.8364L15.9581 18.0081ZM29.4878 22.4193C29.6766 22.3184 29.7788 22.1305 29.7788 21.9278V19.3825L31.6238 18.3118V26.8165C32.2057 26.5128 23.6462 31.4015 23.544 31.5032V22.9985L25.7964 21.7399V23.6927C25.7964 23.7287 25.7992 23.7648 25.8049 23.7994L25.8148 23.841L25.8347 23.9032C25.8815 24.0197 25.9667 24.12 26.0873 24.1843C26.1384 24.2429 26.2292 24.2676 26.3342 24.2584C26.4081 24.2514 26.4889 24.2267 26.567 24.1843L29.4878 22.4193ZM15.521 27.4818C15.6231 27.5835 22.9621 31.7779 22.569 31.5752V23.0995L15.521 19.006V27.4818ZM9.01084 32.8338C9.1996 32.9348 9.59132 32.8338 9.6935 32.6459C9.72756 32.583 9.73892 32.4969 9.73182 32.4079C9.72614 32.3408 9.71053 32.2716 9.68641 32.2087C9.67221 32.172 9.65518 32.1374 9.63531 32.1063C9.59983 32.0484 9.55583 32.0032 9.50474 31.9799L7.93505 31.0978C7.74629 30.9968 7.35315 31.0978 7.25239 31.2857C7.1502 31.4742 7.25239 31.8648 7.44115 31.9658L9.01084 32.8338ZM5.5805 30.8951C5.76927 30.982 6.1624 30.8951 6.26317 30.6931C6.46754 30.5045 6.36535 30.1147 6.07441 30.013L4.50471 29.1309C4.31595 29.044 3.92424 29.1309 3.82205 29.3336C3.76528 29.4367 3.77096 29.6005 3.82063 29.7453C3.82773 29.7679 3.83624 29.7898 3.84618 29.811C3.88592 29.9007 3.94269 29.9763 4.01081 30.013L5.5805 30.8951ZM28.7186 40.2713C28.2758 40.4938 27.674 40.7968 47 29.7241L46.8836 32.8479C46.8836 32.8479 46.8836 32.8634 46.8723 32.8889C46.8652 32.9044 46.8538 32.9235 46.8354 32.9447C46.8084 32.9764 46.7644 33.0139 46.6949 33.0506C46.7076 33.0379 46.428 33.1947 45.9285 33.4786C45.1096 33.9447 43.6974 34.7548 42.0127 35.7231L35.4004 39.5269C31.55 41.7439 28.1566 43.6967 27.9905 43.7828C27.4966 44.0724 26.6252 44.0724 26.1313 43.7828L0.188761 28.7544C0.102186 28.6535 0 28.5525 0 28.5525V25.428L25.6516 40.3695C26.4364 40.7601 27.8018 40.7601 28.5866 40.3695C28.9584 40.1506 28.8449 40.2078 28.7186 40.2713ZM28.7754 21.6524V19.9602C28.6732 20.0612 26.77 21.146 26.8565 21.045V22.7372L28.7754 21.6524ZM13.5297 17.0243L10.3038 18.8761C10.115 19.0781 10.0128 19.3676 10.1008 19.5555C10.2016 19.845 10.5805 19.845 10.7835 19.7441L14.0095 17.8923C14.2138 17.8245 14.2805 17.6274 14.2734 17.4487C14.2706 17.3597 14.2479 17.275 14.2138 17.2128C14.1116 16.9233 13.7341 16.9233 13.5297 17.0243ZM36.3613 31.8358C35.7666 31.5463 34.8938 31.5463 34.3999 31.8358C33.7172 32.3274 33.7172 33.0075 34.3999 33.2964C34.996 33.5859 35.8674 33.5859 36.3613 33.2964C36.6707 33.1657 36.841 32.9341 36.8694 32.6833C36.9049 32.3804 36.736 32.0498 36.3613 31.8358ZM26.1739 39.4436L0.218565 24.43C-0.0723819 24.2422 -0.0723819 24.0395 0.218565 23.9385L19.1117 13.0177C19.1528 13.0177 19.1982 12.9944 19.2451 12.9697C19.2962 12.9435 19.3487 12.9167 19.4012 12.9167C19.7063 13.4082 19.9973 13.8857 20.2882 14.3772L14.8099 17.5017C14.6197 17.6034 14.519 17.8054 14.519 17.9933V18.4855L4.14138 24.43C3.85185 24.6327 3.85185 25.1243 4.14138 25.3122L23.2389 36.6087C23.4418 36.7104 23.9357 36.7104 24.1245 36.6087L40.8532 26.9761C40.9497 26.9245 41.0221 26.8504 41.0718 26.7635C41.1186 26.6795 41.1427 26.5834 41.1427 26.4838C41.1427 26.2818 41.042 26.0933 40.8532 25.9923L32.728 21.3204V20.0477L46.7389 28.2339C47.0298 28.4366 47.1306 28.5235 46.7389 28.7262C29.6553 38.5226 27.8997 39.5495 28.0544 39.4584C28.1324 39.4132 28.6902 39.0862 28.0345 39.4436C27.5406 39.7332 26.6678 39.7332 26.1739 39.4436Z" fill="#0D9B1B"/>
</svg>
