<svg width="26" height="44" viewBox="0 0 26 44" fill="none" xmlns="http://www.w3.org/2000/svg">
    <path fill-rule="evenodd" clip-rule="evenodd"
          d="M4.99656 25.1176C4.8931 24.4509 4.84933 23.776 4.84933 23.1188C4.84933 16.1459 9.71193 7.53025 15.633 4.0363C16.7167 3.39745 17.6027 3.00531 18.2991 2.76676C19.2793 2.43034 19.8855 2.3984 20.1401 2.40927C20.6667 2.43238 19.6931 2.64103 17.4263 0.737394C16.6384 0.18078 15.824 0 14.8319 0C8.09504 0 0 10.6341 0 19.7227C0 22.8409 0.99215 25.1373 2.87962 26.237L5.93566 27.9768C5.61599 27.4032 5.37857 26.7847 5.21011 26.1452C5.12125 25.8074 5.05095 25.4635 4.99656 25.1176ZM18.4582 33.2514C18.4582 33.3492 16.3121 41.394 16.3944 41.3104C16.2989 41.6726 15.946 41.7698 15.6741 41.589L9.94273 38.2065L9.86447 38.1236C9.83529 38.0917 9.81141 38.0604 9.79417 38.0291C9.77692 37.9965 9.76631 37.9639 9.76631 37.9286L7.8921 33.0706C7.08963 33.3492 6.27522 33.7108 5.56957 34.073C1.72565 36.3552 1.72565 39.9328 5.66375 42.215C9.77958 44.595 16.3267 44.595 20.4412 42.215C25.711 39.1111 22.3154 34.6297 18.4582 33.2514ZM15.0772 40.0857L10.5953 37.4134C10.6855 37.5983 10.0276 35.8876 9.33921 34.0948L8.58847 32.1395C8.36165 31.5462 8.168 31.0351 8.04331 30.6994C7.97301 30.5084 7.92526 30.3745 7.90537 30.3147C8.89752 31.0521 10.3234 31.4279 11.7626 31.3308C12.0345 32.0681 14.6289 38.9725 15.0772 40.0857ZM16.1357 24.8729C12.1976 27.1694 8.96517 25.2345 8.96517 20.6416C8.96517 16.3267 11.9257 10.9957 15.6887 8.78281C19.5459 6.48635 22.8592 8.42056 22.8592 13.0142C22.8592 17.4263 19.8165 22.7573 16.1357 24.8729ZM23.7559 4.56505C19.0976 0.612343 12.0212 7.04296 8.78875 12.7355C6.37072 17.1476 4.48325 23.8569 6.91322 27.9068C7.98628 29.7445 9.87508 30.4819 11.9257 30.3011C12.1021 30.3011 12.374 30.3983 12.374 30.5798L15.8651 39.5848L19.4504 25.889C19.4504 25.7911 19.5459 25.7082 19.5459 25.7082L19.6401 25.6103C23.4986 21.4769 26.0917 15.4078 25.9975 10.5362C25.9975 7.86395 25.1818 5.76255 23.7559 4.56505ZM19.0419 10.7598C19.2196 10.8428 19.3138 11.0378 19.3138 11.2186L19.205 18.025C19.205 18.2058 19.1108 18.3873 18.9331 18.4845L13.1752 21.8948C12.9988 21.992 12.9033 21.992 12.7268 21.8948C12.5504 21.8112 12.4549 21.6162 12.4549 21.4354V14.6289C12.4549 14.4482 12.5504 14.2667 12.7268 14.1695L14.2615 13.2507V15.7286C14.2615 15.9094 14.357 16.0901 14.5334 16.188C14.5957 16.2519 14.7297 16.2736 14.8411 16.2533C14.8982 16.2431 14.9499 16.2213 14.9817 16.188L17.0589 14.9905C17.2353 14.8933 17.3308 14.7125 17.3308 14.5318V11.4972L18.5935 10.7598C18.6572 10.6946 18.758 10.6728 18.8694 10.6946C18.9251 10.7055 18.9835 10.7272 19.0419 10.7598ZM15.2669 12.7776L16.4341 12.1374V14.3503L15.2669 14.9905V12.7776Z"
          fill="#0D9B1B"/>
</svg>
