<svg width="43" height="44" viewBox="0 0 43 44" fill="none" xmlns="http://www.w3.org/2000/svg">
    <path fill-rule="evenodd" clip-rule="evenodd"
          d="M4.1845 14.6549L27.4892 1.06234L27.5088 1.05987C27.5186 1.05741 27.5296 1.05371 27.5406 1.04755C27.559 1.03522 27.5761 1.01304 27.5761 0.973602L26.0222 0.052968C25.9255 0.00367029 25.7689 -0.0185137 25.5866 0.0184596C25.4373 0.0492706 25.2709 0.118287 25.1082 0.242764L18.3347 4.15453L15.3713 5.86393L12.8667 7.30712C8.49013 9.8287 8.40448 9.86567 8.35798 9.88662C8.33107 9.89895 8.31638 9.90511 7.48438 10.3882L1.70439 13.7454C0.814876 14.2889 0 15.6643 0 16.7747L0.0880947 35.8813C0.0880947 36.3361 0.174966 36.6134 0.451485 36.7021L2.09225 37.7115V37.6227V18.5162C2.07634 18.2672 2.09347 18.006 2.13997 17.741C2.16321 17.6054 2.1938 17.4698 2.23173 17.3343C2.29291 17.1149 2.37244 16.8955 2.46788 16.6823C2.50336 16.6034 2.54006 16.5258 2.57922 16.4494C2.71625 16.1782 2.88021 15.9182 3.06374 15.6766C3.38308 15.2588 3.7636 14.9014 4.1845 14.6549ZM6.13971 32.916L26.4859 21.0784C26.6743 21.0784 26.7624 20.901 26.6743 20.7247V5.95883C26.6743 5.87749 26.6572 5.80601 26.6266 5.74562C26.5936 5.6803 26.5446 5.6273 26.4871 5.59033C26.4211 5.54719 26.3428 5.52378 26.262 5.52378C26.1861 5.52378 26.1078 5.54596 26.0357 5.59279L5.68823 17.4181C5.5879 17.5068 5.4998 17.6079 5.4998 17.7841V32.55C5.4998 32.916 5.86319 33.0923 6.13971 32.916ZM15.6368 30.6188L17.0023 29.7992C17.2776 29.6094 17.3657 29.3321 17.1895 29.1423C17.1026 28.8773 16.7392 28.8773 16.5508 28.9661L15.1853 29.7856C14.91 29.8744 14.91 30.2527 14.9969 30.4302C15.0361 30.5534 15.1119 30.6225 15.2086 30.652C15.3297 30.6902 15.4826 30.6681 15.6368 30.6188ZM29.2303 2.65219L29.3184 21.7218C29.3184 22.8322 28.4913 24.1953 27.5883 24.7375L4.13433 38.2168C3.77094 38.4941 3.40755 38.4941 3.22035 38.4053C3.1604 38.3856 3.10901 38.3573 3.06618 38.3203L3.04661 38.3018L3.02091 38.2759L3.00868 38.2611L2.97809 38.218C2.88877 38.075 2.85696 37.8631 2.85696 37.5858C2.85696 35.6668 2.94383 44.6526 2.85696 18.5162C2.85696 18.0737 2.99644 17.5438 3.23748 17.0409C3.54704 16.3976 4.02299 15.7986 4.58582 15.4868L27.9517 1.92012C28.6785 1.55531 29.2303 1.73155 29.2303 2.65219ZM18.6308 36.9412V30.9725C18.5427 31.0612 15.386 32.9037 15.4863 32.8027V38.7714C15.5732 38.7714 18.818 36.8414 18.6308 36.9412ZM13.5311 34.0141V38.2291L14.5087 38.7714V33.4706L13.5311 34.0141ZM14.9431 42.3208C15.3505 42.29 15.7494 42.1791 16.0748 42.0152L23.9177 37.396V38.8724C23.9177 38.8724 23.9177 38.8995 23.8908 38.939L23.8749 38.9587C23.8651 38.971 23.8516 38.9833 23.8357 38.9969C23.81 39.0179 23.7758 39.04 23.7305 39.0622C20.3743 41.0477 18.3947 42.2111 17.2323 42.8939L17.1185 42.9617C16.5826 43.2759 16.2339 43.4805 16.0088 43.6149C15.742 43.7738 15.6478 43.833 15.6234 43.8577C15.1596 44.0474 14.4328 44.0474 14.0707 43.8577C7.49906 39.1374 6.34282 38.3043 6.34037 38.308L6.42847 38.3745C6.60466 38.5052 6.93012 38.7479 6.32691 38.3302L6.24004 38.2414L7.32899 37.5981C7.22009 37.5328 7.50151 37.7386 7.99582 38.0923C8.77276 38.6481 10.0771 39.57 11.2247 40.3809C12.4446 41.2436 13.4846 41.9806 13.5189 42.0152C13.9263 42.2727 14.4414 42.3578 14.9431 42.3208ZM23.7672 36.0711L19.6586 34.1522V37.2567C19.6586 37.3454 19.5705 37.6227 19.3821 37.7115C19.2952 37.8002 15.1853 40.185 15.2857 40.0839C15.2379 40.132 15.1339 40.1542 15.0348 40.1505C14.9883 40.148 14.9418 40.1406 14.9039 40.1271C14.8758 40.116 14.8513 40.1012 14.8342 40.0839C14.751 40.0457 14.3521 39.8103 13.9385 39.5663C13.4136 39.2582 12.8679 38.9365 12.9169 38.9858C12.7419 38.8983 12.6416 38.7085 12.6416 38.6198V34.6957L8.26867 37.2567L14.0071 41.2708C14.4585 41.5481 15.2857 41.5481 15.649 41.3583L15.6613 41.3447C15.6698 41.3348 15.6796 41.3274 15.7457 41.288L16.1066 41.0785L17.0108 40.5559L18.4877 39.6982C19.6733 39.008 21.3617 38.0233 23.7672 36.6134L23.837 36.5111L23.8724 36.4445L23.8883 36.4112L23.8981 36.3817C23.9312 36.2707 23.8871 36.1919 23.7672 36.0711ZM21.374 18.5039V20.9897L23.6546 19.703V17.216L21.374 18.5039ZM23.6546 13.632L21.374 14.9199V17.4058L23.6546 16.1178V13.632ZM23.6546 10.0481L21.374 11.336V13.8218L23.6546 12.5339V10.0481ZM18.1793 20.3464V22.8322L20.46 21.5455V19.0585L18.1793 20.3464ZM20.46 15.5633L18.1793 16.8499V19.337L20.46 18.0491V15.5633ZM20.46 11.9793L18.1793 13.266V15.753L20.46 14.4651V11.9793ZM14.9847 22.2776V24.7634L17.2653 23.4755V20.9897L14.9847 22.2776ZM17.2653 17.4058L14.9847 18.6924V21.1795L17.2653 19.8916V17.4058ZM17.2653 13.8218L14.9847 15.1085V17.5955L17.2653 16.3076V13.8218ZM11.7019 24.1201V26.6059L13.9826 25.318V22.8322L11.7019 24.1201ZM13.9826 19.2483L11.7019 20.5349V23.022L13.9826 21.7341V19.2483ZM13.9826 15.753L11.7019 17.0397V19.5256L13.9826 18.2389V15.753ZM8.50726 25.949V28.4361L10.7879 27.1482V24.6624L8.50726 25.949ZM10.7879 21.1795L8.50726 22.4662V24.952L10.7879 23.6653V21.1795ZM10.7879 17.5955L8.50726 18.8822V21.3681L10.7879 20.0814V17.5955ZM24.1233 8.78359C24.2003 8.78359 24.2897 8.80577 24.3814 8.84891L24.4316 8.90437C24.5062 8.98571 24.5858 9.07321 24.6567 9.22727V19.968C24.6567 20.1442 24.5699 20.334 24.3814 20.4215C18.3555 23.918 13.7942 26.58 8.31883 29.7992C8.23196 29.8867 8.13163 29.8867 8.04354 29.8867C7.78047 29.8867 7.59205 29.7105 7.59205 29.4332V18.6801C7.59205 18.5039 7.68014 18.3141 7.86857 18.2266C13.8064 14.7301 18.4558 11.9793 23.9299 8.84891C23.9532 8.82549 23.9826 8.80947 24.0156 8.79838C24.0303 8.79345 24.0462 8.78975 24.0633 8.78728L24.1233 8.78359ZM38.4142 35.1369L39.7674 34.3173V32.0324L38.4142 32.8532V35.1369ZM32.8765 27.338L39.3159 31.1992L37.9505 32.0324L31.4229 28.1711L32.8765 27.338ZM34.4303 34.5823L27.8147 30.8209V38.3302L34.4303 42.1791V34.5823ZM35.9463 25.5201L42.5485 29.3321L40.3437 30.5941L33.7537 26.7957L35.9463 25.5201ZM43 30.1393L40.8074 31.4272V34.5564C40.8074 34.7462 40.7193 34.9225 40.5309 35.0235L38.1634 36.3989C37.8881 36.5887 37.4366 36.3989 37.4366 35.9454V33.3708L35.3321 34.5687V42.1162L43 37.6991V30.1393ZM28.2649 29.9002L30.471 28.7011L36.9851 32.5746L34.8806 33.7738L28.2649 29.9002Z"
          fill="#0D9B1B"/>
</svg>
