<svg width="31" height="44" viewBox="0 0 31 44" fill="none" xmlns="http://www.w3.org/2000/svg">
    <path fill-rule="evenodd" clip-rule="evenodd"
          d="M4.42617 15.6319L29.0837 1.21708C29.0837 1.21708 29.1766 1.21708 29.1766 1.12314L27.4449 0.0546513C27.2603 -0.0379775 26.8642 -0.0379775 26.4809 0.255564C24.2846 1.55889 22.6032 2.55172 21.154 3.40364C20.3075 3.90201 19.541 4.3508 18.7977 4.78394C15.0051 6.99659 11.8216 8.81786 1.82338 14.6704C0.872331 15.2314 0 16.7004 0 17.8629L0.092911 38.116C0.092911 38.5974 0.184531 38.8909 0.476169 38.9979L2.21954 40.0664V39.9725V19.7194C2.11372 18.2503 3.07897 16.4069 4.42617 15.6319ZM19.7423 32.9327V39.3045L16.3459 41.2693V34.9066C16.3962 34.8935 16.6788 34.7396 17.0621 34.5217C17.5227 34.2608 18.1267 33.9085 18.6454 33.6019C19.2313 33.2549 19.7087 32.9666 19.7423 32.9327ZM20.7591 36.2986L25.0937 38.343C25.1995 38.4369 25.2911 38.5295 25.2782 38.6365L25.1853 38.7304C25.1853 38.7304 25.1853 38.7422 25.1814 38.7565C25.1789 38.7683 25.1737 38.7813 25.1647 38.7931C25.1518 38.81 25.1298 38.8244 25.0937 38.8244C24.3917 39.2014 25.0679 38.7931 25.0653 38.7892C25.064 38.7865 24.8782 38.8948 24.2175 39.281C23.1852 39.8863 20.9888 41.1701 16.5175 43.7807C16.2736 43.9307 15.9252 44.0038 15.5923 43.9999C15.2761 43.9972 14.9741 43.9242 14.787 43.7807C10.6073 40.7983 9.81114 40.2334 9.81243 40.2321L9.87437 40.2751C10.0847 40.4212 10.6551 40.8166 8.72073 39.4115L13.254 36.78V40.9483C13.254 40.994 13.2759 41.0644 13.3211 41.1349C13.3418 41.1675 13.3676 41.2014 13.3985 41.2327C13.4385 41.2719 13.4876 41.3084 13.5444 41.3358L15.6581 42.6052C15.7058 42.6535 15.7781 42.677 15.8633 42.6743C15.9446 42.673 16.0375 42.6496 16.1342 42.6052C15.8439 42.7918 20.3759 40.1734 20.4688 40.0794C20.6662 39.9868 20.7591 39.7989 20.7591 39.5993V36.2986ZM14.3509 40.6809V36.1655L15.3806 35.5772V41.2693L14.3509 40.6809ZM28.2914 22.5256L6.19794 35.3775C6.06502 35.4689 5.91275 35.4767 5.78629 35.4206C5.63531 35.3554 5.52304 35.2001 5.52304 34.9901V18.9183C5.52304 18.7174 5.61595 18.6248 5.72177 18.5308L27.8152 5.67892C27.9081 5.58629 28.1056 5.58629 28.2914 5.67892C28.3843 5.77285 28.4888 5.87983 28.4888 6.06639V22.1381C28.5817 22.3247 28.4888 22.4186 28.2914 22.5256ZM17.9705 31.6763L16.5175 32.5582C16.3962 32.6156 16.2065 32.6378 16.0555 32.5791C15.96 32.5426 15.88 32.4734 15.8439 32.3586C15.751 32.1577 15.751 31.7702 16.0413 31.6763L17.4827 30.7944C17.5344 30.7696 17.5989 30.7513 17.6673 30.7435C17.8608 30.7213 18.088 30.7787 18.1563 30.9953C18.3538 31.1962 18.2622 31.4767 17.9705 31.6763ZM31 2.84656C31 2.41082 30.8839 2.11075 30.6864 1.9568C30.4425 1.76633 30.0761 1.79894 29.6528 2.07161L4.84944 16.4734C3.79257 17.0618 3.01315 18.6117 3.01315 19.6933C3.03638 26.78 3.048 31.4349 3.05187 34.4721C3.05832 39.8329 3.04283 40.1551 3.02993 39.9124C3.0209 39.7546 3.01315 39.3541 3.01315 39.9594C3.01315 40.4565 3.16413 40.7957 3.4519 40.9092C3.67514 40.9979 3.97969 40.9496 4.36036 40.7344L29.1637 26.3195C30.1277 25.7311 31 24.2751 31 23.0997V2.84656ZM13.0024 18.5582V27.3214L21.2611 22.4447V13.6815L19.2532 14.844V17.5693C19.2532 17.7689 19.1474 17.9698 18.9616 18.0638L15.9884 19.8133C15.951 19.8472 15.9149 19.8681 15.88 19.8824C15.8168 19.9072 15.7574 19.9072 15.6981 19.9072C15.6516 19.9072 15.6013 19.8837 15.5523 19.8603C15.5032 19.8368 15.4542 19.8133 15.4077 19.8133C15.209 19.8133 15.1174 19.6267 15.1174 19.4258V17.2888L13.0024 18.5582ZM18.0905 17.4884V15.645L16.0813 16.7135V18.5582L18.0905 17.4884Z"
          fill="#0D9B1B"/>
</svg>
