<svg width="331" height="76" viewBox="0 0 331 76" fill="none" xmlns="http://www.w3.org/2000/svg">
<g clip-path="url(#clip0_219_885)">
<path d="M0 6.57439H6.12211V0H0V6.57439ZM15.2453 8.23529H21.3674V0H15.2453V8.23529ZM30.5505 15.5709H36.6126V0H30.5505V15.5709ZM45.7958 6.85121H51.9179V0H45.7958V6.85121ZM76.2863 6.78201H82.4084V0H76.2863V6.78201ZM106.837 20H112.959V0H106.837V20ZM122.082 3.66782H128.204V0H122.082V3.66782ZM152.633 5.19031H158.755V0H152.633V5.19031ZM167.878 1.5917H174V0H167.878V1.5917Z" fill="#EB5757"/>
<path d="M106.837 76H112.959V19.5583H106.837V76ZM30.5505 76H36.6126V15.2271H30.5505V76ZM15.2453 76H21.3674V8.05343H15.2453V76ZM45.7958 76H51.9179V6.69991H45.7958V76ZM76.2863 76H82.4084V6.63224H76.2863V76ZM0 76H6.12211V6.42921H0V76ZM152.633 76H158.755V5.07569H152.633V76ZM122.082 76H128.204V3.58682H122.082V76ZM167.878 76H174V1.55655H167.878V76ZM61.0411 76H67.1632V0H61.0411V76ZM91.5916 76H97.7137V0H91.5916V76ZM137.387 76H143.449V0H137.387V76Z" fill="#2F80ED"/>
</g>
<path d="M216.7 0H208V8.7H216.7V0Z" fill="#2F80ED"/>
<path d="M230.744 12V3.54H236.276V4.368H231.704V7.272H234.272C235.16 7.272 235.848 7.468 236.336 7.86C236.824 8.252 237.068 8.84 237.068 9.624C237.068 10.408 236.824 11 236.336 11.4C235.848 11.8 235.16 12 234.272 12H230.744ZM231.704 11.172H234.176C235.456 11.172 236.096 10.656 236.096 9.624C236.096 8.608 235.456 8.1 234.176 8.1H231.704V11.172ZM241.222 12.108C240.302 12.108 239.574 11.84 239.038 11.304C238.502 10.76 238.234 10.024 238.234 9.096C238.234 8.496 238.354 7.968 238.594 7.512C238.834 7.048 239.162 6.692 239.578 6.444C240.002 6.188 240.49 6.06 241.042 6.06C241.834 6.06 242.454 6.316 242.902 6.828C243.35 7.332 243.574 8.028 243.574 8.916V9.288H239.182C239.214 9.952 239.406 10.46 239.758 10.812C240.11 11.156 240.598 11.328 241.222 11.328C241.574 11.328 241.91 11.276 242.23 11.172C242.55 11.06 242.854 10.88 243.142 10.632L243.478 11.316C243.214 11.564 242.878 11.76 242.47 11.904C242.062 12.04 241.646 12.108 241.222 12.108ZM241.066 6.78C240.514 6.78 240.078 6.952 239.758 7.296C239.438 7.64 239.25 8.092 239.194 8.652H242.734C242.71 8.06 242.554 7.6 242.266 7.272C241.986 6.944 241.586 6.78 241.066 6.78ZM247.018 12.108C246.514 12.108 246.038 12.044 245.59 11.916C245.15 11.78 244.794 11.592 244.522 11.352L244.834 10.668C245.114 10.892 245.442 11.064 245.818 11.184C246.194 11.296 246.586 11.352 246.994 11.352C247.57 11.352 247.982 11.268 248.23 11.1C248.486 10.932 248.614 10.684 248.614 10.356C248.614 9.724 248.21 9.408 247.402 9.408H246.022V8.676H247.282C247.626 8.676 247.898 8.596 248.098 8.436C248.306 8.276 248.41 8.052 248.41 7.764C248.41 7.476 248.298 7.248 248.074 7.08C247.85 6.904 247.49 6.816 246.994 6.816C246.218 6.816 245.53 7.028 244.93 7.452L244.618 6.768C245.274 6.296 246.106 6.06 247.114 6.06C247.858 6.06 248.414 6.204 248.782 6.492C249.15 6.78 249.334 7.184 249.334 7.704C249.334 8 249.246 8.264 249.07 8.496C248.902 8.72 248.67 8.884 248.374 8.988C248.734 9.076 249.018 9.244 249.226 9.492C249.434 9.732 249.538 10.032 249.538 10.392C249.538 10.912 249.326 11.328 248.902 11.64C248.478 11.952 247.85 12.108 247.018 12.108ZM253.487 12.108C252.919 12.108 252.427 11.984 252.011 11.736C251.595 11.488 251.271 11.14 251.039 10.692C250.815 10.236 250.703 9.7 250.703 9.084C250.703 8.468 250.815 7.936 251.039 7.488C251.271 7.032 251.595 6.68 252.011 6.432C252.427 6.184 252.919 6.06 253.487 6.06C254.047 6.06 254.535 6.184 254.951 6.432C255.375 6.68 255.699 7.032 255.923 7.488C256.155 7.936 256.271 8.468 256.271 9.084C256.271 9.7 256.155 10.236 255.923 10.692C255.699 11.14 255.375 11.488 254.951 11.736C254.535 11.984 254.047 12.108 253.487 12.108ZM253.487 11.328C254.031 11.328 254.467 11.136 254.795 10.752C255.123 10.36 255.287 9.804 255.287 9.084C255.287 8.356 255.123 7.8 254.795 7.416C254.467 7.032 254.031 6.84 253.487 6.84C252.935 6.84 252.495 7.032 252.167 7.416C251.847 7.8 251.687 8.356 251.687 9.084C251.687 9.804 251.847 10.36 252.167 10.752C252.495 11.136 252.935 11.328 253.487 11.328ZM257.848 12V6.168H262.936V12H261.964V6.948H258.82V12H257.848ZM266.704 12.108C266.304 12.108 265.944 12.032 265.624 11.88C265.312 11.72 265.064 11.504 264.88 11.232C264.696 10.96 264.604 10.656 264.604 10.32C264.604 9.896 264.712 9.56 264.928 9.312C265.152 9.064 265.516 8.888 266.02 8.784C266.532 8.672 267.228 8.616 268.108 8.616H268.492V8.244C268.492 7.748 268.388 7.392 268.18 7.176C267.98 6.952 267.656 6.84 267.208 6.84C266.856 6.84 266.516 6.892 266.188 6.996C265.86 7.092 265.524 7.252 265.18 7.476L264.844 6.768C265.148 6.552 265.516 6.38 265.948 6.252C266.388 6.124 266.808 6.06 267.208 6.06C267.96 6.06 268.516 6.244 268.876 6.612C269.244 6.98 269.428 7.552 269.428 8.328V12H268.516V10.992C268.364 11.336 268.128 11.608 267.808 11.808C267.496 12.008 267.128 12.108 266.704 12.108ZM266.86 11.376C267.34 11.376 267.732 11.212 268.036 10.884C268.34 10.548 268.492 10.124 268.492 9.612V9.252H268.12C267.472 9.252 266.96 9.284 266.584 9.348C266.216 9.404 265.956 9.508 265.804 9.66C265.66 9.804 265.588 10.004 265.588 10.26C265.588 10.588 265.7 10.856 265.924 11.064C266.156 11.272 266.468 11.376 266.86 11.376ZM273.808 12.108C273.224 12.108 272.72 11.984 272.296 11.736C271.872 11.48 271.544 11.124 271.312 10.668C271.088 10.204 270.976 9.664 270.976 9.048C270.976 8.12 271.228 7.392 271.732 6.864C272.236 6.328 272.928 6.06 273.808 6.06C274.168 6.06 274.524 6.124 274.876 6.252C275.228 6.38 275.52 6.56 275.752 6.792L275.416 7.5C275.184 7.276 274.928 7.112 274.648 7.008C274.376 6.904 274.116 6.852 273.868 6.852C273.26 6.852 272.792 7.044 272.464 7.428C272.136 7.804 271.972 8.348 271.972 9.06C271.972 9.756 272.136 10.308 272.464 10.716C272.792 11.116 273.26 11.316 273.868 11.316C274.116 11.316 274.376 11.264 274.648 11.16C274.928 11.056 275.184 10.888 275.416 10.656L275.752 11.364C275.52 11.596 275.224 11.78 274.864 11.916C274.512 12.044 274.16 12.108 273.808 12.108ZM276.996 12V6.168H277.968V8.592H281.148V6.168H282.12V12H281.148V9.384H277.968V12H276.996ZM284.039 12V6.168H285.011V8.244H286.775C287.519 8.244 288.083 8.408 288.467 8.736C288.851 9.056 289.043 9.512 289.043 10.104C289.043 10.688 288.843 11.152 288.443 11.496C288.051 11.832 287.495 12 286.775 12H284.039ZM289.907 12V6.168H290.879V12H289.907ZM285.011 11.304H286.679C287.127 11.304 287.475 11.208 287.723 11.016C287.979 10.824 288.107 10.524 288.107 10.116C288.107 9.716 287.983 9.42 287.735 9.228C287.487 9.036 287.135 8.94 286.679 8.94H285.011V11.304ZM295.445 12.108C294.525 12.108 293.797 11.84 293.261 11.304C292.725 10.76 292.457 10.024 292.457 9.096C292.457 8.496 292.577 7.968 292.817 7.512C293.057 7.048 293.385 6.692 293.801 6.444C294.225 6.188 294.713 6.06 295.265 6.06C296.057 6.06 296.677 6.316 297.125 6.828C297.573 7.332 297.797 8.028 297.797 8.916V9.288H293.405C293.437 9.952 293.629 10.46 293.981 10.812C294.333 11.156 294.821 11.328 295.445 11.328C295.797 11.328 296.133 11.276 296.453 11.172C296.773 11.06 297.077 10.88 297.365 10.632L297.701 11.316C297.437 11.564 297.101 11.76 296.693 11.904C296.285 12.04 295.869 12.108 295.445 12.108ZM295.289 6.78C294.737 6.78 294.301 6.952 293.981 7.296C293.661 7.64 293.473 8.092 293.417 8.652H296.957C296.933 8.06 296.777 7.6 296.489 7.272C296.209 6.944 295.809 6.78 295.289 6.78ZM230.66 28V22.168H233.504C234.192 22.168 234.7 22.3 235.028 22.564C235.356 22.82 235.52 23.2 235.52 23.704C235.52 24.008 235.432 24.272 235.256 24.496C235.088 24.72 234.856 24.884 234.56 24.988C234.92 25.076 235.2 25.244 235.4 25.492C235.608 25.74 235.712 26.04 235.712 26.392C235.712 26.888 235.528 27.28 235.16 27.568C234.792 27.856 234.272 28 233.6 28H230.66ZM231.584 24.7H233.456C233.824 24.7 234.108 24.62 234.308 24.46C234.508 24.292 234.608 24.056 234.608 23.752C234.608 23.456 234.508 23.228 234.308 23.068C234.108 22.908 233.824 22.828 233.456 22.828H231.584V24.7ZM231.584 27.34H233.564C233.964 27.34 234.268 27.256 234.476 27.088C234.684 26.92 234.788 26.672 234.788 26.344C234.788 26.024 234.684 25.78 234.476 25.612C234.268 25.444 233.964 25.36 233.564 25.36H231.584V27.34ZM239.659 28.108C239.091 28.108 238.599 27.984 238.183 27.736C237.767 27.488 237.443 27.14 237.211 26.692C236.987 26.236 236.875 25.7 236.875 25.084C236.875 24.468 236.987 23.936 237.211 23.488C237.443 23.032 237.767 22.68 238.183 22.432C238.599 22.184 239.091 22.06 239.659 22.06C240.219 22.06 240.707 22.184 241.123 22.432C241.547 22.68 241.871 23.032 242.095 23.488C242.327 23.936 242.443 24.468 242.443 25.084C242.443 25.7 242.327 26.236 242.095 26.692C241.871 27.14 241.547 27.488 241.123 27.736C240.707 27.984 240.219 28.108 239.659 28.108ZM239.659 27.328C240.203 27.328 240.639 27.136 240.967 26.752C241.295 26.36 241.459 25.804 241.459 25.084C241.459 24.356 241.295 23.8 240.967 23.416C240.639 23.032 240.203 22.84 239.659 22.84C239.107 22.84 238.667 23.032 238.339 23.416C238.019 23.8 237.859 24.356 237.859 25.084C237.859 25.804 238.019 26.36 238.339 26.752C238.667 27.136 239.107 27.328 239.659 27.328ZM243.384 29.56V27.22H243.996C244.276 26.812 244.476 26.344 244.596 25.816C244.716 25.28 244.776 24.636 244.776 23.884V22.168H248.904V27.22H249.828V29.56H248.988V28H244.212V29.56H243.384ZM244.932 27.22H247.98V22.936H245.64V24.052C245.64 24.652 245.58 25.232 245.46 25.792C245.34 26.352 245.164 26.828 244.932 27.22ZM251.121 28V22.168H252.009V26.68L255.381 22.168H256.209V28H255.321V23.488L251.949 28H251.121ZM259.341 28V22.948H257.229V22.168H262.437V22.948H260.313V28H259.341ZM266.078 28.108C265.158 28.108 264.43 27.84 263.894 27.304C263.358 26.76 263.09 26.024 263.09 25.096C263.09 24.496 263.21 23.968 263.45 23.512C263.69 23.048 264.018 22.692 264.434 22.444C264.858 22.188 265.346 22.06 265.898 22.06C266.69 22.06 267.31 22.316 267.758 22.828C268.206 23.332 268.43 24.028 268.43 24.916V25.288H264.038C264.07 25.952 264.262 26.46 264.614 26.812C264.966 27.156 265.454 27.328 266.078 27.328C266.43 27.328 266.766 27.276 267.086 27.172C267.406 27.06 267.71 26.88 267.998 26.632L268.334 27.316C268.07 27.564 267.734 27.76 267.326 27.904C266.918 28.04 266.502 28.108 266.078 28.108ZM265.922 22.78C265.37 22.78 264.934 22.952 264.614 23.296C264.294 23.64 264.106 24.092 264.05 24.652H267.59C267.566 24.06 267.41 23.6 267.122 23.272C266.842 22.944 266.442 22.78 265.922 22.78ZM269.617 28.132L269.257 27.364C269.617 27.212 269.901 27 270.109 26.728C270.317 26.448 270.461 26.064 270.541 25.576C270.629 25.088 270.673 24.448 270.673 23.656V22.168H274.909V28H273.937V22.948H271.585V23.692C271.585 24.604 271.517 25.356 271.381 25.948C271.253 26.54 271.045 27.008 270.757 27.352C270.469 27.696 270.089 27.956 269.617 28.132ZM276.832 28V22.168H277.72V26.68L281.092 22.168H281.92V28H281.032V23.488L277.66 28H276.832Z" fill="#232735"/>
<path d="M216.7 55.6504H208V64.3504H216.7V55.6504Z" fill="#EB5757"/>
<path d="M230.744 56V47.54H234.092C235.004 47.54 235.7 47.76 236.18 48.2C236.668 48.64 236.912 49.268 236.912 50.084C236.912 50.892 236.668 51.52 236.18 51.968C235.7 52.408 235.004 52.628 234.092 52.628H231.728V56H230.744ZM231.728 51.8H233.972C235.284 51.8 235.94 51.228 235.94 50.084C235.94 48.932 235.284 48.356 233.972 48.356H231.728V51.8ZM238.137 56V50.168H239.025V54.68L242.397 50.168H243.225V56H242.337V51.488L238.965 56H238.137ZM247.629 56.108C247.045 56.108 246.541 55.984 246.117 55.736C245.693 55.48 245.365 55.124 245.133 54.668C244.909 54.204 244.797 53.664 244.797 53.048C244.797 52.12 245.049 51.392 245.553 50.864C246.057 50.328 246.749 50.06 247.629 50.06C247.989 50.06 248.345 50.124 248.697 50.252C249.049 50.38 249.341 50.56 249.573 50.792L249.237 51.5C249.005 51.276 248.749 51.112 248.469 51.008C248.197 50.904 247.937 50.852 247.689 50.852C247.081 50.852 246.613 51.044 246.285 51.428C245.957 51.804 245.793 52.348 245.793 53.06C245.793 53.756 245.957 54.308 246.285 54.716C246.613 55.116 247.081 55.316 247.689 55.316C247.937 55.316 248.197 55.264 248.469 55.16C248.749 55.056 249.005 54.888 249.237 54.656L249.573 55.364C249.341 55.596 249.045 55.78 248.685 55.916C248.333 56.044 247.981 56.108 247.629 56.108ZM250.816 56V50.168H251.788V52.604H252.88L254.788 50.168H255.856L253.828 52.796C254.036 52.876 254.224 53.008 254.392 53.192C254.56 53.376 254.748 53.64 254.956 53.984L256.156 56H255.112L254.056 54.236C253.856 53.892 253.664 53.664 253.48 53.552C253.296 53.44 253.036 53.384 252.7 53.384H251.788V56H250.816ZM259.569 56.108C259.001 56.108 258.509 55.984 258.093 55.736C257.677 55.488 257.353 55.14 257.121 54.692C256.897 54.236 256.785 53.7 256.785 53.084C256.785 52.468 256.897 51.936 257.121 51.488C257.353 51.032 257.677 50.68 258.093 50.432C258.509 50.184 259.001 50.06 259.569 50.06C260.129 50.06 260.617 50.184 261.033 50.432C261.457 50.68 261.781 51.032 262.005 51.488C262.237 51.936 262.353 52.468 262.353 53.084C262.353 53.7 262.237 54.236 262.005 54.692C261.781 55.14 261.457 55.488 261.033 55.736C260.617 55.984 260.129 56.108 259.569 56.108ZM259.569 55.328C260.113 55.328 260.549 55.136 260.877 54.752C261.205 54.36 261.369 53.804 261.369 53.084C261.369 52.356 261.205 51.8 260.877 51.416C260.549 51.032 260.113 50.84 259.569 50.84C259.017 50.84 258.577 51.032 258.249 51.416C257.929 51.8 257.769 52.356 257.769 53.084C257.769 53.804 257.929 54.36 258.249 54.752C258.577 55.136 259.017 55.328 259.569 55.328ZM263.93 56V50.168H266.774C267.462 50.168 267.97 50.3 268.298 50.564C268.626 50.82 268.79 51.2 268.79 51.704C268.79 52.008 268.702 52.272 268.526 52.496C268.358 52.72 268.126 52.884 267.83 52.988C268.19 53.076 268.47 53.244 268.67 53.492C268.878 53.74 268.982 54.04 268.982 54.392C268.982 54.888 268.798 55.28 268.43 55.568C268.062 55.856 267.542 56 266.87 56H263.93ZM264.854 52.7H266.726C267.094 52.7 267.378 52.62 267.578 52.46C267.778 52.292 267.878 52.056 267.878 51.752C267.878 51.456 267.778 51.228 267.578 51.068C267.378 50.908 267.094 50.828 266.726 50.828H264.854V52.7ZM264.854 55.34H266.834C267.234 55.34 267.538 55.256 267.746 55.088C267.954 54.92 268.058 54.672 268.058 54.344C268.058 54.024 267.954 53.78 267.746 53.612C267.538 53.444 267.234 53.36 266.834 53.36H264.854V55.34ZM272.34 56.108C271.94 56.108 271.58 56.032 271.26 55.88C270.948 55.72 270.7 55.504 270.516 55.232C270.332 54.96 270.24 54.656 270.24 54.32C270.24 53.896 270.348 53.56 270.564 53.312C270.788 53.064 271.152 52.888 271.656 52.784C272.168 52.672 272.864 52.616 273.744 52.616H274.128V52.244C274.128 51.748 274.024 51.392 273.816 51.176C273.616 50.952 273.292 50.84 272.844 50.84C272.492 50.84 272.152 50.892 271.824 50.996C271.496 51.092 271.16 51.252 270.816 51.476L270.48 50.768C270.784 50.552 271.152 50.38 271.584 50.252C272.024 50.124 272.444 50.06 272.844 50.06C273.596 50.06 274.152 50.244 274.512 50.612C274.88 50.98 275.064 51.552 275.064 52.328V56H274.152V54.992C274 55.336 273.764 55.608 273.444 55.808C273.132 56.008 272.764 56.108 272.34 56.108ZM272.496 55.376C272.976 55.376 273.368 55.212 273.672 54.884C273.976 54.548 274.128 54.124 274.128 53.612V53.252H273.756C273.108 53.252 272.596 53.284 272.22 53.348C271.852 53.404 271.592 53.508 271.44 53.66C271.296 53.804 271.224 54.004 271.224 54.26C271.224 54.588 271.336 54.856 271.56 55.064C271.792 55.272 272.104 55.376 272.496 55.376ZM276.961 56V50.168H277.933V52.592H281.113V50.168H282.085V56H281.113V53.384H277.933V56H276.961ZM284.004 56V50.168H284.976V52.592H288.156V50.168H289.128V56H288.156V53.384H284.976V56H284.004ZM291.047 56V50.168H292.019V52.244H293.783C294.527 52.244 295.091 52.408 295.475 52.736C295.859 53.056 296.051 53.512 296.051 54.104C296.051 54.688 295.851 55.152 295.451 55.496C295.059 55.832 294.503 56 293.783 56H291.047ZM296.915 56V50.168H297.887V56H296.915ZM292.019 55.304H293.687C294.135 55.304 294.483 55.208 294.731 55.016C294.987 54.824 295.115 54.524 295.115 54.116C295.115 53.716 294.991 53.42 294.743 53.228C294.495 53.036 294.143 52.94 293.687 52.94H292.019V55.304ZM302.453 56.108C301.533 56.108 300.805 55.84 300.269 55.304C299.733 54.76 299.465 54.024 299.465 53.096C299.465 52.496 299.585 51.968 299.825 51.512C300.065 51.048 300.393 50.692 300.809 50.444C301.233 50.188 301.721 50.06 302.273 50.06C303.065 50.06 303.685 50.316 304.133 50.828C304.581 51.332 304.805 52.028 304.805 52.916V53.288H300.413C300.445 53.952 300.637 54.46 300.989 54.812C301.341 55.156 301.829 55.328 302.453 55.328C302.805 55.328 303.141 55.276 303.461 55.172C303.781 55.06 304.085 54.88 304.373 54.632L304.709 55.316C304.445 55.564 304.109 55.76 303.701 55.904C303.293 56.04 302.877 56.108 302.453 56.108ZM302.297 50.78C301.745 50.78 301.309 50.952 300.989 51.296C300.669 51.64 300.481 52.092 300.425 52.652H303.965C303.941 52.06 303.785 51.6 303.497 51.272C303.217 50.944 302.817 50.78 302.297 50.78ZM230.66 72V66.168H233.504C234.192 66.168 234.7 66.3 235.028 66.564C235.356 66.82 235.52 67.2 235.52 67.704C235.52 68.008 235.432 68.272 235.256 68.496C235.088 68.72 234.856 68.884 234.56 68.988C234.92 69.076 235.2 69.244 235.4 69.492C235.608 69.74 235.712 70.04 235.712 70.392C235.712 70.888 235.528 71.28 235.16 71.568C234.792 71.856 234.272 72 233.6 72H230.66ZM231.584 68.7H233.456C233.824 68.7 234.108 68.62 234.308 68.46C234.508 68.292 234.608 68.056 234.608 67.752C234.608 67.456 234.508 67.228 234.308 67.068C234.108 66.908 233.824 66.828 233.456 66.828H231.584V68.7ZM231.584 71.34H233.564C233.964 71.34 234.268 71.256 234.476 71.088C234.684 70.92 234.788 70.672 234.788 70.344C234.788 70.024 234.684 69.78 234.476 69.612C234.268 69.444 233.964 69.36 233.564 69.36H231.584V71.34ZM239.659 72.108C239.091 72.108 238.599 71.984 238.183 71.736C237.767 71.488 237.443 71.14 237.211 70.692C236.987 70.236 236.875 69.7 236.875 69.084C236.875 68.468 236.987 67.936 237.211 67.488C237.443 67.032 237.767 66.68 238.183 66.432C238.599 66.184 239.091 66.06 239.659 66.06C240.219 66.06 240.707 66.184 241.123 66.432C241.547 66.68 241.871 67.032 242.095 67.488C242.327 67.936 242.443 68.468 242.443 69.084C242.443 69.7 242.327 70.236 242.095 70.692C241.871 71.14 241.547 71.488 241.123 71.736C240.707 71.984 240.219 72.108 239.659 72.108ZM239.659 71.328C240.203 71.328 240.639 71.136 240.967 70.752C241.295 70.36 241.459 69.804 241.459 69.084C241.459 68.356 241.295 67.8 240.967 67.416C240.639 67.032 240.203 66.84 239.659 66.84C239.107 66.84 238.667 67.032 238.339 67.416C238.019 67.8 237.859 68.356 237.859 69.084C237.859 69.804 238.019 70.36 238.339 70.752C238.667 71.136 239.107 71.328 239.659 71.328ZM243.384 73.56V71.22H243.996C244.276 70.812 244.476 70.344 244.596 69.816C244.716 69.28 244.776 68.636 244.776 67.884V66.168H248.904V71.22H249.828V73.56H248.988V72H244.212V73.56H243.384ZM244.932 71.22H247.98V66.936H245.64V68.052C245.64 68.652 245.58 69.232 245.46 69.792C245.34 70.352 245.164 70.828 244.932 71.22ZM251.121 72V66.168H252.009V70.68L255.381 66.168H256.209V72H255.321V67.488L251.949 72H251.121ZM259.341 72V66.948H257.229V66.168H262.437V66.948H260.313V72H259.341ZM266.078 72.108C265.158 72.108 264.43 71.84 263.894 71.304C263.358 70.76 263.09 70.024 263.09 69.096C263.09 68.496 263.21 67.968 263.45 67.512C263.69 67.048 264.018 66.692 264.434 66.444C264.858 66.188 265.346 66.06 265.898 66.06C266.69 66.06 267.31 66.316 267.758 66.828C268.206 67.332 268.43 68.028 268.43 68.916V69.288H264.038C264.07 69.952 264.262 70.46 264.614 70.812C264.966 71.156 265.454 71.328 266.078 71.328C266.43 71.328 266.766 71.276 267.086 71.172C267.406 71.06 267.71 70.88 267.998 70.632L268.334 71.316C268.07 71.564 267.734 71.76 267.326 71.904C266.918 72.04 266.502 72.108 266.078 72.108ZM265.922 66.78C265.37 66.78 264.934 66.952 264.614 67.296C264.294 67.64 264.106 68.092 264.05 68.652H267.59C267.566 68.06 267.41 67.6 267.122 67.272C266.842 66.944 266.442 66.78 265.922 66.78ZM269.617 72.132L269.257 71.364C269.617 71.212 269.901 71 270.109 70.728C270.317 70.448 270.461 70.064 270.541 69.576C270.629 69.088 270.673 68.448 270.673 67.656V66.168H274.909V72H273.937V66.948H271.585V67.692C271.585 68.604 271.517 69.356 271.381 69.948C271.253 70.54 271.045 71.008 270.757 71.352C270.469 71.696 270.089 71.956 269.617 72.132ZM276.832 72V66.168H277.72V70.68L281.092 66.168H281.92V72H281.032V67.488L277.66 72H276.832Z" fill="#232735"/>
<defs>
<clipPath id="clip0_219_885">
<rect width="174" height="76" fill="white"/>
</clipPath>
</defs>
</svg>
