<svg width="40" height="40" viewBox="0 0 40 40" fill="none" xmlns="http://www.w3.org/2000/svg">
    <path d="M24.9507 7.08581H30.5475C30.6759 7.08581 30.7991 7.13904 30.8899 7.2338C30.9807 7.32855 31.0317 7.45707 31.0317 7.59107V34.4842C31.0317 34.6182 30.9807 34.7467 30.8899 34.8415C30.7991 34.9362 30.6759 34.9895 30.5475 34.9895H9.45247C9.32407 34.9895 9.20092 34.9362 9.11012 34.8415C9.01932 34.7467 8.96831 34.6182 8.96831 34.4842V7.59107C8.96831 7.45707 9.01932 7.32855 9.11012 7.2338C9.20092 7.13904 9.32407 7.08581 9.45247 7.08581H13.9196C14.045 7.08103 14.1637 7.02571 14.2507 6.93148C14.3378 6.83724 14.3864 6.71145 14.3864 6.58055C14.3864 6.44965 14.3378 6.32385 14.2507 6.22962C14.1637 6.13539 14.045 6.08006 13.9196 6.07528H9.45247C9.06725 6.07528 8.69781 6.23498 8.42542 6.51925C8.15303 6.80351 8 7.18906 8 7.59107V34.4842C8 34.8862 8.15303 35.2718 8.42542 35.556C8.69781 35.8403 9.06725 36 9.45247 36H30.5475C30.9327 36 31.3022 35.8403 31.5746 35.556C31.847 35.2718 32 34.8862 32 34.4842V7.59107C32 7.18906 31.847 6.80351 31.5746 6.51925C31.3022 6.23498 30.9327 6.07528 30.5475 6.07528H24.9155C24.8548 5.8353 24.7197 5.62303 24.5313 5.47156C24.3429 5.32008 24.1117 5.23793 23.8739 5.23789H23.8729C23.8442 5.23789 23.8166 5.22597 23.7962 5.20475C23.7759 5.18352 23.7645 5.15473 23.7645 5.12472V5.12371C23.7645 4.97614 23.7366 4.83002 23.6825 4.69368C23.6284 4.55735 23.5491 4.43347 23.4491 4.32913C23.3491 4.22478 23.2304 4.14201 23.0998 4.08554C22.9691 4.02907 22.8291 4 22.6877 4H17.3123C17.0267 4 16.7528 4.11839 16.5509 4.32913C16.349 4.53986 16.2355 4.82568 16.2355 5.12371V5.12472C16.2355 5.15473 16.2241 5.18352 16.2038 5.20475C16.1834 5.22597 16.1558 5.23789 16.1271 5.23789H16.1261C15.8405 5.23789 15.5666 5.35628 15.3647 5.56702C15.1628 5.77776 15.0493 6.06358 15.0493 6.3616V7.98248C15.0493 8.29516 15.1684 8.59503 15.3802 8.81613C15.5921 9.03722 15.8794 9.16143 16.179 9.16143H23.821C24.1206 9.16143 24.4079 9.03722 24.6198 8.81613C24.8316 8.59503 24.9507 8.29516 24.9507 7.98248V7.08581ZM25.3257 28.5612H24.1954C24.047 28.5611 23.9001 28.5915 23.763 28.6507C23.6259 28.71 23.5013 28.7968 23.3964 28.9063C23.2915 29.0158 23.2082 29.1458 23.1515 29.2889C23.0948 29.4319 23.0656 29.5853 23.0657 29.7401V32.3069C23.0659 32.6195 23.185 32.9192 23.3968 33.1402C23.6087 33.3612 23.8958 33.4855 24.1954 33.4858H26.6549C26.9545 33.4858 27.2419 33.3616 27.4537 33.1405C27.6656 32.9194 27.7846 32.6195 27.7846 32.3069V31.1276C27.78 30.9968 27.727 30.8729 27.6367 30.7821C27.5464 30.6912 27.4259 30.6404 27.3004 30.6404C27.175 30.6404 27.0545 30.6912 26.9642 30.7821C26.8739 30.8729 26.8209 30.9968 26.8163 31.1276V32.3069C26.8163 32.3515 26.7993 32.3944 26.769 32.426C26.7388 32.4575 26.6977 32.4753 26.6549 32.4753H24.1954C24.1526 32.4752 24.1115 32.4575 24.0811 32.4261C24.051 32.3944 24.0341 32.3515 24.034 32.3069V29.7401C24.0343 29.6955 24.0513 29.6529 24.0815 29.6213C24.1118 29.5898 24.1527 29.572 24.1954 29.5717H25.3257C25.4541 29.5717 25.5773 29.5185 25.6681 29.4237C25.7589 29.329 25.8099 29.2004 25.8099 29.0664C25.8099 28.9324 25.7589 28.8039 25.6681 28.7092C25.5773 28.6144 25.4541 28.5612 25.3257 28.5612ZM11.8755 32.1553H16.7297C16.8581 32.1553 16.9812 32.1021 17.072 32.0073C17.1628 31.9125 17.2138 31.784 17.2138 31.65C17.2138 31.516 17.1628 31.3875 17.072 31.2927C16.9812 31.198 16.8581 31.1448 16.7297 31.1448H11.8755C11.7471 31.1448 11.624 31.198 11.5332 31.2927C11.4424 31.3875 11.3914 31.516 11.3914 31.65C11.3914 31.784 11.4424 31.9125 11.5332 32.0073C11.624 32.1021 11.7471 32.1553 11.8755 32.1553ZM25.7673 31.3809L28.637 28.386C28.6833 28.3394 28.7202 28.2837 28.7455 28.222C28.7709 28.1604 28.7843 28.0941 28.7848 28.027C28.7854 27.9599 28.7731 27.8934 28.7488 27.8313C28.7245 27.7692 28.6885 27.7128 28.643 27.6653C28.5976 27.6179 28.5435 27.5804 28.484 27.555C28.4245 27.5295 28.3608 27.5168 28.2965 27.5173C28.2322 27.5179 28.1687 27.5319 28.1096 27.5584C28.0505 27.5848 27.9971 27.6233 27.9524 27.6716L25.0827 30.6664C24.992 30.7612 24.9411 30.8897 24.9411 31.0237C24.9411 31.1576 24.992 31.2861 25.0827 31.3809C25.1735 31.4755 25.2966 31.5287 25.425 31.5287C25.5533 31.5287 25.6764 31.4755 25.7673 31.3809ZM11.8755 29.5717H20.468C20.5934 29.5669 20.7121 29.5116 20.7991 29.4174C20.8862 29.3231 20.9348 29.1973 20.9348 29.0664C20.9348 28.9355 20.8862 28.8097 20.7991 28.7155C20.7121 28.6213 20.5934 28.566 20.468 28.5612H11.8755C11.7471 28.5612 11.624 28.6144 11.5332 28.7092C11.4424 28.8039 11.3914 28.9324 11.3914 29.0664C11.3914 29.2004 11.4424 29.329 11.5332 29.4237C11.624 29.5185 11.7471 29.5717 11.8755 29.5717ZM25.3257 20.3591H24.1954C24.047 20.359 23.9001 20.3894 23.763 20.4486C23.6259 20.5079 23.5013 20.5947 23.3964 20.7042C23.2915 20.8137 23.2082 20.9437 23.1515 21.0868C23.0948 21.2298 23.0656 21.3832 23.0657 21.538V24.1048C23.0659 24.4174 23.1849 24.7171 23.3968 24.9382C23.6086 25.1593 23.8958 25.2835 24.1954 25.2837H26.6549C26.9545 25.2837 27.2419 25.1595 27.4537 24.9384C27.6656 24.7173 27.7846 24.4174 27.7846 24.1048V22.9255C27.78 22.7947 27.727 22.6708 27.6367 22.5799C27.5464 22.4891 27.4259 22.4383 27.3004 22.4383C27.175 22.4383 27.0545 22.4891 26.9642 22.5799C26.8739 22.6708 26.8209 22.7947 26.8163 22.9255V24.1048C26.8163 24.1494 26.7993 24.1923 26.769 24.2239C26.7388 24.2554 26.6977 24.2732 26.6549 24.2732H24.1954C24.1526 24.2731 24.1115 24.2554 24.0811 24.224C24.051 24.1923 24.0341 24.1494 24.034 24.1048V21.538C24.0343 21.4934 24.0513 21.4508 24.0815 21.4192C24.1118 21.3877 24.1527 21.3699 24.1954 21.3696H25.3257C25.4541 21.3696 25.5773 21.3164 25.6681 21.2216C25.7589 21.1269 25.8099 20.9983 25.8099 20.8643C25.8099 20.7303 25.7589 20.6018 25.6681 20.5071C25.5773 20.4123 25.4541 20.3591 25.3257 20.3591ZM11.8755 23.9532H16.7297C16.8581 23.9532 16.9812 23.8999 17.072 23.8052C17.1628 23.7104 17.2138 23.5819 17.2138 23.4479C17.2138 23.3139 17.1628 23.1854 17.072 23.0906C16.9812 22.9959 16.8581 22.9427 16.7297 22.9427H11.8755C11.7502 22.9474 11.6315 23.0028 11.5444 23.097C11.4574 23.1912 11.4087 23.317 11.4087 23.4479C11.4087 23.5788 11.4574 23.7046 11.5444 23.7988C11.6315 23.8931 11.7502 23.9484 11.8755 23.9532ZM25.7673 23.1788L28.637 20.1839C28.6833 20.1373 28.7202 20.0816 28.7455 20.0199C28.7709 19.9583 28.7843 19.892 28.7848 19.8249C28.7854 19.7578 28.7731 19.6913 28.7488 19.6292C28.7245 19.5671 28.6885 19.5107 28.643 19.4632C28.5976 19.4158 28.5435 19.3783 28.484 19.3528C28.4245 19.3274 28.3608 19.3147 28.2965 19.3152C28.2322 19.3158 28.1687 19.3298 28.1096 19.3562C28.0505 19.3827 27.9971 19.4212 27.9524 19.4695L25.0827 22.4643C24.992 22.5591 24.9411 22.6876 24.9411 22.8216C24.9411 22.9555 24.992 23.084 25.0827 23.1788C25.1735 23.2734 25.2966 23.3266 25.425 23.3266C25.5533 23.3266 25.6764 23.2734 25.7673 23.1788ZM11.8755 21.3696H20.468C20.5934 21.3648 20.7121 21.3095 20.7991 21.2153C20.8862 21.121 20.9348 20.9952 20.9348 20.8643C20.9348 20.7334 20.8862 20.6076 20.7991 20.5134C20.7121 20.4192 20.5934 20.3639 20.468 20.3591H11.8755C11.7502 20.3639 11.6315 20.4192 11.5444 20.5134C11.4574 20.6076 11.4087 20.7334 11.4087 20.8643C11.4087 20.9952 11.4574 21.121 11.5444 21.2153C11.6315 21.3095 11.7502 21.3648 11.8755 21.3696ZM25.3257 12.157H24.1954C23.8958 12.1572 23.6085 12.2816 23.3967 12.5027C23.1849 12.7238 23.0659 13.0236 23.0657 13.3363V15.9027C23.0659 16.2153 23.1849 16.515 23.3968 16.7361C23.6086 16.9572 23.8958 17.0814 24.1954 17.0816H26.6549C26.9545 17.0816 27.2419 16.9574 27.4537 16.7363C27.6656 16.5152 27.7846 16.2153 27.7846 15.9027V14.7234C27.78 14.5926 27.727 14.4687 27.6367 14.3778C27.5464 14.287 27.4259 14.2362 27.3004 14.2362C27.175 14.2362 27.0545 14.287 26.9642 14.3778C26.8739 14.4687 26.8209 14.5926 26.8163 14.7234V15.9027C26.8163 15.9473 26.7993 15.9902 26.769 16.0217C26.7388 16.0533 26.6977 16.0711 26.6549 16.0711H24.1954C24.1526 16.071 24.1115 16.0533 24.0811 16.0219C24.051 15.9902 24.0341 15.9473 24.034 15.9027V13.3363C24.0343 13.2916 24.0513 13.2489 24.0815 13.2173C24.1117 13.1858 24.1526 13.1678 24.1954 13.1675H25.3257C25.4541 13.1675 25.5773 13.1143 25.6681 13.0195C25.7589 12.9248 25.8099 12.7962 25.8099 12.6622C25.8099 12.5282 25.7589 12.3997 25.6681 12.305C25.5773 12.2102 25.4541 12.157 25.3257 12.157ZM11.8755 15.7511H16.7297C16.8581 15.7511 16.9812 15.6978 17.072 15.6031C17.1628 15.5083 17.2138 15.3798 17.2138 15.2458C17.2138 15.1118 17.1628 14.9833 17.072 14.8885C16.9812 14.7938 16.8581 14.7405 16.7297 14.7405H11.8755C11.7502 14.7453 11.6315 14.8006 11.5444 14.8949C11.4574 14.9891 11.4087 15.1149 11.4087 15.2458C11.4087 15.3767 11.4574 15.5025 11.5444 15.5967C11.6315 15.691 11.7502 15.7463 11.8755 15.7511ZM25.7673 14.9767L28.637 11.9818C28.6833 11.9352 28.7202 11.8794 28.7455 11.8178C28.7709 11.7562 28.7843 11.6899 28.7848 11.6228C28.7854 11.5557 28.7731 11.4892 28.7488 11.4271C28.7245 11.365 28.6885 11.3085 28.643 11.2611C28.5976 11.2137 28.5435 11.1761 28.484 11.1507C28.4245 11.1253 28.3608 11.1126 28.2965 11.1131C28.2322 11.1137 28.1687 11.1277 28.1096 11.1541C28.0505 11.1806 27.9971 11.2191 27.9524 11.2674L25.0827 14.2622C24.992 14.357 24.9411 14.4855 24.9411 14.6195C24.9411 14.7534 24.992 14.8819 25.0827 14.9767C25.1735 15.0713 25.2966 15.1245 25.425 15.1245C25.5533 15.1245 25.6764 15.0713 25.7673 14.9767ZM11.8755 13.1675H20.468C20.5934 13.1627 20.7121 13.1074 20.7991 13.0132C20.8862 12.9189 20.9348 12.7931 20.9348 12.6622C20.9348 12.5313 20.8862 12.4055 20.7991 12.3113C20.7121 12.2171 20.5934 12.1617 20.468 12.157H11.8755C11.7502 12.1617 11.6315 12.2171 11.5444 12.3113C11.4574 12.4055 11.4087 12.5313 11.4087 12.6622C11.4087 12.7931 11.4574 12.9189 11.5444 13.0132C11.6315 13.1074 11.7502 13.1627 11.8755 13.1675ZM23.8729 6.24842H23.8739C23.9339 6.24842 23.9824 6.29928 23.9824 6.3616V7.98248C23.9824 8.02715 23.9654 8.06999 23.9351 8.10158C23.9048 8.13316 23.8638 8.15091 23.821 8.15091H16.179C16.1362 8.15091 16.0952 8.13316 16.0649 8.10158C16.0346 8.06999 16.0176 8.02715 16.0176 7.98248V6.3616C16.0176 6.29928 16.0661 6.24842 16.1261 6.24842H16.1271C16.4126 6.24842 16.6865 6.13003 16.8885 5.9193C17.0904 5.70856 17.2038 5.42274 17.2038 5.12472V5.12371C17.2038 5.06105 17.2522 5.01053 17.3123 5.01053H22.6877C22.7478 5.01053 22.7962 5.06105 22.7962 5.12371V5.12472C22.7962 5.42274 22.9096 5.70856 23.1115 5.9193C23.3135 6.13003 23.5874 6.24842 23.8729 6.24842Z"
          fill="#231F20"/>
</svg>
