<svg width="40" height="40" viewBox="0 0 40 40" fill="none" xmlns="http://www.w3.org/2000/svg">
<path d="M11.2052 20.3541H28.081C31.8063 20.3541 34.8299 17.4813 34.8299 13.9543C34.8299 10.4273 31.7991 7.5545 28.081 7.5545H11.6175C11.2052 5.16524 8.84708 3.5795 6.41661 4.09861C4.23929 4.5608 2.76365 6.60873 3.03131 8.77759C3.33512 11.2095 5.63539 12.8735 8.06586 12.4753C8.95474 12.3266 9.77466 11.9101 10.4122 11.2833C11.0498 10.6565 11.4735 9.85053 11.6248 8.97672H28.0883C31.0106 8.97672 33.3905 11.2095 33.3905 13.9544C33.3905 16.6991 31.0107 18.932 28.0883 18.932H11.2052C7.47994 18.932 4.44904 21.8048 4.44904 25.3318C4.44904 28.8588 7.47987 31.7316 11.1979 31.7316H22.9524L19.8565 34.7821C19.5671 35.0523 19.5599 35.5074 19.842 35.7848C20.1242 36.0621 20.5799 36.0763 20.862 35.799L20.8764 35.7848L25.2093 31.5254C25.2764 31.4596 25.3296 31.3815 25.3659 31.2954C25.4022 31.2094 25.4209 31.1172 25.4209 31.0241C25.4209 30.9309 25.4022 30.8387 25.3659 30.7527C25.3296 30.6667 25.2764 30.5885 25.2093 30.5227L20.8764 26.2562C20.5871 25.986 20.1313 25.9931 19.8565 26.2704C19.7276 26.4038 19.6557 26.5807 19.6557 26.7646C19.6557 26.9486 19.7276 27.1255 19.8565 27.2589L22.9597 30.3094H11.2052C8.27561 30.3094 5.89579 28.0766 5.89579 25.3318C5.89579 22.5869 8.27561 20.3541 11.2052 20.3541ZM7.34248 11.1028C5.74389 11.1028 4.44904 9.83002 4.44904 8.25848C4.44904 6.68699 5.74382 5.4141 7.34248 5.4141C8.94107 5.4141 10.2359 6.68693 10.2359 8.25848C10.2359 9.82996 8.94107 11.1028 7.34248 11.1028ZM32.6599 26.7467C30.2655 26.7467 28.3197 28.6595 28.3197 31.0133C28.3197 33.367 30.2655 35.2798 32.6599 35.2798C35.0542 35.2798 37 33.367 37 31.0133C37 28.6595 35.0615 26.7539 32.6599 26.7467ZM32.6599 33.8576C31.0613 33.8576 29.7664 32.5848 29.7664 31.0133C29.7664 29.4417 31.0612 28.1689 32.6599 28.1689C34.2585 28.1689 35.5533 29.4417 35.5533 31.0133C35.5533 32.5848 34.2585 33.8576 32.6599 33.8576Z" fill="#231F20"/>
</svg>
