<svg width="46" height="60" viewBox="0 0 46 60" fill="none" xmlns="http://www.w3.org/2000/svg">
<path fill-rule="evenodd" clip-rule="evenodd" d="M31.3281 0.515039L45.4816 14.5772C45.7975 14.8909 46 15.341 46 15.8203V54.7266C46 57.6343 43.619 60 40.6923 60H5.30769C2.38103 60 0 57.6343 0 54.7266V5.27344C0 2.36566 2.38103 0 5.30769 0H30.0769C30.5462 0.000263487 30.9962 0.185494 31.3281 0.515039ZM39.9595 14.0625L31.8462 6.00152V12.3047C31.8462 13.2739 32.6398 14.0625 33.6154 14.0625H39.9595ZM5.30769 56.4844H40.6923C41.6679 56.4844 42.4615 55.6958 42.4615 54.7266V17.5781H33.6154C30.6887 17.5781 28.3077 15.2125 28.3077 12.3047V3.51562H5.30769C4.33214 3.51562 3.53846 4.30418 3.53846 5.27344V54.7266C3.53846 55.6958 4.33214 56.4844 5.30769 56.4844ZM14.0378 33.0002C11.26 33.0002 9 35.2544 9 38.0253C9 39.4261 9.76788 41.118 11.2824 43.0541C12.3641 44.4369 13.4331 45.4368 13.4781 45.4787L14.0379 46L14.5976 45.4787C14.6426 45.4368 15.7116 44.4369 16.7933 43.0541C18.3078 41.118 19.0757 39.4261 19.0757 38.0253C19.0757 35.2544 16.8157 33.0002 14.0378 33.0002ZM14.0378 39.651C13.1391 39.651 12.408 38.9217 12.408 38.0253C12.408 37.1289 13.1391 36.3996 14.0378 36.3996C14.9365 36.3996 15.6676 37.1289 15.6676 38.0253C15.6676 38.9217 14.9365 39.651 14.0378 39.651ZM31.9623 21C29.1844 21 26.9244 23.2543 26.9244 26.0251C26.9244 27.4259 27.6923 29.1178 29.2068 31.0539C30.2884 32.4366 31.3575 33.4366 31.4024 33.4785L31.9622 33.9998L32.5219 33.4785C32.5669 33.4366 33.636 32.4366 34.7176 31.0539C36.2321 29.1178 37 27.4259 37 26.0251C37.0001 23.2543 34.7402 21 31.9623 21ZM31.9623 27.6508C31.0636 27.6508 30.3324 26.9215 30.3324 26.0251C30.3324 25.1287 31.0636 24.3994 31.9623 24.3994C32.861 24.3994 33.5921 25.1287 33.5921 26.0251C33.5921 26.9215 32.861 27.6508 31.9623 27.6508ZM29.0091 45.5902H17.2353V43.9673H29.0091C30.2296 43.9673 31.2225 42.9965 31.2225 41.8033C31.2225 40.6101 30.2296 39.6393 29.0091 39.6393H24.3672C22.2315 39.6393 20.4939 37.9405 20.4939 35.8524C20.4939 33.7643 22.2315 32.0656 24.3672 32.0656H28.7324V33.6884H24.3672C23.1467 33.6884 22.1538 34.6592 22.1538 35.8524C22.1538 37.0457 23.1467 38.0164 24.3672 38.0164H29.0091C31.1448 38.0164 32.8824 39.7152 32.8824 41.8033C32.8824 43.8914 31.1448 45.5902 29.0091 45.5902Z" fill="#0D9B1B"/>
</svg>
