<svg width="62" height="62" viewBox="0 0 62 62" fill="none" xmlns="http://www.w3.org/2000/svg">
    <mask id="path-1-outside-1_400_1647" x="0" y="0" width="62" height="62" fill="black">
        <rect fill="white" width="62" height="62"/>
        <path fill-rule="evenodd" clip-rule="evenodd"
              d="M59.7129 17.771C60.5358 18.5939 60.9987 19.7097 61 20.8735C60.9965 21.8719 60.6489 22.8384 60.0158 23.6103C59.9258 27.4803 58.39 31.1074 55.6435 33.8539L51.04 38.4574L49.6716 37.089L54.2752 32.4855C56.0933 30.6755 57.3337 28.3668 57.8394 25.8516L56.8455 26.8455L47.4516 36.2394V60.0323C47.4516 60.2889 47.3497 60.5351 47.1682 60.7166C46.9867 60.898 46.7405 61 46.4839 61H7.77419C7.51753 61 7.27138 60.898 7.0899 60.7166C6.90841 60.5351 6.80645 60.2889 6.80645 60.0323V57.129H1.96774C1.71108 57.129 1.46493 57.0271 1.28345 56.8456C1.10196 56.6641 1 56.4179 1 56.1613V7.77419C1 4.03871 4.03871 1 7.77419 1H46.4839C50.2194 1 53.2581 4.03871 53.2581 7.77419C53.2581 11.1797 50.7294 13.9987 47.4516 14.471V23.8252L50.6384 20.6384L53.5068 17.77C53.9133 17.361 54.3969 17.0367 54.9297 16.8159C55.4624 16.5951 56.0336 16.4823 56.6103 16.4839C57.7741 16.4852 58.8899 16.948 59.7129 17.771ZM55.6707 18.6051C55.3729 18.7285 55.1025 18.9098 54.8752 19.1384L52.691 21.3226L56.1613 24.7929L58.3455 22.6087C58.5741 22.3814 58.7553 22.111 58.8787 21.8131C59.0022 21.5153 59.0653 21.1959 59.0645 20.8735C59.0635 20.223 58.8046 19.5993 58.3446 19.1393C57.8845 18.6793 57.2609 18.4204 56.6103 18.4194C56.2879 18.4186 55.9686 18.4817 55.6707 18.6051ZM52.3735 23.7419L51.3226 22.691L39.1426 34.871L40.1935 35.9219L52.3735 23.7419ZM30.2974 44.2464L28.3068 48.2287L29.2552 49.1771L33.2374 47.1865L30.2974 44.2464ZM37.7742 36.2394L31.4006 42.6129L34.871 46.0832L41.2445 39.7097L37.7742 36.2394ZM51.3226 7.77419C51.3226 5.10613 49.1519 2.93548 46.4839 2.93548H12.5065C13.1529 3.56465 13.6668 4.31699 14.0177 5.14806C14.3685 5.97913 14.5493 6.87209 14.5493 7.77419C14.5493 8.6763 14.3685 9.56926 14.0177 10.4003C13.6668 11.2314 13.1529 11.9837 12.5065 12.6129H46.4839C49.1519 12.6129 51.3226 10.4423 51.3226 7.77419ZM8.74194 9.70968V12.5152C9.67069 12.3235 10.523 11.8641 11.1935 11.1935C11.8641 10.523 12.3235 9.67069 12.5152 8.74194H9.70968C9.17645 8.74194 8.74194 9.17645 8.74194 9.70968ZM2.93548 7.77419V55.1935H6.80645V9.70968C6.80645 8.10903 8.10903 6.80645 9.70968 6.80645H12.5152C12.2904 5.71452 11.6962 4.73339 10.8327 4.02831C9.96916 3.32324 8.88902 2.93729 7.77419 2.93548C5.10613 2.93548 2.93548 5.10613 2.93548 7.77419ZM8.74194 59.0645H45.5161V38.1748L43.2961 40.3948L35.5542 48.1368C35.4786 48.2071 35.3919 48.2647 35.2977 48.3071L35.3035 48.3177L29.4971 51.221C29.3154 51.3116 29.1098 51.3429 28.9093 51.3102C28.7089 51.2776 28.5238 51.1827 28.3803 51.039L28.0968 50.7555L25.8777 52.9745L24.5094 51.6061L26.7284 49.3871L26.4458 49.1026C26.3021 48.9591 26.2073 48.774 26.1746 48.5736C26.142 48.3731 26.1732 48.1675 26.2639 47.9858L29.1671 42.1794L29.1777 42.1852C29.2202 42.091 29.2777 42.0043 29.3481 41.9287L35.4381 35.8387H12.6129V33.9032H37.3735L39.309 31.9677H12.6129V30.0323H41.2445L45.5161 25.7606V14.5484H8.74194V59.0645ZM41.5619 37.2903L42.6129 38.3413L54.7929 26.1613L53.7419 25.1103L41.5619 37.2903ZM41.6452 18.4194H12.6129V20.3548H41.6452V18.4194ZM41.6452 22.2903H12.6129V24.2258H41.6452V22.2903ZM41.6452 26.1613H12.6129V28.0968H41.6452V26.1613ZM23.2581 49.3871H12.6129V51.3226H23.2581V49.3871ZM41.6452 53.2581H12.6129V55.1935H41.6452V53.2581Z"/>
    </mask>
    <path fill-rule="evenodd" clip-rule="evenodd"
          d="M59.7129 17.771C60.5358 18.5939 60.9987 19.7097 61 20.8735C60.9965 21.8719 60.6489 22.8384 60.0158 23.6103C59.9258 27.4803 58.39 31.1074 55.6435 33.8539L51.04 38.4574L49.6716 37.089L54.2752 32.4855C56.0933 30.6755 57.3337 28.3668 57.8394 25.8516L56.8455 26.8455L47.4516 36.2394V60.0323C47.4516 60.2889 47.3497 60.5351 47.1682 60.7166C46.9867 60.898 46.7405 61 46.4839 61H7.77419C7.51753 61 7.27138 60.898 7.0899 60.7166C6.90841 60.5351 6.80645 60.2889 6.80645 60.0323V57.129H1.96774C1.71108 57.129 1.46493 57.0271 1.28345 56.8456C1.10196 56.6641 1 56.4179 1 56.1613V7.77419C1 4.03871 4.03871 1 7.77419 1H46.4839C50.2194 1 53.2581 4.03871 53.2581 7.77419C53.2581 11.1797 50.7294 13.9987 47.4516 14.471V23.8252L50.6384 20.6384L53.5068 17.77C53.9133 17.361 54.3969 17.0367 54.9297 16.8159C55.4624 16.5951 56.0336 16.4823 56.6103 16.4839C57.7741 16.4852 58.8899 16.948 59.7129 17.771ZM55.6707 18.6051C55.3729 18.7285 55.1025 18.9098 54.8752 19.1384L52.691 21.3226L56.1613 24.7929L58.3455 22.6087C58.5741 22.3814 58.7553 22.111 58.8787 21.8131C59.0022 21.5153 59.0653 21.1959 59.0645 20.8735C59.0635 20.223 58.8046 19.5993 58.3446 19.1393C57.8845 18.6793 57.2609 18.4204 56.6103 18.4194C56.2879 18.4186 55.9686 18.4817 55.6707 18.6051ZM52.3735 23.7419L51.3226 22.691L39.1426 34.871L40.1935 35.9219L52.3735 23.7419ZM30.2974 44.2464L28.3068 48.2287L29.2552 49.1771L33.2374 47.1865L30.2974 44.2464ZM37.7742 36.2394L31.4006 42.6129L34.871 46.0832L41.2445 39.7097L37.7742 36.2394ZM51.3226 7.77419C51.3226 5.10613 49.1519 2.93548 46.4839 2.93548H12.5065C13.1529 3.56465 13.6668 4.31699 14.0177 5.14806C14.3685 5.97913 14.5493 6.87209 14.5493 7.77419C14.5493 8.6763 14.3685 9.56926 14.0177 10.4003C13.6668 11.2314 13.1529 11.9837 12.5065 12.6129H46.4839C49.1519 12.6129 51.3226 10.4423 51.3226 7.77419ZM8.74194 9.70968V12.5152C9.67069 12.3235 10.523 11.8641 11.1935 11.1935C11.8641 10.523 12.3235 9.67069 12.5152 8.74194H9.70968C9.17645 8.74194 8.74194 9.17645 8.74194 9.70968ZM2.93548 7.77419V55.1935H6.80645V9.70968C6.80645 8.10903 8.10903 6.80645 9.70968 6.80645H12.5152C12.2904 5.71452 11.6962 4.73339 10.8327 4.02831C9.96916 3.32324 8.88902 2.93729 7.77419 2.93548C5.10613 2.93548 2.93548 5.10613 2.93548 7.77419ZM8.74194 59.0645H45.5161V38.1748L43.2961 40.3948L35.5542 48.1368C35.4786 48.2071 35.3919 48.2647 35.2977 48.3071L35.3035 48.3177L29.4971 51.221C29.3154 51.3116 29.1098 51.3429 28.9093 51.3102C28.7089 51.2776 28.5238 51.1827 28.3803 51.039L28.0968 50.7555L25.8777 52.9745L24.5094 51.6061L26.7284 49.3871L26.4458 49.1026C26.3021 48.9591 26.2073 48.774 26.1746 48.5736C26.142 48.3731 26.1732 48.1675 26.2639 47.9858L29.1671 42.1794L29.1777 42.1852C29.2202 42.091 29.2777 42.0043 29.3481 41.9287L35.4381 35.8387H12.6129V33.9032H37.3735L39.309 31.9677H12.6129V30.0323H41.2445L45.5161 25.7606V14.5484H8.74194V59.0645ZM41.5619 37.2903L42.6129 38.3413L54.7929 26.1613L53.7419 25.1103L41.5619 37.2903ZM41.6452 18.4194H12.6129V20.3548H41.6452V18.4194ZM41.6452 22.2903H12.6129V24.2258H41.6452V22.2903ZM41.6452 26.1613H12.6129V28.0968H41.6452V26.1613ZM23.2581 49.3871H12.6129V51.3226H23.2581V49.3871ZM41.6452 53.2581H12.6129V55.1935H41.6452V53.2581Z"
          fill="#0D9B1B"/>
    <path fill-rule="evenodd" clip-rule="evenodd"
          d="M59.7129 17.771C60.5358 18.5939 60.9987 19.7097 61 20.8735C60.9965 21.8719 60.6489 22.8384 60.0158 23.6103C59.9258 27.4803 58.39 31.1074 55.6435 33.8539L51.04 38.4574L49.6716 37.089L54.2752 32.4855C56.0933 30.6755 57.3337 28.3668 57.8394 25.8516L56.8455 26.8455L47.4516 36.2394V60.0323C47.4516 60.2889 47.3497 60.5351 47.1682 60.7166C46.9867 60.898 46.7405 61 46.4839 61H7.77419C7.51753 61 7.27138 60.898 7.0899 60.7166C6.90841 60.5351 6.80645 60.2889 6.80645 60.0323V57.129H1.96774C1.71108 57.129 1.46493 57.0271 1.28345 56.8456C1.10196 56.6641 1 56.4179 1 56.1613V7.77419C1 4.03871 4.03871 1 7.77419 1H46.4839C50.2194 1 53.2581 4.03871 53.2581 7.77419C53.2581 11.1797 50.7294 13.9987 47.4516 14.471V23.8252L50.6384 20.6384L53.5068 17.77C53.9133 17.361 54.3969 17.0367 54.9297 16.8159C55.4624 16.5951 56.0336 16.4823 56.6103 16.4839C57.7741 16.4852 58.8899 16.948 59.7129 17.771ZM55.6707 18.6051C55.3729 18.7285 55.1025 18.9098 54.8752 19.1384L52.691 21.3226L56.1613 24.7929L58.3455 22.6087C58.5741 22.3814 58.7553 22.111 58.8787 21.8131C59.0022 21.5153 59.0653 21.1959 59.0645 20.8735C59.0635 20.223 58.8046 19.5993 58.3446 19.1393C57.8845 18.6793 57.2609 18.4204 56.6103 18.4194C56.2879 18.4186 55.9686 18.4817 55.6707 18.6051ZM52.3735 23.7419L51.3226 22.691L39.1426 34.871L40.1935 35.9219L52.3735 23.7419ZM30.2974 44.2464L28.3068 48.2287L29.2552 49.1771L33.2374 47.1865L30.2974 44.2464ZM37.7742 36.2394L31.4006 42.6129L34.871 46.0832L41.2445 39.7097L37.7742 36.2394ZM51.3226 7.77419C51.3226 5.10613 49.1519 2.93548 46.4839 2.93548H12.5065C13.1529 3.56465 13.6668 4.31699 14.0177 5.14806C14.3685 5.97913 14.5493 6.87209 14.5493 7.77419C14.5493 8.6763 14.3685 9.56926 14.0177 10.4003C13.6668 11.2314 13.1529 11.9837 12.5065 12.6129H46.4839C49.1519 12.6129 51.3226 10.4423 51.3226 7.77419ZM8.74194 9.70968V12.5152C9.67069 12.3235 10.523 11.8641 11.1935 11.1935C11.8641 10.523 12.3235 9.67069 12.5152 8.74194H9.70968C9.17645 8.74194 8.74194 9.17645 8.74194 9.70968ZM2.93548 7.77419V55.1935H6.80645V9.70968C6.80645 8.10903 8.10903 6.80645 9.70968 6.80645H12.5152C12.2904 5.71452 11.6962 4.73339 10.8327 4.02831C9.96916 3.32324 8.88902 2.93729 7.77419 2.93548C5.10613 2.93548 2.93548 5.10613 2.93548 7.77419ZM8.74194 59.0645H45.5161V38.1748L43.2961 40.3948L35.5542 48.1368C35.4786 48.2071 35.3919 48.2647 35.2977 48.3071L35.3035 48.3177L29.4971 51.221C29.3154 51.3116 29.1098 51.3429 28.9093 51.3102C28.7089 51.2776 28.5238 51.1827 28.3803 51.039L28.0968 50.7555L25.8777 52.9745L24.5094 51.6061L26.7284 49.3871L26.4458 49.1026C26.3021 48.9591 26.2073 48.774 26.1746 48.5736C26.142 48.3731 26.1732 48.1675 26.2639 47.9858L29.1671 42.1794L29.1777 42.1852C29.2202 42.091 29.2777 42.0043 29.3481 41.9287L35.4381 35.8387H12.6129V33.9032H37.3735L39.309 31.9677H12.6129V30.0323H41.2445L45.5161 25.7606V14.5484H8.74194V59.0645ZM41.5619 37.2903L42.6129 38.3413L54.7929 26.1613L53.7419 25.1103L41.5619 37.2903ZM41.6452 18.4194H12.6129V20.3548H41.6452V18.4194ZM41.6452 22.2903H12.6129V24.2258H41.6452V22.2903ZM41.6452 26.1613H12.6129V28.0968H41.6452V26.1613ZM23.2581 49.3871H12.6129V51.3226H23.2581V49.3871ZM41.6452 53.2581H12.6129V55.1935H41.6452V53.2581Z"
          stroke="#0D9B1B" stroke-width="0.4" mask="url(#path-1-outside-1_400_1647)"/>
</svg>
