<svg width="65" height="65" viewBox="0 0 65 65" fill="none" xmlns="http://www.w3.org/2000/svg">
    <path fill-rule="evenodd" clip-rule="evenodd"
          d="M36.75 14.4991C36.75 6.77961 43.03 0.5 50.75 0.5C58.47 0.5 64.75 6.77961 64.75 14.4991C64.75 21.6827 53.518 34.4059 52.238 35.8338C51.858 36.2538 51.318 36.4978 50.75 36.4978C50.182 36.4978 49.642 36.2538 49.262 35.8338C47.982 34.4059 36.75 21.6827 36.75 14.4991ZM40.75 14.4991C40.75 18.3149 46.382 26.2664 50.75 31.4461C55.118 26.2664 60.75 18.3109 60.75 14.4991C60.75 8.98747 56.262 4.49975 50.75 4.49975C45.238 4.49975 40.75 8.98747 40.75 14.4991ZM60.75 30.4981C60.75 29.3942 61.646 28.4983 62.75 28.4983C63.854 28.4983 64.75 29.3942 64.75 30.4981V54.4966C64.75 55.3166 64.25 56.0485 63.498 56.3565L43.534 64.34H43.53L43.494 64.356C43.018 64.548 42.486 64.548 42.01 64.356L41.974 64.34H41.97L22.75 56.6525L3.494 64.352C3.254 64.448 3.002 64.496 2.75 64.496C2.35057 64.4965 1.96026 64.3767 1.63 64.152C1.082 63.78 0.75 63.1601 0.75 62.4961V26.4984C0.750177 26.099 0.869893 25.7088 1.09374 25.3781C1.31758 25.0473 1.6353 24.7911 2.006 24.6425L21.97 16.655H21.974L22.01 16.643C22.486 16.451 23.018 16.451 23.494 16.643L23.526 16.655H23.53L35.502 21.4467C36.53 21.8587 37.03 23.0226 36.618 24.0465C36.206 25.0745 35.03 25.5704 34.018 25.1625L24.75 21.4547V53.1407L40.75 59.5403V38.4976C40.75 37.3937 41.646 36.4978 42.75 36.4978C43.854 36.4978 44.75 37.3937 44.75 38.4976V59.5443L60.75 53.1447V30.4981ZM4.75 59.5403L20.75 53.1407V21.4507L4.75 27.8503V59.5403ZM44.75 14.4991C44.75 11.1913 47.442 8.4995 50.75 8.4995C54.058 8.4995 56.75 11.1913 56.75 14.4991C56.75 17.8069 54.058 20.4988 50.75 20.4988C47.442 20.4988 44.75 17.8069 44.75 14.4991ZM48.75 14.4991C48.75 15.6031 49.646 16.499 50.75 16.499C51.854 16.499 52.75 15.6031 52.75 14.4991C52.75 13.3952 51.854 12.4993 50.75 12.4993C49.646 12.4993 48.75 13.3952 48.75 14.4991Z"
          fill="#0D9B1B"/>
</svg>
