<svg width="66" height="62" viewBox="0 0 66 62" fill="none" xmlns="http://www.w3.org/2000/svg">
<path d="M0.311814 9.9892L0.311862 9.98957C0.911746 14.6992 5.44817 17.9054 10.2244 17.138L10.2252 17.1378C11.9737 16.851 13.5879 16.0472 14.844 14.8362C16.0489 13.6745 16.8672 12.193 17.1955 10.5813H48.4629C53.9315 10.5813 58.3495 14.675 58.3495 19.6644C58.3495 24.6537 53.9317 28.7475 48.4629 28.7475H16.1864C8.94413 28.7475 3.02022 34.2289 3.02022 40.9971C3.02022 47.7651 8.94381 53.2467 16.1725 53.2467H38.0259L32.5542 58.5345C31.8981 59.138 31.8814 60.1564 32.5245 60.7764C33.1543 61.3836 34.179 61.4224 34.8214 60.803L34.6479 60.6231L34.8214 60.803L34.849 60.7764L43.1323 52.7903C43.1323 52.7902 43.1324 52.7901 43.1325 52.7901C43.2843 52.644 43.4052 52.47 43.4879 52.2778C43.5707 52.0854 43.6134 51.8789 43.6134 51.6701C43.6134 51.4613 43.5707 51.2548 43.4879 51.0625C43.4052 50.8702 43.2842 50.6961 43.1323 50.55L34.8492 42.5506L34.8493 42.5505L34.8444 42.546C34.1946 41.951 33.1717 41.9639 32.5498 42.5793L32.5476 42.5816C32.256 42.8774 32.0919 43.2718 32.0919 43.6837C32.0919 44.0956 32.256 44.4899 32.5476 44.7858L32.5475 44.7859L32.5521 44.7903L38.0387 50.0802H16.1864C10.7037 50.0802 6.28608 45.9863 6.28608 40.9971C6.28608 36.0079 10.7037 31.9139 16.1864 31.9139H48.449C55.6917 31.9139 61.6013 26.4322 61.6013 19.6643C61.6013 12.8963 55.6778 7.41469 48.449 7.41469H17.1817C16.2677 2.9045 11.6864 -0.0454867 6.98065 0.940178C2.69725 1.83202 -0.216991 5.78673 0.311814 9.9892ZM57.2034 43.4001H57.2027C52.4959 43.4001 48.6554 47.09 48.6554 51.6499C48.6554 56.2097 52.4959 59.8996 57.2027 59.8996C61.9095 59.8996 65.75 56.2097 65.75 51.6499C65.75 47.0897 61.9231 43.4139 57.2034 43.4001ZM8.8018 14.0678C5.87506 14.0678 3.52022 11.7847 3.52022 8.98464C3.52022 6.18471 5.87493 3.90144 8.8018 3.90144C11.7286 3.90144 14.0834 6.18459 14.0834 8.98464C14.0834 11.7846 11.7285 14.0678 8.8018 14.0678ZM57.2027 56.7331C54.276 56.7331 51.9211 54.4499 51.9211 51.6499C51.9211 48.8498 54.2758 46.5667 57.2027 46.5667C60.1296 46.5667 62.4843 48.8498 62.4843 51.6499C62.4843 54.4499 60.1296 56.7331 57.2027 56.7331Z" fill="#0D9B1B" stroke="#0D9B1B" stroke-width="0.5"/>
</svg>
