<svg width="70" height="66" viewBox="0 0 70 66" fill="none" xmlns="http://www.w3.org/2000/svg">
    <mask id="path-1-outside-1_400_1691" x="0" y="0" width="70" height="66" fill="black">
        <rect fill="white" width="70" height="66"/>
        <path fill-rule="evenodd" clip-rule="evenodd"
              d="M64.3592 1H5.64073C3.08032 1 1 3.04423 1 5.5602V48.3631C1 50.8791 3.08032 52.9233 5.64073 52.9233H24.8117L21.7179 58.9617H17.2905C16.7785 58.9617 16.3517 59.3705 16.3517 59.8842V64.0775C16.3517 64.5807 16.7678 65 17.2905 65H52.7094C53.2215 65 53.6482 64.5912 53.6482 64.0775V59.8842C53.6482 59.381 53.2322 58.9617 52.7094 58.9617H48.2821L45.1882 52.9233H64.3592C66.9196 52.9233 69 50.8791 69 48.3631V5.57068C69.0106 3.05471 66.9196 1 64.3592 1ZM2.86696 5.57068C2.86696 4.0611 4.11515 2.84504 5.64073 2.84504H64.3592C65.8955 2.84504 67.133 4.07158 67.133 5.57068V42.6288H2.86696V5.57068ZM51.7706 63.1759H18.2294V60.8172H51.7706V63.1759ZM46.1911 58.9722H23.8089L26.9027 52.9338H43.1079L46.1911 58.9722ZM67.1437 48.3631C67.1437 49.8727 65.8955 51.0888 64.3699 51.0888H5.64073C4.10448 51.0888 2.86696 49.8622 2.86696 48.3631V44.4634H67.1437V48.3631ZM35 48.8349C35.5892 48.8349 36.0668 48.3655 36.0668 47.7866C36.0668 47.2076 35.5892 46.7382 35 46.7382C34.4108 46.7382 33.9332 47.2076 33.9332 47.7866C33.9332 48.3655 34.4108 48.8349 35 48.8349ZM48.9755 13.2758H54.107C54.6297 13.2758 55.0458 13.6847 55.0458 14.1879V38.3202C55.0458 38.8339 54.6191 39.2428 54.107 39.2428H48.9755C48.4528 39.2428 48.0367 38.8234 48.0367 38.3202V14.1984C48.0367 13.6847 48.4634 13.2758 48.9755 13.2758ZM49.9143 37.3872H53.1788V15.1104H49.9143V37.3872ZM31.8208 23.7695H36.9523C37.2006 23.7717 37.4381 23.8696 37.6137 24.0422C37.7893 24.2147 37.8889 24.4481 37.8911 24.6921V38.3202C37.8911 38.8339 37.4644 39.2428 36.9523 39.2428H31.8208C31.2981 39.2428 30.882 38.8234 30.882 38.3202V24.6921C30.882 24.1784 31.3088 23.7695 31.8208 23.7695ZM32.7596 37.3872H36.0135H36.0242V25.6041H32.7596V37.3872ZM57.5635 23.7695H62.695C62.9433 23.7717 63.1808 23.8696 63.3564 24.0422C63.532 24.2147 63.6316 24.4481 63.6338 24.6921V38.3202C63.6338 38.8339 63.2071 39.2428 62.695 39.2428H57.5635C57.0408 39.2428 56.6247 38.8234 56.6247 38.3202V24.6921C56.6247 24.1784 57.0514 23.7695 57.5635 23.7695ZM58.4917 37.3872H61.7562V25.6041H58.4917V37.3872ZM40.3982 30.0595H45.5296C46.0417 30.0595 46.4685 30.4683 46.4685 30.982V38.3097C46.4685 38.8234 46.0417 39.2323 45.5296 39.2323H40.3982C39.8754 39.2323 39.4594 38.8129 39.4594 38.3097V30.982C39.4594 30.4683 39.8861 30.0595 40.3982 30.0595ZM41.337 37.3872H44.6015V31.894H41.337V37.3872ZM7.26233 33.7286H25.4945C26.0066 33.7286 26.4333 34.1269 26.4333 34.6406C26.4333 35.1543 26.0066 35.5631 25.4945 35.5631H7.26233C6.75025 35.5631 6.32352 35.1648 6.32352 34.6511C6.32352 34.1374 6.75025 33.7286 7.26233 33.7286ZM7.26233 37.3872H18.3574C18.8801 37.3872 19.2962 37.7856 19.2962 38.2993C19.2962 38.8129 18.8695 39.2218 18.3574 39.2218H7.26233C6.75025 39.2218 6.32352 38.8234 6.32352 38.3097C6.32352 37.7961 6.75025 37.3872 7.26233 37.3872ZM18.3627 6.26782C18.3681 6.2652 18.3734 6.26257 18.3787 6.26257C24.7371 6.39886 29.9112 11.588 29.9005 17.836C29.9005 24.2203 24.609 29.42 18.112 29.42C15.0477 29.4241 12.1033 28.2502 9.90808 26.1492C7.59305 23.9478 6.32352 20.9915 6.32352 17.836C6.32352 11.4518 11.615 6.25209 18.112 6.25209C18.144 6.25209 18.176 6.25471 18.208 6.25733C18.24 6.25995 18.2721 6.26257 18.3041 6.26257C18.3166 6.26257 18.3254 6.26617 18.3327 6.26915C18.3379 6.27126 18.3423 6.27306 18.3467 6.27306C18.3521 6.27306 18.3574 6.27044 18.3627 6.26782ZM17.4293 17.4482V8.10762C12.2444 8.48501 8.20115 12.6993 8.20115 17.8256C8.19235 20.1538 9.04116 22.4066 10.5909 24.1679L17.4293 17.4482ZM11.9351 25.4469C13.6953 26.8306 15.8503 27.5854 18.1227 27.5854C23.2755 27.5854 27.5322 23.6962 28.0016 18.7481H18.7521L11.9351 25.4469ZM19.2962 8.16004V16.9135H28.0016C27.5535 12.3953 23.8943 8.70516 19.2962 8.16004Z"/>
    </mask>
    <path fill-rule="evenodd" clip-rule="evenodd"
          d="M64.3592 1H5.64073C3.08032 1 1 3.04423 1 5.5602V48.3631C1 50.8791 3.08032 52.9233 5.64073 52.9233H24.8117L21.7179 58.9617H17.2905C16.7785 58.9617 16.3517 59.3705 16.3517 59.8842V64.0775C16.3517 64.5807 16.7678 65 17.2905 65H52.7094C53.2215 65 53.6482 64.5912 53.6482 64.0775V59.8842C53.6482 59.381 53.2322 58.9617 52.7094 58.9617H48.2821L45.1882 52.9233H64.3592C66.9196 52.9233 69 50.8791 69 48.3631V5.57068C69.0106 3.05471 66.9196 1 64.3592 1ZM2.86696 5.57068C2.86696 4.0611 4.11515 2.84504 5.64073 2.84504H64.3592C65.8955 2.84504 67.133 4.07158 67.133 5.57068V42.6288H2.86696V5.57068ZM51.7706 63.1759H18.2294V60.8172H51.7706V63.1759ZM46.1911 58.9722H23.8089L26.9027 52.9338H43.1079L46.1911 58.9722ZM67.1437 48.3631C67.1437 49.8727 65.8955 51.0888 64.3699 51.0888H5.64073C4.10448 51.0888 2.86696 49.8622 2.86696 48.3631V44.4634H67.1437V48.3631ZM35 48.8349C35.5892 48.8349 36.0668 48.3655 36.0668 47.7866C36.0668 47.2076 35.5892 46.7382 35 46.7382C34.4108 46.7382 33.9332 47.2076 33.9332 47.7866C33.9332 48.3655 34.4108 48.8349 35 48.8349ZM48.9755 13.2758H54.107C54.6297 13.2758 55.0458 13.6847 55.0458 14.1879V38.3202C55.0458 38.8339 54.6191 39.2428 54.107 39.2428H48.9755C48.4528 39.2428 48.0367 38.8234 48.0367 38.3202V14.1984C48.0367 13.6847 48.4634 13.2758 48.9755 13.2758ZM49.9143 37.3872H53.1788V15.1104H49.9143V37.3872ZM31.8208 23.7695H36.9523C37.2006 23.7717 37.4381 23.8696 37.6137 24.0422C37.7893 24.2147 37.8889 24.4481 37.8911 24.6921V38.3202C37.8911 38.8339 37.4644 39.2428 36.9523 39.2428H31.8208C31.2981 39.2428 30.882 38.8234 30.882 38.3202V24.6921C30.882 24.1784 31.3088 23.7695 31.8208 23.7695ZM32.7596 37.3872H36.0135H36.0242V25.6041H32.7596V37.3872ZM57.5635 23.7695H62.695C62.9433 23.7717 63.1808 23.8696 63.3564 24.0422C63.532 24.2147 63.6316 24.4481 63.6338 24.6921V38.3202C63.6338 38.8339 63.2071 39.2428 62.695 39.2428H57.5635C57.0408 39.2428 56.6247 38.8234 56.6247 38.3202V24.6921C56.6247 24.1784 57.0514 23.7695 57.5635 23.7695ZM58.4917 37.3872H61.7562V25.6041H58.4917V37.3872ZM40.3982 30.0595H45.5296C46.0417 30.0595 46.4685 30.4683 46.4685 30.982V38.3097C46.4685 38.8234 46.0417 39.2323 45.5296 39.2323H40.3982C39.8754 39.2323 39.4594 38.8129 39.4594 38.3097V30.982C39.4594 30.4683 39.8861 30.0595 40.3982 30.0595ZM41.337 37.3872H44.6015V31.894H41.337V37.3872ZM7.26233 33.7286H25.4945C26.0066 33.7286 26.4333 34.1269 26.4333 34.6406C26.4333 35.1543 26.0066 35.5631 25.4945 35.5631H7.26233C6.75025 35.5631 6.32352 35.1648 6.32352 34.6511C6.32352 34.1374 6.75025 33.7286 7.26233 33.7286ZM7.26233 37.3872H18.3574C18.8801 37.3872 19.2962 37.7856 19.2962 38.2993C19.2962 38.8129 18.8695 39.2218 18.3574 39.2218H7.26233C6.75025 39.2218 6.32352 38.8234 6.32352 38.3097C6.32352 37.7961 6.75025 37.3872 7.26233 37.3872ZM18.3627 6.26782C18.3681 6.2652 18.3734 6.26257 18.3787 6.26257C24.7371 6.39886 29.9112 11.588 29.9005 17.836C29.9005 24.2203 24.609 29.42 18.112 29.42C15.0477 29.4241 12.1033 28.2502 9.90808 26.1492C7.59305 23.9478 6.32352 20.9915 6.32352 17.836C6.32352 11.4518 11.615 6.25209 18.112 6.25209C18.144 6.25209 18.176 6.25471 18.208 6.25733C18.24 6.25995 18.2721 6.26257 18.3041 6.26257C18.3166 6.26257 18.3254 6.26617 18.3327 6.26915C18.3379 6.27126 18.3423 6.27306 18.3467 6.27306C18.3521 6.27306 18.3574 6.27044 18.3627 6.26782ZM17.4293 17.4482V8.10762C12.2444 8.48501 8.20115 12.6993 8.20115 17.8256C8.19235 20.1538 9.04116 22.4066 10.5909 24.1679L17.4293 17.4482ZM11.9351 25.4469C13.6953 26.8306 15.8503 27.5854 18.1227 27.5854C23.2755 27.5854 27.5322 23.6962 28.0016 18.7481H18.7521L11.9351 25.4469ZM19.2962 8.16004V16.9135H28.0016C27.5535 12.3953 23.8943 8.70516 19.2962 8.16004Z"
          fill="#0D9B1B"/>
    <path fill-rule="evenodd" clip-rule="evenodd"
          d="M64.3592 1H5.64073C3.08032 1 1 3.04423 1 5.5602V48.3631C1 50.8791 3.08032 52.9233 5.64073 52.9233H24.8117L21.7179 58.9617H17.2905C16.7785 58.9617 16.3517 59.3705 16.3517 59.8842V64.0775C16.3517 64.5807 16.7678 65 17.2905 65H52.7094C53.2215 65 53.6482 64.5912 53.6482 64.0775V59.8842C53.6482 59.381 53.2322 58.9617 52.7094 58.9617H48.2821L45.1882 52.9233H64.3592C66.9196 52.9233 69 50.8791 69 48.3631V5.57068C69.0106 3.05471 66.9196 1 64.3592 1ZM2.86696 5.57068C2.86696 4.0611 4.11515 2.84504 5.64073 2.84504H64.3592C65.8955 2.84504 67.133 4.07158 67.133 5.57068V42.6288H2.86696V5.57068ZM51.7706 63.1759H18.2294V60.8172H51.7706V63.1759ZM46.1911 58.9722H23.8089L26.9027 52.9338H43.1079L46.1911 58.9722ZM67.1437 48.3631C67.1437 49.8727 65.8955 51.0888 64.3699 51.0888H5.64073C4.10448 51.0888 2.86696 49.8622 2.86696 48.3631V44.4634H67.1437V48.3631ZM35 48.8349C35.5892 48.8349 36.0668 48.3655 36.0668 47.7866C36.0668 47.2076 35.5892 46.7382 35 46.7382C34.4108 46.7382 33.9332 47.2076 33.9332 47.7866C33.9332 48.3655 34.4108 48.8349 35 48.8349ZM48.9755 13.2758H54.107C54.6297 13.2758 55.0458 13.6847 55.0458 14.1879V38.3202C55.0458 38.8339 54.6191 39.2428 54.107 39.2428H48.9755C48.4528 39.2428 48.0367 38.8234 48.0367 38.3202V14.1984C48.0367 13.6847 48.4634 13.2758 48.9755 13.2758ZM49.9143 37.3872H53.1788V15.1104H49.9143V37.3872ZM31.8208 23.7695H36.9523C37.2006 23.7717 37.4381 23.8696 37.6137 24.0422C37.7893 24.2147 37.8889 24.4481 37.8911 24.6921V38.3202C37.8911 38.8339 37.4644 39.2428 36.9523 39.2428H31.8208C31.2981 39.2428 30.882 38.8234 30.882 38.3202V24.6921C30.882 24.1784 31.3088 23.7695 31.8208 23.7695ZM32.7596 37.3872H36.0135H36.0242V25.6041H32.7596V37.3872ZM57.5635 23.7695H62.695C62.9433 23.7717 63.1808 23.8696 63.3564 24.0422C63.532 24.2147 63.6316 24.4481 63.6338 24.6921V38.3202C63.6338 38.8339 63.2071 39.2428 62.695 39.2428H57.5635C57.0408 39.2428 56.6247 38.8234 56.6247 38.3202V24.6921C56.6247 24.1784 57.0514 23.7695 57.5635 23.7695ZM58.4917 37.3872H61.7562V25.6041H58.4917V37.3872ZM40.3982 30.0595H45.5296C46.0417 30.0595 46.4685 30.4683 46.4685 30.982V38.3097C46.4685 38.8234 46.0417 39.2323 45.5296 39.2323H40.3982C39.8754 39.2323 39.4594 38.8129 39.4594 38.3097V30.982C39.4594 30.4683 39.8861 30.0595 40.3982 30.0595ZM41.337 37.3872H44.6015V31.894H41.337V37.3872ZM7.26233 33.7286H25.4945C26.0066 33.7286 26.4333 34.1269 26.4333 34.6406C26.4333 35.1543 26.0066 35.5631 25.4945 35.5631H7.26233C6.75025 35.5631 6.32352 35.1648 6.32352 34.6511C6.32352 34.1374 6.75025 33.7286 7.26233 33.7286ZM7.26233 37.3872H18.3574C18.8801 37.3872 19.2962 37.7856 19.2962 38.2993C19.2962 38.8129 18.8695 39.2218 18.3574 39.2218H7.26233C6.75025 39.2218 6.32352 38.8234 6.32352 38.3097C6.32352 37.7961 6.75025 37.3872 7.26233 37.3872ZM18.3627 6.26782C18.3681 6.2652 18.3734 6.26257 18.3787 6.26257C24.7371 6.39886 29.9112 11.588 29.9005 17.836C29.9005 24.2203 24.609 29.42 18.112 29.42C15.0477 29.4241 12.1033 28.2502 9.90808 26.1492C7.59305 23.9478 6.32352 20.9915 6.32352 17.836C6.32352 11.4518 11.615 6.25209 18.112 6.25209C18.144 6.25209 18.176 6.25471 18.208 6.25733C18.24 6.25995 18.2721 6.26257 18.3041 6.26257C18.3166 6.26257 18.3254 6.26617 18.3327 6.26915C18.3379 6.27126 18.3423 6.27306 18.3467 6.27306C18.3521 6.27306 18.3574 6.27044 18.3627 6.26782ZM17.4293 17.4482V8.10762C12.2444 8.48501 8.20115 12.6993 8.20115 17.8256C8.19235 20.1538 9.04116 22.4066 10.5909 24.1679L17.4293 17.4482ZM11.9351 25.4469C13.6953 26.8306 15.8503 27.5854 18.1227 27.5854C23.2755 27.5854 27.5322 23.6962 28.0016 18.7481H18.7521L11.9351 25.4469ZM19.2962 8.16004V16.9135H28.0016C27.5535 12.3953 23.8943 8.70516 19.2962 8.16004Z"
          stroke="#0D9B1B" mask="url(#path-1-outside-1_400_1691)"/>
</svg>
