<svg width="60" height="60" viewBox="0 0 60 60" fill="none" xmlns="http://www.w3.org/2000/svg">
<path fill-rule="evenodd" clip-rule="evenodd" d="M43.2002 35.2707L58.3002 50.2802L58.3191 50.2615C59.3954 51.3313 60 52.7823 60 54.2953C60 55.8083 59.3954 57.2593 58.3191 58.3291C57.2428 59.399 55.783 60 54.261 60C52.7389 60 51.2791 59.399 50.2028 58.3291L40.4256 48.6104C40.1164 48.217 39.9627 47.7248 39.9933 47.2265C40.024 46.7282 40.237 46.2583 40.5921 45.9053C40.9472 45.5523 41.42 45.3406 41.9213 45.3102C42.4225 45.2797 42.9177 45.4325 43.3135 45.7398L53.0907 55.4586C53.2418 55.6162 53.423 55.7422 53.6238 55.8292C53.8246 55.9162 54.0408 55.9623 54.2598 55.965C54.4788 55.9677 54.6961 55.9267 54.899 55.8447C55.1018 55.7626 55.2861 55.641 55.441 55.487C55.5959 55.3331 55.7182 55.1499 55.8008 54.9483C55.8833 54.7466 55.9245 54.5306 55.9218 54.3129C55.9192 54.0952 55.8727 53.8803 55.7852 53.6807C55.6977 53.4811 55.5709 53.301 55.4123 53.1508L42.0111 39.8298C41.6525 40.2426 41.2939 40.6366 40.8975 41.0306C36.326 45.3642 30.2308 47.7489 23.9141 47.6753C17.5974 47.6017 11.5602 45.0757 7.09206 40.6368C2.62396 36.1979 0.0793405 30.1981 0.00182411 23.9193C-0.0756923 17.6405 2.32004 11.5804 6.67721 7.03389C10.3785 3.35717 15.1798 0.973217 20.3603 0.240015C25.5407 -0.493187 30.8207 0.46393 35.4072 2.96765C39.9938 5.47136 43.6395 9.38654 45.7969 14.1253C47.9542 18.864 48.5068 24.1706 47.3716 29.2481C47.3347 29.5295 47.2392 29.8002 47.0913 30.0429C46.9434 30.2857 46.7463 30.4952 46.5126 30.6581C46.2788 30.821 46.0135 30.9338 45.7335 30.9892C45.4535 31.0447 45.1649 31.0416 44.8862 30.9801C44.6075 30.9187 44.3447 30.8003 44.1145 30.6324C43.8843 30.4646 43.6918 30.2509 43.5492 30.005C43.4066 29.7592 43.317 29.4865 43.2862 29.2044C43.2553 28.9222 43.2839 28.6368 43.3701 28.3663C44.4122 23.6533 43.7084 18.7248 41.3878 14.4863C39.0672 10.2479 35.2859 6.98417 30.7386 5.2949C26.1912 3.60563 21.1833 3.60426 16.635 5.29105C12.0868 6.97785 8.30363 10.2395 5.98074 14.4767C3.65785 18.7139 2.95125 23.642 3.99077 28.3555C5.03029 33.0691 7.74611 37.2514 11.6392 40.1341C15.5323 43.0168 20.3412 44.4062 25.1822 44.0469C30.0233 43.6877 34.5714 41.6041 37.9908 38.1788C38.7856 37.3908 39.5118 36.5372 40.1614 35.6271C40.3348 35.4019 40.5519 35.2136 40.7999 35.0733C41.0479 34.933 41.3216 34.8436 41.605 34.8104C41.8884 34.7771 42.1755 34.8007 42.4495 34.8798C42.7236 34.9589 42.9788 35.0918 43.2002 35.2707ZM14.8408 35.7485C15.1609 35.9472 15.5298 36.0544 15.9071 36.0587C16.2362 36.0677 16.5627 35.9973 16.8586 35.8535C17.1544 35.7098 17.4108 35.4969 17.6058 35.2331C17.829 34.9275 18.0751 34.639 18.3419 34.3701C19.0983 33.613 19.9983 33.0126 20.9897 32.6036C21.9811 32.1946 23.0443 31.9851 24.1177 31.9873C25.3838 31.9938 26.6315 32.2899 27.764 32.8528C28.8965 33.4157 29.8835 34.2301 30.6484 35.2331C30.9909 35.6156 31.4654 35.8565 31.9779 35.9081C32.4905 35.9597 33.0038 35.8182 33.4165 35.5117C33.8292 35.2052 34.1113 34.756 34.2068 34.2528C34.3024 33.7496 34.2045 33.229 33.9326 32.7941C32.7829 31.2823 31.297 30.0554 29.591 29.2091C27.8851 28.3629 26.0054 27.9203 24.0988 27.916C22.4863 27.91 20.8887 28.222 19.3983 28.8339C17.908 29.4457 16.5545 30.3454 15.4163 31.4807C14.999 31.895 14.6141 32.3403 14.2649 32.8128C14.0434 33.1164 13.9101 33.4748 13.8796 33.8486C13.8491 34.2225 13.9227 34.5975 14.0922 34.9325C14.2617 35.2676 14.5207 35.5499 14.8408 35.7485ZM20.1329 23.6375C21.3124 24.4209 22.6991 24.839 24.1177 24.839C26.0199 24.839 27.8443 24.0879 29.1894 22.7508C30.5345 21.4138 31.2901 19.6003 31.2901 17.7095C31.2901 16.2994 30.8695 14.9209 30.0814 13.7485C29.2932 12.576 28.1731 11.6622 26.8625 11.1226C25.5519 10.583 24.1097 10.4418 22.7184 10.7169C21.3271 10.992 20.049 11.671 19.046 12.6681C18.0429 13.6652 17.3598 14.9355 17.083 16.3185C16.8063 17.7015 16.9483 19.1351 17.4912 20.4378C18.034 21.7406 18.9533 22.8541 20.1329 23.6375ZM22.4084 15.1666C22.9143 14.8306 23.5092 14.6512 24.1177 14.6512V14.67C24.9304 14.67 25.7101 14.9896 26.2865 15.5591C26.863 16.1286 27.1893 16.9016 27.1943 17.7095C27.1943 18.3143 27.0138 18.9056 26.6758 19.4085C26.3377 19.9114 25.8572 20.3034 25.295 20.5349C24.7329 20.7663 24.1143 20.8269 23.5175 20.7089C22.9206 20.5909 22.3724 20.2996 21.9422 19.8719C21.5119 19.4442 21.2189 18.8993 21.1002 18.3061C20.9815 17.7128 21.0424 17.0979 21.2752 16.5391C21.5081 15.9803 21.9024 15.5027 22.4084 15.1666Z" fill="#0D9B1B"/>
</svg>
