<svg width="32" height="32" viewBox="0 0 32 32" fill="none" xmlns="http://www.w3.org/2000/svg">
    <path d="M30.8674 18.6264C31.0324 17.7273 31.1191 16.8071 31.1191 15.8872C31.1191 13.8474 30.7199 11.8686 29.9309 10.0056C29.1696 8.20605 28.0805 6.59005 26.6921 5.20261C25.3056 3.81493 23.6884 2.72606 21.8898 1.96481C20.0275 1.17675 18.0486 0.777311 16.009 0.777311C15.0476 0.777311 14.0847 0.867686 13.1477 1.04762C13.1457 1.04812 13.143 1.04812 13.1406 1.04856C11.855 0.364999 10.4092 0 8.94555 0C6.55617 0 4.30955 0.930436 2.62012 2.62062C0.930936 4.30999 0 6.55661 0 8.94604C0 10.4668 0.391374 11.9619 1.1255 13.2829C0.976561 14.1389 0.897998 15.0137 0.897998 15.8872C0.897998 17.9275 1.29737 19.906 2.08643 21.7693C2.84643 23.5693 3.93605 25.1843 5.32324 26.5719C6.71167 27.9594 8.32667 29.05 10.1272 29.8093C11.9897 30.5988 13.9692 30.9985 16.0088 30.9985C16.8967 30.9985 17.7866 30.9174 18.6552 30.7634C19.9976 31.5231 21.5137 31.9225 23.0561 31.9228C25.445 31.9228 27.6904 30.9941 29.3801 29.3034C31.0701 27.6149 31.9999 25.3679 31.9999 22.9785C31.9999 21.4526 31.6066 19.9526 30.8674 18.6264Z"
          fill="#00AFF0"/>
    <path d="M16.0686 25.1407C10.7005 25.1407 8.29883 22.5015 8.29883 20.5235C8.29883 19.5091 9.04783 18.7979 10.0801 18.7979C12.3775 18.7979 11.7825 22.0965 16.0686 22.0965C18.263 22.0965 19.4746 20.905 19.4746 19.6859C19.4746 18.9524 19.1128 18.1397 17.668 17.7835L12.8933 16.5916C9.04783 15.6272 8.35008 13.5484 8.35008 11.5943C8.35008 7.53711 12.1701 6.01367 15.7576 6.01367C19.0623 6.01367 22.9578 7.84011 22.9578 10.2742C22.9578 11.3172 22.0546 11.9236 21.0228 11.9236C19.0623 11.9236 19.4228 9.20998 15.4736 9.20998C13.5139 9.20998 12.4285 10.0975 12.4285 11.3672C12.4285 12.6348 13.9763 13.0396 15.3201 13.3457L18.8543 14.1301C22.7256 14.9927 23.707 17.253 23.707 19.3819C23.7073 22.6787 21.1765 25.1406 16.0686 25.1406V25.1407Z"
          fill="white"/>
</svg>
