<svg width="49" height="64" viewBox="0 0 49 64" fill="none" xmlns="http://www.w3.org/2000/svg">
    <path fill-rule="evenodd" clip-rule="evenodd"
          d="M22.8492 4.52329C19.0976 2.25665 13.2223 2.25665 9.20399 4.65585C5.4649 6.92249 5.59887 10.7764 9.48318 13.0312C13.2223 15.1641 19.1101 15.1641 22.8492 13.0312C26.855 10.7764 26.855 6.78874 22.8492 4.52329ZM27.3772 14.764C21.2345 18.3516 11.2069 18.3516 5.05235 14.764C2.7821 13.4312 0.645817 11.3102 0.645817 8.64348C0.645817 6.51059 2.11466 4.52329 4.65165 2.92303C11.3409 -0.930844 21.1012 -0.930844 27.3772 2.66855C31.7838 5.18967 32.4512 8.64348 31.1163 11.1764C30.9415 11.5232 30.7346 11.8511 30.5034 12.16C30.4121 12.2819 30.3167 12.4015 30.2177 12.5187C30.1608 12.5861 30.1027 12.6524 30.0434 12.7175C29.9824 12.785 29.9195 12.8513 29.8561 12.9175C29.7891 12.9874 29.721 13.0548 29.6516 13.1211C29.344 13.417 29.015 13.6904 28.6748 13.9414C28.2545 14.2503 27.8159 14.5249 27.3772 14.764ZM4.93083 42.8951C6.39968 38.4956 9.48318 34.6299 12.834 32.7633C12.9704 32.6947 13.0717 32.5917 13.1387 32.4899C13.2027 32.3917 13.2347 32.2946 13.2347 32.2295C13.2347 32.1668 13.2276 32.1041 13.2128 32.0437C13.1873 31.9372 13.1387 31.8366 13.0682 31.7502C13.0071 31.6744 12.9289 31.6105 12.834 31.5631C9.61655 29.8303 7.06771 25.297 5.59887 21.1638C6.14479 21.4302 6.9462 21.8302 7.88097 22.0977C8.0665 22.4682 8.18801 22.8398 8.33442 23.2103C8.37414 23.3109 8.41563 23.4115 8.46068 23.5121L8.54841 23.6968C9.48318 25.8297 11.3652 27.5637 13.5015 28.3638C13.5821 28.4041 13.6627 28.4561 13.7362 28.5201L13.7818 28.5627C13.7984 28.5792 13.8144 28.5958 13.8298 28.6147C13.8796 28.6727 13.9235 28.7378 13.9579 28.81C14.0065 28.913 14.0355 29.0314 14.0355 29.1628V38.7631C14.0355 39.0294 13.9022 39.2957 13.6348 39.4295C13.6348 39.4567 13.6295 39.478 13.6194 39.4946C13.5969 39.5348 13.5507 39.5502 13.4949 39.5573L13.4333 39.5621H13.3681C9.21644 40.2296 6.13294 43.6953 5.86561 47.9622V48.3623C5.86561 49.5613 6.81283 50.7615 8.54841 51.8279C10.5638 53.1619 13.3681 53.8283 16.3176 53.8283C17.7871 53.8283 19.2678 53.6945 20.6032 53.2945V54.4946C18.7337 54.8947 17.3864 54.8947 16.3176 54.8947C12.7001 54.8947 9.629 53.9608 7.48027 52.7618C5.19816 51.4279 3.99606 49.8288 3.99606 48.0948C3.99606 47.8285 3.99606 45.8282 4.93083 42.8951ZM23.2256 43.3437C22.0235 42.011 20.5546 41.2108 18.8309 40.9445C18.5636 40.9445 18.1629 40.8108 17.8961 40.5445C17.3621 40.1444 16.9614 39.478 16.9614 38.6779V29.0787C16.9614 28.1448 17.4954 27.3447 18.4302 26.9458C18.9643 26.6783 19.4983 26.5458 20.0324 26.1457C21.2345 25.3456 22.1693 24.2791 22.7034 22.9452C22.7858 22.8635 22.8172 22.7807 22.861 22.667C22.8877 22.5972 22.9191 22.5143 22.9701 22.4126C18.4421 23.479 14.0355 23.479 9.77482 22.4126C9.78845 22.4256 9.8003 22.4398 9.81157 22.454L9.83468 22.4859C9.85662 22.5179 9.87381 22.551 9.8904 22.5865L9.93249 22.6907C9.95916 22.7605 9.99058 22.8434 10.0416 22.9452C10.843 24.8118 12.3118 26.1457 14.1689 26.8121C14.9703 27.0784 15.6383 28.0123 15.6383 28.945V38.6779C15.6383 39.3443 15.2376 40.0107 14.7036 40.5445C14.4362 40.677 14.1689 40.8108 13.7688 40.9445C10.2964 41.4772 7.63794 44.4102 7.50457 48.0108V48.4108C7.50457 49.0772 8.30597 49.8773 9.50748 50.6763C12.3118 52.4103 17.1072 52.9429 20.8457 51.8765C20.822 48.9553 21.8901 45.6104 23.2256 43.3437ZM2.90362 44.7747V44.5072C1.3014 45.8412 0.5 47.4533 0.5 49.0523C0.5 51.9984 2.77025 53.7312 4.90653 55.064C7.57748 56.5305 11.8625 57.8644 16.8037 57.7307C18.6732 57.7307 19.8747 57.4644 20.8095 57.3306C20.8095 57.2762 20.7408 57.0382 20.6601 56.7601C20.5463 56.3648 20.4088 55.8878 20.4088 55.7315C18.94 55.9978 17.7385 56.1304 16.2696 56.1304C13.0646 56.1304 9.31306 55.464 6.50934 53.865C3.83839 52.3985 2.36954 50.2525 2.36954 47.9859C2.41044 47.9042 2.4389 47.7433 2.47091 47.5054L2.51892 47.1195L2.56219 46.7774L2.62028 46.3525C2.6843 45.911 2.77262 45.3843 2.90362 44.7747ZM19.474 31.5631C22.6909 29.8303 25.2403 25.297 26.7092 21.1638C26.3085 21.2976 25.9084 21.5639 25.5077 21.6977C25.3761 21.7627 25.2119 21.829 25.0471 21.8953C24.8776 21.9628 24.7081 22.0302 24.5729 22.0977C24.5421 22.2196 24.5047 22.3415 24.4621 22.4635C24.3998 22.6398 24.3269 22.8162 24.2469 22.9925C24.1408 23.2269 24.0228 23.4624 23.9049 23.6968C23.5552 24.465 23.0916 25.1976 22.5184 25.8545C22.3519 26.0463 22.1758 26.2309 21.9903 26.4085C21.5973 26.7849 21.1628 27.1281 20.688 27.4299C20.1539 27.83 19.4865 28.0963 18.8066 28.3638C18.5393 28.4964 18.2725 28.7639 18.2725 29.1628V38.6294C18.2725 38.8957 18.4059 39.162 18.5393 39.2957C18.6732 39.2957 18.8066 39.4295 18.8066 39.4295C20.688 39.6958 22.2908 40.6285 23.6381 41.9625C24.3536 40.6534 24.9623 39.8757 25.3779 39.3431L25.5195 39.162C23.9049 36.3627 21.6352 34.0961 19.3525 32.7633C19.0858 32.6296 18.9524 32.3633 18.9524 32.097C19.0733 31.9632 19.2073 31.6969 19.474 31.5631ZM5.07665 19.3458C11.3652 22.8245 21.1255 22.8245 27.2676 19.4795C27.2676 19.4795 27.4015 19.4795 27.4015 19.3458C30.2058 17.7455 31.8199 15.6008 31.8199 13.3342V12.8004C31.0191 13.868 29.817 14.9463 28.2148 16.0127C23.6743 18.5575 17.2524 19.4914 11.6319 18.4249C8.82759 17.8911 5.74409 16.9584 3.47444 15.2126C2.27233 14.4125 1.47093 13.4798 0.80349 12.6678V13.2004C0.67012 15.4671 2.13896 17.7337 5.07665 19.3458ZM22.2784 11.6984C18.94 13.552 13.5862 13.552 10.2478 11.6984C7.17678 9.97742 7.17678 7.45631 10.1145 5.73532C13.8536 3.61427 19.2073 3.88058 22.2784 5.60157C25.216 7.32256 25.35 9.97742 22.2784 11.6984ZM45.963 46.8106C45.963 47.2106 45.6957 47.6107 45.4284 47.877L44.0935 49.0772C44.0069 49.508 43.8647 49.8844 43.7023 50.3129C43.6139 50.5461 43.5197 50.7946 43.4254 51.0763L44.0935 52.2765C44.1391 52.3677 44.1693 52.4588 44.1842 52.5452C44.1925 52.5961 44.1954 52.6446 44.1931 52.6908C44.1895 52.7488 44.1776 52.8021 44.1575 52.8482C44.1415 52.8849 44.1201 52.9169 44.0935 52.9429L42.758 55.077C42.7301 55.1326 42.6964 55.1823 42.6584 55.2249C42.6057 55.2841 42.544 55.3303 42.4764 55.3587C42.3591 55.4096 42.2245 55.4096 42.09 55.3433L40.8885 55.2096C40.7592 55.3386 40.63 55.4818 40.4966 55.6297L40.4913 55.6368C40.2121 55.9446 39.9128 56.2748 39.553 56.5435L39.0189 58.2763C38.9045 58.848 38.5933 59.125 38.4232 59.2777L38.3515 59.3428L37.1494 60.0091C36.8826 60.1429 36.6153 60.1429 36.348 60.0091C36.0812 59.8766 35.9478 59.7428 35.8139 59.4765L35.5471 58.5426H34.7339L33.5318 59.8766L33.265 60.1429C32.8643 59.8766 32.597 60.0091 32.4636 60.0091C32.3303 60.0091 32.1963 60.0091 32.0629 59.8766L31.2615 59.209C30.8608 58.9427 30.7275 58.4101 30.9948 57.8763L31.6622 56.1434C31.5289 55.8759 31.3955 55.6096 31.2615 55.2096L30.4607 55.3433C30.06 55.4759 29.7927 55.2096 29.6593 55.077C29.526 54.9432 29.392 54.6769 29.392 54.2769V52.9429C29.392 52.5429 29.6593 52.1428 29.9267 51.8765L31.2615 50.81L31.3955 50.6763L31.4388 50.4987L31.5241 50.159C31.5804 49.9448 31.6462 49.7199 31.7346 49.4891C31.8199 49.2666 31.926 49.0381 32.0629 48.8097L31.6622 47.877C31.3955 47.4769 31.5289 46.9443 31.7956 46.5443L32.7304 45.0777C32.8643 44.8102 32.9977 44.6777 33.265 44.5439C33.5318 44.4102 33.7991 44.4102 33.9325 44.4102L34.8673 44.5439C35.268 44.0101 35.802 43.6112 36.2027 43.2112L36.7368 41.6109C36.7955 41.3766 36.8797 41.1671 36.9786 40.9954C37.0118 40.9374 37.0468 40.8842 37.0836 40.8356C37.1843 40.6995 37.2946 40.5989 37.4042 40.5445L38.6063 39.8781C39.1404 39.6106 39.8079 39.8781 39.9418 40.5445L40.2086 41.4772H41.1433L42.3454 40.1444L42.6122 39.8781C43.0129 39.6106 43.4136 39.7443 43.6803 39.8781L44.4817 40.4107C44.7491 40.5445 45.0158 40.9445 44.7491 41.7447L44.081 43.4775C44.2144 43.7438 44.3484 44.0101 44.4817 44.4102L45.1492 44.2776C45.8172 44.1439 46.3513 44.6777 46.2179 45.3441L45.963 46.8106ZM37.9383 37.2232C35.5347 38.556 33.265 40.8108 31.3955 43.3437C28.5912 47.3314 26.7216 52.131 26.7216 56.5186C26.7216 63.173 31.2615 65.9722 37.2827 62.5066C43.4254 58.919 48.5 50.2644 48.5 43.2112C48.5 36.4231 43.9595 33.7694 37.9383 37.2232ZM30.4607 42.2288C27.4015 46.5076 25.398 51.8398 25.398 56.5068C25.398 58.3734 25.7987 60.1062 26.1876 61.3064L25.5195 60.9063L24.7187 60.3725C23.2499 59.5736 22.4485 58.2396 22.0478 56.6406C20.1907 49.7069 25.6535 38.4956 32.8519 34.3624C35.1221 33.0297 38.048 32.2295 40.3176 33.5635L41.7865 34.3624C41.301 34.4169 40.7248 34.5376 40.0948 34.7258C39.1801 34.998 38.1529 35.4111 37.1251 35.9627C34.7339 37.4292 32.3303 39.5621 30.4607 42.2288ZM21.5256 58.7971C19.9233 59.0646 18.3087 59.1972 16.5731 59.3309C11.4861 59.3309 7.20108 58.1307 4.38491 56.5186C3.58647 56.0121 2.94214 55.6226 2.30553 55.0924C1.77146 54.6473 1.24272 54.104 0.63337 53.3075V53.8401C0.63337 60.3974 13.3556 64.8087 23.7958 61.4638C23.7288 61.4638 23.6956 61.4295 23.6624 61.3964C23.6488 61.3833 23.6352 61.3703 23.6192 61.3585C23.5966 61.3419 23.5688 61.3301 23.5291 61.3301C22.7395 60.5311 21.9387 59.5972 21.5256 58.7971ZM38.0841 53.7312C39.0314 53.3311 39.6988 52.531 40.3662 51.4646C41.7017 49.1979 41.5683 46.6768 40.1114 46.0223C39.3105 45.4896 38.3633 45.6222 37.2952 46.156C36.348 46.5443 35.5471 47.4769 35.0131 48.4108C33.6776 50.6763 33.811 53.0648 35.2798 53.9975C35.6805 54.1313 36.0812 54.2638 36.4819 54.2638C37.016 54.2638 37.5501 53.9975 38.0841 53.7312Z"
          fill="#0D9B1B"/>
</svg>
