<svg width="102" height="108" viewBox="0 0 102 108" fill="none" xmlns="http://www.w3.org/2000/svg">
    <g clip-path="url(#clip0_219_6623)">
        <path opacity="0.149" fill-rule="evenodd" clip-rule="evenodd"
              d="M2.29424 97.4539C2.9418 97.1576 35.3383 78.0835 36.0136 77.9076C36.985 77.6391 38.0118 78.0372 38.8259 78.565L40.0193 77.8705C36.9017 74.2594 37.9101 66.6483 37.7528 62.1761V62.2224C40.8981 37.0742 98.7252 36.9076 101.945 62.0835V61.9909C101.685 66.778 103.055 73.9076 99.5855 77.9817C87.0876 92.5557 61.213 92.7224 45.5235 83.1576L42.6928 84.8057C42.8408 85.9076 42.776 87.1483 42.0359 87.9909C41.5734 88.6205 8.8531 107.296 8.26105 107.769C8.2888 107.759 8.3073 107.741 8.3258 107.732C4.07966 109.759 -1.48011 100.213 2.29424 97.4539Z"
              fill="#808080"/>
        <path fill-rule="evenodd" clip-rule="evenodd"
              d="M42.5078 60.4538C42.147 52.6112 53.7105 46.7223 61.3333 45.7872C71.463 44.2131 83.0728 45.3612 91.1025 52.2501C96.4958 56.7038 94.8861 63.1483 95.1174 69.1853C94.2386 57.7686 78.7896 54.139 69.3075 54.0372C59.5756 53.9631 43.4051 57.5742 42.5263 69.3335L42.5078 60.4538Z"
              fill="#6C74AF"/>
        <path fill-rule="evenodd" clip-rule="evenodd"
              d="M36.7351 60.4625C40.2597 85.6014 97.689 85.3329 100.945 60.2773C104.433 82.4533 84.0718 88.2866 65.8198 87.8051C48.7335 86.4162 33.9691 80.3329 36.7351 60.4625Z"
              fill="#2C40D4"/>
        <path fill-rule="evenodd" clip-rule="evenodd"
              d="M87.3653 71.1572C97.6522 65.2127 97.7078 55.5553 87.4855 49.6202C77.2633 43.6757 60.584 43.6757 50.2971 49.6202C40.0194 55.5553 39.9639 65.222 50.1768 71.1572C60.399 77.1016 77.0783 77.1016 87.3653 71.1572ZM36.7261 60.3887C38.456 42.7683 67.0966 39.5276 81.0007 43.1572C107.643 49.472 107.292 71.4072 80.8064 77.6294C66.9764 81.2405 38.2617 78.0461 36.7261 60.3887Z"
              fill="#0D9B1B"/>
        <path fill-rule="evenodd" clip-rule="evenodd"
              d="M40.8887 82.1389C40.7314 80.0741 38.8442 76.8426 36.4482 77.6389L42.7573 73.9537C42.8498 73.9074 42.9423 73.8611 43.0441 73.8334C44.0339 73.5834 44.9683 74.2778 45.6251 74.963C46.8092 76.1945 48.0766 79.1019 46.4484 80.3241L40.1393 84.0093C40.6481 83.7315 40.9534 82.9445 40.8887 82.1389Z"
              fill="#949AC5"/>
        <path fill-rule="evenodd" clip-rule="evenodd"
              d="M8.46472 103.046C8.28896 99.8237 5.01415 94.3607 1.2583 95.7589C1.91511 95.4626 34.3024 76.3793 34.9777 76.2033C36.2173 75.87 37.4569 76.5367 38.3913 77.2959C40.6392 79.2589 42.4894 82.6941 41.3978 85.6756C41.1943 86.1107 40.9075 86.4626 40.5005 86.6941L7.24361 106.055C8.06693 105.62 8.56648 104.351 8.46472 103.046Z"
              fill="#2535B5"/>
        <path fill-rule="evenodd" clip-rule="evenodd"
              d="M7.20648 99.1663C8.86238 102.009 8.86238 105.092 7.21573 106.055C5.56907 107.009 2.89557 105.481 1.23967 102.639C-0.416235 99.7959 -0.416235 96.7126 1.23042 95.7496C2.87707 94.7959 5.55057 96.3237 7.20648 99.1663Z"
              fill="#949AC5"/>
        <path fill-rule="evenodd" clip-rule="evenodd" d="M53.4422 49.1856L55.9307 47.7227L55.8752 69.3708L53.3774 70.8338L53.4422 49.1856Z"
              fill="#6C74AF"/>
        <path fill-rule="evenodd" clip-rule="evenodd" d="M49.6587 47.0001L52.1564 45.5557L55.9308 47.7223L53.433 49.1668L49.6587 47.0001Z"
              fill="#317EBA"/>
        <path fill-rule="evenodd" clip-rule="evenodd" d="M51.5459 36.796L54.0621 35.333L59.7052 49.9256L57.1889 51.3886L51.5459 36.796Z"
              fill="#0D9B1B"/>
        <path fill-rule="evenodd" clip-rule="evenodd"
              d="M51.5828 36.833L45.8843 44.833L49.6586 47.0089L49.5939 68.6478L53.3775 70.833L53.4422 49.2034L57.2073 51.3793L51.5828 36.833Z"
              fill="#2C40D4"/>
        <path opacity="0.702" fill-rule="evenodd" clip-rule="evenodd"
              d="M66.412 28.2041L61.2593 25.2227L61.3888 69.4078L66.5323 72.3893L66.412 28.2041Z" fill="#2C40D4"/>
        <path opacity="0.702" fill-rule="evenodd" clip-rule="evenodd"
              d="M74.1365 23.7588L69.0115 20.7773L61.2593 25.2403L66.3935 28.2218L74.1365 23.7588Z" fill="#2C40D4"/>
        <path fill-rule="evenodd" clip-rule="evenodd" d="M70.1957 2.97222L65.0892 0L53.5996 29.6944L58.7153 32.6667L70.1957 2.97222Z"
              fill="#0D9B1B"/>
        <path fill-rule="evenodd" clip-rule="evenodd"
              d="M70.1864 2.94434L81.7962 19.2869L74.118 23.7406L74.2383 67.9258L66.523 72.3888L66.3935 28.2036L58.7061 32.6573L70.1864 2.94434Z"
              fill="#2C40D4"/>
        <path opacity="0.702" fill-rule="evenodd" clip-rule="evenodd"
              d="M82.8323 39.861L79.5205 37.9443L79.6038 66.361L82.9063 68.2777L82.8323 39.861Z" fill="#2C40D4"/>
        <path opacity="0.702" fill-rule="evenodd" clip-rule="evenodd"
              d="M87.7908 36.9631L84.4975 35.0557L79.5205 37.9168L82.8231 39.8334L87.7908 36.9631Z" fill="#2C40D4"/>
        <path fill-rule="evenodd" clip-rule="evenodd" d="M85.2376 23.6393L81.9535 21.7227L74.5806 40.806L77.8646 42.7227L85.2376 23.6393Z"
              fill="#0D9B1B"/>
        <path fill-rule="evenodd" clip-rule="evenodd"
              d="M85.1448 23.6113L92.6195 34.1206L87.6703 36.9817L87.7536 65.4076L82.7766 68.278L82.7026 39.8613L77.7441 42.7224L85.1448 23.6113Z"
              fill="#2C40D4"/>
    </g>
    <defs>
        <clipPath id="clip0_219_6623">
            <rect width="102" height="108" fill="white"/>
        </clipPath>
    </defs>
</svg>
