<svg width="78" height="156" viewBox="0 0 78 156" fill="none" xmlns="http://www.w3.org/2000/svg">
    <g clip-path="url(#clip0_219_6469)">
        <path opacity="0.302" fill-rule="evenodd" clip-rule="evenodd"
              d="M8.22262 129.275L0 124.97L48.6926 96.8867L56.9152 101.191L8.22262 129.275Z" fill="#6C74AF"/>
        <path fill-rule="evenodd" clip-rule="evenodd"
              d="M3.85889 30.4658V118.905C3.85889 123.681 9.06118 126.524 13.0462 124.13L46.04 104.46C48.8536 102.78 50.5762 99.7415 50.5762 96.4728V6.83671C50.5762 5.30595 50.0939 3.93631 49.29 2.84291C47.3377 0.138174 43.4905 -0.943721 40.2635 0.978368L10.4393 18.8411C6.36242 21.2812 3.85889 25.7008 3.85889 30.4658Z"
              fill="#2535B5"/>
        <path fill-rule="evenodd" clip-rule="evenodd"
              d="M7.17733 32.8828V121.356C6.97061 124.579 10.634 125.914 13.0687 124.142L46.0395 104.472C48.8531 102.792 50.5757 99.7531 50.5757 96.4729C50.5183 95.9665 50.6332 6.76769 50.5642 6.33033C50.369 2.77389 46.2922 1.4503 43.5704 3.3839L13.7577 21.2467C9.68086 23.6867 7.17733 28.1063 7.17733 32.8828Z"
              fill="#2C40D4"/>
        <path fill-rule="evenodd" clip-rule="evenodd"
              d="M46.35 2.55556C45.3854 2.55556 44.4092 2.85481 43.5939 3.43029C43.525 3.47633 14.0912 21.1204 13.7926 21.3046C9.75022 23.7216 7.24669 28.1527 7.24669 32.8716V121.345C7.15481 122.68 7.75199 123.785 8.85446 124.395C10.1407 125.109 11.7714 124.982 13.0117 124.062C13.0691 124.027 45.661 104.587 45.9826 104.38C48.7617 102.723 50.4843 99.6844 50.4843 96.4502C50.4499 96.22 50.4728 76.0093 50.4843 54.6131C50.4958 31.0531 50.5188 6.67597 50.4728 6.31918C50.3924 4.82294 49.6 3.61444 48.2909 2.98142C47.6937 2.70519 47.0276 2.55556 46.35 2.55556ZM10.646 124.994C10.0029 124.994 9.35976 124.833 8.78556 124.522C7.62566 123.889 7.017 122.726 7.09739 121.345V32.8716C7.09739 28.1067 9.63538 23.6295 13.7122 21.178L38.8509 6.1005C42.5258 3.89067 43.3297 3.41878 43.5135 3.3267L43.502 3.31519C44.926 2.30236 46.8324 2.12971 48.3483 2.86632C49.7034 3.52236 50.5188 4.7769 50.6106 6.31918C50.6451 6.52635 50.6336 25.5861 50.6221 54.6246C50.6106 75.9748 50.5992 96.151 50.6221 96.4502C50.6221 99.7419 48.8765 102.838 46.0515 104.518L14.5046 123.348C13.5285 123.935 13.2069 124.119 13.0806 124.177L13.0921 124.188C12.3686 124.718 11.5073 124.994 10.646 124.994Z"
              fill="#3992D8"/>
        <path fill-rule="evenodd" clip-rule="evenodd" d="M49.0603 12.8447V91.9957L8.61328 115.395V36.2436L49.0603 12.8447Z" fill="#BCC0DB"/>
        <path d="M43.4744 52.9687L17.7871 68.4482L17.9173 68.6652L43.6046 53.1857L43.4744 52.9687Z" fill="white"/>
        <path d="M42.6365 28.4929L13.8926 46.6982L14.0275 46.9123L42.7715 28.7069L42.6365 28.4929Z" fill="white"/>
        <path d="M12.7562 47.7206L12.7061 47.9688L43.4337 54.2058L43.4839 53.9576L12.7562 47.7206Z" fill="white"/>
        <path fill-rule="evenodd" clip-rule="evenodd"
              d="M30.2951 88.6697L30.5247 88.5546C28.6643 84.9982 22.4399 73.2124 20.9011 69.748L20.6714 69.8631C22.1873 73.2585 28.4691 85.1708 30.2951 88.6697Z"
              fill="white"/>
        <path fill-rule="evenodd" clip-rule="evenodd" d="M37.1396 27.001L37.1511 30.5459L40.7227 32.5946L40.7112 29.0497L37.1396 27.001Z"
              fill="#949AC5"/>
        <path fill-rule="evenodd" clip-rule="evenodd" d="M40.6538 29.0497L40.6653 32.5946L44.2368 30.5459L44.2254 27.001L40.6538 29.0497Z"
              fill="#6C74AF"/>
        <path fill-rule="evenodd" clip-rule="evenodd" d="M37.1396 27.0362L40.6767 29.0734L44.2368 27.0362L40.6997 24.999L37.1396 27.0362Z"
              fill="#0D9B1B"/>
        <path fill-rule="evenodd" clip-rule="evenodd" d="M26.1836 86.667L26.1951 91.5585L31.0758 94.4014L31.0643 89.5098L26.1836 86.667Z"
              fill="#949AC5"/>
        <path fill-rule="evenodd" clip-rule="evenodd" d="M31.0762 89.5098L31.0877 94.4014L35.9684 91.5585L35.9569 86.667L31.0762 89.5098Z"
              fill="#6C74AF"/>
        <path fill-rule="evenodd" clip-rule="evenodd" d="M26.1836 86.6663L31.0643 89.4977L35.968 86.6663L31.0873 83.835L26.1836 86.6663Z"
              fill="#0D9B1B"/>
        <path fill-rule="evenodd" clip-rule="evenodd" d="M12.8164 65.4658L12.8279 70.8408L18.191 73.9598L18.1795 68.5849L12.8164 65.4658Z"
              fill="#949AC5"/>
        <path fill-rule="evenodd" clip-rule="evenodd" d="M18.1909 68.5849L18.2024 73.9598L23.5655 70.8408L23.554 65.4658L18.1909 68.5849Z"
              fill="#6C74AF"/>
        <path fill-rule="evenodd" clip-rule="evenodd" d="M12.8164 65.466L18.168 68.5735L23.5655 65.466L18.2024 62.3584L12.8164 65.466Z"
              fill="white"/>
        <path fill-rule="evenodd" clip-rule="evenodd" d="M38.2422 49.4453L38.2537 53.6348L42.4454 56.0748L42.4339 51.8738L38.2422 49.4453Z"
              fill="#2535B5"/>
        <path fill-rule="evenodd" clip-rule="evenodd" d="M42.4453 51.8738L42.4568 56.0748L46.6485 53.6348L46.637 49.4453L42.4453 51.8738Z"
              fill="#2C40D4"/>
        <path fill-rule="evenodd" clip-rule="evenodd" d="M38.2422 49.4453L42.4339 51.8623L46.6485 49.4453L42.4569 47.0283L38.2422 49.4453Z"
              fill="#0D9B1B"/>
        <path fill-rule="evenodd" clip-rule="evenodd" d="M12.5405 44.4727L12.552 48.0176L16.1236 50.0663L16.1121 46.5213L12.5405 44.4727Z"
              fill="#949AC5"/>
        <path fill-rule="evenodd" clip-rule="evenodd" d="M16.0547 46.5213L16.0662 50.0663L19.6377 48.0176L19.6262 44.4727L16.0547 46.5213Z"
              fill="#6C74AF"/>
        <path fill-rule="evenodd" clip-rule="evenodd" d="M12.5405 44.5069L16.0776 46.5441L19.6377 44.5069L16.1006 42.4697L12.5405 44.5069Z"
              fill="white"/>
        <path opacity="0.302" fill-rule="evenodd" clip-rule="evenodd"
              d="M78 148.127C78 152.478 71.902 156 64.3914 156C56.8808 156 50.7827 152.478 50.7827 148.127C50.7827 143.777 56.8693 140.255 64.3914 140.255C71.9135 140.255 78 143.777 78 148.127Z"
              fill="#808080"/>
        <path fill-rule="evenodd" clip-rule="evenodd"
              d="M69.7085 137.977C69.7085 137.977 69.4329 140.348 69.8004 141.947L67.8481 146.263L64.9771 146.091C65.8269 143.858 67.7677 140.808 66.7571 138.241L69.7085 137.977Z"
              fill="#D6A7A8"/>
        <path fill-rule="evenodd" clip-rule="evenodd"
              d="M66.5505 141.97C66.5505 141.97 66.9984 139.749 69.3411 140.715C69.3411 140.715 70.1335 141.084 69.9842 142.937L69.766 144.502C69.789 144.87 70.0531 146.804 69.0081 146.896C68.9507 146.908 68.9507 148.116 68.9507 148.116C68.7899 148.231 68.6176 148.231 68.4339 148.162C68.4339 148.162 68.4109 147.218 68.3879 147.034C67.8137 147.138 67.2395 147.08 66.6309 147.034L65.7236 145.814L66.2864 144.329L66.5505 141.97Z"
              fill="#1B1B1B"/>
        <path fill-rule="evenodd" clip-rule="evenodd"
              d="M68.1124 147.299L68.411 147.034C68.3306 145.711 67.9746 144.433 67.0903 143.501C67.1133 144.871 66.7343 146.056 66.2061 147.173L68.1124 147.299Z"
              fill="#2C40D4"/>
        <path fill-rule="evenodd" clip-rule="evenodd"
              d="M69.1455 147.368C68.9388 146.919 69.0651 145.089 69.3178 144.18C69.5245 143.708 70.1331 142.258 70.1331 142.258L70.5581 146.977L69.1455 147.368Z"
              fill="#2C40D4"/>
        <path fill-rule="evenodd" clip-rule="evenodd"
              d="M62.244 141.935C63.0594 144.686 62.0029 148.035 60.0161 150.038L61.578 150.475C62.6804 149.174 65.3677 146.274 66.5621 145.008C66.0108 144.225 65.6089 141.624 65.517 141.152L62.244 141.935Z"
              fill="#F7A790"/>
        <path fill-rule="evenodd" clip-rule="evenodd"
              d="M58.0864 150.337L61.5891 152.052C63.3691 152.49 65.1262 151.143 65.5281 149.417C65.8612 150.257 66.0679 151.063 66.1712 151.834C66.3894 151.983 66.6306 151.949 66.8603 151.788C66.6995 150.901 66.6191 150.015 66.688 149.117C66.9981 147.184 67.2967 147.276 67.1244 146.183C67.1244 146.183 66.9062 144.341 65.5626 144.732C62.6341 145.872 63.3117 150.234 59.7631 149.417V149.428C59.7746 149.417 58.1668 149.256 58.0864 150.337Z"
              fill="#1B1B1B"/>
        <path fill-rule="evenodd" clip-rule="evenodd"
              d="M61.394 152.317C61.394 152.317 62.8525 152.248 63.1626 151.235C63.6679 150.406 64.3569 146.85 65.5283 149.37L65.0575 150.936L62.864 152.627L61.394 152.317Z"
              fill="#2C40D4"/>
        <path d="M67.1817 151.442H65.8726V152.202H67.1817V151.442Z" fill="#2C40D4"/>
        <path fill-rule="evenodd" clip-rule="evenodd"
              d="M63.8975 146.746C64.3339 146.102 65.3674 144.628 66.4125 145.008L66.424 144.985C65.3215 144.479 64.219 145.975 63.8745 146.735L63.8975 146.746Z"
              fill="white"/>
        <path fill-rule="evenodd" clip-rule="evenodd"
              d="M58.1782 150.199C58.4424 149.693 59.8894 149.474 60.3487 149.681L60.3602 149.658C59.8205 149.37 58.4768 149.462 58.1553 150.176L58.1782 150.199Z"
              fill="white"/>
        <path fill-rule="evenodd" clip-rule="evenodd"
              d="M66.7918 141.602C67.5497 140.796 69.0886 140.313 69.7202 141.636L69.7432 141.625C69.1001 140.14 67.5612 140.601 66.7803 141.579L66.7918 141.602Z"
              fill="white"/>
        <path fill-rule="evenodd" clip-rule="evenodd"
              d="M56.7773 88.9573C50.2543 109.03 53.7914 124.971 62.1748 143.156L66.0679 141.844C65.3904 134.995 64.2649 128.493 61.0838 123.509C61.3824 118.433 62.037 113.311 63.2658 108.132C62.9098 115.521 64.8161 131.427 66.0679 138.805L70.1103 138.678L70.7649 126.179L69.8921 120.252C70.673 110.526 75.8179 96.1047 68.0432 88.0596C64.8161 90.6492 61.0379 90.8449 56.7773 88.9573Z"
              fill="#133142"/>
        <path fill-rule="evenodd" clip-rule="evenodd"
              d="M63.5646 118.502C63.9436 113.334 66.0222 105.542 69.8005 101.237C66.6079 102.262 63.4153 105.277 63.0479 108.891L63.5646 118.502Z"
              fill="#0C232D"/>
        <path fill-rule="evenodd" clip-rule="evenodd"
              d="M70.7189 75.9861C70.3284 77.8621 69.3063 79.531 67.8134 80.728C66.3664 81.902 64.5404 82.8457 62.7834 83.3982C59.4415 84.0772 58.1897 80.9236 60.5095 79.5655C62.657 78.311 63.1164 78.4606 65.2639 76.6881L66.9751 70.0011C68.5828 67.2849 72.3152 70.3119 70.7189 75.9861Z"
              fill="#E6E6E6"/>
        <path fill-rule="evenodd" clip-rule="evenodd"
              d="M60.9578 72.3722L60.7396 71.7391C60.7396 71.7391 61.4056 69.6444 60.9348 68.7812C60.9348 68.7812 58.3968 69.3336 57.9604 66.79C57.524 64.2464 57.0647 61.4957 58.0638 60.5864C59.0744 59.6772 64.7131 63.2566 64.7131 63.2566C64.7131 63.2566 65.1035 68.0446 66.3438 69.2761C67.5841 70.5076 66.1141 71.7391 66.1141 71.7391L60.9578 72.3722Z"
              fill="#FFC9B6"/>
        <path fill-rule="evenodd" clip-rule="evenodd"
              d="M59.763 63.8891C62.2896 62.3008 60.7851 66.2371 61.9221 67.0313C62.7834 70.1734 65.4017 70.4726 67.2622 67.7218C68.7551 66.3752 68.5714 63.3827 68.6517 61.6333C69.2259 56.7878 64.0926 52.7019 59.763 55.8785C59.3496 56.0397 58.1553 55.9131 57.7074 56.0166C54.8249 57.1906 57.1102 63.3712 59.4185 62.5195L59.763 63.8891Z"
              fill="#754C24"/>
        <path fill-rule="evenodd" clip-rule="evenodd"
              d="M47.6818 69.3446C48.3594 69.4251 49.4389 70.1042 49.7375 70.438L50.9893 68.5734C49.2781 67.0312 47.0502 63.6704 44.3974 64.6947C42.1924 66.1334 41.9053 67.5836 44.5467 65.9262C44.0414 66.5017 44.5811 67.6412 45.029 67.8138C45.2127 68.1361 45.764 68.677 46.143 68.2742C46.143 68.2627 47.2684 69.1144 47.6818 69.3446Z"
              fill="#FFC9B6"/>
        <path fill-rule="evenodd" clip-rule="evenodd"
              d="M42.1924 67.6756C43.892 67.7216 48.0722 64.637 48.2215 64.7291C48.7383 64.4529 48.2789 63.6472 47.7736 63.9465C47.7736 63.9465 44.7763 65.5693 43.1111 66.5937C42.8125 66.7088 42.0431 67.5489 42.1924 67.6756Z"
              fill="#414669"/>
        <path fill-rule="evenodd" clip-rule="evenodd"
              d="M45.7065 66.5945C45.3735 66.7326 43.2604 66.4909 43.5015 67.2045C43.9265 68.1713 45.718 67.4347 46.5908 67.8836L46.786 66.9628C46.4989 66.6521 46.1314 66.5255 45.7065 66.5945Z"
              fill="#FFC9B6"/>
        <path fill-rule="evenodd" clip-rule="evenodd"
              d="M48.9224 70.1625C49.2095 69.3568 49.7263 68.6087 50.7943 68.0332C54.3543 70.7725 58.9365 72.6485 63.3234 74.6972L57.478 79.5657C54.7563 76.2855 51.9427 73.1204 48.9224 70.1625Z"
              fill="#2535B5"/>
        <path fill-rule="evenodd" clip-rule="evenodd"
              d="M55.1235 93.2727L56.3294 81.9358C55.1465 78.8052 53.5502 72.4635 60.8426 70.5874C64.8621 72.567 65.5166 69.7242 68.158 69.1832C71.5458 69.0912 70.5122 79.116 70.3514 78.7592L68.4451 84.629C68.3532 85.4117 70.9257 90.7981 71.1209 91.8455C66.7799 94.7459 58.5458 95.1142 55.1235 93.2727Z"
              fill="#2C40D4"/>
        <path fill-rule="evenodd" clip-rule="evenodd"
              d="M58.948 78.8513L55.7669 83.8234L51.5867 87.8057C48.7616 89.7048 46.614 87.1382 48.2448 84.9974C49.7492 83.0178 51.8508 81.2223 53.16 78.7708L56.2837 73.3267C58.0752 71.4047 61.1644 71.842 60.5557 74.9381L58.948 78.8513Z"
              fill="#2535B5"/>
        <path fill-rule="evenodd" clip-rule="evenodd"
              d="M42.2502 88.7037L42.8589 91.6501C42.3421 91.8573 32.5002 95.2641 31.6274 91.3509C31.6274 91.3509 31.7997 90.879 32.2476 90.856C33.4879 91.0977 35.6124 91.2128 36.1407 89.7396C36.1407 88.5886 35.555 88.7382 35.6354 87.7369C35.934 87.3226 36.2555 87.7369 36.6575 88.1973C36.6575 88.1973 37.6107 89.4173 38.1619 89.7741C38.5179 90.0043 42.2502 88.7037 42.2502 88.7037Z"
              fill="#FFC9B6"/>
        <path fill-rule="evenodd" clip-rule="evenodd"
              d="M47.1652 90.4075L41.2968 92.8129C41.2968 92.8129 40.8145 90.3614 40.1714 88.8307L48.7845 84.3304C51.5292 83.5823 53.8719 85.7691 51.3914 87.9559L47.1652 90.4075Z"
              fill="#2535B5"/>
    </g>
    <defs>
        <clipPath id="clip0_219_6469">
            <rect width="78" height="156" fill="white"/>
        </clipPath>
    </defs>
</svg>
