<svg width="32" height="32" viewBox="0 0 32 32" fill="none" xmlns="http://www.w3.org/2000/svg">
    <path d="M16 32C24.8366 32 32 24.8366 32 16C32 7.16344 24.8366 0 16 0C7.16344 0 0 7.16344 0 16C0 24.8366 7.16344 32 16 32Z"
          fill="url(#paint0_linear_50_17572)"/>
    <path fill-rule="evenodd" clip-rule="evenodd"
          d="M7.24238 15.8319C11.9067 13.7997 15.017 12.46 16.5732 11.8127C21.0166 9.96461 21.9399 9.64355 22.5416 9.63292C22.674 9.63061 22.9699 9.66342 23.1616 9.81899C23.446 10.0497 23.4476 10.5506 23.4161 10.8821C23.1753 13.4121 22.1334 19.5517 21.6033 22.3853C21.379 23.5843 20.9374 23.9864 20.5099 24.0257C19.5808 24.1112 18.8752 23.4116 17.9753 22.8217C16.5671 21.8986 15.7715 21.324 14.4046 20.4232C12.8249 19.3822 13.8489 18.8101 14.7492 17.875C14.9848 17.6304 19.0786 13.9067 19.1579 13.5689C19.1678 13.5266 19.177 13.3691 19.0834 13.286C18.9899 13.2029 18.8518 13.2312 18.7522 13.2539C18.6109 13.2859 16.3613 14.7729 12.0033 17.7146C11.3648 18.1531 10.7864 18.3667 10.2682 18.3555C9.69688 18.3432 8.598 18.0325 7.78106 17.767C6.77906 17.4413 5.98269 17.269 6.05206 16.7159C6.08819 16.4277 6.48494 16.1331 7.24238 15.8319Z"
          fill="white"/>
    <defs>
        <linearGradient id="paint0_linear_50_17572" x1="16" y1="0" x2="16" y2="31.75" gradientUnits="userSpaceOnUse">
            <stop stop-color="#2AABEE"/>
            <stop offset="1" stop-color="#229ED9"/>
        </linearGradient>
    </defs>
</svg>
