<svg width="40" height="40" viewBox="0 0 40 40" fill="none" xmlns="http://www.w3.org/2000/svg">
    <path fill-rule="evenodd" clip-rule="evenodd"
          d="M15.2392 23.7416C15.4808 23.8416 15.7398 23.8929 16.0013 23.8926C16.2628 23.8928 16.5217 23.8414 16.7633 23.7414C17.0049 23.6414 17.2244 23.4947 17.4093 23.3098L18.3453 22.3736C18.7182 22.0001 18.9276 21.4938 18.9276 20.966C18.9276 20.8842 18.9225 20.8029 18.9126 20.7226C19.4154 20.5613 19.8719 20.2707 20.0986 20.1251C20.5691 19.8259 21.0892 19.4358 21.6284 18.9799C24.9987 22.9208 29.9904 28.4118 30.8708 29.2924C31.7908 30.2125 32.6562 30.6726 33.4602 30.6726C34.0749 30.6726 34.6536 30.4032 35.1949 29.8631C35.4269 29.6311 35.9109 29.147 35.9896 28.3615C36.0776 27.484 35.6176 26.5345 34.6242 25.5409C33.7513 24.6666 28.2661 19.6787 24.3123 16.2954C24.7654 15.7594 25.1535 15.242 25.452 14.7734L25.4522 14.7731C25.5979 14.544 25.8904 14.0841 26.0523 13.5783C26.1334 13.5883 26.2153 13.5933 26.2974 13.5932C26.5586 13.5937 26.8174 13.5426 27.0588 13.4428C27.3002 13.343 27.5195 13.1965 27.7041 13.0117L28.6401 12.0755C29.013 11.702 29.2224 11.1957 29.2224 10.6679C29.2224 10.1401 29.013 9.63382 28.6401 9.26027L23.9601 4.57932C23.5866 4.20642 23.0804 3.99698 22.5527 3.99698C22.025 3.99698 21.5188 4.20642 21.1454 4.57932L20.2094 5.51551C19.8366 5.88883 19.6272 6.39486 19.6272 6.92246C19.6272 7.00449 19.6323 7.08599 19.6422 7.16656C19.1371 7.32821 18.6775 7.62034 18.4479 7.76662C17.5786 8.32007 16.5399 9.18424 15.5252 10.2005C14.5119 11.214 13.6505 12.2515 13.0972 13.121L13.0967 13.1218C12.9518 13.35 12.6617 13.8069 12.5004 14.3099C12.4204 14.3001 12.3394 14.2951 12.2579 14.2951C11.7302 14.2951 11.224 14.5045 10.8506 14.8774L9.91454 15.8136C9.5372 16.1897 9.33053 16.6898 9.33053 17.2219C9.33053 17.754 9.5372 18.2541 9.91321 18.6288L14.5933 23.3098C14.7781 23.4948 14.9976 23.6416 15.2392 23.7416ZM18.3453 19.5584L13.7192 14.9314C13.7321 14.5319 14.5098 13.1018 16.4732 11.138C18.5133 9.09889 19.976 8.34007 20.2093 8.33074L24.836 12.957C24.8249 13.2915 24.2808 14.3445 22.9559 15.8285C22.9177 15.8576 22.8826 15.8908 22.8514 15.9276C22.8291 15.9539 22.8089 15.9818 22.791 16.0111C22.5748 16.2475 22.3394 16.4941 22.084 16.7498C21.8269 17.0068 21.579 17.2434 21.3415 17.4608C21.3137 17.478 21.2871 17.4974 21.262 17.5186C21.2257 17.5494 21.1928 17.584 21.1639 17.6216C19.6119 19.0108 18.5431 19.5504 18.3453 19.5584ZM22.6191 18.0873C26.1107 22.1727 31.0498 27.5857 31.8135 28.3495C33.3126 29.8516 33.8985 29.2701 34.248 28.9232L34.2495 28.9216L34.2518 28.9194C34.4116 28.7595 34.6297 28.5414 34.6602 28.2295C34.7056 27.7747 34.3655 27.1719 33.6789 26.4838C32.9216 25.7251 27.5181 20.7922 23.4199 17.2863C23.2887 17.4237 23.1544 17.561 23.0173 17.698C22.8849 17.8305 22.752 17.9604 22.6191 18.0873ZM12.7187 15.8178C12.5956 15.6968 12.43 15.6287 12.2572 15.6282C12.0827 15.6287 11.9154 15.6983 11.7919 15.8216L10.8572 16.7565C10.7954 16.8172 10.7463 16.8896 10.7127 16.9695C10.6792 17.0494 10.6619 17.1352 10.6619 17.2219C10.6619 17.3086 10.6792 17.3944 10.7127 17.4743C10.7463 17.5542 10.7954 17.6266 10.8572 17.6873L15.5373 22.3683C15.6609 22.4908 15.8279 22.5596 16.002 22.5596C16.176 22.5596 16.343 22.4908 16.4666 22.3683L17.4026 21.4321C17.5255 21.3086 17.5945 21.1415 17.5945 20.9673C17.5945 20.7938 17.5261 20.6274 17.4042 20.5041C17.4032 20.5031 17.4022 20.5022 17.4013 20.5012L12.7212 15.8203C12.7204 15.8194 12.7195 15.8186 12.7187 15.8178ZM22.088 5.52351C22.2117 5.40052 22.379 5.33148 22.5534 5.33147C22.6396 5.33129 22.7249 5.34816 22.8046 5.38112C22.8842 5.41408 22.9565 5.46247 23.0174 5.52351L27.6975 10.2045C27.8203 10.3279 27.8893 10.495 27.8893 10.6692C27.8893 10.8434 27.8203 11.0105 27.6975 11.134L26.7614 12.0688C26.6377 12.1911 26.4707 12.2596 26.2968 12.2596C26.1228 12.2596 25.9559 12.1911 25.8321 12.0688L21.152 7.38789C21.0292 7.26466 20.9603 7.09777 20.9603 6.9238C20.9603 6.74982 21.0292 6.58293 21.152 6.4597L22.088 5.52351ZM5.9971 36.003H20.664C21.7667 36.003 22.664 35.1055 22.664 34.0026V32.669C22.664 31.5661 21.7667 30.6686 20.664 30.6686H5.9971C4.89442 30.6686 3.99707 31.5661 3.99707 32.669V34.0026C3.99707 35.1055 4.89442 36.003 5.9971 36.003ZM5.52569 32.1975C5.65071 32.0725 5.82028 32.0022 5.9971 32.0022H20.664C20.8408 32.0022 21.0104 32.0725 21.1354 32.1975C21.2604 32.3226 21.3306 32.4922 21.3306 32.669V34.0026C21.3306 34.1795 21.2604 34.3491 21.1354 34.4741C21.0104 34.5992 20.8408 34.6694 20.664 34.6694H5.9971C5.82028 34.6694 5.65071 34.5992 5.52569 34.4741C5.40066 34.3491 5.33042 34.1795 5.33042 34.0026V32.669C5.33042 32.4922 5.40066 32.3226 5.52569 32.1975Z"
          fill="#231F20"/>
</svg>
