<svg width="40" height="40" viewBox="0 0 40 40" fill="none" xmlns="http://www.w3.org/2000/svg">
<path fill-rule="evenodd" clip-rule="evenodd" d="M30.9203 20.2584L36.5379 26.3758C36.7551 26.6124 36.8751 26.9187 36.875 27.2361V32.8277C36.8747 33.1699 36.7351 33.4981 36.4868 33.7401C36.2385 33.9822 35.9019 34.1184 35.5507 34.1188H32.6076C32.5457 34.8695 32.196 35.5699 31.6281 36.0807C31.0602 36.5914 30.3157 36.875 29.5429 36.875C28.7701 36.875 28.0257 36.5914 27.4578 36.0807C26.8898 35.5699 26.5401 34.8695 26.4782 34.1188H12.8155C12.7536 34.8695 12.4039 35.5699 11.836 36.0807C11.268 36.5914 10.5236 36.875 9.75078 36.875C8.97798 36.875 8.23352 36.5914 7.66561 36.0807C7.09769 35.5699 6.74798 34.8695 6.68608 34.1188H4.44929C4.09811 34.1184 3.76146 33.9822 3.5132 33.7401C3.26494 33.4981 3.12533 33.1699 3.125 32.8277V16.9849C3.12549 16.6428 3.26519 16.3149 3.51346 16.0731C3.76172 15.8313 4.09828 15.6953 4.44929 15.695H8.83026C7.88196 13.7264 7.1769 11.7314 7.1769 10.1286C7.1769 6.26734 10.2354 3.125 13.9922 3.125C17.749 3.125 20.8063 6.26674 20.8063 10.128C20.8063 11.7308 20.1019 13.7264 19.1529 15.6944H23.5345C23.8854 15.6948 24.2218 15.8309 24.47 16.0727C24.7181 16.3145 24.8577 16.6423 24.8582 16.9843V19.836C24.87 19.8351 24.8816 19.8335 24.8932 19.8319C24.9113 19.8295 24.9295 19.827 24.9483 19.827H29.9337C30.1201 19.827 30.3044 19.8655 30.4744 19.9398C30.6444 20.0142 30.7964 20.1227 30.9203 20.2584ZM29.8961 26.0268H34.561L32.5033 23.7864H29.8961C29.8724 23.7864 29.8498 23.7955 29.833 23.8117C29.8162 23.8279 29.8067 23.85 29.8066 23.873V25.9396C29.8067 25.9627 29.8162 25.9848 29.833 26.0011C29.8497 26.0174 29.8724 26.0267 29.8961 26.0268ZM19.5715 10.1292C19.5715 6.93094 17.0687 4.32947 13.9922 4.32947C10.9152 4.32947 8.41167 6.93094 8.41167 10.1292C8.41167 12.993 11.2714 18.0456 13.9916 21.8864C16.7124 18.0456 19.5715 12.993 19.5715 10.1292ZM8.71938 35.3662C9.02453 35.5649 9.38327 35.671 9.75027 35.6711C10.2426 35.6707 10.7146 35.48 11.0628 35.1409C11.4109 34.8017 11.6068 34.3417 11.6073 33.8619C11.6073 33.5041 11.4984 33.1544 11.2944 32.8568C11.0904 32.5593 10.8005 32.3275 10.4612 32.1905C10.122 32.0536 9.74872 32.0178 9.3886 32.0876C9.02848 32.1574 8.69769 32.3297 8.43805 32.5827C8.17842 32.8357 8.00161 33.1581 7.92998 33.509C7.85834 33.8599 7.89511 34.2237 8.03562 34.5543C8.17613 34.8848 8.41408 35.1674 8.71938 35.3662ZM12.6716 32.9156H23.6234V16.9855C23.6234 16.9625 23.6141 16.9405 23.5974 16.9242C23.5807 16.908 23.5581 16.8988 23.5345 16.8988H18.5461C17.4509 18.9183 16.2284 20.8698 14.8856 22.7419C14.786 22.8834 14.6526 22.9991 14.4968 23.079C14.341 23.159 14.1676 23.2007 13.9916 23.2007C13.8156 23.2007 13.6422 23.159 13.4864 23.079C13.3307 22.9991 13.1972 22.8834 13.0976 22.7419C11.7549 20.8698 10.5326 18.9184 9.43777 16.8988H4.44929C4.43757 16.8988 4.42594 16.9009 4.41508 16.9053C4.40422 16.9096 4.39435 16.9159 4.38603 16.924C4.37771 16.932 4.3711 16.9416 4.3666 16.9522C4.36209 16.9627 4.35977 16.974 4.35977 16.9855V32.8283C4.35977 32.8398 4.36209 32.8511 4.36659 32.8617C4.37108 32.8723 4.37768 32.8819 4.38599 32.89C4.3943 32.8981 4.40417 32.9045 4.41503 32.9089C4.4259 32.9133 4.43754 32.9156 4.44929 32.9156H6.83117C7.03173 32.3148 7.42227 31.7913 7.94683 31.42C8.4714 31.0488 9.10308 30.8488 9.7514 30.8488C10.3997 30.8488 11.0314 31.0488 11.556 31.42C12.0805 31.7913 12.4711 32.3148 12.6716 32.9156ZM28.5111 35.3659C28.8163 35.5647 29.1752 35.6709 29.5423 35.6711C30.0346 35.6707 30.5067 35.48 30.8549 35.1409C31.2031 34.8017 31.3989 34.3417 31.3994 33.8619C31.3994 33.5042 31.2905 33.1544 31.0866 32.8569C30.8826 32.5594 30.5927 32.3275 30.2535 32.1906C29.9143 32.0536 29.5411 32.0178 29.181 32.0875C28.8209 32.1573 28.4901 32.3295 28.2304 32.5825C27.9708 32.8354 27.7939 33.1577 27.7222 33.5086C27.6505 33.8595 27.6872 34.2233 27.8276 34.5538C27.968 34.8844 28.2059 35.167 28.5111 35.3659ZM35.6337 32.8618C35.6381 32.8511 35.6403 32.8398 35.6402 32.8283L35.6408 27.2373L35.6384 27.2313H29.8967C29.5455 27.2308 29.2089 27.0946 28.9606 26.8526C28.7123 26.6106 28.5727 26.2824 28.5724 25.9402V23.8742C28.5729 23.5321 28.7126 23.2041 28.9608 22.9622C29.2091 22.7203 29.5456 22.5842 29.8967 22.5837H31.3988L30.0004 21.0609C29.9922 21.0518 29.982 21.0444 29.9706 21.0393C29.9592 21.0342 29.9469 21.0316 29.9344 21.0315H24.949C24.9372 21.0314 24.9255 21.0336 24.9147 21.0379C24.9038 21.0422 24.8939 21.0485 24.8855 21.0566C24.8771 21.0646 24.8704 21.0742 24.8659 21.0848C24.8613 21.0953 24.8589 21.1066 24.8588 21.1181V32.9162H26.6221C26.8226 32.3154 27.2132 31.7919 27.7377 31.4206C28.2623 31.0494 28.894 30.8494 29.5423 30.8494C30.1906 30.8494 30.8223 31.0494 31.3469 31.4206C31.8714 31.7919 32.262 32.3154 32.4625 32.9162H35.5513C35.5631 32.9161 35.5747 32.9138 35.5855 32.9093C35.5964 32.9048 35.6062 32.8983 35.6144 32.8902C35.6227 32.882 35.6292 32.8724 35.6337 32.8618ZM16.9206 8.40265C17.2984 8.96796 17.5 9.6326 17.5 10.3125C17.499 11.2238 17.1367 12.0974 16.4924 12.7419C15.8481 13.3863 14.9745 13.7489 14.0632 13.75C13.3833 13.7501 12.7186 13.5487 12.1533 13.171C11.5879 12.7934 11.1472 12.2566 10.8869 11.6285C10.6266 11.0004 10.5584 10.3092 10.691 9.64232C10.8235 8.97546 11.1509 8.36289 11.6316 7.88208C12.1123 7.40126 12.7248 7.0738 13.3916 6.94111C14.0584 6.80841 14.7496 6.87644 15.3778 7.1366C16.006 7.39675 16.5429 7.83734 16.9206 8.40265ZM12.4042 9.20456C12.1851 9.53251 12.0681 9.91808 12.0681 10.3125C12.0689 10.8413 12.2793 11.3483 12.6534 11.7222C13.0274 12.096 13.5344 12.3063 14.0632 12.3069C14.4576 12.3067 14.8432 12.1897 15.171 11.9704C15.4989 11.7512 15.7544 11.4397 15.9053 11.0752C16.0561 10.7108 16.0955 10.3098 16.0185 9.92297C15.9414 9.53615 15.7514 9.18085 15.4725 8.902C15.1935 8.62316 14.8382 8.43328 14.4513 8.35639C14.0645 8.27949 13.6635 8.31903 13.2991 8.47C12.9347 8.62097 12.6233 8.8766 12.4042 9.20456Z" fill="#231F20"/>
</svg>
