<svg width="59" height="44" viewBox="0 0 59 44" fill="none" xmlns="http://www.w3.org/2000/svg">
<path fill-rule="evenodd" clip-rule="evenodd" d="M5.01544 12.1216L9.31462 9.64507V7.0381C9.31462 6.79387 9.44456 6.54964 9.6886 6.41917L14.7342 3.45421C14.9782 3.32375 15.2206 3.32375 15.3506 3.45421L20.3977 6.41917C20.4706 6.45815 20.5324 6.50668 20.5847 6.56237C20.6243 6.60533 20.6592 6.65306 20.6861 6.70318C20.7432 6.80739 20.7717 6.92275 20.7717 7.0381V7.65782L24.7143 10.1343L29.6315 7.28312L17.0557 0L0.584739 9.53131L1.07123 9.77554L5.01544 12.1216ZM39.7084 3.37227L47.2212 7.67373C46.3338 8.16617 46.6 7.99831 46.8504 7.84C47.2006 7.61884 47.5207 7.41757 44.6081 9.0691C42.3706 10.3388 38.2251 12.7031 30.7186 16.9926C31.0752 17.2377 23.0916 12.692 22.9617 12.5774C29.4842 8.78191 34.1747 6.07709 39.3344 3.12804C39.3344 3.12804 39.4643 3.12804 39.7084 3.37227ZM34.8878 18.248L47.5619 10.867C48.3083 11.6005 48.9073 12.7087 49.0373 13.7023L49.5253 18.2639L37.0953 25.5303L36.7213 22.337C36.5929 21.4866 36.3378 20.6831 35.9607 19.921C35.6738 19.3403 35.3157 18.7834 34.8878 18.248ZM35.2618 28.3489C35.2618 28.5939 35.3918 28.7236 35.6342 28.8381C35.7642 28.9686 36.0082 28.9686 36.1207 28.8381C54.9449 17.8733 50.3842 20.4636 51.1306 20.0889L51.747 19.7142C51.8278 19.6704 51.8817 19.6147 51.9182 19.5503C51.9705 19.458 51.9847 19.3474 51.9895 19.2329L51.9911 19.0952L51.2447 13.4255C50.8723 11.4541 49.5253 9.36822 47.9185 8.3746C47.7885 8.24413 47.5445 8.24413 47.3021 8.3746C46.1563 9.05239 42.5814 11.1256 39.0729 13.1462C36.1698 14.8184 33.3143 16.4556 31.9182 17.2377L31.6757 17.3514C31.5458 17.4819 31.4317 17.5964 31.4317 17.8407C31.4317 18.0849 31.5616 18.2154 31.6757 18.3291C33.0227 19.0626 34.1415 20.9194 34.498 22.5168L34.872 25.3513L34.9148 25.7101L35.013 26.4945C35.1255 27.3752 35.2618 28.4277 35.2618 28.3489ZM33.2651 41.4975C31.7882 41.4975 30.5554 39.624 30.5554 38.1411C30.5554 36.7728 31.6599 36.0226 33.0227 36.7728C33.4791 37.0711 33.9291 37.5652 34.2667 38.1316C34.4806 38.4912 34.6486 38.8794 34.7421 39.2652C34.872 40.7481 34.1415 41.4975 33.2651 41.4975ZM36.1049 39.8842C35.6184 38.0274 34.3855 36.0226 33.0227 34.9152C31.5458 33.6766 29.6965 33.4165 29.0785 35.2899C28.3321 37.5222 30.0689 41.7576 32.8928 43.5015C35.6184 44.9835 36.8354 42.9796 36.1049 39.8842ZM8.72988 27.2574C7.36708 27.2574 6.00269 25.3998 6.00269 23.9337C6.00269 22.5813 7.12304 21.8319 8.47 22.5813C9.21637 23.0697 9.9469 24.0641 10.2068 25.0411C10.4651 26.3935 9.71871 27.2574 8.72988 27.2574ZM11.3256 24.7968C10.7091 23.0697 9.34632 21.2289 7.73947 20.3657C5.89018 19.2575 4.28333 19.991 4.28333 22.337C4.28333 24.9273 6.13263 28.0068 8.3559 29.3751C11.4555 30.9559 12.6884 28.1206 11.3256 24.7968ZM13.9355 8.60689C12.8421 7.97365 11.3636 7.11765 11.2939 7.0381L15.0907 4.78992L18.8875 7.0381C19.0444 6.95377 17.474 7.85909 16.303 8.54803C15.6596 8.9267 15.1367 9.24014 15.0907 9.28628C15.1858 9.33083 14.6407 9.015 13.9355 8.60689ZM14.4093 13.9791L10.5316 11.731V8.11366C10.4191 8.06434 11.1164 8.46052 11.9499 8.93386C13.0291 9.54642 14.3364 10.2887 14.4093 10.3626V13.9791ZM35.8291 29.9622L36.6896 30.5812L39.0254 32.0632C40.3723 32.9272 41.3628 34.0354 41.9792 35.387L58.7084 25.6608C58.5912 25.4229 58.4723 25.1548 58.3249 24.8859C58.2853 24.8159 58.2457 24.7459 58.2029 24.6759L58.13 24.5637C58.0143 24.3895 57.8796 24.2201 57.7196 24.0641C56.8591 22.956 55.8687 22.7117 53.0464 20.8542C52.8024 20.7237 52.5584 20.4795 52.43 20.2352L35.8291 29.9622ZM19.5689 11.731L15.7721 13.9791V10.3618L19.5689 8.11366V11.731ZM32.4617 29.7467C32.4316 29.7538 32.4015 29.7594 32.3714 29.7626C32.2256 29.7785 32.0798 29.7467 31.934 29.6687L23.3341 24.6019C23.0916 24.4715 22.9617 24.2272 22.9617 23.983V17.3188C22.9617 17.0746 23.0742 16.8303 23.3341 16.6999C23.5781 16.5694 23.8206 16.5694 23.9505 16.6999C24.2453 16.8836 24.8966 17.275 25.6762 17.7436C26.4923 18.2337 27.4495 18.8088 28.2846 19.3188C29.3368 19.9616 30.1973 20.5025 30.3446 20.6425L30.4524 20.7619C30.5269 20.8462 30.5871 20.9273 30.5871 21.0172L32.7945 28.9193C32.9086 29.1635 32.9086 29.5382 32.6646 29.6687C32.6392 29.683 32.6123 29.6949 32.5853 29.7061C32.5441 29.7236 32.5029 29.7371 32.4617 29.7467ZM33.8816 26.4595L33.5092 23.2495C33.1352 21.3919 31.9182 19.3068 30.3113 18.4429C30.267 18.3991 29.2084 17.7738 27.8504 16.9815L24.9726 15.3077C23.1249 14.2369 21.572 13.3435 21.8413 13.5066C21.5973 13.3761 21.469 13.3761 21.469 13.7508V22.0276C21.469 22.0737 21.469 22.1016 21.461 22.1262C21.4499 22.1628 21.423 22.1946 21.3549 22.2718C21.3549 22.4023 21.2249 22.516 21.1108 22.516C20.8684 22.6465 20.6243 22.6465 20.4944 22.516C14.8482 19.2901 4.67316 13.3761 0 10.6554V19.0459L3.31035 20.9035C3.92678 18.5574 6.00427 17.6935 8.47 19.0459C10.9215 20.5288 12.8849 23.6083 13.1432 26.4428L27.8773 34.9638C27.8773 34.9065 27.8773 34.8747 27.8884 34.8468C27.9027 34.811 27.9344 34.7832 28.0073 34.7195C28.6237 32.6177 30.7012 31.7546 33.1685 33.1062C35.1319 34.2144 37.0953 36.8046 37.5818 39.5262C37.6959 39.9009 37.6959 40.2589 37.6959 40.5198L41.3786 42.6216V37.4403C41.3786 35.3385 40.2757 33.7418 38.5547 32.6344C38.4723 32.5525 37.1285 31.7395 36.2063 31.1818L35.4219 30.7061C35.3537 30.6631 35.3284 30.6464 35.3585 30.6623C35.1097 30.5374 34.891 30.2813 34.7183 29.9957C34.6533 29.8883 34.5963 29.7769 34.5456 29.6663C34.5044 29.5756 34.4679 29.4857 34.4378 29.3998C34.4093 29.3234 34.3855 29.2494 34.3681 29.1802L33.8816 26.4595ZM54.4568 32.8787C54.4568 33.7259 55.0732 33.9869 55.8037 33.6114C56.5501 33.2367 57.0366 32.2597 56.9241 31.3958C56.9241 30.8524 56.7244 30.5541 56.3948 30.5016C56.36 30.496 56.3251 30.4929 56.2887 30.4929C56.2522 30.4929 56.2142 30.4952 56.1761 30.5C56.0304 30.5183 55.8671 30.5724 55.6897 30.6631C55.0732 31.0211 54.4568 32.0147 54.4568 32.8787ZM44.3958 38.4347C44.3958 39.5421 45.2563 39.9009 45.9868 39.4116C46.3703 39.1793 46.7031 38.7577 46.8995 38.2971C47.02 38.0154 47.0897 37.7187 47.0897 37.4403C47.0897 37.1252 47.0136 36.8611 46.8821 36.6646C46.7696 36.496 46.6159 36.3758 46.4352 36.3154C46.3719 36.2947 46.3053 36.2812 46.2356 36.2748C46.0945 36.2621 45.9408 36.2812 45.7792 36.3353C45.6889 36.3663 45.5954 36.4085 45.5003 36.4626C45.158 36.6718 44.8553 37.0314 44.6541 37.4355C44.4925 37.7585 44.3958 38.1093 44.3958 38.4347ZM42.5465 36.6909L59 27.0784V27.4531V33.4976L42.6764 43.1101V37.9295C42.6764 37.5548 42.6764 37.0656 42.5465 36.6909ZM43.586 16.178L46.3275 17.645C46.4051 17.6863 46.497 17.7015 46.589 17.6951C46.7839 17.6808 46.9851 17.567 47.0739 17.3999C47.1404 17.2743 47.1388 17.1143 47.0881 16.9735C47.0406 16.8399 46.9487 16.7229 46.8314 16.6673L44.2183 15.2011C44.0678 15.1207 43.8697 15.139 43.708 15.2226C43.6082 15.2743 43.5226 15.3514 43.4719 15.4453C43.212 15.6895 43.342 16.0483 43.586 16.178ZM46.5557 15.2989L45.4686 14.6959C45.2246 14.5822 45.0946 14.2075 45.2246 13.9791C45.3165 13.7834 45.5637 13.6705 45.7855 13.6935C45.8394 13.6991 45.8917 13.7126 45.9392 13.7349L47.0263 14.3379C47.2704 14.4517 47.3829 14.8105 47.2704 15.0547C47.1563 15.2989 46.7997 15.4127 46.5557 15.2989Z" fill="#0D9B1B"/>
</svg>
