<svg width="24" height="44" viewBox="0 0 24 44" fill="none" xmlns="http://www.w3.org/2000/svg">
    <path fill-rule="evenodd" clip-rule="evenodd"
          d="M5.24355 21.1266L4.2893 20.5749C2.76807 19.7475 1.9135 17.9309 1.9135 15.5462C1.9135 8.48944 10.4478 -2.76865 16.3203 0.621527L17.2745 1.17322C14.9151 1.35184 12.5393 2.82792 10.8318 4.46637C7.23537 7.75952 4.57525 13.0804 4.57525 17.5578C4.57525 18.5633 4.67492 19.5693 4.95924 20.3967V20.4937C5.00172 20.5713 5.04257 20.6668 5.08342 20.765L5.10629 20.8208C5.15041 20.9309 5.19453 21.0402 5.24355 21.1266ZM13.2419 16.1463V14.2159C13.1798 14.2159 13.1177 14.2104 13.0556 14.1997C12.9543 14.1819 12.8546 14.1506 12.7615 14.1058C12.5981 14.0282 12.451 13.911 12.3383 13.7597C12.1945 13.568 12.1046 13.3216 12.1046 13.0317C12.1046 12.2044 12.6733 11.1984 13.4249 10.7445C13.5507 10.6661 13.6569 10.6222 13.7598 10.5976C13.8252 10.5822 13.8889 10.5742 13.9559 10.5703C14.0246 10.5659 14.0981 10.5659 14.1781 10.5659H14.2795L15.4167 8.83004C15.4772 8.77103 15.5491 8.72073 15.6259 8.6835C15.6798 8.65697 15.737 8.63717 15.7942 8.62528C15.8971 8.6039 16 8.60984 16.0866 8.65182C16.2696 8.83004 16.3709 9.10609 16.2696 9.28431L15.1324 11.0202C15.6013 11.8475 15.0327 13.1292 14.1781 13.7616V16.13C14.1781 16.2108 14.1618 16.2833 14.1324 16.3455C14.0981 16.4195 14.0442 16.4785 13.9739 16.5193C13.902 16.5613 13.8121 16.5843 13.7108 16.5843C13.4249 16.5843 13.2419 16.4061 13.2419 16.1463ZM13.9102 18.1416V18.8715C15.2321 17.9633 16.3709 16.6817 17.3236 15.3027L16.6553 14.9296C16.3709 14.8646 16.3709 14.4916 16.4706 14.3133C16.5719 14.0373 16.9396 14.0373 17.1406 14.1347L17.8089 14.5078C18.6634 13.048 19.232 11.4907 19.5164 10.0305L18.9477 10.3065C18.6634 10.4035 18.3791 10.4035 18.2778 10.1279C18.1781 9.85224 18.1781 9.5762 18.4624 9.47917L19.6994 8.84628V8.37577C19.6994 8.22607 19.6945 8.04943 19.6814 7.85616C19.6683 7.67279 19.6454 7.47436 19.6095 7.26961C19.4984 6.64029 19.2582 5.95195 18.7468 5.4561L18.1781 6.46167C18.1193 6.62286 17.969 6.68979 17.8138 6.69811C17.7026 6.70405 17.5915 6.68068 17.5082 6.64029C17.2239 6.54286 17.2239 6.18602 17.3236 6.0074L17.9935 4.9044C17.7435 4.81965 17.4821 4.78084 17.2174 4.77767C16.3677 4.76816 15.4788 5.12896 14.7647 5.53689V6.81851C14.7647 6.98802 14.6961 7.12109 14.5752 7.19792C14.5 7.24624 14.4053 7.27278 14.2958 7.27278C14.0115 7.27278 13.8105 7.09455 13.8105 6.81851V6.18602C12.3889 7.19159 11.1504 8.55439 10.1128 10.2091L10.7827 10.5822C10.9429 10.6372 11.0131 10.7746 11.0246 10.916C11.0344 11.0253 11.0099 11.137 10.9657 11.2147C10.9494 11.2582 10.9265 11.2947 10.9004 11.3252C10.8399 11.3937 10.7533 11.4309 10.6618 11.4455C10.5916 11.4562 10.5197 11.4539 10.451 11.4416C10.3955 11.4317 10.3416 11.4147 10.2974 11.3933L9.62751 11.0202C8.87425 12.3988 8.38896 13.8591 8.12099 15.2215L8.69124 14.8484C8.89059 14.7676 9.25987 14.7676 9.35954 15.0433C9.38242 15.1043 9.40039 15.1652 9.4102 15.2243C9.42 15.2793 9.42327 15.3324 9.42 15.3819C9.40856 15.5193 9.33993 15.6294 9.17654 15.6758L7.93798 16.4061V16.6817C7.93798 17.5091 8.03765 18.9689 9.07523 19.78L9.82849 18.5958C9.83503 18.5744 9.84483 18.555 9.85464 18.5368C9.87098 18.5099 9.89059 18.4865 9.91183 18.4663C9.93307 18.4469 9.95595 18.4307 9.98045 18.4168L10.018 18.3982C10.0344 18.3903 10.0523 18.3839 10.072 18.3788C10.1504 18.357 10.2354 18.3538 10.3154 18.3645C10.3824 18.3736 10.4445 18.3923 10.4968 18.4176C10.6798 18.4798 10.7452 18.6481 10.7419 18.8077C10.7419 18.8497 10.737 18.8909 10.7272 18.9297C10.7174 18.9744 10.701 19.0156 10.6814 19.0501L10.0131 20.1531C10.1961 20.1531 10.3971 20.2505 10.5818 20.2505C11.0687 20.2505 11.5572 20.1349 12.1014 19.9293C12.3955 19.818 12.7059 19.6802 13.0409 19.5206V18.1416C13.0409 17.8659 13.2255 17.6873 13.5099 17.6873C13.7108 17.6065 13.9102 17.8821 13.9102 18.1416ZM4.72558 39.5389V43.9026L9.14222 41.5342V37.0893L4.72558 39.5389ZM19.5834 31.5573L24 29.1078V33.4714L19.683 35.921L19.5834 31.5573ZM0.00664276 37.4949V41.891L3.72068 44V39.6035C3.64878 39.5278 3.04421 39.1631 2.3416 38.7567C1.23866 38.1175 -0.106102 37.3757 0.00664276 37.4949ZM7.03439 16.7304C7.03439 14.8971 7.60301 12.6099 8.9249 10.2091V10.1279C10.2468 7.9215 12.054 5.90997 14.0278 4.80697C14.3105 4.65648 14.5932 4.51944 14.8742 4.39984L15.0458 4.32894C15.737 4.05092 16.4167 3.8822 17.0572 3.8822C19.4151 3.8822 20.5539 5.99116 20.5539 8.37577C20.5539 12.6911 17.3415 18.0928 13.4592 20.2992C12.4216 20.8509 11.384 21.224 10.4314 21.224C8.07197 21.224 7.03439 19.115 7.03439 16.7304ZM19.9003 26.2689V23.706C19.9003 23.5274 19.8007 23.3326 19.616 23.2518C19.433 23.1543 19.232 23.1543 19.1487 23.2518L12.5229 26.918V22.4244L12.75 22.3219C13.0278 22.1979 13.268 22.0914 13.5589 21.8727C18.2778 19.2125 22.1601 12.7882 22.1601 7.46763C22.1601 4.62875 20.9379 2.04928 18.0932 1.87067C15.634 1.69244 13.0916 3.3309 11.2844 4.98559C7.97066 8.10012 5.42819 13.0642 5.42819 17.3629C5.42819 18.2877 5.52786 19.0988 5.81217 19.845V19.9424C6.66674 22.5056 8.84157 23.5274 11.4853 22.7813V27.4531L4.49028 31.4924C4.38407 31.5439 4.30728 31.6179 4.25662 31.7047C4.21251 31.7827 4.18963 31.871 4.18963 31.9629V34.6235L0.508274 36.6351L4.18963 38.7436L8.53928 36.262L5.04257 34.3312V32.2227L18.7468 24.5172V26.7231L15.25 28.6535L18.9477 30.7625L23.2974 28.2804L19.9003 26.2689ZM14.9657 29.4971L17.4412 30.8599L18.6798 31.5736V35.921L14.9657 33.8449V29.4971Z"
          fill="#7C7E87"/>
</svg>
