<svg width="360" height="283" viewBox="0 0 360 283" fill="none" xmlns="http://www.w3.org/2000/svg">
<g clip-path="url(#clip0_463_875)">
<path d="M39.5996 48.7698H103.083V49.8695H39.5996" fill="url(#paint0_linear_463_875)"/>
<path d="M0 110.355H78.5854V111.455H0" fill="url(#paint1_linear_463_875)"/>
<path d="M328.917 49.8695H265.434V48.7698H328.917" fill="url(#paint2_linear_463_875)"/>
<path d="M360.513 111.455H273.337V110.355H360.513" fill="url(#paint3_linear_463_875)"/>
<path d="M33.98 175.768H103.053V173.612H33.98" fill="url(#paint4_linear_463_875)"/>
<path d="M328.888 173.613H259.814V175.768H328.888" fill="url(#paint5_linear_463_875)"/>
<path fill-rule="evenodd" clip-rule="evenodd" d="M85.4053 111.074C85.4053 57.1134 129.059 13.373 182.913 13.373C236.766 13.373 280.42 57.1134 280.42 111.074C280.42 165.035 236.766 208.775 182.913 208.775C129.074 208.775 85.4053 165.035 85.4053 111.074Z" fill="white"/>
<path d="M182.913 208.775C236.764 208.775 280.42 165.033 280.42 111.074C280.42 57.1153 236.764 13.373 182.913 13.373C129.061 13.373 85.4053 57.1153 85.4053 111.074C85.4053 165.033 129.061 208.775 182.913 208.775Z" stroke="#0D9B1B" stroke-width="0.5" stroke-miterlimit="8"/>
<path fill-rule="evenodd" clip-rule="evenodd" d="M172.259 207.792C175.464 205.945 179.415 205.945 182.605 207.792L244.317 243.395C245.298 243.952 245.298 245.36 244.317 245.917L182.093 281.9C179.268 283.543 175.771 283.543 172.961 281.9L110.634 245.946C109.654 245.389 109.654 243.981 110.634 243.424L172.259 207.792Z" fill="black"/>
<mask id="mask0_463_875" style="mask-type:luminance" maskUnits="userSpaceOnUse" x="109" y="206" width="137" height="78">
<path d="M172.258 207.792L110.648 243.424C109.668 243.981 109.668 245.389 110.648 245.946L172.961 281.886C175.785 283.528 179.268 283.528 182.092 281.886L244.317 245.902C245.297 245.345 245.297 243.937 244.317 243.38L182.619 207.778C181.009 206.854 179.224 206.399 177.439 206.399C175.639 206.399 173.853 206.869 172.258 207.792Z" fill="white"/>
</mask>
<g mask="url(#mask0_463_875)">
<path d="M245.282 206.399H109.667V283.528H245.282V206.399Z" fill="url(#paint6_linear_463_875)"/>
</g>
<path fill-rule="evenodd" clip-rule="evenodd" d="M110.634 244.553L172.946 280.463C175.771 282.106 179.254 282.106 182.078 280.463L244.302 244.524C244.551 244.377 244.712 244.201 244.844 243.981C245.21 244.641 245.034 245.536 244.302 245.961L182.078 281.9C179.254 283.543 175.771 283.543 172.946 281.9L110.634 245.99C109.902 245.565 109.727 244.67 110.093 244.011C110.21 244.216 110.385 244.406 110.634 244.553Z" fill="#0D9B1B"/>
<path opacity="0.2" fill-rule="evenodd" clip-rule="evenodd" d="M211.507 244.758C211.507 255.594 196.288 264.378 177.527 264.378C158.766 264.378 143.546 255.594 143.546 244.758C143.546 233.922 158.766 225.139 177.527 225.139C196.288 225.139 211.507 233.922 211.507 244.758Z" fill="#180D5B"/>
<path fill-rule="evenodd" clip-rule="evenodd" d="M207.015 26.995C207.015 26.995 205.229 13.8715 197.093 13.3436C188.971 12.8157 188.049 16.1149 188.049 16.1149C188.049 16.1149 193.932 27.6842 200.693 30.5142C207.454 33.3295 207.015 26.995 207.015 26.995Z" fill="#E6A376"/>
<path fill-rule="evenodd" clip-rule="evenodd" d="M185.166 47.4502C186.819 48.9166 218.283 75.7209 227.166 75.8382C227.166 75.8382 235.39 68.3307 234.322 66.2778C225.922 50.3389 202.815 39.6494 194.824 36.7021C188.883 34.5173 187.493 37.9338 187.185 39.2095C186.044 45.9399 182.297 44.9282 185.166 47.4502Z" fill="#2535B5"/>
<path fill-rule="evenodd" clip-rule="evenodd" d="M198.19 30.5288C203.327 41.9222 215.034 66.4244 221.239 72.5829C229.244 80.4864 237.688 72.6856 233.297 63.0372C231.878 59.8846 229.419 52.8023 208.375 24.341C208.244 24.1503 206.912 24.4583 205.785 24.9861C204.366 25.646 202.449 26.7311 200.678 27.7868C198.146 29.2971 198.058 30.3382 198.19 30.5288Z" fill="#091BAD"/>
<path d="M190.499 15.442L185.018 23.5522L199.268 33.2209L204.749 25.1106L190.499 15.442Z" fill="#0A2222"/>
<path d="M191.919 18.2727L188.186 23.7969L197.868 30.366L201.601 24.8418L191.919 18.2727Z" fill="#232A65"/>
<path fill-rule="evenodd" clip-rule="evenodd" d="M178.815 220.667C178.815 220.667 173.254 226.488 177.366 230.33C181.478 234.171 185.43 235.887 187.537 239.098C189.659 242.309 199.61 246.664 203.971 241.782C203.971 241.782 205.888 236.708 198.674 231.151C191.43 225.593 190.771 221.972 189.03 219.552C187.288 217.162 178.83 220.667 178.83 220.667H178.815Z" fill="#1B1B1B"/>
<path fill-rule="evenodd" clip-rule="evenodd" d="M201.132 105.003C201.132 105.003 206.488 116.763 200.181 160.401C194.766 197.91 192.747 220.506 193.127 223.849C193.127 223.849 185.708 230.697 177.703 224.45C172.098 220.08 178.595 132.82 178.595 132.82C178.595 132.82 199.42 117.951 201.132 104.959V105.003Z" fill="#0C232D"/>
<path fill-rule="evenodd" clip-rule="evenodd" d="M155.342 241.049C155.342 241.049 153.922 248.996 158.503 254.172C163.083 259.363 166.771 264.539 171.688 260.228C176.605 255.888 168.878 241.063 168.395 239.832C167.898 238.585 155.342 241.049 155.342 241.049Z" fill="#1B1B1B"/>
<path fill-rule="evenodd" clip-rule="evenodd" d="M158.414 118.332C158.414 118.332 156.497 133.802 156.263 155.562C155.985 177.322 154.449 185.504 153.907 188.862C153.395 192.205 151.58 228.599 152.634 239.23C152.634 239.23 159.336 249.846 169.961 239.23C169.961 239.23 171.761 201.898 173.575 193.408C175.39 184.918 185.517 143.641 189.614 128.816C191.385 122.276 191.839 119.798 191.839 119.798C191.839 119.798 174.731 131.456 158.414 118.332Z" fill="#0C232D"/>
<path fill-rule="evenodd" clip-rule="evenodd" d="M169.931 239.245C169.931 239.245 171.731 201.912 173.546 193.437C175.36 184.947 185.517 143.67 189.614 128.846C191.399 122.321 195.599 117.276 195.599 117.276C195.599 117.276 183.848 125.664 173.707 125.664C173.239 128.831 168.936 159.316 167.912 172.63C166.931 185.842 158.063 232.309 160.448 243.967C163.053 244.04 166.258 242.911 169.931 239.245Z" fill="#133142"/>
<path fill-rule="evenodd" clip-rule="evenodd" d="M200.166 160.372C203.634 136.412 203.59 122.086 202.829 114.007L197.839 113.317C197.063 114.608 196.156 115.883 195.205 117.115C193.917 130.165 189.995 170.988 189.307 188.481C188.678 204.845 187.8 220.637 187.449 226.737C190.829 225.916 193.098 223.849 193.098 223.849C192.702 220.505 194.722 197.895 200.166 160.416V160.372Z" fill="#133142"/>
<path fill-rule="evenodd" clip-rule="evenodd" d="M168.629 41.2475C166.463 42.2299 164.224 43.8282 160.537 46.1743C155.634 49.2829 150.541 53.8139 149.824 54.6937C148.873 55.8667 145.434 58.7847 153.468 74.665C153.468 74.665 166.141 92.3195 160.566 109.842L157.463 119.593C157.463 119.593 168.117 136.412 190.668 126.221C195.234 124.153 203.546 120.414 203.502 115.341C203.502 115.341 200.268 97.4956 202.727 79.6211C204.849 64.1661 202.317 38.9894 192.073 36.6286C192.073 36.6286 185.971 33.4467 168.644 41.2475H168.629Z" fill="#091BAD"/>
<path fill-rule="evenodd" clip-rule="evenodd" d="M149.825 54.6203C148.874 55.7933 145.449 58.7113 153.469 74.6062C153.469 74.6062 166.113 92.2901 160.552 109.827L157.464 119.593C157.464 119.593 161.635 126.191 170.254 128.611C177.103 107.012 169.435 73.7558 167.781 61.4973C166.61 52.802 161.166 49.2829 157.83 47.9338C153.922 50.7492 150.439 53.9018 149.854 54.6056H149.825V54.6203Z" fill="#2535B5"/>
<path fill-rule="evenodd" clip-rule="evenodd" d="M164.254 26.7456C164.254 26.7456 171.556 34.5171 168 41.2329C166.01 44.9866 173.371 51.805 183.527 49.3856C183.527 49.3856 187.932 47.4647 187.171 45.8811C185.459 42.3033 186.6 39.8838 187.742 36.7166C188.898 33.564 164.254 26.7749 164.254 26.7749V26.7456Z" fill="#E6A376"/>
<path fill-rule="evenodd" clip-rule="evenodd" d="M168.015 41.2035C167.781 41.6581 167.664 42.142 167.708 42.6698C170.883 38.0656 178.23 36.482 178.23 36.482L166.625 27.3468C166.215 27.2148 165.849 27.1122 165.527 27.0095L165.41 28.0359C167.298 30.5434 170.693 36.174 168.03 41.1888V41.2035H168.015Z" fill="#DD9569"/>
<path fill-rule="evenodd" clip-rule="evenodd" d="M161.313 22.1852C161.313 22.1852 165.82 33.3733 174.674 37.259C182.576 40.6755 191.313 42.3471 191.386 33.6372C191.43 26.7162 191.752 9.01767 185.269 6.6129C176.869 3.48964 173.152 -1.48119 164.869 3.28435C164.869 3.28435 155.591 9.66285 161.298 22.1559L161.313 22.1852Z" fill="#EFB185"/>
<path fill-rule="evenodd" clip-rule="evenodd" d="M161.298 22.156C161.298 22.156 163.932 31.995 174.688 37.4204C177.001 38.5788 179.81 39.3413 181.991 39.8545C177.791 37.7137 177.279 36.9512 173.81 34.0772C170.328 31.2179 177.762 31.2765 171.367 23.505C169.186 20.8656 176.401 18.1676 178.245 17.8157C189.088 15.6455 188.825 12.229 188.591 9.53098C188.167 8.43124 187.654 9.76559 187.084 8.82715L185.737 7.02357C185.576 6.84761 185.43 6.68632 185.284 6.55435C183.835 5.26399 182.459 4.16425 181.069 3.25513C176.445 4.14958 163.245 6.73031 162.967 6.86228C162.806 6.92093 161.079 10.4254 159.425 13.7393C159.352 16.1734 159.835 18.9301 161.298 22.156Z" fill="#E6A376"/>
<path fill-rule="evenodd" clip-rule="evenodd" d="M168.205 33.1536C168.205 32.2591 162.146 26.5551 163.8 24.1064C165.615 21.379 170.956 29.1945 171.278 29.6344C171.629 30.0303 171.41 27.2296 170.385 25.2501C169.185 23.0213 168.863 20.1913 170.268 18.3877C171.512 16.7747 175.712 16.7454 178.229 16.5841C176.005 15.6457 171.863 15.8803 169.844 12.7277C167.122 8.51936 164.063 6.87708 161.385 6.5105C151.624 21.5696 168.22 33.1682 168.22 33.1682V33.1536H168.205Z" fill="#0B161E"/>
<path fill-rule="evenodd" clip-rule="evenodd" d="M178.258 16.6134C178.258 16.6134 170.356 16.3935 166.346 10.2936C165.512 8.98856 163.434 6.92104 161.004 7.08234C161.004 7.08234 161.985 -0.703826 173.78 0.0586606C178.463 0.366588 184.726 3.91509 185.839 4.78022C188.634 6.89172 191.575 4.32566 191.765 5.38141C192.512 9.39913 183.175 16.1442 178.258 16.6281V16.6134Z" fill="#0B161E"/>
<path fill-rule="evenodd" clip-rule="evenodd" d="M168.834 38.8135C168.834 38.8135 169.244 47.7287 185.781 47.9927L183.849 55.2949C183.849 55.2949 170.356 58.081 164.62 43.4911L168.834 38.7988V38.8135Z" fill="#F9F8F8"/>
<path fill-rule="evenodd" clip-rule="evenodd" d="M185.796 48.0219C185.796 48.0219 186.454 46.3209 186.045 42.8897C185.942 42.1419 185.971 41.2035 186.22 40.529L186.396 39.8251L188.064 39.4146C188.064 39.4146 194.181 45.8077 192.63 51.7316L185.767 48.0219H185.796Z" fill="#F9F8F8"/>
<path fill-rule="evenodd" clip-rule="evenodd" d="M201.118 121.236C193.683 119.828 191.927 115.356 191.927 115.356C194.971 116.661 197.444 115.781 198.308 115.106C199.025 114.535 198.6 112.746 197.005 113.054C195.41 113.361 193.332 112.599 192.279 111.998C189.118 110.253 187.566 110.341 186.454 110.531C184.888 110.81 183.571 110.707 182.649 110.531L158.825 103.244L162.322 76.2049C163.61 68.2721 164.503 61.9083 161.62 57.8026C157.888 52.5385 149.24 52.9491 147.264 61.8056C147.264 61.8056 140.854 101.352 144.63 108.919C144.805 109.256 145.581 110.81 145.961 111.045C151.23 120.532 182.005 119.271 182.005 119.271C182.927 119.843 183.776 120.195 184.932 121.104C189.805 125.019 195.147 124.872 196.054 124.638C201.396 123.244 202.479 121.426 201.132 121.177L201.118 121.236Z" fill="#E6A376"/>
<path fill-rule="evenodd" clip-rule="evenodd" d="M149.766 54.3565C147.688 55.6029 145.712 62.1574 144.293 70.2368C141.966 83.3604 142.39 103.786 142.829 106.66C143.283 109.739 142.127 120.84 180.161 120.429C180.98 120.429 177.483 112.482 183.058 108.83L159.219 103.141C159.219 103.141 163.917 68.4772 163.858 64.8554C163.697 54.2392 155.502 50.9107 149.795 54.3565H149.766Z" fill="#091BAD"/>
<path d="M216.731 115.913H223.214" stroke="#091BAD" stroke-miterlimit="8"/>
<path d="M219.981 112.657V119.168" stroke="#091BAD" stroke-miterlimit="8"/>
<path d="M229.712 115.913H236.209" stroke="#091BAD" stroke-miterlimit="8"/>
<path d="M232.976 112.657V119.168" stroke="#091BAD" stroke-miterlimit="8"/>
<path d="M216.731 129.374H223.214" stroke="#091BAD" stroke-miterlimit="8"/>
<path d="M219.981 126.118V132.629" stroke="#091BAD" stroke-miterlimit="8"/>
<path d="M229.712 129.374H236.209" stroke="#091BAD" stroke-miterlimit="8"/>
<path d="M232.976 126.118V132.629" stroke="#091BAD" stroke-miterlimit="8"/>
<path d="M243.161 129.374H249.644" stroke="#091BAD" stroke-miterlimit="8"/>
<path d="M246.41 126.118V132.629" stroke="#091BAD" stroke-miterlimit="8"/>
<path d="M256.142 129.374H262.64" stroke="#091BAD" stroke-miterlimit="8"/>
<path d="M259.405 126.118V132.629" stroke="#091BAD" stroke-miterlimit="8"/>
<path d="M243.161 142.746H249.644" stroke="#091BAD" stroke-miterlimit="8"/>
<path d="M246.41 139.491V146.002" stroke="#091BAD" stroke-miterlimit="8"/>
<path d="M256.142 142.747H262.64" stroke="#091BAD" stroke-miterlimit="8"/>
<path d="M259.405 139.491V146.002" stroke="#091BAD" stroke-miterlimit="8"/>
<path fill-rule="evenodd" clip-rule="evenodd" d="M102.454 174.155C102.454 170.005 105.819 166.633 109.961 166.633C114.102 166.633 117.468 170.005 117.468 174.155C117.468 178.305 114.102 181.677 109.961 181.677C105.805 181.677 102.454 178.305 102.454 174.155Z" fill="#0D9B1B"/>
<path fill-rule="evenodd" clip-rule="evenodd" d="M102.454 49.2683C102.454 45.1332 105.819 41.79 109.961 41.79C114.102 41.79 117.468 45.1332 117.468 49.2683C117.468 53.4033 114.102 56.7465 109.961 56.7465C105.805 56.7465 102.454 53.4033 102.454 49.2683Z" fill="#0D9B1B"/>
<path fill-rule="evenodd" clip-rule="evenodd" d="M77.9556 110.898C77.9556 106.748 81.3214 103.376 85.4629 103.376C89.6043 103.376 92.9702 106.748 92.9702 110.898C92.9702 115.048 89.6043 118.42 85.4629 118.42C81.3068 118.42 77.9556 115.048 77.9556 110.898Z" fill="#0D9B1B"/>
<path fill-rule="evenodd" clip-rule="evenodd" d="M250.931 174.155C250.931 170.005 254.297 166.633 258.438 166.633C262.58 166.633 265.946 170.005 265.946 174.155C265.946 178.304 262.58 181.677 258.438 181.677C254.282 181.677 250.931 178.304 250.931 174.155Z" fill="#0D9B1B"/>
<path fill-rule="evenodd" clip-rule="evenodd" d="M250.931 49.2683C250.931 45.1332 254.297 41.79 258.438 41.79C262.58 41.79 265.946 45.1332 265.946 49.2683C265.946 53.4033 262.58 56.7465 258.438 56.7465C254.282 56.7465 250.931 53.4033 250.931 49.2683Z" fill="#0D9B1B"/>
<path fill-rule="evenodd" clip-rule="evenodd" d="M273.059 110.898C273.059 106.748 276.395 103.376 280.522 103.376C284.649 103.376 287.985 106.748 287.985 110.898C287.985 115.048 284.649 118.42 280.522 118.42C276.395 118.42 273.059 115.048 273.059 110.898Z" fill="#0D9B1B"/>
</g>
<defs>
<linearGradient id="paint0_linear_463_875" x1="39.5998" y1="49.3125" x2="103.088" y2="49.3125" gradientUnits="userSpaceOnUse">
<stop stop-color="#2C40D4"/>
<stop offset="0.3333" stop-color="#5F71DC"/>
<stop offset="0.6667" stop-color="#93A3E4"/>
<stop offset="1" stop-color="#C7D5ED"/>
</linearGradient>
<linearGradient id="paint1_linear_463_875" x1="0" y1="110.898" x2="78.5912" y2="110.898" gradientUnits="userSpaceOnUse">
<stop stop-color="#2C40D4"/>
<stop offset="0.3333" stop-color="#5F71DC"/>
<stop offset="0.6667" stop-color="#93A3E4"/>
<stop offset="1" stop-color="#C7D5ED"/>
</linearGradient>
<linearGradient id="paint2_linear_463_875" x1="328.926" y1="49.3151" x2="265.437" y2="49.3151" gradientUnits="userSpaceOnUse">
<stop stop-color="#2C40D4"/>
<stop offset="0.3333" stop-color="#5F71DC"/>
<stop offset="0.6667" stop-color="#93A3E4"/>
<stop offset="1" stop-color="#C7D5ED"/>
</linearGradient>
<linearGradient id="paint3_linear_463_875" x1="360.514" y1="110.901" x2="273.34" y2="110.901" gradientUnits="userSpaceOnUse">
<stop stop-color="#2C40D4"/>
<stop offset="0.3333" stop-color="#5F71DC"/>
<stop offset="0.6667" stop-color="#93A3E4"/>
<stop offset="1" stop-color="#C7D5ED"/>
</linearGradient>
<linearGradient id="paint4_linear_463_875" x1="33.9754" y1="174.687" x2="103.052" y2="174.687" gradientUnits="userSpaceOnUse">
<stop stop-color="#2C40D4"/>
<stop offset="0.3333" stop-color="#5F71DC"/>
<stop offset="0.6667" stop-color="#93A3E4"/>
<stop offset="1" stop-color="#C7D5ED"/>
</linearGradient>
<linearGradient id="paint5_linear_463_875" x1="328.886" y1="174.687" x2="259.809" y2="174.687" gradientUnits="userSpaceOnUse">
<stop stop-color="#2C40D4"/>
<stop offset="0.3333" stop-color="#5F71DC"/>
<stop offset="0.6667" stop-color="#93A3E4"/>
<stop offset="1" stop-color="#C7D5ED"/>
</linearGradient>
<linearGradient id="paint6_linear_463_875" x1="143.434" y1="302.895" x2="211.895" y2="186.846" gradientUnits="userSpaceOnUse">
<stop stop-color="#5366E7"/>
<stop offset="0.3" stop-color="#444BC3"/>
<stop offset="0.98" stop-color="#210768"/>
<stop offset="1" stop-color="#200566"/>
</linearGradient>
<clipPath id="clip0_463_875">
<rect width="360" height="283" fill="white"/>
</clipPath>
</defs>
</svg>
