<svg width="34" height="44" viewBox="0 0 34 44" fill="none" xmlns="http://www.w3.org/2000/svg">
    <path fill-rule="evenodd" clip-rule="evenodd"
          d="M15.7989 0L19.3647 2.11161C-1.65098 14.2897 5.5723 10.0858 4.11005 10.8963L0.54422 8.87907H0.450768L15.7989 0ZM22.3662 14.478L6.90445 23.3759C6.62409 23.5646 6.53064 23.8472 6.71754 24.017C6.81099 24.2996 7.07303 24.2996 7.35521 24.2057L22.8169 15.3078C23.0973 15.2134 23.0973 14.9493 23.0038 14.6667C22.9104 14.3836 22.6483 14.3836 22.3662 14.478ZM22.3662 9.70843L6.90445 18.6068C6.77435 18.6943 6.68456 18.8024 6.64425 18.9101C6.63142 18.9437 6.62409 18.9773 6.62043 19.0105C6.61859 19.0266 6.62043 19.0422 6.62226 19.0579L6.62592 19.0975C6.62959 19.1172 6.63692 19.1361 6.64608 19.1545L6.66624 19.1895C6.67906 19.2102 6.69739 19.2295 6.71754 19.2475C6.77068 19.4081 6.87696 19.4776 7.01256 19.4905C7.11517 19.5002 7.23244 19.4772 7.35521 19.4362L22.8169 10.5383C23.0973 10.4439 23.0973 10.1797 23.0038 9.89713C22.9104 9.61454 22.6483 9.61454 22.3662 9.70843ZM16.4182 8.35117L6.90445 13.8562C6.62409 14.0255 6.53064 14.3086 6.71754 14.478C6.81099 14.761 7.07303 14.761 7.35521 14.6667L16.869 9.18099C17.0577 9.11748 17.12 8.97664 17.1109 8.80497C17.1072 8.72213 17.087 8.63192 17.0559 8.53987C16.9624 8.25682 16.7004 8.25682 16.4182 8.35117ZM7.37354 38.495L14.5052 34.4609C14.6628 35.2429 14.956 35.9162 15.3243 36.4639C15.568 36.8271 15.8447 37.135 16.136 37.383L12.1964 39.6516C10.4318 40.6664 8.62873 41.7034 7.16465 42.5507C6.13484 43.1458 5.27362 43.647 4.70924 43.9811L4.61579 11.82C14.1424 6.30399 17.8731 4.1528 19.2474 3.36394C20.9076 2.41169 19.132 3.44632 19.984 2.94097V8.08745C19.984 8.29732 20.1123 8.48096 20.2901 8.55966C20.4165 8.61535 20.5667 8.61811 20.7152 8.53987L25.1056 5.97584V16.5896C24.4239 16.7309 23.7533 16.9858 23.1083 17.3168C22.0308 17.8695 21.0285 18.6344 20.171 19.4362C19.5626 19.9687 18.9524 20.6973 18.4522 21.2961L18.1627 21.6417L6.90445 28.1454C6.62409 28.2398 6.62409 28.504 6.71754 28.7866C6.81099 29.0692 7.07303 29.0692 7.35521 28.9753L16.869 23.4703C16.0426 24.8464 15.218 26.675 14.7672 28.3341L6.90445 32.915C6.75969 32.9638 6.69006 33.0576 6.66807 33.1759C6.64791 33.2868 6.67173 33.4194 6.71754 33.5561C6.81099 33.8387 7.07303 33.8387 7.35521 33.7443L14.4301 29.5782C14.3769 29.9482 14.3238 30.3417 14.2871 30.6625C14.2597 30.9143 14.2413 31.1214 14.2413 31.2374C14.2413 31.5922 14.2413 31.9761 14.2578 32.3728C14.2707 32.6922 14.2926 33.0204 14.3348 33.3485L6.9246 37.6656L6.86413 37.6891C6.78901 37.7278 6.73953 37.7821 6.71205 37.8479C6.68822 37.9004 6.67906 37.9602 6.68089 38.0246C6.68273 38.1121 6.70288 38.2083 6.73587 38.3068C6.82932 38.5893 7.09318 38.5893 7.37354 38.495ZM26.1189 19.7188C21.5416 22.3772 17.6936 28.8809 17.6936 34.2911C17.6936 35.1665 17.8017 35.9655 17.9648 36.6733C18.0582 37.0788 18.1718 37.4544 18.2946 37.7977C18.1938 37.7186 18.093 37.6481 17.9886 37.5819C17.8548 37.4967 17.7174 37.418 17.5726 37.3352C17.4279 37.2519 17.2758 37.1644 17.1127 37.0622C15.3866 35.9503 14.9175 33.575 15.1044 31.4634C15.48 27.3349 17.8621 22.9424 20.7903 20.1901C22.2544 18.8139 24.4679 17.4378 26.4762 17.4378C27.2073 17.4378 27.845 17.5133 28.3892 17.8902L29.496 18.5314C29.3274 18.6252 29.234 18.6252 29.1405 18.6252C28.2206 18.7007 27.2073 19.0781 26.1189 19.7188ZM0 9.7273C0.0109943 9.46082 0.0311506 12.4515 0.0934519 41.8884L3.71609 44L3.6208 11.8389L0 9.7273ZM32.1804 27.3349C32.1804 27.6175 31.9917 27.8817 31.8231 28.07L30.9033 28.8998C30.8226 29.2933 30.6687 29.7006 30.5203 30.0983L30.5148 30.119L30.4543 30.2759L30.9033 31.1053C30.9252 31.149 30.9417 31.1918 30.9527 31.2323L30.9692 31.3023C30.9839 31.4081 30.9619 31.4979 30.9033 31.5577L29.9852 33.0282C29.9413 33.1147 29.879 33.1815 29.8075 33.2192C29.7232 33.2634 29.6261 33.2675 29.5345 33.2169L28.7081 33.1225C28.4277 33.4051 28.0704 33.7632 27.6947 34.0463L27.3393 35.2337C27.244 35.6861 26.9819 35.8748 26.795 35.9692L25.8752 36.4216C25.6883 36.5159 25.5179 36.5159 25.331 36.4216C25.2448 36.3783 25.1789 36.3351 25.1239 36.2831C25.0598 36.2214 25.014 36.1468 24.9736 36.0446L24.7867 35.3092H24.1491L23.3227 36.2329L23.1358 36.4216C22.9489 36.7042 22.7784 36.7042 22.685 36.7042C22.63 36.7042 22.575 36.7042 22.5201 36.6848C22.4816 36.6715 22.4431 36.6485 22.4046 36.6098L21.7651 36.1574C21.4848 35.9692 21.4096 35.6106 21.5782 35.2337L22.029 34.0463C22.0015 33.9892 21.9722 33.9252 21.9447 33.8585C21.8787 33.7048 21.8128 33.5368 21.7468 33.4051L21.2026 33.4995C20.9222 33.5938 20.7518 33.4051 20.6584 33.3108C20.6126 33.2643 20.5484 33.1953 20.5044 33.105C20.4586 33.0125 20.433 32.8979 20.4715 32.764V31.7464C20.4715 31.4634 20.6584 31.1996 20.8269 31.0109L21.7468 30.1816L21.8403 30.0872C21.9355 29.7103 22.1224 29.2579 22.291 28.8054L21.9355 28.1643C21.7468 27.8817 21.8403 27.5236 22.029 27.2406L22.6667 26.2225C22.7601 26.0343 22.8536 25.9399 23.0222 25.8456C23.1174 25.7512 23.3043 25.6573 23.4729 25.7512L24.1106 25.8456C24.3928 25.4875 24.7501 25.2049 25.1239 24.9219L25.4812 23.7344C25.5747 23.3759 25.7634 23.0933 26.0254 22.999L26.9453 22.5465C27.0351 22.5014 27.1414 22.478 27.2476 22.4761C27.3649 22.4738 27.484 22.4973 27.583 22.5465C27.7699 22.6409 27.8633 22.8296 27.9385 22.999L28.1272 23.6401H28.7649L29.5894 22.7164C29.6389 22.668 29.6866 22.6197 29.7342 22.5843C29.78 22.5502 29.8258 22.5277 29.8716 22.5277C30.1538 22.3394 30.4158 22.3394 30.6027 22.5277L31.147 22.8857C31.2423 22.8857 31.5043 23.1688 31.3357 23.8095L30.7915 24.9974C30.8849 25.1861 30.9784 25.4498 31.0718 25.6385L31.5226 25.5441C31.8048 25.5441 31.9734 25.6385 32.0668 25.7324C32.1603 25.8267 32.2556 26.0154 32.2556 26.2791L32.1804 27.3349ZM26.5129 20.5293C22.2159 23.0178 18.5768 29.2579 18.5768 34.31C18.5768 36.2329 19.121 38.269 20.772 39.1739C22.1408 40.0032 24.0556 39.815 26.0621 38.6271C30.4342 36.0631 34 29.899 34 24.8464C34 19.983 30.8098 18.0601 26.5129 20.5293ZM20.8269 2.94097L24.543 5.1276L20.8269 7.23921V2.94097Z"
          fill="#7C7E87"/>
</svg>
