<svg width="36" height="44" viewBox="0 0 36 44" fill="none" xmlns="http://www.w3.org/2000/svg">
    <path fill-rule="evenodd" clip-rule="evenodd"
          d="M26.4451 0L28.4509 1.18268C9.05008 12.5908 10.172 11.8868 10.6427 11.6011C10.7292 11.5491 10.7546 11.5337 10.7457 11.539C10.7368 11.5443 10.6935 11.5702 10.6427 11.6011L10.4665 11.7068L8.46067 10.5241L26.4451 0ZM19.7806 11.2097V18.0315L13.7631 21.4939V14.6721L15.225 13.8493V15.649C15.225 15.9233 15.412 16.1118 15.6839 16.1118C15.7264 16.1118 15.7732 16.0904 15.8199 16.069C15.8667 16.0476 15.9134 16.0261 15.9559 16.0261L18.0467 14.8606C18.2337 14.7578 18.3187 14.5864 18.3187 14.3978V12.0324L19.7806 11.2097ZM7.91658 38.8915C7.91658 40.4512 6.82868 41.4625 5.36681 40.9997C4.72087 40.8112 4.09193 40.3484 3.63297 39.7999C2.54506 38.7029 2.00111 37.0403 2.00111 35.8405V20.1229C1.84647 20.0605 0.172444 19.0618 0.0122904 18.9466V18.9402C-0.00458682 18.9324 -0.00359934 18.9352 0.0122904 18.9466V34.1093C0.0122904 37.5202 2.37508 41.651 5.28182 43.2965C8.10357 44.942 10.1094 43.5707 10.1094 40.5369C10.1094 39.0403 10.1289 33.3735 10.1493 27.4774C10.1714 21.0839 10.1944 14.4208 10.1944 12.5126L8.18856 11.3127C7.99539 31.7095 7.93164 37.0329 7.91381 38.2051C7.91164 38.1263 7.90885 38.3096 7.908 38.4209C7.90715 38.5323 7.90823 38.5717 7.91381 38.2051C7.91535 38.2612 7.91658 38.4499 7.91658 38.8915ZM3.85316 38.6683C3.20722 37.7599 2.85025 36.6629 2.85025 35.9259V20.2768L6.92988 17.8943C6.85982 41.5877 6.84752 39.0314 6.84535 38.5821L6.84503 38.5285C6.84489 38.5285 6.84489 38.6113 6.84489 38.8568C6.84489 40.7766 5.02605 40.3138 3.85316 38.6683ZM6.93127 16.7802V14.3977L0.403858 18.2543L2.39268 19.4369L6.93127 16.7802ZM29.2315 35.2576L32.6142 29.2927C32.8012 29.0185 32.7162 28.7443 32.4443 28.6586C32.2573 28.5729 31.8833 28.5729 31.7983 28.8471L28.6026 34.3491L26.9537 33.4236C26.7668 33.3379 26.3928 33.3379 26.3078 33.6121C26.2228 33.7835 26.2228 34.1606 26.4948 34.2463L28.5856 35.4461C28.7726 35.5318 29.1466 35.5318 29.2315 35.2576ZM23.0441 35.9946C23.0441 31.7609 26.0528 26.5332 29.7075 24.4249C33.2602 22.4195 35.9119 23.9793 35.9969 28.0072C35.9969 32.2409 32.9882 37.4687 29.3335 39.5769C27.5997 40.5025 26.0528 40.691 24.8629 40.0397C23.5031 39.3027 23.0441 37.5544 23.0441 35.9946ZM13.0491 26.1561L26.3079 18.3744C26.4949 18.2887 26.8519 18.2887 26.9369 18.5629C27.0219 18.7515 27.0219 19.1114 26.7499 19.2143L13.4911 26.996C13.2191 27.0817 12.9471 27.0817 12.8621 26.8074C12.6751 26.5332 12.7771 26.2589 13.0491 26.1561ZM13.0491 13.9694L19.9505 9.94139C20.1375 9.85569 20.3075 9.85569 20.4094 9.94139C20.5964 10.0271 20.6814 10.2156 20.6814 10.4042V18.3744C20.6814 18.563 20.5964 18.7344 20.4094 18.8372L13.5081 22.8652C13.4656 22.8652 13.4188 22.8866 13.3721 22.908C13.3253 22.9294 13.2786 22.9509 13.2361 22.9509C12.9641 22.9509 12.7771 22.7623 12.7771 22.4881V14.5178C12.7771 14.2436 12.8621 14.0722 13.0491 13.9694ZM22.2113 15.6148L26.3079 13.2323C26.4949 13.1466 26.8519 13.1466 26.9369 13.4209C27.0219 13.6094 27.0219 13.9694 26.7499 14.0551L22.6702 16.4376C22.3983 16.5233 22.1263 16.5233 22.0413 16.249C21.8543 15.9919 21.9393 15.7177 22.2113 15.6148ZM22.2113 10.4042L26.3079 8.02168C26.4949 7.93598 26.8519 7.93598 26.9369 8.21022C27.0219 8.39877 27.0219 8.75871 26.7499 8.84441L22.6702 11.2269C22.3983 11.3126 22.1263 11.3126 22.0413 11.0384C21.8543 10.8498 21.9393 10.5756 22.2113 10.4042ZM19.1346 34.4177C19.1346 32.5837 19.6785 30.5611 20.4944 28.7443C20.5753 28.5885 20.653 28.4489 20.7303 28.3099L20.7304 28.3098L20.7304 28.3097C20.8318 28.1276 20.9323 27.9469 21.0384 27.733L13.4911 32.1381C13.2191 32.2238 12.9471 32.2237 12.8621 31.9495C12.7771 31.761 12.7771 31.401 13.0491 31.2982L22.1433 25.9847C23.3162 24.3392 24.6931 22.968 26.2229 22.0424C26.9539 21.5796 27.8548 21.2197 28.7727 21.134L28.8407 2.05791C28.7756 2.10244 28.2307 2.42479 28.8407 2.05686L28.8407 2.05791C28.9697 1.96969 27.2147 2.97236 10.8563 12.5981C10.8138 22.2652 10.8138 24.4635 10.8138 26.6403C10.8138 28.8171 10.8138 30.9725 10.7713 40.5539C10.7713 41.1024 10.6863 41.9251 10.4993 42.4736L19.5765 37.1602V37.0744C19.3045 36.2346 19.1346 35.3261 19.1346 34.4177ZM29.2666 23.6876C25.34 25.9673 22.1442 31.555 22.1442 36.0286C22.1442 37.1256 22.3312 38.1369 22.6032 38.8054L21.8723 38.3426C21.4133 38.0683 20.9544 37.6055 20.6824 37.0571C19.4075 34.6746 20.4104 30.938 21.6003 28.5555C22.7902 26.173 24.626 23.979 26.7168 22.7963C28.0937 22.0593 29.8106 21.5108 31.1874 22.3336L31.8334 22.6935C31.8334 22.7792 31.7314 22.7792 31.6464 22.7792C30.8135 22.9506 29.9975 23.2248 29.2666 23.6876Z"
          fill="#7C7E87"/>
</svg>
