<svg width="37" height="44" viewBox="0 0 37 44" fill="none" xmlns="http://www.w3.org/2000/svg">
    <path fill-rule="evenodd" clip-rule="evenodd"
          d="M2.09448 12.5436C4.44095 11.2696 -5.89727 17.0352 22.604 0.931091L21.0119 0C13.8612 4.05453 12.3574 4.92302 11.3789 5.48805C10.1697 6.18627 9.76387 6.42074 0.502348 11.6293C0.539983 11.6596 0.787066 11.7955 1.07506 11.9535L1.12906 11.9822C1.60031 12.2402 2.15502 12.5436 2.09448 12.5436ZM21.5371 6.61174C21.4995 6.69588 21.434 6.76486 21.331 6.79437L5.14456 15.9573C4.96293 16.0199 4.78785 16.0427 4.65858 15.9785C4.58495 15.9422 4.52604 15.878 4.49004 15.7775C4.39022 15.5981 4.39022 15.2224 4.67494 15.1407L20.8613 5.97772C21.0446 5.88003 21.4308 5.88003 21.5142 6.15756C21.578 6.27161 21.6026 6.465 21.5371 6.61174ZM21.331 12.3805L5.14456 21.5431C5.09384 21.5602 5.04311 21.5746 4.99402 21.585C4.9433 21.5957 4.89257 21.6017 4.84512 21.6025C4.78948 21.6029 4.73712 21.5961 4.68967 21.5802C4.64222 21.5638 4.60131 21.5379 4.56695 21.5004C4.53422 21.4653 4.50804 21.4203 4.49004 21.3637C4.39022 21.1838 4.39022 20.8082 4.67494 20.7264L20.8613 11.5639C20.9628 11.5096 21.1248 11.4853 21.2655 11.5212C21.3031 11.5312 21.3391 11.5455 21.3719 11.5651C21.4373 11.6033 21.4897 11.6612 21.5142 11.7433C21.7155 12.0212 21.6157 12.2988 21.331 12.3805ZM2.61319 13.393C2.51992 37.002 2.51337 37.3732 2.51337 37.7449V37.8434C2.51337 38.7581 3.26771 40.1302 4.12187 40.5876C4.77476 40.9469 5.24438 40.767 5.24438 39.9504V36.4717C5.24438 36.2918 5.34583 36.1124 5.5291 36.0143L23.0393 26.1328V25.6754V24.8587L16.17 26.6065L5.16093 32.8294C5.12002 32.8514 5.06766 32.8685 5.01202 32.8785C4.94657 32.89 4.87621 32.8924 4.80912 32.8825C4.74367 32.8725 4.67985 32.851 4.62749 32.8151C4.57186 32.7772 4.52931 32.723 4.50804 32.6496C4.40659 32.3721 4.40659 32.0941 4.69131 32.0128L15.599 25.8716L15.8853 24.6793L16.2698 23.1273L16.8393 20.661L5.17729 27.2596C4.89257 27.3577 4.60785 27.3577 4.5244 27.0802C4.42295 26.9004 4.42295 26.5247 4.70767 26.443L17.2255 19.3057C17.3253 19.1258 17.3253 18.4727 17.7949 18.0153L23.1571 12.8865V1.76409C-5.01039 17.7051 4.67494 12.2007 2.61319 13.393ZM28.7533 14.7978L21.6157 21.7556C21.2295 22.1313 20.7599 22.1313 20.3917 21.8533V21.7556C20.0072 21.38 20.0072 20.9226 20.3917 20.5634L27.5293 13.6055C27.7289 13.842 27.9237 14.0565 28.1298 14.2583L28.2329 14.3563L28.3507 14.464C28.4767 14.5781 28.6109 14.6885 28.7533 14.7978ZM18.4151 19.9098C18.6998 20.2854 19.2528 20.2854 19.6374 19.9098L26.8601 12.8215C26.6752 12.4619 26.4903 12.0862 26.3904 11.7106C26.2906 11.5312 26.2906 11.335 26.2906 11.0575L18.4151 18.7012C18.1303 18.9951 18.1303 19.5505 18.4151 19.9098ZM21.0446 22.9643C21.0446 23.4216 21.1461 23.879 21.5142 24.2383L19.0516 24.7933L17.1747 22.9643L17.7442 20.5797C18.1123 20.8572 18.4985 21.0367 18.9681 21.0367H19.0679C19.0679 21.5343 19.2414 21.9781 19.5277 22.3139C19.8714 22.7166 20.3786 22.9643 20.9448 22.9643H21.0446ZM17.9962 25.1199L16.9735 24.1075L16.6887 25.4796L17.9962 25.1199ZM8.93099 41.4369V38.219L21.9331 30.8692L29.4569 26.5574V29.2195C29.4569 30.4122 29.0707 31.2288 28.4178 31.6045L8.74609 42.7269C8.79518 42.6224 8.84917 42.3234 8.88681 42.0211C8.90154 41.8935 8.91463 41.7651 8.92281 41.6507L8.92772 41.5402L8.93099 41.4369ZM29.4896 15.3855L22.2849 22.4742C22.1818 22.5791 22.1082 22.6903 22.0624 22.8036C22.0133 22.9268 21.9986 23.0532 22.0166 23.1772L22.028 23.2462L22.0526 23.3211C22.0657 23.3566 22.0804 23.3917 22.1 23.4264C22.1458 23.5097 22.2064 23.5903 22.2849 23.6665C22.6531 24.0421 23.1227 23.944 23.5089 23.6665L31.3665 16.0227C30.797 15.941 30.2439 15.7612 29.4896 15.3855ZM29.9592 7.88895C30.5123 9.89788 32.5741 11.9231 34.6342 12.4619L34.7045 12.4635L34.7962 12.4706C34.842 12.4754 34.8845 12.4822 34.9222 12.4898C34.9762 12.4997 35.022 12.5109 35.0613 12.5205L35.1398 12.538L35.1872 12.5436H35.2871L34.9189 12.9029C34.7356 13.0827 34.5507 13.1808 34.266 13.1808C33.978 13.2494 33.6622 13.2247 33.3464 13.1481C33.1451 13.0991 32.9422 13.0289 32.7459 12.9483C32.4464 12.8251 32.1633 12.6776 31.9195 12.5436C30.4289 11.6293 29.758 10.5347 29.2049 9.16297C29.1214 8.7056 29.1214 7.9703 29.4896 7.61102L29.8594 7.25174C29.8594 7.52968 29.8594 7.70911 29.9592 7.88895ZM27.3788 11.4004C27.7469 12.8542 29.4405 14.5035 30.9312 14.9609C31.1439 15.0195 31.3468 15.059 31.5334 15.0761C31.6725 15.0885 31.8017 15.0889 31.9195 15.0757C31.9883 15.0681 32.0537 15.0554 32.1143 15.0378C32.1568 15.0255 32.1977 15.0107 32.2353 14.9932C32.3073 14.9597 32.3695 14.9166 32.4219 14.8632L27.3788 11.4004ZM3.73734 41.4529C5.12656 42.1882 6.35053 41.551 6.35053 39.9831V37.2393L7.94266 38.154V41.3715C7.94266 43.7561 6.35053 44.6708 4.20532 43.4786C1.87685 42.1882 0 38.9706 0 36.4063L0.099815 12.4459C0.0441804 12.4459 0.507257 12.7011 0.945788 12.9428C1.30087 13.1374 1.63795 13.3236 1.67558 13.3603L1.59213 37.8761C1.59213 39.1501 2.51337 40.8161 3.73734 41.4529ZM36.9136 9.76709C35.9743 7.0723 33.6622 5.58575 32.2713 5.58575C31.1488 5.58575 30.7807 6.41875 31.0654 7.52968C31.535 9.19527 33.294 11.0575 34.9696 11.5148C36.4439 11.9885 37.2817 11.2532 36.9136 9.76709ZM28.9545 25.8062L24.8147 28.1907L19.2528 31.2938L8.42864 37.435C8.481 37.435 8.06374 37.2078 7.64158 36.9785C7.26359 36.7735 6.88396 36.567 6.83651 36.5207L27.3624 24.8914L27.832 25.169L28.9545 25.8062Z"
          fill="#7C7E87"/>
</svg>
