<svg width="312" height="170" viewBox="0 0 312 170" fill="none" xmlns="http://www.w3.org/2000/svg">
    <path d="M15.544 12V3.54H20.836V4.392H16.528V12H15.544ZM22.9585 12.108C22.3905 12.108 21.8985 11.984 21.4825 11.736C21.0665 11.488 20.7425 11.14 20.5105 10.692C20.2865 10.236 20.1745 9.7 20.1745 9.084C20.1745 8.468 20.2865 7.936 20.5105 7.488C20.7425 7.032 21.0665 6.68 21.4825 6.432C21.8985 6.184 22.3905 6.06 22.9585 6.06C23.5185 6.06 24.0065 6.184 24.4225 6.432C24.8465 6.68 25.1705 7.032 25.3945 7.488C25.6265 7.936 25.7425 8.468 25.7425 9.084C25.7425 9.7 25.6265 10.236 25.3945 10.692C25.1705 11.14 24.8465 11.488 24.4225 11.736C24.0065 11.984 23.5185 12.108 22.9585 12.108ZM22.9585 11.328C23.5025 11.328 23.9385 11.136 24.2665 10.752C24.5945 10.36 24.7585 9.804 24.7585 9.084C24.7585 8.356 24.5945 7.8 24.2665 7.416C23.9385 7.032 23.5025 6.84 22.9585 6.84C22.4065 6.84 21.9665 7.032 21.6385 7.416C21.3185 7.8 21.1585 8.356 21.1585 9.084C21.1585 9.804 21.3185 10.36 21.6385 10.752C21.9665 11.136 22.4065 11.328 22.9585 11.328ZM27.3314 14.16V6.168H28.2794V7.212C28.4554 6.852 28.7154 6.572 29.0594 6.372C29.4114 6.164 29.8194 6.06 30.2834 6.06C30.8034 6.06 31.2554 6.184 31.6394 6.432C32.0314 6.672 32.3314 7.02 32.5394 7.476C32.7554 7.924 32.8634 8.46 32.8634 9.084C32.8634 9.7 32.7554 10.236 32.5394 10.692C32.3314 11.14 32.0314 11.488 31.6394 11.736C31.2554 11.984 30.8034 12.108 30.2834 12.108C29.8354 12.108 29.4354 12.008 29.0834 11.808C28.7314 11.608 28.4714 11.332 28.3034 10.98V14.16H27.3314ZM30.0794 11.328C30.6234 11.328 31.0594 11.136 31.3874 10.752C31.7154 10.36 31.8794 9.804 31.8794 9.084C31.8794 8.356 31.7154 7.8 31.3874 7.416C31.0594 7.032 30.6234 6.84 30.0794 6.84C29.5354 6.84 29.0994 7.032 28.7714 7.416C28.4434 7.8 28.2794 8.356 28.2794 9.084C28.2794 9.804 28.4434 10.36 28.7714 10.752C29.0994 11.136 29.5354 11.328 30.0794 11.328ZM36.8687 12.108C36.3007 12.108 35.8087 11.984 35.3927 11.736C34.9767 11.488 34.6527 11.14 34.4207 10.692C34.1967 10.236 34.0847 9.7 34.0847 9.084C34.0847 8.468 34.1967 7.936 34.4207 7.488C34.6527 7.032 34.9767 6.68 35.3927 6.432C35.8087 6.184 36.3007 6.06 36.8687 6.06C37.4287 6.06 37.9167 6.184 38.3327 6.432C38.7567 6.68 39.0807 7.032 39.3047 7.488C39.5367 7.936 39.6527 8.468 39.6527 9.084C39.6527 9.7 39.5367 10.236 39.3047 10.692C39.0807 11.14 38.7567 11.488 38.3327 11.736C37.9167 11.984 37.4287 12.108 36.8687 12.108ZM36.8687 11.328C37.4127 11.328 37.8487 11.136 38.1767 10.752C38.5047 10.36 38.6687 9.804 38.6687 9.084C38.6687 8.356 38.5047 7.8 38.1767 7.416C37.8487 7.032 37.4127 6.84 36.8687 6.84C36.3167 6.84 35.8767 7.032 35.5487 7.416C35.2287 7.8 35.0687 8.356 35.0687 9.084C35.0687 9.804 35.2287 10.36 35.5487 10.752C35.8767 11.136 36.3167 11.328 36.8687 11.328ZM40.5935 13.56V11.22H41.2055C41.4855 10.812 41.6855 10.344 41.8055 9.816C41.9255 9.28 41.9855 8.636 41.9855 7.884V6.168H46.1135V11.22H47.0375V13.56H46.1975V12H41.4215V13.56H40.5935ZM42.1415 11.22H45.1895V6.936H42.8495V8.052C42.8495 8.652 42.7895 9.232 42.6695 9.792C42.5495 10.352 42.3735 10.828 42.1415 11.22ZM50.8151 12.108C50.2311 12.108 49.7271 11.984 49.3031 11.736C48.8791 11.48 48.5511 11.124 48.3191 10.668C48.0951 10.204 47.9831 9.664 47.9831 9.048C47.9831 8.12 48.2351 7.392 48.7391 6.864C49.2431 6.328 49.9351 6.06 50.8151 6.06C51.1751 6.06 51.5311 6.124 51.8831 6.252C52.2351 6.38 52.5271 6.56 52.7591 6.792L52.4231 7.5C52.1911 7.276 51.9351 7.112 51.6551 7.008C51.3831 6.904 51.1231 6.852 50.8751 6.852C50.2671 6.852 49.7991 7.044 49.4711 7.428C49.1431 7.804 48.9791 8.348 48.9791 9.06C48.9791 9.756 49.1431 10.308 49.4711 10.716C49.7991 11.116 50.2671 11.316 50.8751 11.316C51.1231 11.316 51.3831 11.264 51.6551 11.16C51.9351 11.056 52.1911 10.888 52.4231 10.656L52.7591 11.364C52.5271 11.596 52.2311 11.78 51.8711 11.916C51.5191 12.044 51.1671 12.108 50.8151 12.108ZM54.003 12V6.168H54.975V8.604H56.067L57.975 6.168H59.043L57.015 8.796C57.223 8.876 57.411 9.008 57.579 9.192C57.747 9.376 57.935 9.64 58.143 9.984L59.343 12H58.299L57.243 10.236C57.043 9.892 56.851 9.664 56.667 9.552C56.483 9.44 56.223 9.384 55.887 9.384H54.975V12H54.003ZM60.3194 12V6.168H61.2074V10.68L64.5794 6.168H65.4074V12H64.5194V7.488L61.1474 12H60.3194ZM69.9672 12.108C69.0472 12.108 68.3192 11.84 67.7832 11.304C67.2472 10.76 66.9792 10.024 66.9792 9.096C66.9792 8.496 67.0992 7.968 67.3392 7.512C67.5792 7.048 67.9072 6.692 68.3232 6.444C68.7472 6.188 69.2352 6.06 69.7872 6.06C70.5792 6.06 71.1992 6.316 71.6472 6.828C72.0952 7.332 72.3192 8.028 72.3192 8.916V9.288H67.9272C67.9592 9.952 68.1512 10.46 68.5032 10.812C68.8552 11.156 69.3432 11.328 69.9672 11.328C70.3192 11.328 70.6552 11.276 70.9752 11.172C71.2952 11.06 71.5992 10.88 71.8872 10.632L72.2232 11.316C71.9592 11.564 71.6232 11.76 71.2152 11.904C70.8072 12.04 70.3912 12.108 69.9672 12.108ZM69.8112 6.78C69.2592 6.78 68.8232 6.952 68.5032 7.296C68.1832 7.64 67.9952 8.092 67.9392 8.652H71.4792C71.4552 8.06 71.2992 7.6 71.0112 7.272C70.7312 6.944 70.3312 6.78 69.8112 6.78Z"
          fill="#232735"/>
    <g clip-path="url(#clip0_219_913)">
        <path fill-rule="evenodd" clip-rule="evenodd"
              d="M44.005 24C60.345 24 73.595 37.25 73.595 53.59C73.595 69.93 60.345 83.18 44.005 83.18C27.665 83.17 14.415 69.93 14.415 53.59C14.415 52.52 14.475 51.44 14.585 50.38L43.995 53.59V24H44.005Z"
              fill="#AFC9F0"/>
        <path fill-rule="evenodd" clip-rule="evenodd"
              d="M14.585 50.3695C15.415 42.8495 19.085 35.9195 24.865 31.0195L44.005 53.5795L14.585 50.3695Z" fill="#0D9B1B"/>
        <path fill-rule="evenodd" clip-rule="evenodd" d="M24.8652 31.02C30.2152 26.49 36.9952 24 44.0052 24V53.59L24.8652 31.02Z"
              fill="#091BAD"/>
    </g>
    <path d="M14.5 107.17H4.5V117.17H14.5V107.17Z" fill="#AFC9F0"/>
    <path d="M5.544 133.17V124.71H12.528V133.17H11.532V125.562H6.528V133.17H5.544ZM14.5423 135.33V127.338H15.4903V128.382C15.6663 128.022 15.9263 127.742 16.2703 127.542C16.6223 127.334 17.0303 127.23 17.4943 127.23C18.0143 127.23 18.4663 127.354 18.8503 127.602C19.2423 127.842 19.5423 128.19 19.7503 128.646C19.9663 129.094 20.0743 129.63 20.0743 130.254C20.0743 130.87 19.9663 131.406 19.7503 131.862C19.5423 132.31 19.2423 132.658 18.8503 132.906C18.4663 133.154 18.0143 133.278 17.4943 133.278C17.0463 133.278 16.6463 133.178 16.2943 132.978C15.9423 132.778 15.6823 132.502 15.5143 132.15V135.33H14.5423ZM17.2903 132.498C17.8343 132.498 18.2703 132.306 18.5983 131.922C18.9263 131.53 19.0903 130.974 19.0903 130.254C19.0903 129.526 18.9263 128.97 18.5983 128.586C18.2703 128.202 17.8343 128.01 17.2903 128.01C16.7463 128.01 16.3103 128.202 15.9823 128.586C15.6543 128.97 15.4903 129.526 15.4903 130.254C15.4903 130.974 15.6543 131.53 15.9823 131.922C16.3103 132.306 16.7463 132.498 17.2903 132.498ZM24.2836 133.278C23.3636 133.278 22.6356 133.01 22.0996 132.474C21.5636 131.93 21.2956 131.194 21.2956 130.266C21.2956 129.666 21.4156 129.138 21.6556 128.682C21.8956 128.218 22.2236 127.862 22.6396 127.614C23.0636 127.358 23.5516 127.23 24.1036 127.23C24.8956 127.23 25.5156 127.486 25.9636 127.998C26.4116 128.502 26.6356 129.198 26.6356 130.086V130.458H22.2436C22.2756 131.122 22.4676 131.63 22.8196 131.982C23.1716 132.326 23.6596 132.498 24.2836 132.498C24.6356 132.498 24.9716 132.446 25.2916 132.342C25.6116 132.23 25.9156 132.05 26.2036 131.802L26.5396 132.486C26.2756 132.734 25.9396 132.93 25.5316 133.074C25.1236 133.21 24.7076 133.278 24.2836 133.278ZM24.1276 127.95C23.5756 127.95 23.1396 128.122 22.8196 128.466C22.4996 128.81 22.3116 129.262 22.2556 129.822H25.7956C25.7716 129.23 25.6156 128.77 25.3276 128.442C25.0476 128.114 24.6476 127.95 24.1276 127.95ZM28.1475 133.17V127.338H30.9915C31.6795 127.338 32.1875 127.47 32.5155 127.734C32.8435 127.99 33.0075 128.37 33.0075 128.874C33.0075 129.178 32.9195 129.442 32.7435 129.666C32.5755 129.89 32.3435 130.054 32.0475 130.158C32.4075 130.246 32.6875 130.414 32.8875 130.662C33.0955 130.91 33.1995 131.21 33.1995 131.562C33.1995 132.058 33.0155 132.45 32.6475 132.738C32.2795 133.026 31.7595 133.17 31.0875 133.17H28.1475ZM29.0715 129.87H30.9435C31.3115 129.87 31.5955 129.79 31.7955 129.63C31.9955 129.462 32.0955 129.226 32.0955 128.922C32.0955 128.626 31.9955 128.398 31.7955 128.238C31.5955 128.078 31.3115 127.998 30.9435 127.998H29.0715V129.87ZM29.0715 132.51H31.0515C31.4515 132.51 31.7555 132.426 31.9635 132.258C32.1715 132.09 32.2755 131.842 32.2755 131.514C32.2755 131.194 32.1715 130.95 31.9635 130.782C31.7555 130.614 31.4515 130.53 31.0515 130.53H29.0715V132.51ZM34.71 133.17V127.338H35.682V129.414H37.446C38.19 129.414 38.754 129.578 39.138 129.906C39.522 130.226 39.714 130.682 39.714 131.274C39.714 131.858 39.514 132.322 39.114 132.666C38.722 133.002 38.166 133.17 37.446 133.17H34.71ZM40.578 133.17V127.338H41.55V133.17H40.578ZM35.682 132.474H37.35C37.798 132.474 38.146 132.378 38.394 132.186C38.65 131.994 38.778 131.694 38.778 131.286C38.778 130.886 38.654 130.59 38.406 130.398C38.158 130.206 37.806 130.11 37.35 130.11H35.682V132.474ZM43.4756 133.17V127.338H44.4116V132.39H46.8476V127.338H47.7716V132.39H50.2076V127.338H51.1436V133.17H43.4756ZM55.7016 133.278C54.7816 133.278 54.0536 133.01 53.5176 132.474C52.9816 131.93 52.7136 131.194 52.7136 130.266C52.7136 129.666 52.8336 129.138 53.0736 128.682C53.3136 128.218 53.6416 127.862 54.0576 127.614C54.4816 127.358 54.9696 127.23 55.5216 127.23C56.3136 127.23 56.9336 127.486 57.3816 127.998C57.8296 128.502 58.0536 129.198 58.0536 130.086V130.458H53.6616C53.6936 131.122 53.8856 131.63 54.2376 131.982C54.5896 132.326 55.0776 132.498 55.7016 132.498C56.0536 132.498 56.3896 132.446 56.7096 132.342C57.0296 132.23 57.3336 132.05 57.6216 131.802L57.9576 132.486C57.6936 132.734 57.3576 132.93 56.9496 133.074C56.5416 133.21 56.1256 133.278 55.7016 133.278ZM55.5456 127.95C54.9936 127.95 54.5576 128.122 54.2376 128.466C53.9176 128.81 53.7296 129.262 53.6736 129.822H57.2136C57.1896 129.23 57.0336 128.77 56.7456 128.442C56.4656 128.114 56.0656 127.95 55.5456 127.95ZM59.5655 133.17V127.338H60.5375V129.762H63.7175V127.338H64.6895V133.17H63.7175V130.554H60.5375V133.17H59.5655ZM66.6084 133.17V127.338H67.4964V131.85L70.8684 127.338H71.6964V133.17H70.8084V128.658L67.4364 133.17H66.6084ZM76.2563 133.278C75.3363 133.278 74.6083 133.01 74.0723 132.474C73.5363 131.93 73.2683 131.194 73.2683 130.266C73.2683 129.666 73.3883 129.138 73.6283 128.682C73.8683 128.218 74.1963 127.862 74.6123 127.614C75.0363 127.358 75.5243 127.23 76.0763 127.23C76.8683 127.23 77.4883 127.486 77.9363 127.998C78.3843 128.502 78.6083 129.198 78.6083 130.086V130.458H74.2163C74.2483 131.122 74.4403 131.63 74.7923 131.982C75.1443 132.326 75.6323 132.498 76.2563 132.498C76.6083 132.498 76.9443 132.446 77.2643 132.342C77.5843 132.23 77.8883 132.05 78.1763 131.802L78.5123 132.486C78.2483 132.734 77.9123 132.93 77.5043 133.074C77.0963 133.21 76.6803 133.278 76.2563 133.278ZM76.1003 127.95C75.5483 127.95 75.1123 128.122 74.7923 128.466C74.4723 128.81 74.2843 129.262 74.2283 129.822H77.7683C77.7443 129.23 77.5883 128.77 77.3003 128.442C77.0203 128.114 76.6203 127.95 76.1003 127.95ZM7.944 149.278C7.36 149.278 6.856 149.154 6.432 148.906C6.008 148.65 5.68 148.294 5.448 147.838C5.224 147.374 5.112 146.834 5.112 146.218C5.112 145.29 5.364 144.562 5.868 144.034C6.372 143.498 7.064 143.23 7.944 143.23C8.304 143.23 8.66 143.294 9.012 143.422C9.364 143.55 9.656 143.73 9.888 143.962L9.552 144.67C9.32 144.446 9.064 144.282 8.784 144.178C8.512 144.074 8.252 144.022 8.004 144.022C7.396 144.022 6.928 144.214 6.6 144.598C6.272 144.974 6.108 145.518 6.108 146.23C6.108 146.926 6.272 147.478 6.6 147.886C6.928 148.286 7.396 148.486 8.004 148.486C8.252 148.486 8.512 148.434 8.784 148.33C9.064 148.226 9.32 148.058 9.552 147.826L9.888 148.534C9.656 148.766 9.36 148.95 9 149.086C8.648 149.214 8.296 149.278 7.944 149.278ZM11.1319 149.17V143.338H12.1039V145.774H13.1959L15.1039 143.338H16.1719L14.1439 145.966C14.3519 146.046 14.5399 146.178 14.7079 146.362C14.8759 146.546 15.0639 146.81 15.2719 147.154L16.4719 149.17H15.4279L14.3719 147.406C14.1719 147.062 13.9799 146.834 13.7959 146.722C13.6119 146.61 13.3519 146.554 13.0159 146.554H12.1039V149.17H11.1319ZM19.8843 149.278C19.3163 149.278 18.8243 149.154 18.4083 148.906C17.9923 148.658 17.6683 148.31 17.4363 147.862C17.2123 147.406 17.1003 146.87 17.1003 146.254C17.1003 145.638 17.2123 145.106 17.4363 144.658C17.6683 144.202 17.9923 143.85 18.4083 143.602C18.8243 143.354 19.3163 143.23 19.8843 143.23C20.4443 143.23 20.9323 143.354 21.3483 143.602C21.7723 143.85 22.0963 144.202 22.3203 144.658C22.5523 145.106 22.6683 145.638 22.6683 146.254C22.6683 146.87 22.5523 147.406 22.3203 147.862C22.0963 148.31 21.7723 148.658 21.3483 148.906C20.9323 149.154 20.4443 149.278 19.8843 149.278ZM19.8843 148.498C20.4283 148.498 20.8643 148.306 21.1923 147.922C21.5203 147.53 21.6843 146.974 21.6843 146.254C21.6843 145.526 21.5203 144.97 21.1923 144.586C20.8643 144.202 20.4283 144.01 19.8843 144.01C19.3323 144.01 18.8923 144.202 18.5643 144.586C18.2443 144.97 18.0843 145.526 18.0843 146.254C18.0843 146.974 18.2443 147.53 18.5643 147.922C18.8923 148.306 19.3323 148.498 19.8843 148.498ZM24.2572 151.33V143.338H25.2052V144.382C25.3812 144.022 25.6412 143.742 25.9852 143.542C26.3372 143.334 26.7452 143.23 27.2092 143.23C27.7292 143.23 28.1812 143.354 28.5652 143.602C28.9572 143.842 29.2572 144.19 29.4652 144.646C29.6812 145.094 29.7892 145.63 29.7892 146.254C29.7892 146.87 29.6812 147.406 29.4652 147.862C29.2572 148.31 28.9572 148.658 28.5652 148.906C28.1812 149.154 27.7292 149.278 27.2092 149.278C26.7612 149.278 26.3612 149.178 26.0092 148.978C25.6572 148.778 25.3972 148.502 25.2292 148.15V151.33H24.2572ZM27.0052 148.498C27.5492 148.498 27.9852 148.306 28.3132 147.922C28.6412 147.53 28.8052 146.974 28.8052 146.254C28.8052 145.526 28.6412 144.97 28.3132 144.586C27.9852 144.202 27.5492 144.01 27.0052 144.01C26.4612 144.01 26.0252 144.202 25.6972 144.586C25.3692 144.97 25.2052 145.526 25.2052 146.254C25.2052 146.974 25.3692 147.53 25.6972 147.922C26.0252 148.306 26.4612 148.498 27.0052 148.498ZM33.7944 149.278C33.2264 149.278 32.7344 149.154 32.3184 148.906C31.9024 148.658 31.5784 148.31 31.3464 147.862C31.1224 147.406 31.0104 146.87 31.0104 146.254C31.0104 145.638 31.1224 145.106 31.3464 144.658C31.5784 144.202 31.9024 143.85 32.3184 143.602C32.7344 143.354 33.2264 143.23 33.7944 143.23C34.3544 143.23 34.8424 143.354 35.2584 143.602C35.6824 143.85 36.0064 144.202 36.2304 144.658C36.4624 145.106 36.5784 145.638 36.5784 146.254C36.5784 146.87 36.4624 147.406 36.2304 147.862C36.0064 148.31 35.6824 148.658 35.2584 148.906C34.8424 149.154 34.3544 149.278 33.7944 149.278ZM33.7944 148.498C34.3384 148.498 34.7744 148.306 35.1024 147.922C35.4304 147.53 35.5944 146.974 35.5944 146.254C35.5944 145.526 35.4304 144.97 35.1024 144.586C34.7744 144.202 34.3384 144.01 33.7944 144.01C33.2424 144.01 32.8024 144.202 32.4744 144.586C32.1544 144.97 31.9944 145.526 31.9944 146.254C31.9944 146.974 32.1544 147.53 32.4744 147.922C32.8024 148.306 33.2424 148.498 33.7944 148.498ZM40.6393 149.278C40.0553 149.278 39.5513 149.154 39.1273 148.906C38.7033 148.65 38.3753 148.294 38.1433 147.838C37.9193 147.374 37.8073 146.834 37.8073 146.218C37.8073 145.29 38.0593 144.562 38.5633 144.034C39.0673 143.498 39.7593 143.23 40.6393 143.23C40.9993 143.23 41.3553 143.294 41.7073 143.422C42.0593 143.55 42.3513 143.73 42.5833 143.962L42.2473 144.67C42.0153 144.446 41.7593 144.282 41.4793 144.178C41.2073 144.074 40.9473 144.022 40.6993 144.022C40.0913 144.022 39.6233 144.214 39.2953 144.598C38.9673 144.974 38.8033 145.518 38.8033 146.23C38.8033 146.926 38.9673 147.478 39.2953 147.886C39.6233 148.286 40.0913 148.486 40.6993 148.486C40.9473 148.486 41.2073 148.434 41.4793 148.33C41.7593 148.226 42.0153 148.058 42.2473 147.826L42.5833 148.534C42.3513 148.766 42.0553 148.95 41.6953 149.086C41.3433 149.214 40.9913 149.278 40.6393 149.278ZM45.0392 149.17V144.118H42.9272V143.338H48.1352V144.118H46.0112V149.17H45.0392ZM49.1592 149.17V143.338H50.0472V147.85L53.4192 143.338H54.2472V149.17H53.3592V144.658L49.9872 149.17H49.1592Z"
          fill="#232735"/>
    <path d="M124.744 12.108C124.032 12.108 123.396 12.012 122.836 11.82C122.284 11.62 121.832 11.352 121.48 11.016L121.828 10.236C122.212 10.572 122.632 10.824 123.088 10.992C123.552 11.152 124.084 11.232 124.684 11.232C125.46 11.232 126.028 11.1 126.388 10.836C126.756 10.564 126.94 10.164 126.94 9.636C126.94 8.628 126.3 8.124 125.02 8.124H122.956V7.308H124.828C126.1 7.308 126.736 6.82 126.736 5.844C126.736 5.364 126.564 4.988 126.22 4.716C125.884 4.444 125.376 4.308 124.696 4.308C124.192 4.308 123.712 4.388 123.256 4.548C122.808 4.7 122.4 4.94 122.032 5.268L121.672 4.488C122.04 4.144 122.496 3.884 123.04 3.708C123.592 3.524 124.168 3.432 124.768 3.432C125.752 3.432 126.492 3.644 126.988 4.068C127.484 4.492 127.732 5.052 127.732 5.748C127.732 6.212 127.608 6.608 127.36 6.936C127.12 7.264 126.792 7.504 126.376 7.656C126.864 7.784 127.244 8.02 127.516 8.364C127.796 8.708 127.936 9.144 127.936 9.672C127.936 10.424 127.672 11.02 127.144 11.46C126.624 11.892 125.824 12.108 124.744 12.108ZM131.484 12.108C131.084 12.108 130.724 12.032 130.404 11.88C130.092 11.72 129.844 11.504 129.66 11.232C129.476 10.96 129.384 10.656 129.384 10.32C129.384 9.896 129.492 9.56 129.708 9.312C129.932 9.064 130.296 8.888 130.8 8.784C131.312 8.672 132.008 8.616 132.888 8.616H133.272V8.244C133.272 7.748 133.168 7.392 132.96 7.176C132.76 6.952 132.436 6.84 131.988 6.84C131.636 6.84 131.296 6.892 130.968 6.996C130.64 7.092 130.304 7.252 129.96 7.476L129.624 6.768C129.928 6.552 130.296 6.38 130.728 6.252C131.168 6.124 131.588 6.06 131.988 6.06C132.74 6.06 133.296 6.244 133.656 6.612C134.024 6.98 134.208 7.552 134.208 8.328V12H133.296V10.992C133.144 11.336 132.908 11.608 132.588 11.808C132.276 12.008 131.908 12.108 131.484 12.108ZM131.64 11.376C132.12 11.376 132.512 11.212 132.816 10.884C133.12 10.548 133.272 10.124 133.272 9.612V9.252H132.9C132.252 9.252 131.74 9.284 131.364 9.348C130.996 9.404 130.736 9.508 130.584 9.66C130.44 9.804 130.368 10.004 130.368 10.26C130.368 10.588 130.48 10.856 130.704 11.064C130.936 11.272 131.248 11.376 131.64 11.376ZM136.105 12V6.168H140.197V6.948H137.077V12H136.105ZM143.755 12.108C143.187 12.108 142.695 11.984 142.279 11.736C141.863 11.488 141.539 11.14 141.307 10.692C141.083 10.236 140.971 9.7 140.971 9.084C140.971 8.468 141.083 7.936 141.307 7.488C141.539 7.032 141.863 6.68 142.279 6.432C142.695 6.184 143.187 6.06 143.755 6.06C144.315 6.06 144.803 6.184 145.219 6.432C145.643 6.68 145.967 7.032 146.191 7.488C146.423 7.936 146.539 8.468 146.539 9.084C146.539 9.7 146.423 10.236 146.191 10.692C145.967 11.14 145.643 11.488 145.219 11.736C144.803 11.984 144.315 12.108 143.755 12.108ZM143.755 11.328C144.299 11.328 144.735 11.136 145.063 10.752C145.391 10.36 145.555 9.804 145.555 9.084C145.555 8.356 145.391 7.8 145.063 7.416C144.735 7.032 144.299 6.84 143.755 6.84C143.203 6.84 142.763 7.032 142.435 7.416C142.115 7.8 141.955 8.356 141.955 9.084C141.955 9.804 142.115 10.36 142.435 10.752C142.763 11.136 143.203 11.328 143.755 11.328ZM148.128 14.16V6.168H149.076V7.212C149.252 6.852 149.512 6.572 149.856 6.372C150.208 6.164 150.616 6.06 151.08 6.06C151.6 6.06 152.052 6.184 152.436 6.432C152.828 6.672 153.128 7.02 153.336 7.476C153.552 7.924 153.66 8.46 153.66 9.084C153.66 9.7 153.552 10.236 153.336 10.692C153.128 11.14 152.828 11.488 152.436 11.736C152.052 11.984 151.6 12.108 151.08 12.108C150.632 12.108 150.232 12.008 149.88 11.808C149.528 11.608 149.268 11.332 149.1 10.98V14.16H148.128ZM150.876 11.328C151.42 11.328 151.856 11.136 152.184 10.752C152.512 10.36 152.676 9.804 152.676 9.084C152.676 8.356 152.512 7.8 152.184 7.416C151.856 7.032 151.42 6.84 150.876 6.84C150.332 6.84 149.896 7.032 149.568 7.416C149.24 7.8 149.076 8.356 149.076 9.084C149.076 9.804 149.24 10.36 149.568 10.752C149.896 11.136 150.332 11.328 150.876 11.328ZM157.666 12.108C157.098 12.108 156.606 11.984 156.19 11.736C155.774 11.488 155.45 11.14 155.218 10.692C154.994 10.236 154.882 9.7 154.882 9.084C154.882 8.468 154.994 7.936 155.218 7.488C155.45 7.032 155.774 6.68 156.19 6.432C156.606 6.184 157.098 6.06 157.666 6.06C158.226 6.06 158.714 6.184 159.13 6.432C159.554 6.68 159.878 7.032 160.102 7.488C160.334 7.936 160.45 8.468 160.45 9.084C160.45 9.7 160.334 10.236 160.102 10.692C159.878 11.14 159.554 11.488 159.13 11.736C158.714 11.984 158.226 12.108 157.666 12.108ZM157.666 11.328C158.21 11.328 158.646 11.136 158.974 10.752C159.302 10.36 159.466 9.804 159.466 9.084C159.466 8.356 159.302 7.8 158.974 7.416C158.646 7.032 158.21 6.84 157.666 6.84C157.114 6.84 156.674 7.032 156.346 7.416C156.026 7.8 155.866 8.356 155.866 9.084C155.866 9.804 156.026 10.36 156.346 10.752C156.674 11.136 157.114 11.328 157.666 11.328ZM161.39 13.56V11.22H162.002C162.282 10.812 162.482 10.344 162.602 9.816C162.722 9.28 162.782 8.636 162.782 7.884V6.168H166.91V11.22H167.834V13.56H166.994V12H162.218V13.56H161.39ZM162.938 11.22H165.986V6.936H163.646V8.052C163.646 8.652 163.586 9.232 163.466 9.792C163.346 10.352 163.17 10.828 162.938 11.22ZM169.128 12V6.168H170.1V8.592H173.28V6.168H174.252V12H173.28V9.384H170.1V12H169.128ZM176.171 12V6.168H177.143V8.244H178.907C179.651 8.244 180.215 8.408 180.599 8.736C180.983 9.056 181.175 9.512 181.175 10.104C181.175 10.688 180.975 11.152 180.575 11.496C180.183 11.832 179.627 12 178.907 12H176.171ZM182.039 12V6.168H183.011V12H182.039ZM177.143 11.304H178.811C179.259 11.304 179.607 11.208 179.855 11.016C180.111 10.824 180.239 10.524 180.239 10.116C180.239 9.716 180.115 9.42 179.867 9.228C179.619 9.036 179.267 8.94 178.811 8.94H177.143V11.304ZM187.577 12.108C186.657 12.108 185.929 11.84 185.393 11.304C184.857 10.76 184.589 10.024 184.589 9.096C184.589 8.496 184.709 7.968 184.949 7.512C185.189 7.048 185.517 6.692 185.933 6.444C186.357 6.188 186.845 6.06 187.397 6.06C188.189 6.06 188.809 6.316 189.257 6.828C189.705 7.332 189.929 8.028 189.929 8.916V9.288H185.537C185.569 9.952 185.761 10.46 186.113 10.812C186.465 11.156 186.953 11.328 187.577 11.328C187.929 11.328 188.265 11.276 188.585 11.172C188.905 11.06 189.209 10.88 189.497 10.632L189.833 11.316C189.569 11.564 189.233 11.76 188.825 11.904C188.417 12.04 188.001 12.108 187.577 12.108ZM187.421 6.78C186.869 6.78 186.433 6.952 186.113 7.296C185.793 7.64 185.605 8.092 185.549 8.652H189.089C189.065 8.06 188.909 7.6 188.621 7.272C188.341 6.944 187.941 6.78 187.421 6.78Z"
          fill="#232735"/>
    <g clip-path="url(#clip1_219_913)">
        <path fill-rule="evenodd" clip-rule="evenodd"
              d="M156 24C172.34 24 185.59 37.25 185.59 53.59C185.59 58.78 184.22 63.89 181.63 68.38L156 53.59V24Z" fill="#0D9B1B"/>
        <path fill-rule="evenodd" clip-rule="evenodd"
              d="M181.63 68.38C173.46 82.53 155.36 87.38 141.21 79.21C127.06 71.04 122.21 52.94 130.38 38.79C135.66 29.64 145.43 24 156 24V53.59L181.63 68.38Z"
              fill="#AFC9F0"/>
    </g>
    <path d="M126.5 107.18H116.5V117.18H126.5V107.18Z" fill="#0D9B1B"/>
    <path d="M117.544 133.18V124.72H120.892C121.804 124.72 122.5 124.94 122.98 125.38C123.468 125.82 123.712 126.448 123.712 127.264C123.712 128.072 123.468 128.7 122.98 129.148C122.5 129.588 121.804 129.808 120.892 129.808H118.528V133.18H117.544ZM118.528 128.98H120.772C122.084 128.98 122.74 128.408 122.74 127.264C122.74 126.112 122.084 125.536 120.772 125.536H118.528V128.98ZM127.506 133.288C126.586 133.288 125.858 133.02 125.322 132.484C124.786 131.94 124.518 131.204 124.518 130.276C124.518 129.676 124.638 129.148 124.878 128.692C125.118 128.228 125.446 127.872 125.862 127.624C126.286 127.368 126.774 127.24 127.326 127.24C128.118 127.24 128.738 127.496 129.186 128.008C129.634 128.512 129.858 129.208 129.858 130.096V130.468H125.466C125.498 131.132 125.69 131.64 126.042 131.992C126.394 132.336 126.882 132.508 127.506 132.508C127.858 132.508 128.194 132.456 128.514 132.352C128.834 132.24 129.138 132.06 129.426 131.812L129.762 132.496C129.498 132.744 129.162 132.94 128.754 133.084C128.346 133.22 127.93 133.288 127.506 133.288ZM127.35 127.96C126.798 127.96 126.362 128.132 126.042 128.476C125.722 128.82 125.534 129.272 125.478 129.832H129.018C128.994 129.24 128.838 128.78 128.55 128.452C128.27 128.124 127.87 127.96 127.35 127.96ZM133.302 133.288C132.798 133.288 132.322 133.224 131.874 133.096C131.434 132.96 131.078 132.772 130.806 132.532L131.118 131.848C131.398 132.072 131.726 132.244 132.102 132.364C132.478 132.476 132.87 132.532 133.278 132.532C133.854 132.532 134.266 132.448 134.514 132.28C134.77 132.112 134.898 131.864 134.898 131.536C134.898 130.904 134.494 130.588 133.686 130.588H132.306V129.856H133.566C133.91 129.856 134.182 129.776 134.382 129.616C134.59 129.456 134.694 129.232 134.694 128.944C134.694 128.656 134.582 128.428 134.358 128.26C134.134 128.084 133.774 127.996 133.278 127.996C132.502 127.996 131.814 128.208 131.214 128.632L130.902 127.948C131.558 127.476 132.39 127.24 133.398 127.24C134.142 127.24 134.698 127.384 135.066 127.672C135.434 127.96 135.618 128.364 135.618 128.884C135.618 129.18 135.53 129.444 135.354 129.676C135.186 129.9 134.954 130.064 134.658 130.168C135.018 130.256 135.302 130.424 135.51 130.672C135.718 130.912 135.822 131.212 135.822 131.572C135.822 132.092 135.61 132.508 135.186 132.82C134.762 133.132 134.134 133.288 133.302 133.288ZM137.335 133.18V127.348H138.307V129.784H139.399L141.307 127.348H142.375L140.347 129.976C140.555 130.056 140.743 130.188 140.911 130.372C141.079 130.556 141.267 130.82 141.475 131.164L142.675 133.18H141.631L140.575 131.416C140.375 131.072 140.183 130.844 139.999 130.732C139.815 130.62 139.555 130.564 139.219 130.564H138.307V133.18H137.335ZM143.651 133.18V127.348H144.539V131.86L147.911 127.348H148.739V133.18H147.851V128.668L144.479 133.18H143.651ZM153.299 133.288C152.379 133.288 151.651 133.02 151.115 132.484C150.579 131.94 150.311 131.204 150.311 130.276C150.311 129.676 150.431 129.148 150.671 128.692C150.911 128.228 151.239 127.872 151.655 127.624C152.079 127.368 152.567 127.24 153.119 127.24C153.911 127.24 154.531 127.496 154.979 128.008C155.427 128.512 155.651 129.208 155.651 130.096V130.468H151.259C151.291 131.132 151.483 131.64 151.835 131.992C152.187 132.336 152.675 132.508 153.299 132.508C153.651 132.508 153.987 132.456 154.307 132.352C154.627 132.24 154.931 132.06 155.219 131.812L155.555 132.496C155.291 132.744 154.955 132.94 154.547 133.084C154.139 133.22 153.723 133.288 153.299 133.288ZM153.143 127.96C152.591 127.96 152.155 128.132 151.835 128.476C151.515 128.82 151.327 129.272 151.271 129.832H154.811C154.787 129.24 154.631 128.78 154.343 128.452C154.063 128.124 153.663 127.96 153.143 127.96ZM118.144 151.34L119.14 149.084L116.68 143.348H117.736L119.668 148.076L121.612 143.348H122.632L119.164 151.34H118.144ZM126.167 149.288C125.583 149.288 125.079 149.164 124.655 148.916C124.231 148.66 123.903 148.304 123.671 147.848C123.447 147.384 123.335 146.844 123.335 146.228C123.335 145.3 123.587 144.572 124.091 144.044C124.595 143.508 125.287 143.24 126.167 143.24C126.527 143.24 126.883 143.304 127.235 143.432C127.587 143.56 127.879 143.74 128.111 143.972L127.775 144.68C127.543 144.456 127.287 144.292 127.007 144.188C126.735 144.084 126.475 144.032 126.227 144.032C125.619 144.032 125.151 144.224 124.823 144.608C124.495 144.984 124.331 145.528 124.331 146.24C124.331 146.936 124.495 147.488 124.823 147.896C125.151 148.296 125.619 148.496 126.227 148.496C126.475 148.496 126.735 148.444 127.007 148.34C127.287 148.236 127.543 148.068 127.775 147.836L128.111 148.544C127.879 148.776 127.583 148.96 127.223 149.096C126.871 149.224 126.519 149.288 126.167 149.288ZM129.355 149.18V143.348H130.327V145.784H131.419L133.327 143.348H134.395L132.367 145.976C132.575 146.056 132.763 146.188 132.931 146.372C133.099 146.556 133.287 146.82 133.495 147.164L134.695 149.18H133.651L132.595 147.416C132.395 147.072 132.203 146.844 132.019 146.732C131.835 146.62 131.575 146.564 131.239 146.564H130.327V149.18H129.355ZM138.107 149.288C137.539 149.288 137.047 149.164 136.631 148.916C136.215 148.668 135.891 148.32 135.659 147.872C135.435 147.416 135.323 146.88 135.323 146.264C135.323 145.648 135.435 145.116 135.659 144.668C135.891 144.212 136.215 143.86 136.631 143.612C137.047 143.364 137.539 143.24 138.107 143.24C138.667 143.24 139.155 143.364 139.571 143.612C139.995 143.86 140.319 144.212 140.543 144.668C140.775 145.116 140.891 145.648 140.891 146.264C140.891 146.88 140.775 147.416 140.543 147.872C140.319 148.32 139.995 148.668 139.571 148.916C139.155 149.164 138.667 149.288 138.107 149.288ZM138.107 148.508C138.651 148.508 139.087 148.316 139.415 147.932C139.743 147.54 139.907 146.984 139.907 146.264C139.907 145.536 139.743 144.98 139.415 144.596C139.087 144.212 138.651 144.02 138.107 144.02C137.555 144.02 137.115 144.212 136.787 144.596C136.467 144.98 136.307 145.536 136.307 146.264C136.307 146.984 136.467 147.54 136.787 147.932C137.115 148.316 137.555 148.508 138.107 148.508ZM142.48 151.34V143.348H143.428V144.392C143.604 144.032 143.864 143.752 144.208 143.552C144.56 143.344 144.968 143.24 145.432 143.24C145.952 143.24 146.404 143.364 146.788 143.612C147.18 143.852 147.48 144.2 147.688 144.656C147.904 145.104 148.012 145.64 148.012 146.264C148.012 146.88 147.904 147.416 147.688 147.872C147.48 148.32 147.18 148.668 146.788 148.916C146.404 149.164 145.952 149.288 145.432 149.288C144.984 149.288 144.584 149.188 144.232 148.988C143.88 148.788 143.62 148.512 143.452 148.16V151.34H142.48ZM145.228 148.508C145.772 148.508 146.208 148.316 146.536 147.932C146.864 147.54 147.028 146.984 147.028 146.264C147.028 145.536 146.864 144.98 146.536 144.596C146.208 144.212 145.772 144.02 145.228 144.02C144.684 144.02 144.248 144.212 143.92 144.596C143.592 144.98 143.428 145.536 143.428 146.264C143.428 146.984 143.592 147.54 143.92 147.932C144.248 148.316 144.684 148.508 145.228 148.508ZM152.221 149.288C151.301 149.288 150.573 149.02 150.037 148.484C149.501 147.94 149.233 147.204 149.233 146.276C149.233 145.676 149.353 145.148 149.593 144.692C149.833 144.228 150.161 143.872 150.577 143.624C151.001 143.368 151.489 143.24 152.041 143.24C152.833 143.24 153.453 143.496 153.901 144.008C154.349 144.512 154.573 145.208 154.573 146.096V146.468H150.181C150.213 147.132 150.405 147.64 150.757 147.992C151.109 148.336 151.597 148.508 152.221 148.508C152.573 148.508 152.909 148.456 153.229 148.352C153.549 148.24 153.853 148.06 154.141 147.812L154.477 148.496C154.213 148.744 153.877 148.94 153.469 149.084C153.061 149.22 152.645 149.288 152.221 149.288ZM152.065 143.96C151.513 143.96 151.077 144.132 150.757 144.476C150.437 144.82 150.249 145.272 150.193 145.832H153.733C153.709 145.24 153.553 144.78 153.265 144.452C152.985 144.124 152.585 143.96 152.065 143.96ZM156.085 149.18V143.348H157.057V145.772H160.237V143.348H161.209V149.18H160.237V146.564H157.057V149.18H156.085ZM163.128 149.18V143.348H164.016V147.86L167.388 143.348H168.216V149.18H167.328V144.668L163.956 149.18H163.128ZM169.656 149.18L170.556 147.62C170.796 147.196 171.104 146.92 171.48 146.792C170.984 146.72 170.6 146.54 170.328 146.252C170.056 145.956 169.92 145.572 169.92 145.1C169.92 144.564 170.096 144.14 170.448 143.828C170.808 143.508 171.344 143.348 172.056 143.348H174.684V149.18H173.76V146.96H172.908C172.588 146.96 172.316 147.04 172.092 147.2C171.876 147.36 171.7 147.556 171.564 147.788L170.772 149.18H169.656ZM172.236 146.252H173.76V144.032H172.236C171.764 144.032 171.416 144.132 171.192 144.332C170.968 144.524 170.856 144.792 170.856 145.136C170.856 145.488 170.968 145.764 171.192 145.964C171.416 146.156 171.764 146.252 172.236 146.252ZM179.267 149.936L178.499 149.708L181.571 140.156L182.351 140.384L179.267 149.936ZM118.672 165.18V160.128H116.56V159.348H121.768V160.128H119.644V165.18H118.672ZM125.205 165.288C124.637 165.288 124.145 165.164 123.729 164.916C123.313 164.668 122.989 164.32 122.757 163.872C122.533 163.416 122.421 162.88 122.421 162.264C122.421 161.648 122.533 161.116 122.757 160.668C122.989 160.212 123.313 159.86 123.729 159.612C124.145 159.364 124.637 159.24 125.205 159.24C125.765 159.24 126.253 159.364 126.669 159.612C127.093 159.86 127.417 160.212 127.641 160.668C127.873 161.116 127.989 161.648 127.989 162.264C127.989 162.88 127.873 163.416 127.641 163.872C127.417 164.32 127.093 164.668 126.669 164.916C126.253 165.164 125.765 165.288 125.205 165.288ZM125.205 164.508C125.749 164.508 126.185 164.316 126.513 163.932C126.841 163.54 127.005 162.984 127.005 162.264C127.005 161.536 126.841 160.98 126.513 160.596C126.185 160.212 125.749 160.02 125.205 160.02C124.653 160.02 124.213 160.212 123.885 160.596C123.565 160.98 123.405 161.536 123.405 162.264C123.405 162.984 123.565 163.54 123.885 163.932C124.213 164.316 124.653 164.508 125.205 164.508ZM129.577 167.34V159.348H130.525V160.392C130.701 160.032 130.961 159.752 131.305 159.552C131.657 159.344 132.065 159.24 132.529 159.24C133.049 159.24 133.501 159.364 133.885 159.612C134.277 159.852 134.577 160.2 134.785 160.656C135.001 161.104 135.109 161.64 135.109 162.264C135.109 162.88 135.001 163.416 134.785 163.872C134.577 164.32 134.277 164.668 133.885 164.916C133.501 165.164 133.049 165.288 132.529 165.288C132.081 165.288 131.681 165.188 131.329 164.988C130.977 164.788 130.717 164.512 130.549 164.16V167.34H129.577ZM132.325 164.508C132.869 164.508 133.305 164.316 133.633 163.932C133.961 163.54 134.125 162.984 134.125 162.264C134.125 161.536 133.961 160.98 133.633 160.596C133.305 160.212 132.869 160.02 132.325 160.02C131.781 160.02 131.345 160.212 131.017 160.596C130.689 160.98 130.525 161.536 130.525 162.264C130.525 162.984 130.689 163.54 131.017 163.932C131.345 164.316 131.781 164.508 132.325 164.508ZM136.679 165.18V159.348H137.483L139.679 163.248L141.875 159.348H142.667V165.18H141.803V160.932L139.919 164.244H139.427L137.543 160.932V165.18H136.679ZM147.025 165.288C146.457 165.288 145.965 165.164 145.549 164.916C145.133 164.668 144.809 164.32 144.577 163.872C144.353 163.416 144.241 162.88 144.241 162.264C144.241 161.648 144.353 161.116 144.577 160.668C144.809 160.212 145.133 159.86 145.549 159.612C145.965 159.364 146.457 159.24 147.025 159.24C147.585 159.24 148.073 159.364 148.489 159.612C148.913 159.86 149.237 160.212 149.461 160.668C149.693 161.116 149.809 161.648 149.809 162.264C149.809 162.88 149.693 163.416 149.461 163.872C149.237 164.32 148.913 164.668 148.489 164.916C148.073 165.164 147.585 165.288 147.025 165.288ZM147.025 164.508C147.569 164.508 148.005 164.316 148.333 163.932C148.661 163.54 148.825 162.984 148.825 162.264C148.825 161.536 148.661 160.98 148.333 160.596C148.005 160.212 147.569 160.02 147.025 160.02C146.473 160.02 146.033 160.212 145.705 160.596C145.385 160.98 145.225 161.536 145.225 162.264C145.225 162.984 145.385 163.54 145.705 163.932C146.033 164.316 146.473 164.508 147.025 164.508ZM150.438 165.18L151.638 163.164C151.846 162.812 152.034 162.544 152.202 162.36C152.378 162.176 152.574 162.044 152.79 161.964L150.738 159.348H151.806L153.726 161.784H154.65V159.348H155.622V161.784H156.558L158.466 159.348H159.534L157.482 161.964C157.698 162.044 157.89 162.176 158.058 162.36C158.234 162.544 158.426 162.812 158.634 163.164L159.834 165.18H158.79L157.734 163.416C157.534 163.072 157.338 162.844 157.146 162.732C156.962 162.62 156.706 162.564 156.378 162.564H155.622V165.18H154.65V162.564H153.894C153.566 162.564 153.31 162.62 153.126 162.732C152.942 162.844 152.746 163.072 152.538 163.416L151.482 165.18H150.438ZM163.448 165.288C162.528 165.288 161.8 165.02 161.264 164.484C160.728 163.94 160.46 163.204 160.46 162.276C160.46 161.676 160.58 161.148 160.82 160.692C161.06 160.228 161.388 159.872 161.804 159.624C162.228 159.368 162.716 159.24 163.268 159.24C164.06 159.24 164.68 159.496 165.128 160.008C165.576 160.512 165.8 161.208 165.8 162.096V162.468H161.408C161.44 163.132 161.632 163.64 161.984 163.992C162.336 164.336 162.824 164.508 163.448 164.508C163.8 164.508 164.136 164.456 164.456 164.352C164.776 164.24 165.08 164.06 165.368 163.812L165.704 164.496C165.44 164.744 165.104 164.94 164.696 165.084C164.288 165.22 163.872 165.288 163.448 165.288ZM163.292 159.96C162.74 159.96 162.304 160.132 161.984 160.476C161.664 160.82 161.476 161.272 161.42 161.832H164.96C164.936 161.24 164.78 160.78 164.492 160.452C164.212 160.124 163.812 159.96 163.292 159.96ZM167.312 165.18V159.348H168.284V161.772H171.464V159.348H172.436V165.18H171.464V162.564H168.284V165.18H167.312ZM174.355 165.18V159.348H175.243V163.86L178.615 159.348H179.443V165.18H178.555V160.668L175.183 165.18H174.355ZM180.882 165.18L181.782 163.62C182.022 163.196 182.33 162.92 182.706 162.792C182.21 162.72 181.826 162.54 181.554 162.252C181.282 161.956 181.146 161.572 181.146 161.1C181.146 160.564 181.322 160.14 181.674 159.828C182.034 159.508 182.57 159.348 183.282 159.348H185.91V165.18H184.986V162.96H184.134C183.814 162.96 183.542 163.04 183.318 163.2C183.102 163.36 182.926 163.556 182.79 163.788L181.998 165.18H180.882ZM183.462 162.252H184.986V160.032H183.462C182.99 160.032 182.642 160.132 182.418 160.332C182.194 160.524 182.082 160.792 182.082 161.136C182.082 161.488 182.194 161.764 182.418 161.964C182.642 162.156 182.99 162.252 183.462 162.252Z"
          fill="#232735"/>
    <path d="M235.068 12V3.54H235.896L239.148 9.648L242.376 3.54H243.204V12H242.292V5.388L239.472 10.692H238.824L235.968 5.4V12H235.068ZM247.074 12.108C246.674 12.108 246.314 12.032 245.994 11.88C245.682 11.72 245.434 11.504 245.25 11.232C245.066 10.96 244.974 10.656 244.974 10.32C244.974 9.896 245.082 9.56 245.298 9.312C245.522 9.064 245.886 8.888 246.39 8.784C246.902 8.672 247.598 8.616 248.478 8.616H248.862V8.244C248.862 7.748 248.758 7.392 248.55 7.176C248.35 6.952 248.026 6.84 247.578 6.84C247.226 6.84 246.886 6.892 246.558 6.996C246.23 7.092 245.894 7.252 245.55 7.476L245.214 6.768C245.518 6.552 245.886 6.38 246.318 6.252C246.758 6.124 247.178 6.06 247.578 6.06C248.33 6.06 248.886 6.244 249.246 6.612C249.614 6.98 249.798 7.552 249.798 8.328V12H248.886V10.992C248.734 11.336 248.498 11.608 248.178 11.808C247.866 12.008 247.498 12.108 247.074 12.108ZM247.23 11.376C247.71 11.376 248.102 11.212 248.406 10.884C248.71 10.548 248.862 10.124 248.862 9.612V9.252H248.49C247.842 9.252 247.33 9.284 246.954 9.348C246.586 9.404 246.326 9.508 246.174 9.66C246.03 9.804 245.958 10.004 245.958 10.26C245.958 10.588 246.07 10.856 246.294 11.064C246.526 11.272 246.838 11.376 247.23 11.376ZM251.694 12V6.168H255.786V6.948H252.666V12H251.694ZM256.909 12V6.168H257.797V10.68L261.169 6.168H261.997V12H261.109V7.488L257.737 12H256.909ZM266.401 12.108C265.817 12.108 265.313 11.984 264.889 11.736C264.465 11.48 264.137 11.124 263.905 10.668C263.681 10.204 263.569 9.664 263.569 9.048C263.569 8.12 263.821 7.392 264.325 6.864C264.829 6.328 265.521 6.06 266.401 6.06C266.761 6.06 267.117 6.124 267.469 6.252C267.821 6.38 268.113 6.56 268.345 6.792L268.009 7.5C267.777 7.276 267.521 7.112 267.241 7.008C266.969 6.904 266.709 6.852 266.461 6.852C265.853 6.852 265.385 7.044 265.057 7.428C264.729 7.804 264.565 8.348 264.565 9.06C264.565 9.756 264.729 10.308 265.057 10.716C265.385 11.116 265.853 11.316 266.461 11.316C266.709 11.316 266.969 11.264 267.241 11.16C267.521 11.056 267.777 10.888 268.009 10.656L268.345 11.364C268.113 11.596 267.817 11.78 267.457 11.916C267.105 12.044 266.753 12.108 266.401 12.108ZM270.801 12V6.948H268.689V6.168H273.897V6.948H271.773V12H270.801ZM274.933 14.16V6.168H275.881V7.212C276.057 6.852 276.317 6.572 276.661 6.372C277.013 6.164 277.421 6.06 277.885 6.06C278.405 6.06 278.857 6.184 279.241 6.432C279.633 6.672 279.933 7.02 280.141 7.476C280.357 7.924 280.465 8.46 280.465 9.084C280.465 9.7 280.357 10.236 280.141 10.692C279.933 11.14 279.633 11.488 279.241 11.736C278.857 11.984 278.405 12.108 277.885 12.108C277.437 12.108 277.037 12.008 276.685 11.808C276.333 11.608 276.073 11.332 275.905 10.98V14.16H274.933ZM277.681 11.328C278.225 11.328 278.661 11.136 278.989 10.752C279.317 10.36 279.481 9.804 279.481 9.084C279.481 8.356 279.317 7.8 278.989 7.416C278.661 7.032 278.225 6.84 277.681 6.84C277.137 6.84 276.701 7.032 276.373 7.416C276.045 7.8 275.881 8.356 275.881 9.084C275.881 9.804 276.045 10.36 276.373 10.752C276.701 11.136 277.137 11.328 277.681 11.328ZM283.882 12.108C283.482 12.108 283.122 12.032 282.802 11.88C282.49 11.72 282.242 11.504 282.058 11.232C281.874 10.96 281.782 10.656 281.782 10.32C281.782 9.896 281.89 9.56 282.106 9.312C282.33 9.064 282.694 8.888 283.198 8.784C283.71 8.672 284.406 8.616 285.286 8.616H285.67V8.244C285.67 7.748 285.566 7.392 285.358 7.176C285.158 6.952 284.834 6.84 284.386 6.84C284.034 6.84 283.694 6.892 283.366 6.996C283.038 7.092 282.702 7.252 282.358 7.476L282.022 6.768C282.326 6.552 282.694 6.38 283.126 6.252C283.566 6.124 283.986 6.06 284.386 6.06C285.138 6.06 285.694 6.244 286.054 6.612C286.422 6.98 286.606 7.552 286.606 8.328V12H285.694V10.992C285.542 11.336 285.306 11.608 284.986 11.808C284.674 12.008 284.306 12.108 283.882 12.108ZM284.038 11.376C284.518 11.376 284.91 11.212 285.214 10.884C285.518 10.548 285.67 10.124 285.67 9.612V9.252H285.298C284.65 9.252 284.138 9.284 283.762 9.348C283.394 9.404 283.134 9.508 282.982 9.66C282.838 9.804 282.766 10.004 282.766 10.26C282.766 10.588 282.878 10.856 283.102 11.064C283.334 11.272 283.646 11.376 284.038 11.376ZM288.179 12.132L287.819 11.364C288.179 11.212 288.463 11 288.671 10.728C288.879 10.448 289.023 10.064 289.103 9.576C289.191 9.088 289.235 8.448 289.235 7.656V6.168H293.471V12H292.499V6.948H290.147V7.692C290.147 8.604 290.079 9.356 289.943 9.948C289.815 10.54 289.607 11.008 289.319 11.352C289.031 11.696 288.651 11.956 288.179 12.132ZM295.394 12V6.168H296.282V10.68L299.654 6.168H300.482V12H299.594V7.488L296.222 12H295.394Z"
          fill="#232735"/>
    <g clip-path="url(#clip2_219_913)">
        <path fill-rule="evenodd" clip-rule="evenodd"
              d="M268 24C284.34 24 297.59 37.25 297.59 53.59C297.59 58.78 296.22 63.89 293.63 68.38L268 53.59V24Z" fill="#AFC9F0"/>
        <path fill-rule="evenodd" clip-rule="evenodd"
              d="M293.63 68.38C285.46 82.53 267.36 87.38 253.21 79.21C239.06 71.04 234.21 52.94 242.38 38.79C247.66 29.64 257.43 24 268 24V53.59L293.63 68.38Z"
              fill="#0D9B1B"/>
    </g>
    <path d="M238.5 107.18H228.5V117.18H238.5V107.18Z" fill="#091BAD"/>
    <path d="M229.544 133.18V124.72H232.892C233.804 124.72 234.5 124.94 234.98 125.38C235.468 125.82 235.712 126.448 235.712 127.264C235.712 128.072 235.468 128.7 234.98 129.148C234.5 129.588 233.804 129.808 232.892 129.808H230.528V133.18H229.544ZM230.528 128.98H232.772C234.084 128.98 234.74 128.408 234.74 127.264C234.74 126.112 234.084 125.536 232.772 125.536H230.528V128.98ZM239.506 133.288C238.586 133.288 237.858 133.02 237.322 132.484C236.786 131.94 236.518 131.204 236.518 130.276C236.518 129.676 236.638 129.148 236.878 128.692C237.118 128.228 237.446 127.872 237.862 127.624C238.286 127.368 238.774 127.24 239.326 127.24C240.118 127.24 240.738 127.496 241.186 128.008C241.634 128.512 241.858 129.208 241.858 130.096V130.468H237.466C237.498 131.132 237.69 131.64 238.042 131.992C238.394 132.336 238.882 132.508 239.506 132.508C239.858 132.508 240.194 132.456 240.514 132.352C240.834 132.24 241.138 132.06 241.426 131.812L241.762 132.496C241.498 132.744 241.162 132.94 240.754 133.084C240.346 133.22 239.93 133.288 239.506 133.288ZM239.35 127.96C238.798 127.96 238.362 128.132 238.042 128.476C237.722 128.82 237.534 129.272 237.478 129.832H241.018C240.994 129.24 240.838 128.78 240.55 128.452C240.27 128.124 239.87 127.96 239.35 127.96ZM245.302 133.288C244.798 133.288 244.322 133.224 243.874 133.096C243.434 132.96 243.078 132.772 242.806 132.532L243.118 131.848C243.398 132.072 243.726 132.244 244.102 132.364C244.478 132.476 244.87 132.532 245.278 132.532C245.854 132.532 246.266 132.448 246.514 132.28C246.77 132.112 246.898 131.864 246.898 131.536C246.898 130.904 246.494 130.588 245.686 130.588H244.306V129.856H245.566C245.91 129.856 246.182 129.776 246.382 129.616C246.59 129.456 246.694 129.232 246.694 128.944C246.694 128.656 246.582 128.428 246.358 128.26C246.134 128.084 245.774 127.996 245.278 127.996C244.502 127.996 243.814 128.208 243.214 128.632L242.902 127.948C243.558 127.476 244.39 127.24 245.398 127.24C246.142 127.24 246.698 127.384 247.066 127.672C247.434 127.96 247.618 128.364 247.618 128.884C247.618 129.18 247.53 129.444 247.354 129.676C247.186 129.9 246.954 130.064 246.658 130.168C247.018 130.256 247.302 130.424 247.51 130.672C247.718 130.912 247.822 131.212 247.822 131.572C247.822 132.092 247.61 132.508 247.186 132.82C246.762 133.132 246.134 133.288 245.302 133.288ZM249.335 133.18V127.348H250.307V129.784H251.399L253.307 127.348H254.375L252.347 129.976C252.555 130.056 252.743 130.188 252.911 130.372C253.079 130.556 253.267 130.82 253.475 131.164L254.675 133.18H253.631L252.575 131.416C252.375 131.072 252.183 130.844 251.999 130.732C251.815 130.62 251.555 130.564 251.219 130.564H250.307V133.18H249.335ZM255.651 133.18V127.348H256.539V131.86L259.911 127.348H260.739V133.18H259.851V128.668L256.479 133.18H255.651ZM265.299 133.288C264.379 133.288 263.651 133.02 263.115 132.484C262.579 131.94 262.311 131.204 262.311 130.276C262.311 129.676 262.431 129.148 262.671 128.692C262.911 128.228 263.239 127.872 263.655 127.624C264.079 127.368 264.567 127.24 265.119 127.24C265.911 127.24 266.531 127.496 266.979 128.008C267.427 128.512 267.651 129.208 267.651 130.096V130.468H263.259C263.291 131.132 263.483 131.64 263.835 131.992C264.187 132.336 264.675 132.508 265.299 132.508C265.651 132.508 265.987 132.456 266.307 132.352C266.627 132.24 266.931 132.06 267.219 131.812L267.555 132.496C267.291 132.744 266.955 132.94 266.547 133.084C266.139 133.22 265.723 133.288 265.299 133.288ZM265.143 127.96C264.591 127.96 264.155 128.132 263.835 128.476C263.515 128.82 263.327 129.272 263.271 129.832H266.811C266.787 129.24 266.631 128.78 266.343 128.452C266.063 128.124 265.663 127.96 265.143 127.96ZM229.46 149.18V143.348H234.548V149.18H233.576V144.128H230.432V149.18H229.46ZM238.904 149.288C238.336 149.288 237.844 149.164 237.428 148.916C237.012 148.668 236.688 148.32 236.456 147.872C236.232 147.416 236.12 146.88 236.12 146.264C236.12 145.648 236.232 145.116 236.456 144.668C236.688 144.212 237.012 143.86 237.428 143.612C237.844 143.364 238.336 143.24 238.904 143.24C239.464 143.24 239.952 143.364 240.368 143.612C240.792 143.86 241.116 144.212 241.34 144.668C241.572 145.116 241.688 145.648 241.688 146.264C241.688 146.88 241.572 147.416 241.34 147.872C241.116 148.32 240.792 148.668 240.368 148.916C239.952 149.164 239.464 149.288 238.904 149.288ZM238.904 148.508C239.448 148.508 239.884 148.316 240.212 147.932C240.54 147.54 240.704 146.984 240.704 146.264C240.704 145.536 240.54 144.98 240.212 144.596C239.884 144.212 239.448 144.02 238.904 144.02C238.352 144.02 237.912 144.212 237.584 144.596C237.264 144.98 237.104 145.536 237.104 146.264C237.104 146.984 237.264 147.54 237.584 147.932C237.912 148.316 238.352 148.508 238.904 148.508ZM243.265 149.18V143.348H246.109C246.797 143.348 247.305 143.48 247.633 143.744C247.961 144 248.125 144.38 248.125 144.884C248.125 145.188 248.037 145.452 247.861 145.676C247.693 145.9 247.461 146.064 247.165 146.168C247.525 146.256 247.805 146.424 248.005 146.672C248.213 146.92 248.317 147.22 248.317 147.572C248.317 148.068 248.133 148.46 247.765 148.748C247.397 149.036 246.877 149.18 246.205 149.18H243.265ZM244.189 145.88H246.061C246.429 145.88 246.713 145.8 246.913 145.64C247.113 145.472 247.213 145.236 247.213 144.932C247.213 144.636 247.113 144.408 246.913 144.248C246.713 144.088 246.429 144.008 246.061 144.008H244.189V145.88ZM244.189 148.52H246.169C246.569 148.52 246.873 148.436 247.081 148.268C247.289 148.1 247.393 147.852 247.393 147.524C247.393 147.204 247.289 146.96 247.081 146.792C246.873 146.624 246.569 146.54 246.169 146.54H244.189V148.52ZM252.263 149.288C251.695 149.288 251.203 149.164 250.787 148.916C250.371 148.668 250.047 148.32 249.815 147.872C249.591 147.416 249.479 146.88 249.479 146.264C249.479 145.648 249.591 145.116 249.815 144.668C250.047 144.212 250.371 143.86 250.787 143.612C251.203 143.364 251.695 143.24 252.263 143.24C252.823 143.24 253.311 143.364 253.727 143.612C254.151 143.86 254.475 144.212 254.699 144.668C254.931 145.116 255.047 145.648 255.047 146.264C255.047 146.88 254.931 147.416 254.699 147.872C254.475 148.32 254.151 148.668 253.727 148.916C253.311 149.164 252.823 149.288 252.263 149.288ZM252.263 148.508C252.807 148.508 253.243 148.316 253.571 147.932C253.899 147.54 254.063 146.984 254.063 146.264C254.063 145.536 253.899 144.98 253.571 144.596C253.243 144.212 252.807 144.02 252.263 144.02C251.711 144.02 251.271 144.212 250.943 144.596C250.623 144.98 250.463 145.536 250.463 146.264C250.463 146.984 250.623 147.54 250.943 147.932C251.271 148.316 251.711 148.508 252.263 148.508ZM256.636 151.34V143.348H257.584V144.392C257.76 144.032 258.02 143.752 258.364 143.552C258.716 143.344 259.124 143.24 259.588 143.24C260.108 143.24 260.56 143.364 260.944 143.612C261.336 143.852 261.636 144.2 261.844 144.656C262.06 145.104 262.168 145.64 262.168 146.264C262.168 146.88 262.06 147.416 261.844 147.872C261.636 148.32 261.336 148.668 260.944 148.916C260.56 149.164 260.108 149.288 259.588 149.288C259.14 149.288 258.74 149.188 258.388 148.988C258.036 148.788 257.776 148.512 257.608 148.16V151.34H256.636ZM259.384 148.508C259.928 148.508 260.364 148.316 260.692 147.932C261.02 147.54 261.184 146.984 261.184 146.264C261.184 145.536 261.02 144.98 260.692 144.596C260.364 144.212 259.928 144.02 259.384 144.02C258.84 144.02 258.404 144.212 258.076 144.596C257.748 144.98 257.584 145.536 257.584 146.264C257.584 146.984 257.748 147.54 258.076 147.932C258.404 148.316 258.84 148.508 259.384 148.508ZM266.173 149.288C265.605 149.288 265.113 149.164 264.697 148.916C264.281 148.668 263.957 148.32 263.725 147.872C263.501 147.416 263.389 146.88 263.389 146.264C263.389 145.648 263.501 145.116 263.725 144.668C263.957 144.212 264.281 143.86 264.697 143.612C265.113 143.364 265.605 143.24 266.173 143.24C266.733 143.24 267.221 143.364 267.637 143.612C268.061 143.86 268.385 144.212 268.609 144.668C268.841 145.116 268.957 145.648 268.957 146.264C268.957 146.88 268.841 147.416 268.609 147.872C268.385 148.32 268.061 148.668 267.637 148.916C267.221 149.164 266.733 149.288 266.173 149.288ZM266.173 148.508C266.717 148.508 267.153 148.316 267.481 147.932C267.809 147.54 267.973 146.984 267.973 146.264C267.973 145.536 267.809 144.98 267.481 144.596C267.153 144.212 266.717 144.02 266.173 144.02C265.621 144.02 265.181 144.212 264.853 144.596C264.533 144.98 264.373 145.536 264.373 146.264C264.373 146.984 264.533 147.54 264.853 147.932C265.181 148.316 265.621 148.508 266.173 148.508ZM271.746 149.18V144.128H269.634V143.348H274.842V144.128H272.718V149.18H271.746ZM275.866 149.18V143.348H276.838V145.424H278.602C279.346 145.424 279.91 145.588 280.294 145.916C280.678 146.236 280.87 146.692 280.87 147.284C280.87 147.868 280.67 148.332 280.27 148.676C279.878 149.012 279.322 149.18 278.602 149.18H275.866ZM281.734 149.18V143.348H282.706V149.18H281.734ZM276.838 148.484H278.506C278.954 148.484 279.302 148.388 279.55 148.196C279.806 148.004 279.934 147.704 279.934 147.296C279.934 146.896 279.81 146.6 279.562 146.408C279.314 146.216 278.962 146.12 278.506 146.12H276.838V148.484Z"
          fill="#232735"/>
    <defs>
        <clipPath id="clip0_219_913">
            <rect width="59.17" height="59.17" fill="white" transform="translate(14.415 24)"/>
        </clipPath>
        <clipPath id="clip1_219_913">
            <rect width="59.18" height="59.18" fill="white" transform="translate(126.41 24)"/>
        </clipPath>
        <clipPath id="clip2_219_913">
            <rect width="59.18" height="59.18" fill="white" transform="translate(238.41 24)"/>
        </clipPath>
    </defs>
</svg>
