<svg width="168" height="34" viewBox="0 0 168 34" fill="none" xmlns="http://www.w3.org/2000/svg">
    <path d="M99.9153 7.84613H97.2627V34H106.989V31.8205H99.9153V7.84613Z" fill="#231F20"/>
    <path d="M66.3154 10.4615V7.84613H79.5786V10.4615H74.7154V34H71.6207V10.4615H66.3154Z" fill="#231F20"/>
    <path d="M82.2314 34V7.84613H92.842V10.4615H84.8841V19.6154H91.9578V21.7948H84.8841V31.8205H92.842V34H82.2314Z" fill="#231F20"/>
    <path d="M53.053 7.84613H50.4004V34H53.053V15.6923L61.0109 34H63.2214V7.84613H60.5688V25.7179L53.053 7.84613Z" fill="#231F20"/>
    <path d="M16.8 20.9231L0 10.4615V21.7949L16.8 32.2564V20.9231Z" fill="#33BE3D"/>
    <path d="M45.095 7.84613H42.4424V34H45.095V7.84613Z" fill="#231F20"/>
    <path d="M149.432 7.84613H146.779V34H149.432V7.84613Z" fill="#231F20"/>
    <path d="M7.95789 13.9487L0 9.15385L14.1474 0L22.5474 4.79487L7.95789 13.9487Z" fill="#231F20"/>
    <path d="M30.0634 19.1795L37.1371 13.9487L23.8739 6.10254L9.72656 14.8205L18.5687 20.0513V34H30.0634V19.1795Z" fill="#091BAD"/>
    <path fill-rule="evenodd" clip-rule="evenodd"
          d="M113.179 7.84613C111.714 7.84613 110.526 9.01708 110.526 10.4615V31.3846C110.526 32.829 111.714 34 113.179 34H122.021C123.486 34 124.674 32.829 124.674 31.3846V10.4615C124.674 9.01708 123.486 7.84613 122.021 7.84613H113.179ZM114.063 10.4615C113.575 10.4615 113.179 10.8518 113.179 11.3333V30.5128C113.179 30.9943 113.575 31.3846 114.063 31.3846H121.137C121.625 31.3846 122.021 30.9943 122.021 30.5128V11.3333C122.021 10.8518 121.625 10.4615 121.137 10.4615H114.063Z"
          fill="#231F20"/>
    <path d="M142.358 9.84613V14.8205H139.705V10.4615H131.747V31.3846H139.705V23.5384H135.726V20.9231H140.358C141.462 20.9231 142.358 21.8185 142.358 22.9231V32C142.358 33.1045 141.462 34 140.358 34H131.095C129.99 34 129.095 33.1045 129.095 32V9.84613C129.095 8.74156 129.99 7.84613 131.095 7.84613H140.358C141.462 7.84613 142.358 8.74156 142.358 9.84613Z"
          fill="#231F20"/>
    <path d="M168 15.2564H165.348V10.4615H157.39V15.2564L167.307 23.8119C167.747 24.1918 168 24.7446 168 25.3262V32C168 33.1045 167.105 34 166 34H156.737C155.633 34 154.737 33.1045 154.737 32V26.1538H157.39V31.3846H165.348V26.1538L155.431 17.5983C154.99 17.2184 154.737 16.6656 154.737 16.084V9.84613C154.737 8.74156 155.633 7.84613 156.737 7.84613H166C167.105 7.84613 168 8.74156 168 9.84613V15.2564Z"
          fill="#231F20"/>
</svg>
