<svg width="60" height="60" viewBox="0 0 60 60" fill="none" xmlns="http://www.w3.org/2000/svg">
    <path fill-rule="evenodd" clip-rule="evenodd"
          d="M49.3607 16.2598C49.3607 16.907 48.8447 17.4316 48.2083 17.4316C47.572 17.4316 47.0559 16.907 47.0559 16.2598V3.51562C47.0559 2.86945 46.539 2.34375 45.9036 2.34375H3.95712C3.32171 2.34375 2.80475 2.86945 2.80475 3.51562V56.4844C2.80475 57.1305 3.32171 57.6562 3.95712 57.6562H45.9036C46.539 57.6562 47.0559 57.1305 47.0559 56.4844V47.8509C47.0559 47.2037 47.572 46.6791 48.2083 46.6791C48.8447 46.6791 49.3607 47.2037 49.3607 47.8509V56.4844C49.3607 58.4229 47.8098 60 45.9036 60H3.95712C2.05087 60 0.5 58.4229 0.5 56.4844V3.51562C0.5 1.57711 2.05087 0 3.95712 0H45.9036C47.8098 0 49.3607 1.57711 49.3607 3.51562V16.2598ZM14.3285 17.1094C14.3285 11.1646 19.0845 6.32812 24.9303 6.32812C30.7762 6.32812 35.5322 11.1646 35.5322 17.1094C35.5322 20.1934 34.2519 22.9787 32.2037 24.9456C32.1653 24.9877 32.1239 25.0268 32.0799 25.0628C30.1934 26.818 27.6827 27.8905 24.9302 27.8905C22.1778 27.8905 19.6671 26.8181 17.7806 25.0628C17.736 25.0268 17.6952 24.9873 17.6568 24.9456C15.6088 22.9787 14.3285 20.1934 14.3285 17.1094ZM19.9186 23.828C21.312 24.9056 23.0486 25.5469 24.9303 25.5469C26.8121 25.5469 28.5486 24.9056 29.9421 23.828C28.9293 22.0016 27.0393 20.8594 24.9303 20.8594C22.8214 20.8594 20.9314 22.0016 19.9186 23.828ZM23.0865 15.8789V16.6406C23.0865 17.6745 23.9137 18.5156 24.9303 18.5156C25.947 18.5156 26.7741 17.6745 26.7741 16.6406V15.8789C26.7741 14.8451 25.947 14.0039 24.9303 14.0039C23.9137 14.0039 23.0865 14.8451 23.0865 15.8789ZM28.212 19.2171C29.5892 19.8373 30.7662 20.8406 31.6072 22.1113C32.6246 20.7105 33.2274 18.9805 33.2274 17.1094C33.2274 12.4569 29.5054 8.67188 24.9303 8.67188C20.3553 8.67188 16.6333 12.4569 16.6333 17.1094C16.6333 18.9805 17.2361 20.7105 18.2535 22.1113C19.0945 20.8406 20.2715 19.8373 21.6487 19.2171C21.106 18.5038 20.7818 17.6102 20.7818 16.6406V15.8789C20.7818 13.5526 22.6428 11.6602 24.9303 11.6602C27.2179 11.6602 29.0789 13.5526 29.0789 15.8789V16.6406C29.0789 17.6102 28.7547 18.5038 28.212 19.2171ZM24.9303 51.3281H31.1532C31.7895 51.3281 32.3055 51.8528 32.3055 52.5C32.3055 53.1472 31.7895 53.6719 31.1532 53.6719H24.9303C24.294 53.6719 23.778 53.1472 23.778 52.5C23.778 51.8528 24.294 51.3281 24.9303 51.3281ZM14.7895 44.7656H31.1532C31.7895 44.7656 32.3055 45.2903 32.3055 45.9375C32.3055 46.5847 31.7895 47.1094 31.1532 47.1094H14.7895C14.1531 47.1094 13.6371 46.5847 13.6371 45.9375C13.6371 45.2903 14.1531 44.7656 14.7895 44.7656ZM14.7895 38.2031H31.1532C31.7895 38.2031 32.3055 38.7278 32.3055 39.375C32.3055 40.0222 31.7895 40.5469 31.1532 40.5469H14.7895C14.1531 40.5469 13.6371 40.0222 13.6371 39.375C13.6371 38.7278 14.1531 38.2031 14.7895 38.2031ZM9.86651 31.6406C10.1723 31.6414 10.4654 31.7648 10.6823 31.984C10.8967 32.202 11.02 32.5043 11.02 32.8125C11.02 33.1207 10.8966 33.423 10.6823 33.641C10.4669 33.859 10.1707 33.9844 9.86651 33.9844C9.56113 33.9831 9.26849 33.8598 9.05178 33.641C8.83732 33.423 8.71413 33.1207 8.71413 32.8125C8.71413 32.5043 8.83743 32.202 9.05178 31.984C9.266 31.766 9.56332 31.6406 9.86651 31.6406ZM9.86651 38.2031C10.1722 38.2041 10.4653 38.3275 10.6823 38.5465C10.8967 38.7645 11.02 39.0668 11.02 39.375C11.02 39.6832 10.8966 39.9855 10.6823 40.2035C10.4669 40.4215 10.1707 40.5469 9.86651 40.5469C9.56113 40.5456 9.26849 40.4223 9.05178 40.2035C8.83732 39.9855 8.71413 39.6832 8.71413 39.375C8.71413 39.0668 8.83743 38.7645 9.05178 38.5465C9.26727 38.3285 9.56332 38.2031 9.86651 38.2031ZM9.86651 44.7656C10.1722 44.7666 10.4653 44.89 10.6823 45.109C10.8967 45.327 11.02 45.6293 11.02 45.9375C11.02 46.2457 10.8966 46.548 10.6823 46.766C10.468 46.984 10.1707 47.1094 9.86651 47.1094C9.56108 47.1084 9.26835 46.985 9.05178 46.766C8.83732 46.548 8.71413 46.2457 8.71413 45.9375C8.71413 45.6293 8.83743 45.327 9.05178 45.109C9.26727 44.891 9.56332 44.7656 9.86651 44.7656ZM14.7895 31.6406H31.1532C31.7895 31.6406 32.3055 32.1653 32.3055 32.8125C32.3055 33.4597 31.7895 33.9844 31.1532 33.9844H14.7895C14.1531 33.9844 13.6371 33.4597 13.6371 32.8125C13.6371 32.1653 14.1531 31.6406 14.7895 31.6406ZM53.4083 14.7802C54.6572 14.44 55.9615 14.6146 57.081 15.2719C59.3922 16.6289 60.1869 19.6451 58.8525 21.9954L44.3509 47.5379C44.2714 47.678 44.1643 47.7998 44.0363 47.8956L36.6283 53.4437C36.4303 53.5921 36.1908 53.6721 35.9449 53.672C35.7828 53.6719 35.6225 53.6371 35.4746 53.5697C35.3266 53.5024 35.1943 53.4041 35.0862 53.2812C34.9782 53.1583 34.8968 53.0137 34.8474 52.8567C34.7981 52.6997 34.7818 52.5339 34.7998 52.37L35.8205 43.0719C35.8382 42.9112 35.8883 42.756 35.9678 42.6159L50.4695 17.0734C51.1158 15.9349 52.1596 15.1205 53.4083 14.7802ZM37.9155 45.1127L37.3825 49.968L41.2507 47.0709L37.9155 45.1127ZM38.54 42.773L42.9311 45.3511L54.5684 24.8538L50.1773 22.2757L38.54 42.773ZM55.7206 22.8241L56.8565 20.8234C57.0238 20.5305 57.1324 20.2068 57.1758 19.871C57.2193 19.5352 57.1968 19.194 57.1097 18.8671C57.0244 18.5397 56.8761 18.2328 56.6733 17.9641C56.4706 17.6954 56.2174 17.4702 55.9285 17.3017C55.6406 17.1315 55.3223 17.0211 54.992 16.9769C54.6618 16.9327 54.3262 16.9555 54.0048 17.0441C53.6828 17.1309 53.381 17.2817 53.1168 17.4879C52.8525 17.6941 52.6312 17.9515 52.4654 18.2453L51.3295 20.246L55.7206 22.8241Z"
          fill="#0D9B1B"/>
</svg>
