<svg width="37" height="44" viewBox="0 0 37 44" fill="none" xmlns="http://www.w3.org/2000/svg">
    <path fill-rule="evenodd" clip-rule="evenodd"
          d="M13.3822 3.27041C14.7023 2.51608 15.8579 3.17202 15.8579 4.6807C15.8579 5.99303 14.9031 7.5837 13.7656 8.23964C12.9627 8.69216 12.1977 8.6372 11.713 8.19532C11.3893 7.90015 11.1904 7.43301 11.1904 6.82936C11.2899 5.51747 12.1435 3.92636 13.3822 3.27041ZM11.6751 11.5198C11.8595 11.5198 12.1435 11.6182 12.1435 11.7986L13.4654 15.0788L14.8868 9.73236C14.8868 9.63397 14.9881 9.53558 14.9881 9.53558C15.0912 9.43453 15.1978 9.3029 15.3064 9.17215C15.3913 9.06888 15.4745 8.96606 15.5559 8.87919C17.0786 7.09174 18.0316 4.84513 18.0316 2.97524C18.0316 0.252623 16.225 -0.780491 13.8506 0.630235C11.2899 2.05692 9.19936 5.71425 9.19936 8.61681C9.19936 9.74876 9.48328 10.5851 10.0529 11.0607C10.4363 11.4214 11.006 11.6182 11.6751 11.5198ZM26.665 15.6696L15.1707 22.1639L0.0651026 13.7177L8.14506 9.19121C8.24633 10.3063 8.61344 11.2246 9.28255 11.7826C9.8522 12.2418 10.6045 12.5206 11.3731 12.5206L13.1815 16.8831C13.2647 17.0634 13.4654 17.1618 13.6499 17.1618C13.7457 17.1618 13.818 17.1392 13.8777 17.1024C13.979 17.0386 14.0369 16.9327 14.0947 16.8263L14.1182 16.7847L15.9248 10.2079C15.9447 10.1685 15.9646 10.1335 15.9845 10.102C16.0225 10.0382 16.0605 9.98898 16.0984 9.94555C16.1346 9.90477 16.1708 9.86887 16.2087 9.83076C16.5108 9.97657 16.395 9.89369 16.3136 9.83563L16.2612 9.7953C16.2702 9.78378 16.8742 10.1255 20.4404 12.1447L20.6104 12.2405L21.2235 12.5879L21.6195 12.8126L26.665 15.6696ZM22.0626 29.5437L17.4963 27.0511L16.8272 26.5755L28.2527 20.0972L33.4899 23.0658L22.0626 29.5437ZM14.8145 22.6922L0.188074 14.4401C0.15914 14.4064 0.128397 14.3843 0.0994624 14.3696C0.0452102 14.3408 0 14.3408 0 14.3408V14.523V25.0704L15.6843 33.8029V24.0005C15.5812 23.5369 15.2069 22.8743 14.8145 22.6922ZM16.3914 24.3125V25.7064L27.7681 19.2285V17.293C27.7681 17.0142 27.5836 16.6371 27.3829 16.3747L15.8236 22.9514C16.1075 23.2958 16.3914 23.8534 16.3914 24.3125ZM0.752297 29.4502C0.385191 29.1714 0 28.6138 0 28.1383V25.4321L15.3009 34.3299V37.9708L6.08348 32.7392C5.98402 31.9029 5.69829 31.1645 5.22991 30.4102C4.74526 29.6722 4.09242 29.0163 3.42331 28.6391L3.35459 28.6059C3.00557 28.4383 2.87175 28.3741 2.74697 28.3882L2.70357 28.3967L2.64932 28.4157C2.60049 28.4352 2.54624 28.464 2.47752 28.5008C2.41784 28.5327 2.34731 28.5704 2.2587 28.6138C1.94946 28.7326 1.6782 28.9799 1.47566 29.2658C1.37077 29.4138 1.28397 29.5725 1.22067 29.7289L0.752297 29.4502ZM34.9258 36.7857C34.2729 37.1628 33.5025 36.7857 33.5025 36.0477C33.5025 35.3918 33.9709 34.5714 34.5406 34.2926C35.2929 33.9155 35.962 34.2926 35.962 35.1294C35.962 35.6706 35.4773 36.4085 34.9258 36.7857ZM32.649 37.2448L30.8605 38.278C30.676 38.3763 30.2908 38.3763 30.2076 38.0976C30.1696 38.0311 30.1461 37.938 30.1461 37.8423C30.1443 37.6774 30.2112 37.5037 30.3921 37.4416L32.1806 36.4249C32.3651 36.3265 32.7502 36.3265 32.8515 36.6053C32.9347 36.8841 32.8334 37.1628 32.649 37.2448ZM27.1713 40.3681C27.1171 40.2901 27.0718 40.1988 27.0393 40.0964C26.9995 39.9661 26.9778 39.8181 26.9778 39.6559C26.9778 38.9995 27.4462 38.1796 28.0158 37.8844C28.7681 37.5072 29.4372 37.8844 29.4372 38.7207C29.4372 39.3771 28.9689 40.1314 28.401 40.4922C28.1026 40.6522 27.8404 40.701 27.6234 40.6606C27.4353 40.6252 27.2816 40.5228 27.1713 40.3681ZM36.6383 31.9946L37 31.7837L36.8987 36.6053V36.7857L25.5727 43.2804V38.278L36.6383 31.9946ZM25.909 35.8018H26.0917C26.193 35.8018 26.2761 35.8018 26.2761 35.9002L35.4936 30.6849C35.6781 30.5865 35.7793 30.3078 35.6781 30.1274L34.2566 25.3709C34.2566 25.3168 34.2006 25.2676 34.1337 25.218L34.0903 25.1861L34.074 25.1754C34.0378 25.1484 34.0017 25.1209 33.9727 25.0921C33.8968 25.0518 33.8208 25.0279 33.7503 25.0208C33.6508 25.0101 33.5622 25.0341 33.5043 25.0921L24.3864 30.3078C24.2019 30.4062 24.1024 30.6849 24.2019 30.8653L25.6233 35.523C25.6233 35.5881 25.7029 35.6458 25.7879 35.706L25.8457 35.7481C25.8693 35.7659 25.891 35.7836 25.909 35.8018ZM34.9258 24.2558L36.9168 30.7669C21.0571 39.7051 26.5601 36.6381 25.3231 37.376L23.3321 31.0457C23.2489 30.8653 23.0481 30.4882 22.8637 30.2094L26.5601 28.0607L34.5406 23.5998C34.7413 23.7966 34.8245 23.977 34.9258 24.2558ZM4.37092 33.5658C4.41613 33.5902 4.46134 33.615 4.51197 33.615V33.4182C4.51197 32.5655 4.0436 31.3515 3.09057 30.5972L3.02727 30.54C2.86813 30.3951 2.77229 30.3073 2.50464 30.22V30.4988C2.50464 31.5319 3.27502 32.959 4.22806 33.5166C4.27869 33.5166 4.3239 33.541 4.37092 33.5658ZM1.9368 29.2853C2.42146 29.0885 3.17375 29.4657 3.65841 29.8428C4.79589 30.6956 5.465 32.2043 5.36554 33.3198C5.36554 33.697 5.28236 34.2709 4.89717 34.5497C4.79589 34.6481 4.69643 34.6481 4.51197 34.6481C4.32752 34.6481 3.94413 34.5661 3.65841 34.3693C2.42146 33.7134 1.36716 31.9255 1.36716 30.5152C1.36716 30.0396 1.45034 29.4821 1.9368 29.2853ZM21.3645 42.9777C21.3898 42.9883 21.417 42.9959 21.4441 42.9959V42.7171C21.4441 42.632 21.4441 42.5505 21.4369 42.4707C21.426 42.3648 21.4007 42.2619 21.3446 42.1591C21.2578 41.7292 21.0462 41.2776 20.7696 40.872C20.4549 40.4111 20.0552 40.0091 19.6538 39.7649C19.6049 39.7649 19.5579 39.7401 19.5127 39.7157C19.4657 39.6909 19.4205 39.6665 19.3698 39.6665V39.9453C19.3698 40.962 20.2234 42.3395 21.1602 42.8975C21.2108 42.8975 21.256 42.9219 21.303 42.9467L21.3645 42.9777ZM20.2234 38.945C21.2596 39.4861 22.0969 40.7816 22.3808 41.9787C22.6648 43.5534 22.0969 44.4718 20.6918 43.7502C19.4711 43.0943 18.4331 41.3392 18.4331 39.9617C18.4331 39.5025 18.5344 38.945 19.0027 38.7646C19.3698 38.5842 19.9395 38.7646 20.2234 38.945ZM22.9071 36.58C22.9577 36.592 23.0084 36.592 23.0644 36.592C23.3845 36.592 23.7028 36.3181 23.5907 35.9476L21.8998 31.2589C21.8347 31.1574 21.7696 31.0236 21.6882 30.9101C21.6285 30.8254 21.558 30.7523 21.4694 30.7111L17.2233 28.6001C17.131 28.5035 16.905 28.5035 16.6988 28.6001C16.4909 28.6001 16.3787 28.7933 16.3787 28.9706V33.0149C16.3787 33.1922 16.4909 33.3858 16.6988 33.4661L22.7461 36.4954C22.8022 36.5441 22.8546 36.5681 22.9071 36.58ZM18.0714 35.6263C18.2143 35.6028 18.3409 35.5345 18.3879 35.3998C18.6139 35.1259 18.5018 34.852 18.1817 34.7553L17.131 34.2075C16.905 34.1109 16.4909 34.2075 16.3787 34.3848C16.2666 34.5621 16.3787 34.9326 16.5849 35.0293L17.6555 35.5771C17.7604 35.6263 17.9231 35.6502 18.0714 35.6263ZM22.4261 31.0816C22.4261 30.985 24.8674 37.8813 24.8674 38.0586C24.9813 38.2518 24.8674 38.1552 24.9994 38.2518V43.569C24.8873 43.569 24.7734 43.4883 23.2905 42.7472C23.1783 41.1841 21.9197 39.2508 20.2108 38.4291C18.5018 37.6074 17.131 38.1552 16.6988 39.3474V39.444L15.7404 38.9769V27.2306L16.4909 27.6011C16.3607 27.5453 17.5198 28.1374 18.8888 28.8244C19.8834 29.3239 20.9884 29.8734 21.7877 30.2599C21.9938 30.4372 22.3139 30.8077 22.4261 31.0816Z"
          fill="#7C7E87"/>
</svg>
