<svg width="32" height="44" viewBox="0 0 32 44" fill="none" xmlns="http://www.w3.org/2000/svg">
    <path fill-rule="evenodd" clip-rule="evenodd"
          d="M4.53593 15.923L29.9974 1.28768C30.0397 1.28768 30.0618 1.26764 30.0849 1.2467C30.1102 1.22376 30.1367 1.19972 30.1923 1.19972L28.3319 0.0915165C28.0484 -0.0843891 27.6763 0.0035637 27.3219 0.267422C22.0184 3.31183 18.7865 5.18191 15.9472 6.82481L15.9471 6.82483L15.9471 6.82487C11.9945 9.1119 8.80284 10.9587 1.84272 14.9204C0.832769 15.4657 0 17.0312 0 18.1394L0.0885924 41.1479C0.0885924 41.6053 0.177185 41.9747 0.460681 42.0626L2.32112 43.1708L2.32109 43.1574C2.32068 43.1574 2.31484 43.3246 2.23253 19.9864C2.12622 18.5088 3.15389 16.6618 4.53593 15.923ZM25.283 35.8179L25.2827 35.8178C24.8996 35.6683 24.1332 35.3693 22.5031 34.7272L13.4844 39.8636C14.4219 40.636 14.8317 41.0014 15.0456 41.1922L15.0457 41.1922L15.0457 41.1922C15.2117 41.3403 15.2597 41.3831 15.3448 41.4292C16.3725 41.9745 17.7545 41.8866 18.4987 41.4292L25.7456 37.2954C26.4189 36.926 26.4189 36.3807 25.7633 36.0113C25.6659 35.9673 25.6658 35.9673 25.283 35.8179ZM6.34363 38.298L29.2182 25.3161C29.2575 25.2771 29.2968 25.2174 29.3376 25.1553C29.3888 25.0773 29.4425 24.9957 29.5017 24.9467L29.4131 6.26556C29.4131 6.17761 29.3068 5.98411 29.1296 5.89616C28.9524 5.8082 28.7575 5.8082 28.6689 5.89616L5.79436 18.878C5.68805 18.9659 5.59946 19.0715 5.59946 19.2474L5.68805 37.9286C5.68805 38.298 6.06014 38.4739 6.34363 38.298ZM17.0279 35.4307L18.5162 34.604C18.7111 34.4281 18.7997 34.1466 18.6934 33.9531C18.5871 33.6893 18.215 33.6893 18.0378 33.7772L16.5495 34.604C16.2837 34.7095 16.2837 35.0789 16.3723 35.2548C16.4609 35.5187 16.7444 35.5187 17.0279 35.4307ZM30.5116 2.11418C31.2558 1.65683 31.9114 1.92069 31.9114 2.94094L32 25.9494C32 27.0576 31.1672 28.6232 30.1396 29.1685C23.8677 32.7265 18.1552 36.0069 12.247 39.3996L12.2458 39.4004C9.74207 40.8381 7.20323 42.296 4.57178 43.8038C3.73902 44.2612 3.17202 43.8918 3.17202 42.9771C3.09931 17.0597 3.08628 19.7992 3.08394 20.2901L3.08358 20.3496L3.08343 19.9686C3.08343 18.8604 3.9162 17.2948 4.94387 16.7495L30.5116 2.11418ZM8.82464 30.5056V22.9944L11.1635 21.6927V24.3841C11.1635 24.5776 11.2521 24.7535 11.447 24.8414C11.4913 24.8414 11.54 24.8634 11.5887 24.8854C11.6374 24.9074 11.6862 24.9294 11.7305 24.9294C11.8191 24.9294 11.9077 24.9294 12.014 24.8414L14.8135 23.1703C14.9907 23.0824 15.097 22.8889 15.097 22.713V19.4587L17.3472 18.157V25.9496C17.3472 26.0376 17.2586 26.1255 17.1523 26.2311L9.39163 30.6815C9.10813 30.963 8.82464 30.7695 8.82464 30.5056ZM13.963 20.1096V22.5195L12.0848 23.6277V21.2178L13.963 20.1096ZM19.7099 16.2037L26.443 12.3513C26.6379 12.2634 26.9214 12.3513 27.0985 12.5272C27.2049 12.7207 27.0985 13.0901 26.9214 13.1781L20.1883 17.0304C19.9934 17.136 19.6213 17.0304 19.5328 16.8545C19.4264 16.661 19.5328 16.2916 19.7099 16.2037ZM26.443 15.8686L19.7099 19.7209C19.5328 19.8089 19.4264 20.1783 19.5328 20.3718C19.6213 20.5477 19.9934 20.6532 20.1883 20.5477L26.9214 16.6953C27.0985 16.6074 27.2049 16.238 27.0985 16.0445C26.9214 15.8686 26.6379 15.7806 26.443 15.8686ZM19.7099 23.239L26.443 19.3867C26.6379 19.2987 26.9214 19.3867 27.0985 19.5626C27.2049 19.7561 27.0985 20.1255 26.9214 20.2135L20.1883 24.0658C19.9934 24.1713 19.6213 24.0658 19.5328 23.8899C19.4264 23.6964 19.5328 23.327 19.7099 23.239Z"
          fill="#7C7E87"/>
</svg>
